<?xml version="1.0" encoding="UTF-8" standalone="no"?>
<!-- Created with Inkscape (http://www.inkscape.org/) -->

<svg
   xmlns:dc="http://purl.org/dc/elements/1.1/"
   xmlns:cc="http://creativecommons.org/ns#"
   xmlns:rdf="http://www.w3.org/1999/02/22-rdf-syntax-ns#"
   xmlns:svg="http://www.w3.org/2000/svg"
   xmlns="http://www.w3.org/2000/svg"
   xmlns:sodipodi="http://sodipodi.sourceforge.net/DTD/sodipodi-0.dtd"
   xmlns:inkscape="http://www.inkscape.org/namespaces/inkscape"
   width="4.6795616mm"
   height="10.681052mm"
   viewBox="0 0 4.6795616 10.681052"
   version="1.1"
   id="svg6246"
   inkscape:version="0.92.3 (2405546, 2018-03-11)"
   sodipodi:docname="1.svg">
  <defs
     id="defs6240" />
  <sodipodi:namedview
     id="base"
     pagecolor="#ffffff"
     bordercolor="#666666"
     borderopacity="1.0"
     inkscape:pageopacity="0.0"
     inkscape:pageshadow="2"
     inkscape:zoom="5.6"
     inkscape:cx="40.986112"
     inkscape:cy="23.397142"
     inkscape:document-units="mm"
     inkscape:current-layer="layer1"
     showgrid="false"
     inkscape:snap-page="false"
     inkscape:window-width="1366"
     inkscape:window-height="719"
     inkscape:window-x="0"
     inkscape:window-y="25"
     inkscape:window-maximized="1" />
  <metadata
     id="metadata6243">
    <rdf:RDF>
      <cc:Work
         rdf:about="">
        <dc:format>image/svg+xml</dc:format>
        <dc:type
           rdf:resource="http://purl.org/dc/dcmitype/StillImage" />
        <dc:title></dc:title>
      </cc:Work>
    </rdf:RDF>
  </metadata>
  <g
     inkscape:label="Livello 1"
     inkscape:groupmode="layer"
     id="layer1"
     transform="translate(-94.989091,-134.98834)">
    <g
       transform="matrix(0.35277777,0,0,-0.35277777,86.271776,241.97455)"
       id="g6297">
      <path
         d="m 34.2031,293.031 c 0,0.408 -0.3097,0.739 -0.6914,0.739 h -4.2953 c -0.3816,0 -0.6914,-0.331 -0.6914,-0.739 v -0.369 h 5.6781 v 0.369"
         style="fill:#252e3a;fill-opacity:1;fill-rule:nonzero;stroke:none;stroke-width:0.1"
         id="path1210"
         inkscape:connector-curvature="0" />
      <path
         d="M 34.2031,292.435 H 28.525 v -0.844 h 5.6781 v 0.844"
         style="fill:#252e3a;fill-opacity:1;fill-rule:nonzero;stroke:none;stroke-width:0.1"
         id="path1212"
         inkscape:connector-curvature="0" />
      <path
         d="m 31.3641,288.875 c -0.218,0 -0.395,0.189 -0.395,0.422 0,0.233 0.177,0.423 0.395,0.423 0.2179,0 0.3949,-0.19 0.3949,-0.423 0,-0.233 -0.177,-0.422 -0.3949,-0.422 z m 2.839,-0.561 v 3.032 H 28.525 v -3.032 c 0,-0.204 0.0773,-0.389 0.2023,-0.523 l 0.0336,-0.033 c 0.1743,-0.163 0.425,-0.192 0.6375,-0.093 0.436,0.203 1.1563,0.457 2.0645,0.438 0.8105,-0.017 1.4559,-0.247 1.8684,-0.439 0.225,-0.105 0.491,-0.06 0.666,0.124 0.1269,0.134 0.2058,0.32 0.2058,0.526"
         style="fill:#252e3a;fill-opacity:1;fill-rule:nonzero;stroke:none;stroke-width:0.1"
         id="path1214"
         inkscape:connector-curvature="0" />
      <path
         d="m 36.8254,279.004 0.216,0.074 0.1012,0.206 -0.286,0.833 -0.8683,-0.298 c 0.173,-0.661 -0.1903,-1.354 -0.8473,-1.579 -0.657,-0.226 -1.3695,0.098 -1.6387,0.726 l -0.8683,-0.298 0.2859,-0.833 0.2063,-0.101 0.2164,0.074 c 0.1812,0.063 0.3785,-0.034 0.441,-0.215 l 0.2062,-0.101 2.5192,0.864 0.1008,0.207 c -0.0621,0.181 0.0343,0.378 0.2156,0.441"
         style="fill:#252e3a;fill-opacity:1;fill-rule:nonzero;stroke:none;stroke-width:0.1"
         id="path1216"
         inkscape:connector-curvature="0" />
      <path
         d="m 32.591,287.718 c -0.3672,0.093 -0.7437,0.144 -1.1262,0.152 -0.1484,0.003 -0.2972,-0.002 -0.4457,-0.012 0.3321,-0.858 0.8676,-2.353 1.0739,-2.953 0.5476,-1.594 0.8867,-3.03 1.1019,-4.211 l -0.2719,-0.093 -0.1011,-0.207 c 0.0625,-0.181 -0.034,-0.379 -0.2156,-0.441 l -0.2161,-0.074 -0.1007,-0.207 0.2855,-0.833 0.8684,0.299 c -0.1731,0.66 0.1906,1.353 0.8476,1.579 0.657,0.226 1.3692,-0.098 1.6387,-0.726 l 0.8683,0.298 -0.2859,0.832 -0.2066,0.102 -0.216,-0.075 c -0.1813,-0.062 -0.379,0.035 -0.4411,0.216 l -0.2066,0.101 -0.3582,-0.123 c -0.5555,1.064 -1.1695,2.406 -1.716,4 -0.1629,0.476 -0.5086,1.523 -0.7766,2.376"
         style="fill:#252e3a;fill-opacity:1;fill-rule:nonzero;stroke:none;stroke-width:0.1"
         id="path1218"
         inkscape:connector-curvature="0" />
      <path
         d="m 31.3641,281.324 c 0.5285,0 1.0015,-0.237 1.3195,-0.61 l 0.1637,0.107 0.0812,0.028 c -0.2414,1.273 -0.5738,2.541 -0.9883,3.777 -0.189,0.021 -0.3812,0.033 -0.5761,0.033 -2.7996,0 -5.0692,-2.27 -5.0692,-5.069 0,-2.8 2.2696,-5.069 5.0692,-5.069 2.2425,0 4.1449,1.456 4.8129,3.475 l -2.1114,-0.725 -0.1281,-0.021 c -0.1645,0 -0.3184,0.103 -0.3746,0.267 l -0.1445,0.071 -0.2164,-0.074 c -0.2063,-0.071 -0.4321,0.039 -0.5028,0.245 l -0.1836,0.535 c -0.3062,-0.273 -0.7093,-0.438 -1.1515,-0.438 -0.9578,0 -1.734,0.776 -1.734,1.734 0,0.957 0.7762,1.734 1.734,1.734"
         style="fill:#252e3a;fill-opacity:1;fill-rule:nonzero;stroke:none;stroke-width:0.1"
         id="path1220"
         inkscape:connector-curvature="0" />
      <path
         d="m 33.7168,279.058 c 0.2223,-0.519 0.8145,-0.781 1.3484,-0.598 0.534,0.184 0.8403,0.754 0.6977,1.3 l -0.0188,0.071 -0.0289,0.067 c -0.2222,0.519 -0.8148,0.782 -1.3484,0.598 -0.5344,-0.183 -0.8406,-0.754 -0.6977,-1.3 l 0.0188,-0.071 0.0289,-0.067"
         style="fill:#252e3a;fill-opacity:1;fill-rule:nonzero;stroke:none;stroke-width:0.1"
         id="path1222"
         inkscape:connector-curvature="0" />
      <path
         d="m 35.366,281.686 c 0.2067,0.071 0.432,-0.04 0.5031,-0.246 l 0.0575,-0.065 0.0871,-0.006 0.0867,0.03 c -0.3742,0.978 -1.0426,1.812 -1.8973,2.391 0.3028,-0.736 0.6348,-1.459 0.9949,-2.162 l 0.168,0.058"
         style="fill:#252e3a;fill-opacity:1;fill-rule:nonzero;stroke:none;stroke-width:0.1"
         id="path1224"
         inkscape:connector-curvature="0" />
      <path
         d="m 27.9785,301.84 0.1192,-0.066 0.2894,0.083 0.1192,-0.066 0.382,-1.337 -0.0664,-0.119 -0.066,-0.119 0.0773,-0.271 0.1188,-0.066 0.1191,-0.066 0.2465,-0.877 0.1187,-0.066 0.0426,0.012 0.0664,0.119 -0.2465,0.877 0.066,0.119 0.0665,0.119 -0.0774,0.27 -0.1191,0.067 -0.1192,0.066 -0.3816,1.336 0.066,0.12 0.2895,0.082 0.066,0.119 -0.077,0.271 -0.1191,0.066 -0.9918,-0.283 -0.066,-0.119 0.0769,-0.271"
         style="fill:#252e3a;fill-opacity:1;fill-rule:nonzero;stroke:none;stroke-width:0.1"
         id="path1226"
         inkscape:connector-curvature="0" />
      <path
         d="m 33.3523,299.997 0.0661,-0.119 -0.2461,-0.877 0.066,-0.119 0.0426,-0.012 0.1191,0.066 0.2461,0.877 0.1191,0.066 0.1192,0.066 0.0769,0.271 -0.066,0.119 -0.066,0.119 0.382,1.337 0.1188,0.066 0.2894,-0.083 0.1192,0.066 0.0773,0.271 -0.066,0.119 -0.9922,0.283 -0.1187,-0.066 -0.0774,-0.271 0.066,-0.119 0.2895,-0.082 0.0664,-0.12 -0.382,-1.336 -0.1192,-0.066 -0.1187,-0.067 -0.0778,-0.27 0.0664,-0.119"
         style="fill:#252e3a;fill-opacity:1;fill-rule:nonzero;stroke:none;stroke-width:0.1"
         id="path1228"
         inkscape:connector-curvature="0" />
      <path
         d="m 32.1355,300.216 c 0.3786,-0.039 0.7254,-0.104 1.0301,-0.188 l 4e-4,0.125 0.0774,0.271 0.0906,0.126 c -0.3457,0.096 -0.7328,0.168 -1.1508,0.209 l 0.0031,-0.038 v -0.365 l -0.0508,-0.14"
         style="fill:#252e3a;fill-opacity:1;fill-rule:nonzero;stroke:none;stroke-width:0.1"
         id="path1230"
         inkscape:connector-curvature="0" />
      <path
         d="m 29.4844,300.424 0.0773,-0.271 0.0031,-0.112 c 0.3043,0.08 0.6493,0.142 1.0247,0.178 l -0.0481,0.137 v 0.365 l 0.0043,0.042 c -0.4227,-0.039 -0.8144,-0.109 -1.1644,-0.205 l 0.1031,-0.134"
         style="fill:#252e3a;fill-opacity:1;fill-rule:nonzero;stroke:none;stroke-width:0.1"
         id="path1232"
         inkscape:connector-curvature="0" />
      <path
         inkscape:export-ydpi="96"
         inkscape:export-xdpi="96"
         d="m 35.0371,285.133 v 13.988 c 0,0.446 -0.3449,0.84 -0.9266,1.135 l -0.0078,-0.078 -0.0769,-0.27 -0.134,-0.15 c 0.3812,-0.194 0.6016,-0.42 0.6016,-0.637 v -0.773 h -0.7442 c -0.1578,0 -0.2855,-0.127 -0.2855,-0.285 0,-0.158 0.1277,-0.286 0.2855,-0.286 h 0.7442 v -12.325 l -0.2629,0.13 c -0.136,0.064 -0.2977,0.006 -0.3614,-0.131 -0.0636,-0.136 -0.005,-0.297 0.1309,-0.361 0.2094,-0.098 0.4152,-0.209 0.6129,-0.33 l 0.0055,-0.003 h 4e-4 c 1.7613,-1.127 2.8128,-3.046 2.8128,-5.133 0,-3.358 -2.7312,-6.089 -6.0886,-6.089 -3.3575,0 -6.0887,2.731 -6.0887,6.089 0,2.087 1.0516,4.006 2.8129,5.133 l 0.1086,0.07 c 0.1789,0.106 0.364,0.205 0.5519,0.293 0.1364,0.064 0.195,0.226 0.1313,0.362 -0.0637,0.136 -0.2254,0.194 -0.3617,0.131 -0.1024,-0.048 -0.2039,-0.1 -0.3047,-0.153 v 12.317 h 0.7863 c 0.1574,0 0.2856,0.128 0.2856,0.286 0,0.158 -0.1282,0.285 -0.2856,0.285 h -0.7863 v 0.773 c 0,0.22 0.2285,0.451 0.6226,0.647 l -0.1129,0.14 -0.0773,0.27 -0.0051,0.099 c -0.6082,-0.296 -0.9711,-0.699 -0.9711,-1.156 v -13.988 c -1.8429,-1.237 -2.9383,-3.285 -2.9383,-5.509 0,-3.657 2.9754,-6.633 6.6325,-6.633 3.657,0 6.6324,2.976 6.6324,6.633 0,2.224 -1.0957,4.272 -2.9383,5.509"
         style="fill:#252e3a;fill-opacity:1;fill-rule:nonzero;stroke:none;stroke-width:0.1"
         id="path1234"
         inkscape:connector-curvature="0" />
      <path
         d="m 32.0266,300.832 -0.0766,0.087 -0.1211,0.138 h -0.9301 l -0.1207,-0.138 -0.0765,-0.087 -0.0762,-0.087 v -0.4 l 0.0762,-0.087 0.0765,-0.087 v -0.54 c 0,-0.099 0.0649,-0.181 0.1535,-0.208 v -0.426 c 0,-0.117 0.0832,-0.212 0.1856,-0.212 h 0.1992 l 0.0477,0.054 -0.0477,0.055 h -0.1992 l -0.0899,0.103 v 0.416 h 0.0911 c 0.0101,-0.186 0.1043,-0.332 0.2195,-0.332 h 0.0523 c 0.1149,0 0.2094,0.146 0.2196,0.332 h 0.125 c 0.1187,0 0.2152,0.098 0.2152,0.218 v 0.54 0 l 0.0766,0.087 0.0761,0.087 v 0.4 l -0.0761,0.087"
         style="fill:#252e3a;fill-opacity:1;fill-rule:nonzero;stroke:none;stroke-width:0.1"
         id="path1236"
         inkscape:connector-curvature="0" />
      <path
         d="m 31.3641,303.268 -0.2262,-0.091 c -0.0688,-0.064 -0.1035,-0.158 -0.1035,-0.253 v -0.234 l -0.0406,-0.147 c -0.0934,-0.338 -0.1407,-0.687 -0.1407,-1.038 v -0.271 l 0.1192,-0.121 h 0.3918 0.3918 l 0.1187,0.121 v 0.271 c 0,0.351 -0.0473,0.7 -0.1402,1.038 l -0.0406,0.147 v 0.243 c 0,0.147 -0.095,0.277 -0.234,0.32 z m 0,-0.176 0.0453,-0.007 0.1109,-0.152 v -0.267 l 0.0067,-0.023 0.0406,-0.148 c 0.089,-0.322 0.1344,-0.655 0.1344,-0.99 v -0.216 h -0.3379 -0.3379 v 0.216 c 0,0.335 0.0453,0.668 0.1343,0.991 l 0.0407,0.147 0.0062,0.023 v 0.024 0.234 l 0.0481,0.124 0.1086,0.044"
         style="fill:#252e3a;fill-opacity:1;fill-rule:nonzero;stroke:none;stroke-width:0.1"
         id="path1238"
         inkscape:connector-curvature="0" />
    </g>
  </g>
</svg>
