<?xml version="1.0" encoding="UTF-8" standalone="no"?>
<!-- Created with Inkscape (http://www.inkscape.org/) -->

<svg
   xmlns:dc="http://purl.org/dc/elements/1.1/"
   xmlns:cc="http://creativecommons.org/ns#"
   xmlns:rdf="http://www.w3.org/1999/02/22-rdf-syntax-ns#"
   xmlns:svg="http://www.w3.org/2000/svg"
   xmlns="http://www.w3.org/2000/svg"
   xmlns:sodipodi="http://sodipodi.sourceforge.net/DTD/sodipodi-0.dtd"
   xmlns:inkscape="http://www.inkscape.org/namespaces/inkscape"
   width="4.2757726mm"
   height="10.87755mm"
   viewBox="0 0 4.2757726 10.87755"
   version="1.1"
   id="svg7071"
   inkscape:version="0.92.3 (2405546, 2018-03-11)"
   sodipodi:docname="11.svg">
  <defs
     id="defs7065" />
  <sodipodi:namedview
     id="base"
     pagecolor="#ffffff"
     bordercolor="#666666"
     borderopacity="1.0"
     inkscape:pageopacity="0.0"
     inkscape:pageshadow="2"
     inkscape:zoom="0.35"
     inkscape:cx="-3.3483722"
     inkscape:cy="17.698841"
     inkscape:document-units="mm"
     inkscape:current-layer="layer1"
     showgrid="false"
     inkscape:window-width="1366"
     inkscape:window-height="719"
     inkscape:window-x="0"
     inkscape:window-y="25"
     inkscape:window-maximized="1" />
  <metadata
     id="metadata7068">
    <rdf:RDF>
      <cc:Work
         rdf:about="">
        <dc:format>image/svg+xml</dc:format>
        <dc:type
           rdf:resource="http://purl.org/dc/dcmitype/StillImage" />
        <dc:title></dc:title>
      </cc:Work>
    </rdf:RDF>
  </metadata>
  <g
     inkscape:label="Livello 1"
     inkscape:groupmode="layer"
     id="layer1"
     transform="translate(-106.71926,-142.6386)">
    <g
       transform="matrix(0.35277777,0,0,-0.35277777,97.800047,171.77032)"
       id="g7050">
      <path
         d="m 35.7531,82.5781 h -8.8207 c -0.9109,0 -1.6496,-0.7383 -1.6496,-1.65 v -0.389 c 0,-0.2801 0.227,-0.5071 0.507,-0.5071 h 11.1063 c 0.2801,0 0.507,0.227 0.507,0.5071 v 0.389 c 0,0.9117 -0.7386,1.65 -1.65,1.65"
         style="fill:#252e3a;fill-opacity:1;fill-rule:nonzero;stroke:none;stroke-width:0.1"
         id="path202"
         inkscape:connector-curvature="0" />
      <path
         d="m 25.7898,77.6469 h 11.1063 c 0.2801,0 0.507,0.2269 0.507,0.507 v 0.675 c 0,0.2801 -0.2269,0.507 -0.507,0.507 H 25.7898 c -0.28,0 -0.507,-0.2269 -0.507,-0.507 v -0.675 c 0,-0.2801 0.227,-0.507 0.507,-0.507"
         style="fill:#252e3a;fill-opacity:1;fill-rule:nonzero;stroke:none;stroke-width:0.1"
         id="path204"
         inkscape:connector-curvature="0" />
      <path
         d="m 31.343,53.127 c -1.2262,0 -2.2418,0.9 -2.4239,2.075 -0.014,0.091 -0.0941,0.157 -0.1863,0.157 h -1.3 c -0.1043,0 -0.1887,-0.084 -0.1887,-0.1891 v -1.8117 c 0,-0.2742 0.2227,-0.4961 0.4969,-0.4961 h 0.0113 c 0.5778,0 1.1383,-0.182 1.6149,-0.5082 0.5625,-0.3848 1.243,-0.6098 1.9758,-0.6098 0.7328,0 1.4133,0.225 1.9754,0.6098 0.4769,0.3262 1.0375,0.5082 1.6152,0.5082 h 0.0113 c 0.2746,0 0.4969,0.2219 0.4969,0.4961 v 1.8117 c 0,0.1051 -0.0848,0.1891 -0.1891,0.1891 h -1.2996 c -0.0922,0 -0.1722,-0.066 -0.1863,-0.157 -0.182,-1.175 -1.1977,-2.075 -2.4238,-2.075"
         style="fill:#252e3a;fill-opacity:1;fill-rule:nonzero;stroke:none;stroke-width:0.1"
         id="path206"
         inkscape:connector-curvature="0" />
      <path
         d="m 31.343,72.0949 c -0.6703,0 -1.2141,0.543 -1.2141,1.2141 0,0.6699 0.5438,1.214 1.2141,1.214 0.6703,0 1.214,-0.5441 1.214,-1.214 0,-0.6711 -0.5437,-1.2141 -1.214,-1.2141 z m 6.0601,4.35 c 0,0.2801 -0.2269,0.5071 -0.507,0.5071 H 25.7898 c -0.28,0 -0.507,-0.227 -0.507,-0.5071 v -0.7398 -0.141 -3.6032 c 0,-0.83 0.6731,-1.5031 1.5027,-1.5031 h 1.4532 c 0.6304,0 1.1586,-0.4769 1.2215,-1.1047 0.1035,-1.0281 0.1648,-2.9652 0.1554,-3.709 -0.0172,-1.357 -0.2652,-5.3351 -0.5597,-6.2582 -0.1836,-0.5757 -0.7207,-0.948 -1.3246,-0.9597 -0.27,-0.0051 -0.4872,-0.2262 -0.4872,-0.4973 v -1.9391 c 0,-0.1039 0.0844,-0.1886 0.1887,-0.1886 h 1.3 c 0.0922,0 0.1723,0.0668 0.1863,0.1578 0.1821,1.175 1.1977,2.075 2.4239,2.075 1.2261,0 2.2422,-0.9 2.4238,-2.075 0.0141,-0.091 0.0941,-0.1578 0.1863,-0.1578 h 1.2996 c 0.1043,0 0.1891,0.0847 0.1891,0.1886 v 1.9391 c 0,0.2711 -0.2172,0.4922 -0.4871,0.4973 -0.6039,0.0117 -1.141,0.384 -1.3246,0.9597 -0.2946,0.9231 -0.543,4.9012 -0.5598,6.2582 -0.0094,0.7438 0.052,2.6809 0.1555,3.709 0.0629,0.6278 0.591,1.1047 1.2215,1.1047 h 1.4531 c 0.8297,0 1.5027,0.6731 1.5027,1.5031 v 3.6032 0.141 0.7398"
         style="fill:#252e3a;fill-opacity:1;fill-rule:nonzero;stroke:none;stroke-width:0.1"
         id="path208"
         inkscape:connector-curvature="0" />
    </g>
  </g>
</svg>
