<?xml version="1.0" encoding="UTF-8" standalone="no"?>
<!-- Created with Inkscape (http://www.inkscape.org/) -->

<svg
   xmlns:dc="http://purl.org/dc/elements/1.1/"
   xmlns:cc="http://creativecommons.org/ns#"
   xmlns:rdf="http://www.w3.org/1999/02/22-rdf-syntax-ns#"
   xmlns:svg="http://www.w3.org/2000/svg"
   xmlns="http://www.w3.org/2000/svg"
   xmlns:sodipodi="http://sodipodi.sourceforge.net/DTD/sodipodi-0.dtd"
   xmlns:inkscape="http://www.inkscape.org/namespaces/inkscape"
   width="11.189405mm"
   height="6.5151mm"
   viewBox="0 0 11.189405 6.5151"
   version="1.1"
   id="svg7429"
   inkscape:version="0.92.3 (2405546, 2018-03-11)"
   sodipodi:docname="13.svg">
  <defs
     id="defs7423" />
  <sodipodi:namedview
     id="base"
     pagecolor="#ffffff"
     bordercolor="#666666"
     borderopacity="1.0"
     inkscape:pageopacity="0.0"
     inkscape:pageshadow="2"
     inkscape:zoom="0.35"
     inkscape:cx="44.002475"
     inkscape:cy="-44.830845"
     inkscape:document-units="mm"
     inkscape:current-layer="layer1"
     showgrid="false"
     inkscape:window-width="1366"
     inkscape:window-height="719"
     inkscape:window-x="0"
     inkscape:window-y="25"
     inkscape:window-maximized="1" />
  <metadata
     id="metadata7426">
    <rdf:RDF>
      <cc:Work
         rdf:about="">
        <dc:format>image/svg+xml</dc:format>
        <dc:type
           rdf:resource="http://purl.org/dc/dcmitype/StillImage" />
        <dc:title></dc:title>
      </cc:Work>
    </rdf:RDF>
  </metadata>
  <g
     inkscape:label="Livello 1"
     inkscape:groupmode="layer"
     id="layer1"
     transform="translate(-94.191012,-130.45674)">
    <g
       transform="matrix(0.35277777,0,0,-0.35277777,22.29208,143.75124)"
       id="g7324">
      <path
         d="m 218.983,25.5961 h 0.115 l 0.067,0.0668 v 0.466 l -0.067,0.0672 h -0.115 l -0.131,-0.1301 v -0.3398 l 0.131,-0.1301"
         style="fill:#252e3a;fill-opacity:1;fill-rule:nonzero;stroke:none;stroke-width:0.1"
         id="path3990"
         inkscape:connector-curvature="0" />
      <path
         d="m 219.416,25.4398 h 0.286 v -1.166 c 0,-0.0968 0.079,-0.1758 0.176,-0.1758 h 0.3 c 0.097,0 0.176,0.079 0.176,0.1758 v 1.166 h 0.286 c 0.1,0 0.182,0.0813 0.182,0.1821 v 0.548 c 0,0.1012 -0.082,0.1821 -0.182,0.1821 h -1.224 c -0.1,0 -0.182,-0.0809 -0.182,-0.1821 v -0.548 c 0,-0.1008 0.082,-0.1821 0.182,-0.1821"
         style="fill:#252e3a;fill-opacity:1;fill-rule:nonzero;stroke:none;stroke-width:0.1"
         id="path3992"
         inkscape:connector-curvature="0" />
      <path
         d="m 218.417,22.832 0.131,0.1309 h 0.398 l 0.131,-0.1309 v -0.2601 l -0.131,-0.1309 h -0.398 l -0.131,0.1309 z m 0,0.759 0.131,0.1309 h 0.398 l 0.131,-0.1309 v -0.2601 l -0.131,-0.1297 h -0.398 l -0.131,0.1297 z m 0,0.7602 0.131,0.1297 h 0.398 l 0.131,-0.1297 v -0.2614 l -0.131,-0.1296 h -0.398 l -0.131,0.1296 z m 0,1.0039 0.131,0.1308 h 0.398 l 0.131,-0.1308 v -0.2602 l -0.131,-0.1308 h -0.398 l -0.131,0.1308 z m 0.039,-3.3821 h 2.423 c 0.199,0 0.36,0.1622 0.36,0.361 v 3.1742 c 0,0.1988 -0.161,0.3609 -0.36,0.3609 v -0.2472 c 0,-0.1321 -0.107,-0.2387 -0.239,-0.2387 h -0.114 v -2.8113 l -0.13,-0.1309 h -0.752 l -0.13,0.1309 v 2.8113 h -0.098 c -0.114,0 -0.21,0.0797 -0.234,0.1879 l -0.084,-0.0332 h -0.115 c -0.104,0 -0.188,0.084 -0.188,0.1883 v 0.1429 h -0.339 c -0.199,0 -0.36,-0.1621 -0.36,-0.3609 V 22.334 c 0,-0.1988 0.161,-0.361 0.36,-0.361"
         style="fill:#252e3a;fill-opacity:1;fill-rule:nonzero;stroke:none;stroke-width:0.1"
         id="path3994"
         inkscape:connector-curvature="0" />
      <path
         d="m 218.925,23.5699 h -0.355 v -0.2168 h 0.355 v 0.2168"
         style="fill:#252e3a;fill-opacity:1;fill-rule:nonzero;stroke:none;stroke-width:0.1"
         id="path3996"
         inkscape:connector-curvature="0" />
      <path
         d="m 218.925,24.3289 h -0.355 v -0.2168 h 0.355 v 0.2168"
         style="fill:#252e3a;fill-opacity:1;fill-rule:nonzero;stroke:none;stroke-width:0.1"
         id="path3998"
         inkscape:connector-curvature="0" />
      <path
         d="m 218.925,25.334 h -0.355 v -0.218 h 0.355 v 0.218"
         style="fill:#252e3a;fill-opacity:1;fill-rule:nonzero;stroke:none;stroke-width:0.1"
         id="path4000"
         inkscape:connector-curvature="0" />
      <path
         d="M 218.925,22.8109 H 218.57 V 22.593 h 0.355 v 0.2179"
         style="fill:#252e3a;fill-opacity:1;fill-rule:nonzero;stroke:none;stroke-width:0.1"
         id="path4002"
         inkscape:connector-curvature="0" />
      <path
         d="m 219.878,23.9461 -0.212,0.0777 V 22.593 h 0.708 v 1.4191 l -0.196,-0.066 h -0.3"
         style="fill:#252e3a;fill-opacity:1;fill-rule:nonzero;stroke:none;stroke-width:0.1"
         id="path4004"
         inkscape:connector-curvature="0" />
      <path
         d="m 221.443,20.45 -0.017,0.0281 -0.017,0.027 -0.021,0.0258 -0.022,0.0261 -0.024,0.0231 -0.025,0.0238 -0.027,0.0211 -0.059,0.0391 -0.062,0.0347 -0.136,0.0532 -0.07,0.0199 -0.073,0.0152 -0.147,0.0168 -0.074,0.002 -0.074,-8e-4 -0.147,-0.0141 -0.072,-0.0121 -0.071,-0.016 -0.07,-0.0199 -0.067,-0.0239 -0.128,-0.0601 -0.111,-0.0789 -0.048,-0.0461 -0.042,-0.0508 -0.035,-0.0531 -0.024,-0.0469 -0.249,0.0066 -0.019,0.0442 -0.033,0.0558 -0.041,0.0532 -0.047,0.0492 -0.054,0.0437 -0.06,0.0391 -0.132,0.0609 -0.069,0.0243 -0.072,0.0187 -0.072,0.0152 -0.074,0.011 -0.074,0.0058 -0.075,0.0032 -0.038,7e-4 -0.036,-7e-4 -0.074,-0.0039 -0.075,-0.0082 -0.073,-0.011 -0.073,-0.016 -0.071,-0.0211 -0.135,-0.0539 -0.062,-0.0352 -0.058,-0.0398 -0.027,-0.0211 -0.025,-0.0238 -0.024,-0.0242 -0.021,-0.025 -0.021,-0.0258 -0.017,-0.0281 -0.017,-0.027 -0.013,-0.0289 0.012,0.123 0.004,0.0079 0.015,0.032 0.018,0.0289 0.019,0.0293 0.022,0.0269 0.022,0.0258 0.024,0.025 0.025,0.0242 0.027,0.0207 0.057,0.0411 0.06,0.0351 0.129,0.0539 0.067,0.0199 0.07,0.0153 0.07,0.0109 0.069,0.007 0.072,0.0032 0.037,8e-4 h 0.035 l 0.071,-0.004 0.07,-0.007 0.07,-0.0101 0.07,-0.0149 0.067,-0.0191 0.066,-0.0239 0.124,-0.0628 0.107,-0.0864 0.046,-0.0496 0.041,-0.0551 0.033,-0.0589 0.028,-0.0633 0.008,-0.018 0.017,0.0012 0.285,0.0078 0.012,0.0012 0.004,0.0109 0.024,0.0648 0.032,0.0622 0.039,0.0589 0.046,0.0532 0.052,0.048 0.058,0.0418 0.128,0.0652 0.067,0.0231 0.07,0.018 0.071,0.0136 0.071,0.0082 0.072,0.0051 0.072,8e-4 0.036,-8e-4 0.036,-0.0019 0.071,-0.0051 0.071,-0.009 0.071,-0.0109 0.068,-0.0172 0.068,-0.0211 0.129,-0.0547 0.06,-0.0363 0.056,-0.0411 0.027,-0.0207 0.024,-0.025 0.025,-0.0242 0.022,-0.0269 0.021,-0.027 0.016,-0.0238 0.029,-0.1922 z m -0.008,-0.2262 -0.003,0.0063 -0.013,0.0187 -0.012,0.0184 -0.017,0.0168 -0.017,0.018 -0.02,0.016 -0.021,0.0172 -0.024,0.0148 -0.025,0.0141 -0.027,0.014 -0.057,0.025 -0.061,0.0219 -0.133,0.034 -0.069,0.0121 -0.071,0.0098 -0.144,0.0101 -0.073,0.002 -0.073,-8e-4 -0.143,-0.009 -0.071,-0.007 -0.07,-0.0114 -0.068,-0.0117 -0.066,-0.016 -0.125,-0.0383 -0.109,-0.05 -0.047,-0.0289 -0.041,-0.032 -0.035,-0.034 -0.003,-0.0039 h -0.278 l -0.004,0.007 -0.033,0.036 -0.04,0.0332 -0.047,0.0308 -0.053,0.0282 -0.058,0.0238 -0.129,0.039 -0.068,0.0149 -0.071,0.0133 -0.071,0.009 -0.072,0.007 -0.073,0.0039 -0.073,0.0019 h -0.037 l -0.036,-0.0011 -0.072,-0.002 -0.073,-0.0051 -0.072,-0.0066 -0.071,-0.0102 -0.069,-0.0128 -0.133,-0.0352 -0.061,-0.0219 -0.057,-0.025 -0.027,-0.014 -0.024,-0.0153 -0.023,-0.0148 -0.021,-0.016 -0.02,-0.016 -0.017,-0.018 -0.017,-0.0168 -0.013,-0.0192 -0.013,-0.0179 -0.003,-0.0071 -0.017,0.1168 0.006,0.0153 0.027,0.0539 0.014,0.0262 0.019,0.025 0.018,0.0238 0.021,0.023 0.022,0.0219 0.024,0.0211 0.024,0.0199 0.027,0.018 0.056,0.034 0.059,0.0301 0.127,0.046 0.066,0.0161 0.068,0.014 0.069,0.009 0.068,0.0051 0.071,0.0027 0.036,0.0012 h 0.034 l 0.07,-0.0031 0.07,-0.0059 0.068,-0.009 0.068,-0.0121 0.067,-0.0172 0.065,-0.0199 0.121,-0.0527 0.106,-0.0723 0.045,-0.043 0.04,-0.0461 0.033,-0.05 0.027,-0.0519 0.008,-0.016 h 0.017 l 0.28,0.0082 h 0.012 l 0.004,0.0097 0.023,0.0551 0.031,0.052 0.039,0.0492 0.045,0.0449 0.051,0.041 0.057,0.0352 0.126,0.0547 0.067,0.0191 0.068,0.016 0.07,0.011 0.07,0.007 0.07,0.0039 0.072,0.0012 h 0.035 l 0.035,-0.002 0.07,-0.0051 0.07,-0.007 0.069,-0.0101 0.068,-0.0137 0.066,-0.0172 0.127,-0.0469 0.059,-0.0301 0.055,-0.0351 0.026,-0.018 0.024,-0.0199 0.025,-0.0211 0.021,-0.0219 0.021,-0.023 0.018,-0.025 0.018,-0.0238 0.015,-0.0262 0.027,-0.0539 0.006,-0.016 z m -0.076,-0.2008 -0.007,0.0098 -0.013,0.0192 -0.016,0.0171 -0.016,0.018 -0.02,0.016 -0.02,0.016 -0.023,0.0149 -0.023,0.0148 -0.026,0.0141 -0.055,0.025 -0.059,0.0223 -0.128,0.0328 -0.066,0.0129 -0.069,0.0101 -0.138,0.0102 -0.07,0.0019 -0.07,-0.0011 -0.138,-0.009 -0.068,-0.0078 -0.067,-0.0102 -0.065,-0.0129 -0.064,-0.0152 -0.12,-0.0379 -0.105,-0.05 -0.045,-0.0289 -0.018,-0.0141 -0.04,0.1301 0.017,0.0269 0.031,0.0329 0.037,0.0312 0.045,0.0289 0.05,0.025 0.056,0.0231 0.123,0.0339 0.065,0.0129 0.067,0.0102 0.069,0.007 0.068,0.0039 0.069,0.0032 h 0.07 0.034 l 0.035,-0.0012 0.069,-0.0031 0.068,-0.0039 0.068,-0.0071 0.066,-0.009 0.065,-0.0109 0.124,-0.0301 0.058,-0.0179 0.054,-0.0219 0.026,-0.0121 0.024,-0.0129 0.024,-0.0129 0.02,-0.0141 0.021,-0.0152 0.018,-0.0149 0.018,-0.016 0.014,-0.016 0.026,-0.034 0.015,-0.0261 z m -0.197,-0.2289 -0.003,0.0039 -0.014,0.0168 -0.018,0.0172 -0.018,0.016 -0.021,0.0149 -0.021,0.0152 -0.024,0.0129 -0.049,0.025 -0.053,0.0219 -0.115,0.034 -0.06,0.0133 -0.062,0.0089 -0.125,0.011 -0.063,8e-4 -0.063,-8e-4 -0.125,-0.0082 -0.061,-0.0078 -0.06,-0.0102 -0.059,-0.0129 -0.058,-0.0148 -0.108,-0.0383 -0.022,-0.0109 -0.102,0.171 0.028,0.0239 0.043,0.0281 0.048,0.0262 0.054,0.0218 0.118,0.0352 0.063,0.0129 0.064,0.009 0.066,0.007 0.066,0.0051 0.066,0.0027 h 0.068 0.033 l 0.033,-8e-4 0.066,-0.0031 0.066,-0.0051 0.065,-0.0058 0.064,-0.009 0.062,-0.0109 0.12,-0.0301 0.055,-0.0192 0.052,-0.0218 0.025,-0.011 0.023,-0.0133 0.023,-0.0128 0.02,-0.0141 0.02,-0.0149 0.017,-0.0148 0.017,-0.016 0.014,-0.0172 0.024,-0.0328 z m -0.556,-0.1839 c -0.267,0 -0.491,0.1046 -0.637,0.2808 l 0.025,0.011 0.106,0.0351 0.057,0.0117 0.058,0.0102 0.059,0.007 0.06,0.0051 0.06,0.0019 0.06,8e-4 0.03,-8e-4 0.03,-0.0011 0.06,-0.0028 0.059,-0.0043 0.059,-0.0058 0.057,-0.009 0.057,-0.0109 0.107,-0.0301 0.051,-0.0192 0.046,-0.0218 0.023,-0.011 0.02,-0.0129 0.021,-0.0132 0.018,-0.0149 0.018,-0.014 0.015,-0.0161 0.012,-0.0109 c -0.145,-0.1051 -0.33,-0.1648 -0.531,-0.1648 z m -1.142,0.4898 -0.014,0.0109 -0.045,0.0313 -0.051,0.0277 -0.056,0.0242 -0.124,0.0391 -0.065,0.0148 -0.068,0.0122 -0.068,0.0097 -0.07,0.0071 -0.07,0.0039 -0.07,0.0019 h -0.036 l -0.034,-8e-4 -0.069,-0.0019 -0.071,-0.0051 -0.069,-0.007 -0.068,-0.0098 -0.067,-0.0133 -0.127,-0.0347 -0.059,-0.0223 -0.054,-0.025 -0.026,-0.0141 -0.024,-0.0148 -0.022,-0.0149 -0.02,-0.016 -0.02,-0.0172 -0.016,-0.0168 -0.016,-0.0171 -0.012,-0.0192 -0.008,-0.0109 -0.066,0.1613 0.014,0.0238 0.026,0.034 0.014,0.0172 0.018,0.0148 0.018,0.0161 0.021,0.014 0.021,0.0141 0.024,0.0129 0.023,0.0129 0.027,0.0121 0.054,0.0211 0.058,0.0187 0.124,0.0293 0.065,0.011 0.067,0.0078 0.067,0.0058 0.068,0.0032 0.069,0.0019 0.036,0.0012 0.033,-0.0012 0.068,-8e-4 0.068,-0.0043 0.068,-0.0058 0.066,-0.0078 0.065,-0.0102 0.064,-0.0129 0.119,-0.034 0.104,-0.0449 0.044,-0.0273 0.039,-0.0289 0.033,-0.0321 0.026,-0.034 0.007,-0.0078 z m -0.108,-0.1879 -0.023,0.0109 -0.112,0.0391 -0.059,0.0149 -0.061,0.0121 -0.062,0.0089 -0.062,0.0071 -0.063,0.0039 -0.064,0.0019 -0.032,0.0012 -0.031,-0.0012 -0.062,-0.0027 -0.064,-0.0051 -0.062,-0.007 -0.062,-0.0102 -0.06,-0.0129 -0.115,-0.0339 -0.053,-0.0219 -0.049,-0.0262 -0.023,-0.0129 -0.021,-0.0152 -0.021,-0.0149 -0.018,-0.0171 -0.017,-0.0161 -0.015,-0.0168 -0.004,-0.005 -0.179,0.2 0.023,0.0332 0.014,0.016 0.018,0.016 0.017,0.0148 0.02,0.0149 0.02,0.0141 0.023,0.0128 0.023,0.0133 0.025,0.011 0.052,0.0218 0.056,0.0192 0.12,0.0289 0.062,0.0101 0.064,0.009 0.065,0.0059 0.065,0.0031 0.067,0.002 h 0.034 0.032 l 0.066,-0.002 0.065,-0.0031 0.065,-0.0059 0.064,-0.0082 0.062,-0.0097 0.061,-0.0133 0.115,-0.034 0.099,-0.0457 0.043,-0.0262 0.038,-0.0301 0.005,-0.005 z m -0.658,-0.3019 c -0.202,0 -0.387,0.0597 -0.532,0.1648 l 0.011,0.0109 0.016,0.0161 0.018,0.014 0.018,0.0149 0.021,0.0132 0.02,0.0129 0.023,0.011 0.047,0.0218 0.051,0.018 0.107,0.0293 0.057,0.0109 0.057,0.0079 0.059,0.0062 0.058,0.0039 0.06,0.0012 0.031,8e-4 h 0.029 l 0.059,-0.002 0.059,-0.0039 0.059,-0.0051 0.058,-0.0082 0.056,-0.0109 0.055,-0.0117 0.103,-0.034 0.031,-0.0141 c -0.149,-0.1691 -0.372,-0.2679 -0.631,-0.2679 z m 0,1.5019 c 0.388,0 0.715,-0.1652 0.817,-0.4883 h 0.274 c 0.101,0.3231 0.428,0.4883 0.817,0.4883 0.305,0 0.573,-0.1019 0.722,-0.3019 l -0.058,0.0457 -0.064,0.0402 -0.137,0.0641 -0.072,0.023 -0.074,0.018 -0.15,0.0199 -0.075,0.0019 -0.075,-0.0011 -0.149,-0.016 -0.074,-0.0149 -0.072,-0.0191 -0.071,-0.0239 -0.069,-0.0281 -0.129,-0.0711 -0.114,-0.0937 -0.048,-0.0551 -0.043,-0.059 -0.036,-0.064 -0.024,-0.0551 -0.254,0.0082 -0.019,0.0519 -0.033,0.0668 -0.042,0.0633 -0.048,0.0578 -0.055,0.052 -0.061,0.0461 -0.134,0.073 -0.071,0.0281 -0.072,0.0219 -0.074,0.018 -0.075,0.0129 -0.076,0.007 -0.076,0.0039 -0.039,0.0012 -0.036,-0.002 -0.075,-0.0039 -0.076,-0.009 -0.075,-0.014 -0.074,-0.0192 -0.072,-0.0238 -0.137,-0.0652 -0.063,-0.041 -0.06,-0.0469 -0.027,-0.025 -0.025,-0.0281 -0.016,-0.0188 c 0.135,0.2488 0.429,0.375 0.769,0.375 z m -0.755,4.3961 c 0,0.2828 0.23,0.5129 0.513,0.5129 h 0.244 v 0.0449 c 0,0.1559 0.127,0.282 0.283,0.282 h 0.115 l 0.034,-0.0019 c 0.06,0.0937 0.165,0.1578 0.284,0.1578 h 1.224 c 0.184,0 0.334,-0.15 0.334,-0.334 v -0.1578 c 0.237,-0.0449 0.417,-0.2531 0.417,-0.5039 V 22.334 c 0,-0.2828 -0.229,-0.5129 -0.512,-0.5129 h -2.423 c -0.283,0 -0.513,0.2301 -0.513,0.5129 z m 4.254,1.1816 h -5.059 c -0.147,0 -0.258,-0.1339 -0.231,-0.2777 0.196,-1.0402 0.372,-2.234 0.486,-3.5633 0.103,-1.1976 0.137,-2.3027 0.132,-3.2898 -0.001,-0.1891 0.15,-0.3418 0.339,-0.3418 h 1.803 1.804 c 0.189,0 0.34,0.1527 0.339,0.3418 -0.005,0.9871 0.029,2.0922 0.132,3.2898 0.113,1.3293 0.29,2.5231 0.486,3.5633 0.027,0.1438 -0.084,0.2777 -0.231,0.2777"
         style="fill:#252e3a;fill-opacity:1;fill-rule:nonzero;stroke:none;stroke-width:0.1"
         id="path4006"
         inkscape:connector-curvature="0" />
      <path
         d="m 210.485,34.8191 0.031,0.0289 -0.029,0.0321 -0.031,-0.0301 0.029,-0.0309"
         style="fill:#252e3a;fill-opacity:1;fill-rule:nonzero;stroke:none;stroke-width:0.1"
         id="path4008"
         inkscape:connector-curvature="0" />
      <path
         d="m 212.086,34.7582 0.093,0.0859 -0.086,0.093 -0.093,-0.0859 0.086,-0.093"
         style="fill:#252e3a;fill-opacity:1;fill-rule:nonzero;stroke:none;stroke-width:0.1"
         id="path4010"
         inkscape:connector-curvature="0" />
      <path
         d="m 209.77,34.8641 h 0.095 l 0.013,0.014 v 0.0528 l -0.014,0.0132 h -0.094 l -0.013,-0.0132 V 34.877 l 0.013,-0.0129"
         style="fill:#252e3a;fill-opacity:1;fill-rule:nonzero;stroke:none;stroke-width:0.1"
         id="path4012"
         inkscape:connector-curvature="0" />
      <path
         d="m 213.679,34.8301 0.005,0.0429 -0.042,0.0051 -0.005,-0.0429 0.042,-0.0051"
         style="fill:#252e3a;fill-opacity:1;fill-rule:nonzero;stroke:none;stroke-width:0.1"
         id="path4014"
         inkscape:connector-curvature="0" />
      <path
         d="m 215.011,25.757 h -0.849 l -0.055,0.0551 0.055,0.0551 h 0.849 l 0.055,-0.0551 z m 0,-0.3621 h -0.849 l -0.055,0.0551 0.055,0.0551 h 0.849 l 0.055,-0.0551 z m 0,-0.3621 h -0.849 l -0.055,0.0563 0.055,0.055 h 0.849 l 0.055,-0.055 z m 0,-0.3609 h -0.849 l -0.055,0.0551 0.055,0.055 h 0.849 l 0.055,-0.055 z m 0,-0.3617 h -0.849 l -0.055,0.0546 0.055,0.0563 h 0.849 l 0.055,-0.0563 z m 0,-0.3614 h -0.849 l -0.055,0.0551 0.055,0.0551 h 0.849 l 0.055,-0.0551 z m -0.162,2.1543 h -0.126 l 0.004,2.5449 -0.277,-0.0121 v -2.5328 h -0.127 c -0.17,0 -0.307,-0.1371 -0.307,-0.307 V 24.002 c 0,-0.17 0.137,-0.3071 0.307,-0.3071 h 0.526 c 0.17,0 0.308,0.1371 0.308,0.3071 v 1.7941 c 0,0.1699 -0.138,0.307 -0.308,0.307"
         style="fill:#252e3a;fill-opacity:1;fill-rule:nonzero;stroke:none;stroke-width:0.1"
         id="path4016"
         inkscape:connector-curvature="0" />
      <path
         d="m 213.179,24.6648 h -1.906 l -0.055,0.0551 0.055,0.0551 h 1.906 l 0.055,-0.0551 z m 0,-0.3707 h -1.906 l -0.055,0.0547 0.055,0.0551 h 1.906 l 0.055,-0.0551 z m -0.178,-0.3711 h -1.55 l -0.055,0.0551 0.055,0.0547 h 1.55 l 0.056,-0.0547 z m 0.057,1.0301 h -0.696 v 3.1367 c -0.09,-0.016 -0.178,-0.0199 -0.272,-0.0136 v -3.1231 h -0.696 c -0.202,0 -0.355,-0.1832 -0.319,-0.382 l 0.103,-0.575 c 0.028,-0.1539 0.162,-0.266 0.319,-0.266 h 0.729 0.729 c 0.157,0 0.291,0.1121 0.319,0.266 l 0.103,0.575 c 0.036,0.1988 -0.117,0.382 -0.319,0.382"
         style="fill:#252e3a;fill-opacity:1;fill-rule:nonzero;stroke:none;stroke-width:0.1"
         id="path4018"
         inkscape:connector-curvature="0" />
      <path
         d="m 208.082,26.8281 h -1.022 l -0.055,0.0551 0.055,0.0547 h 1.022 l 0.055,-0.0547 z m 0,-0.3711 h -1.022 l -0.055,0.0551 0.055,0.0551 h 1.022 l 0.055,-0.0551 z m -0.177,-0.3711 h -0.667 l -0.056,0.0551 0.056,0.0551 h 0.667 l 0.055,-0.0551 z m 0.057,1.0301 h -0.252 l 0.002,1.7141 -0.275,0.0109 v -1.725 h -0.256 c -0.202,0 -0.355,-0.1828 -0.319,-0.382 l 0.103,-0.575 c 0.028,-0.1539 0.162,-0.266 0.319,-0.266 h 0.29 0.285 c 0.156,0 0.291,0.1121 0.318,0.266 l 0.104,0.575 c 0.036,0.1992 -0.117,0.382 -0.319,0.382"
         style="fill:#252e3a;fill-opacity:1;fill-rule:nonzero;stroke:none;stroke-width:0.1"
         id="path4020"
         inkscape:connector-curvature="0" />
      <path
         d="m 230.389,31.8801 h -1.536 l -0.081,-0.0379 -0.023,-0.0871 0.01,-0.0531 c 0.044,-0.2348 0.141,-0.386 0.248,-0.386 h 0.983 c 0.18,0 0.348,0.1059 0.426,0.2692 l 0.068,0.1429 -0.005,0.1028 -0.09,0.0492"
         style="fill:#252e3a;fill-opacity:1;fill-rule:nonzero;stroke:none;stroke-width:0.1"
         id="path4022"
         inkscape:connector-curvature="0" />
      <path
         d="m 230.622,31.6629 -0.069,-0.1438 c -0.103,-0.216 -0.325,-0.355 -0.563,-0.355 h -0.983 c -0.189,0 -0.338,0.191 -0.398,0.5101 l -0.01,0.0528 0.055,0.2121 0.199,0.0937 h 1.536 l 0.219,-0.1207 z m 3.783,0.6883 h -9.472 l -0.095,-0.084 -0.403,-2.7301 0.069,-0.2199 0.212,-0.0902 7.061,0.2109 c 0.796,0.025 1.53,0.1113 1.915,0.8082 l 0.778,2.0098 -0.007,0.0652 -0.058,0.0301"
         style="fill:#252e3a;fill-opacity:1;fill-rule:nonzero;stroke:none;stroke-width:0.1"
         id="path4024"
         inkscape:connector-curvature="0" />
      <path
         d="m 212.376,34.534 h -0.074 l -0.019,-0.0129 v -0.068 l 0.019,-0.0133 h 0.074 l 0.019,0.0133 v 0.068 l -0.019,0.0129"
         style="fill:#252e3a;fill-opacity:1;fill-rule:nonzero;stroke:none;stroke-width:0.1"
         id="path4026"
         inkscape:connector-curvature="0" />
      <path
         d="m 212.208,34.534 h -0.075 l -0.018,-0.0129 v -0.068 l 0.018,-0.0133 h 0.075 l 0.018,0.0133 v 0.068 l -0.018,0.0129"
         style="fill:#252e3a;fill-opacity:1;fill-rule:nonzero;stroke:none;stroke-width:0.1"
         id="path4028"
         inkscape:connector-curvature="0" />
      <path
         d="m 212.039,34.534 h -0.075 l -0.018,-0.0129 v -0.068 l 0.018,-0.0133 h 0.075 l 0.018,0.0133 v 0.068 l -0.018,0.0129"
         style="fill:#252e3a;fill-opacity:1;fill-rule:nonzero;stroke:none;stroke-width:0.1"
         id="path4030"
         inkscape:connector-curvature="0" />
      <path
         d="m 211.87,34.534 h -0.074 l -0.019,-0.0129 v -0.068 l 0.019,-0.0133 h 0.074 l 0.019,0.0133 v 0.068 l -0.019,0.0129"
         style="fill:#252e3a;fill-opacity:1;fill-rule:nonzero;stroke:none;stroke-width:0.1"
         id="path4032"
         inkscape:connector-curvature="0" />
      <path
         d="m 217.4,31.2352 v -0.0293 l -0.014,-0.0137 h -0.023 l -0.014,0.0137 v 0.0293 l -0.023,-0.0032 c -0.131,-0.023 -0.227,-0.1371 -0.227,-0.2711 0,-0.1519 0.124,-0.275 0.276,-0.275 0.151,0 0.275,0.1231 0.275,0.275 0,0.1442 -0.11,0.261 -0.25,0.2743"
         style="fill:#252e3a;fill-opacity:1;fill-rule:nonzero;stroke:none;stroke-width:0.1"
         id="path4034"
         inkscape:connector-curvature="0" />
      <path
         d="m 222.082,31.2141 c -0.132,0.0558 -0.284,0.0019 -0.351,-0.1219 l 0.027,-0.0113 0.008,-0.0188 -0.009,-0.0211 -0.019,-0.007 -0.027,0.0121 -0.006,-0.0231 c -0.031,-0.13 0.037,-0.2621 0.16,-0.3148 0.139,-0.0602 0.301,0.0047 0.361,0.1438 0.06,0.1402 -0.005,0.3019 -0.144,0.3621"
         style="fill:#252e3a;fill-opacity:1;fill-rule:nonzero;stroke:none;stroke-width:0.1"
         id="path4036"
         inkscape:connector-curvature="0" />
      <path
         d="m 219.646,30.7441 h -0.339 l -0.021,-0.0211 v -0.0742 l 0.021,-0.0207 h 0.339 l 0.021,0.0207 v 0.0742 l -0.021,0.0211"
         style="fill:#252e3a;fill-opacity:1;fill-rule:nonzero;stroke:none;stroke-width:0.1"
         id="path4038"
         inkscape:connector-curvature="0" />
      <path
         d="m 219.156,30.7441 h -0.339 l -0.021,-0.0211 v -0.0742 l 0.021,-0.0207 h 0.339 l 0.021,0.0207 v 0.0742 l -0.021,0.0211"
         style="fill:#252e3a;fill-opacity:1;fill-rule:nonzero;stroke:none;stroke-width:0.1"
         id="path4040"
         inkscape:connector-curvature="0" />
      <path
         d="m 221.984,30.6359 c -0.187,-0.0058 -0.34,0.1481 -0.334,0.3352 0.005,0.1699 0.143,0.3078 0.313,0.3141 0.188,0.0058 0.341,-0.1473 0.335,-0.3352 -0.005,-0.1699 -0.144,-0.3078 -0.314,-0.3141 z m -0.705,0.6911 -0.024,-0.0129 h -0.128 l -0.024,0.0129 v 0.0742 l 0.024,0.0129 h 0.128 l 0.024,-0.0129 z m 0,-0.1282 -0.024,-0.0129 h -0.128 l -0.024,0.0129 v 0.0742 l 0.024,0.0129 h 0.128 l 0.024,-0.0129 z m 0,-0.1277 -0.024,-0.0129 h -0.128 l -0.024,0.0129 v 0.075 l 0.024,0.0129 h 0.128 l 0.024,-0.0129 z m 0,-0.127 -0.024,-0.014 h -0.128 l -0.024,0.014 v 0.0739 l 0.024,0.0129 h 0.128 l 0.024,-0.0129 z m -0.108,-0.2953 -0.055,-0.0558 h -0.339 l -0.056,0.0558 v 0.0742 l 0.056,0.0551 h 0.339 l 0.055,-0.0551 z m -0.489,0 -0.056,-0.0558 h -0.339 l -0.056,0.0558 v 0.0742 l 0.056,0.0551 h 0.339 l 0.056,-0.0551 z m -0.49,0 -0.056,-0.0558 h -0.339 l -0.056,0.0558 v 0.0742 l 0.056,0.0551 h 0.339 l 0.056,-0.0551 z m -0.49,0 -0.056,-0.0558 h -0.339 l -0.055,0.0558 v 0.0742 l 0.055,0.0551 h 0.339 l 0.056,-0.0551 z m -0.49,0 -0.056,-0.0558 h -0.339 l -0.055,0.0558 v 0.0742 l 0.055,0.0551 h 0.339 l 0.056,-0.0551 z m -0.558,0.2953 v 0.0739 l 0.024,0.0129 h 0.128 l 0.024,-0.0129 v -0.0739 l -0.024,-0.014 h -0.128 z m -0.069,0.3829 -0.024,-0.0129 h -0.128 l -0.024,0.0129 v 0.0742 l 0.024,0.0129 h 0.128 l 0.024,-0.0129 z m 0,-0.1282 -0.024,-0.0129 h -0.128 l -0.024,0.0129 v 0.0742 l 0.024,0.0129 h 0.128 l 0.024,-0.0129 z m 0,-0.1277 -0.024,-0.0129 h -0.128 l -0.024,0.0129 v 0.075 l 0.024,0.0129 h 0.128 l 0.024,-0.0129 z m 0,-0.127 -0.024,-0.014 h -0.128 l -0.024,0.014 v 0.0739 l 0.024,0.0129 h 0.128 l 0.024,-0.0129 z m -0.108,-0.2953 -0.056,-0.0558 h -0.339 l -0.055,0.0558 v 0.0742 l 0.055,0.0551 h 0.339 l 0.056,-0.0551 z m -1.092,-0.0129 c -0.187,-0.0058 -0.34,0.1481 -0.335,0.3352 0.006,0.1699 0.144,0.3078 0.314,0.3141 0.188,0.0058 0.341,-0.1473 0.335,-0.3352 -0.006,-0.1699 -0.144,-0.3078 -0.314,-0.3141 z m 0.779,0.3821 0.024,0.0129 h 0.128 l 0.024,-0.0129 v -0.0739 l -0.024,-0.014 h -0.128 l -0.024,0.014 z m 0.49,0.1281 0.024,0.0129 h 0.128 l 0.024,-0.0129 v -0.075 l -0.024,-0.0129 h -0.128 l -0.024,0.0129 z m 0.245,-0.1281 0.024,0.0129 h 0.128 l 0.024,-0.0129 v -0.0739 l -0.024,-0.014 h -0.128 l -0.024,0.014 z m 0.245,0 0.024,0.0129 h 0.128 l 0.023,-0.0129 v -0.0739 l -0.023,-0.014 h -0.128 l -0.024,0.014 z m 0,0.1281 0.024,0.0129 h 0.128 l 0.023,-0.0129 v -0.075 l -0.023,-0.0129 h -0.128 l -0.024,0.0129 z m 0.245,-0.1281 0.024,0.0129 h 0.128 l 0.024,-0.0129 v -0.0739 l -0.024,-0.014 h -0.128 l -0.024,0.014 z m 0,0.1281 0.024,0.0129 h 0.128 l 0.024,-0.0129 v -0.075 l -0.024,-0.0129 h -0.128 l -0.024,0.0129 z m 0,0.1269 0.024,0.0129 h 0.128 l 0.024,-0.0129 v -0.0742 l -0.024,-0.0129 h -0.128 l -0.024,0.0129 z m 0.245,-0.255 0.024,0.0129 h 0.128 l 0.023,-0.0129 v -0.0739 l -0.023,-0.014 h -0.128 l -0.024,0.014 z m 0,0.1281 0.024,0.0129 h 0.128 l 0.023,-0.0129 v -0.075 l -0.023,-0.0129 h -0.128 l -0.024,0.0129 z m 0,0.1269 0.024,0.0129 h 0.128 l 0.023,-0.0129 v -0.0742 l -0.023,-0.0129 h -0.128 l -0.024,0.0129 z m 0.245,-0.255 0.023,0.0129 h 0.128 l 0.024,-0.0129 v -0.0739 l -0.024,-0.014 h -0.128 l -0.023,0.014 z m 0,0.1281 0.023,0.0129 h 0.128 l 0.024,-0.0129 v -0.075 l -0.024,-0.0129 h -0.128 l -0.023,0.0129 z m 0.244,-0.1281 0.025,0.0129 h 0.127 l 0.024,-0.0129 v -0.0739 l -0.024,-0.014 h -0.127 l -0.025,0.014 z m 0,0.1281 0.025,0.0129 h 0.127 l 0.024,-0.0129 v -0.075 l -0.024,-0.0129 h -0.127 l -0.025,0.0129 z m 0,0.1269 0.025,0.0129 h 0.127 l 0.024,-0.0129 v -0.0742 l -0.024,-0.0129 h -0.127 l -0.025,0.0129 z m 0.246,-0.255 0.023,0.0129 h 0.128 l 0.024,-0.011 V 31.018 30.9441 30.941 l -0.024,-0.0109 h -0.128 l -0.023,0.014 z m 0.244,0 0.024,0.0129 h 0.128 l 0.024,-0.011 V 31.018 30.9441 30.941 l -0.024,-0.0109 h -0.128 l -0.024,0.014 z m 0,0.1281 0.024,0.0129 h 0.128 l 0.024,-0.0129 v -0.075 l -0.024,-0.0129 h -0.128 l -0.024,0.0129 z m 0.245,-0.1281 0.024,0.0129 h 0.128 l 0.024,-0.0129 v -0.0739 l -0.024,-0.014 h -0.128 l -0.024,0.014 z m 0,0.1281 0.024,0.0129 h 0.128 l 0.024,-0.0129 v -0.075 l -0.024,-0.0129 h -0.128 l -0.024,0.0129 z m 0,0.1269 0.024,0.0129 h 0.128 l 0.024,-0.0129 v -0.0742 l -0.024,-0.0129 h -0.128 l -0.024,0.0129 z m 1.595,0.1918 -0.07,0.0102 h -5.451 l -0.017,-0.0012 c -0.135,-0.0117 -0.232,-0.1367 -0.214,-0.2718 l 0.075,-0.6 0.156,-0.1559 h 5.451 l 0.156,0.1559 0.094,0.589 c 0.02,0.1238 -0.058,0.2442 -0.18,0.2738"
         style="fill:#252e3a;fill-opacity:1;fill-rule:nonzero;stroke:none;stroke-width:0.1"
         id="path4042"
         inkscape:connector-curvature="0" />
      <path
         d="m 220.136,30.7441 h -0.339 l -0.021,-0.0211 v -0.0742 l 0.021,-0.0207 h 0.339 l 0.021,0.0207 v 0.0742 l -0.021,0.0211"
         style="fill:#252e3a;fill-opacity:1;fill-rule:nonzero;stroke:none;stroke-width:0.1"
         id="path4044"
         inkscape:connector-curvature="0" />
      <path
         d="m 221.116,30.7441 h -0.339 l -0.021,-0.0211 v -0.0742 l 0.021,-0.0207 h 0.339 l 0.021,0.0207 v 0.0742 l -0.021,0.0211"
         style="fill:#252e3a;fill-opacity:1;fill-rule:nonzero;stroke:none;stroke-width:0.1"
         id="path4046"
         inkscape:connector-curvature="0" />
      <path
         d="m 220.626,30.7441 h -0.339 l -0.021,-0.0211 v -0.0742 l 0.021,-0.0207 h 0.339 l 0.021,0.0207 v 0.0742 l -0.021,0.0211"
         style="fill:#252e3a;fill-opacity:1;fill-rule:nonzero;stroke:none;stroke-width:0.1"
         id="path4048"
         inkscape:connector-curvature="0" />
      <path
         d="m 218.342,30.673 h -0.18 l -0.013,0.0129 0.013,0.0129 h 0.18 l 0.013,-0.0129 z m 0.079,0.0711 h -0.339 l -0.021,-0.0211 v -0.0742 l 0.021,-0.0207 h 0.339 l 0.022,0.0207 v 0.0742 l -0.022,0.0211"
         style="fill:#252e3a;fill-opacity:1;fill-rule:nonzero;stroke:none;stroke-width:0.1"
         id="path4050"
         inkscape:connector-curvature="0" />
      <path
         d="m 216.632,32.3879 0.034,-0.0149 h 0.027 l 0.052,0.0579 v 0.1531 l -0.052,0.0582 h -0.027 -0.003 l -0.031,-0.2543"
         style="fill:#252e3a;fill-opacity:1;fill-rule:nonzero;stroke:none;stroke-width:0.1"
         id="path4052"
         inkscape:connector-curvature="0" />
      <path
         d="m 222.642,32.373 h 0.027 l 0.052,0.0579 v 0.1531 l -0.052,0.0582 h -0.027 L 222.59,32.584 v -0.1531 l 0.052,-0.0579"
         style="fill:#252e3a;fill-opacity:1;fill-rule:nonzero;stroke:none;stroke-width:0.1"
         id="path4054"
         inkscape:connector-curvature="0" />
      <path
         d="m 220.01,32.2488 h 0.097 l 0.027,0.0313 v 0.4551 l -0.027,0.0308 h -0.097 l -0.027,-0.0308 v -0.4551 l 0.027,-0.0313"
         style="fill:#252e3a;fill-opacity:1;fill-rule:nonzero;stroke:none;stroke-width:0.1"
         id="path4056"
         inkscape:connector-curvature="0" />
      <path
         d="m 219.228,32.2488 h 0.096 l 0.028,0.0313 v 0.4551 l -0.028,0.0308 h -0.096 l -0.027,-0.0308 v -0.4551 l 0.027,-0.0313"
         style="fill:#252e3a;fill-opacity:1;fill-rule:nonzero;stroke:none;stroke-width:0.1"
         id="path4058"
         inkscape:connector-curvature="0" />
      <path
         d="m 219.524,32.573 h 0.287 l 0.008,0.004 0.003,0.0101 -0.038,0.2859 -0.029,0.0282 h -0.175 l -0.029,-0.0282 -0.038,-0.2859 0.003,-0.0101 0.008,-0.004"
         style="fill:#252e3a;fill-opacity:1;fill-rule:nonzero;stroke:none;stroke-width:0.1"
         id="path4060"
         inkscape:connector-curvature="0" />
      <path
         d="m 219.58,32.1141 h 0.175 l 0.029,0.0281 0.038,0.2859 -0.003,0.0098 -0.008,0.0043 h -0.287 l -0.008,-0.0043 -0.003,-0.0098 0.038,-0.2859 0.029,-0.0281"
         style="fill:#252e3a;fill-opacity:1;fill-rule:nonzero;stroke:none;stroke-width:0.1"
         id="path4062"
         inkscape:connector-curvature="0" />
      <path
         d="m 234.741,34.8879 -0.026,0.0019 -0.055,-0.05 -0.008,-0.1437 0.049,-0.059 0.027,-0.0012 0.055,0.05 0.007,0.1422 -0.049,0.0598"
         style="fill:#252e3a;fill-opacity:1;fill-rule:nonzero;stroke:none;stroke-width:0.1"
         id="path4064"
         inkscape:connector-curvature="0" />
      <path
         d="m 234.788,34.6121 -0.079,-0.073 -0.07,0.082 c 0.007,0.118 0.01,0.1781 0.017,0.2961 l 0.077,0.0687 0.07,-0.0847 c -0.006,-0.1153 -0.009,-0.1742 -0.015,-0.2891 z m -0.213,0.477 c -0.624,0.082 -1.245,0.1738 -1.868,0.2597 l -0.017,0.0301 0.024,0.0231 c 0.621,-0.0891 1.241,-0.186 1.863,-0.2688 l 0.017,-0.0242 z m -0.009,-0.1321 c -0.636,0.0731 -1.273,0.1512 -1.909,0.227 l -0.017,0.032 0.024,0.0262 c 0.635,-0.0801 1.269,-0.1633 1.905,-0.2402 l 0.017,-0.025 z m -0.008,-0.1351 c -0.652,0.0601 -1.304,0.1203 -1.956,0.1832 l -0.016,0.0328 0.023,0.0293 c 0.65,-0.0684 1.301,-0.1352 1.952,-0.2 l 0.017,-0.0242 z m -0.009,-0.136 c -0.667,0.045 -1.335,0.0871 -2.002,0.1352 l -0.017,0.0328 0.023,0.0293 c 0.666,-0.0531 1.333,-0.1012 1.999,-0.1523 l 0.018,-0.0239 z m -0.008,-0.1339 c -0.681,0.032 -1.362,0.057 -2.042,0.0902 l -0.016,0.0297 0.022,0.0293 c 0.679,-0.0383 1.359,-0.0692 2.039,-0.1051 l 0.018,-0.0231 z m -0.008,-0.1309 c -0.695,0.023 -1.39,0.0348 -2.084,0.057 l -0.016,0.0258 0.021,0.027 c 0.693,-0.0258 1.387,-0.0418 2.081,-0.0668 l 0.019,-0.0219 z m 0.557,0.407 c -0.03,0.2129 -0.198,0.3821 -0.388,0.4071 -0.665,0.0929 -1.326,0.2019 -1.989,0.3 -0.091,0.0128 -0.18,-0.0301 -0.211,-0.1293 -0.084,-0.268 -0.128,-0.4809 -0.197,-0.784 -0.037,-0.1578 0.035,-0.2739 0.142,-0.277 0.798,-0.0187 1.595,-0.0238 2.392,-0.0551 0.122,-0.0058 0.232,0.0774 0.27,0.2012 l 0.01,0.1309 -0.029,0.2062"
         style="fill:#252e3a;fill-opacity:1;fill-rule:nonzero;stroke:none;stroke-width:0.1"
         id="path4066"
         inkscape:connector-curvature="0" />
      <path
         d="m 204.62,34.8898 -0.026,-0.0019 -0.049,-0.0598 0.007,-0.1422 0.055,-0.05 0.027,0.0012 0.049,0.059 -0.008,0.1437 -0.055,0.05"
         style="fill:#252e3a;fill-opacity:1;fill-rule:nonzero;stroke:none;stroke-width:0.1"
         id="path4068"
         inkscape:connector-curvature="0" />
      <path
         d="m 204.802,34.4211 -0.021,0.0211 0.019,0.0219 c 0.694,0.025 1.388,0.041 2.081,0.0668 l 0.021,-0.027 -0.016,-0.0258 c -0.694,-0.0222 -1.389,-0.034 -2.084,-0.057 z m -0.029,0.1519 0.018,0.0231 c 0.68,0.0359 1.36,0.0668 2.039,0.1051 l 0.022,-0.0293 -0.016,-0.0297 c -0.68,-0.0332 -1.361,-0.0582 -2.042,-0.0902 z m -0.008,0.134 0.018,0.0239 c 0.666,0.0511 1.333,0.0992 1.999,0.1523 l 0.023,-0.0293 -0.017,-0.0328 c -0.667,-0.0481 -1.335,-0.0902 -2.002,-0.1352 z m -0.008,0.136 0.017,0.0242 c 0.651,0.0648 1.302,0.1316 1.952,0.2 l 0.023,-0.0293 -0.016,-0.0328 c -0.652,-0.0629 -1.304,-0.1231 -1.956,-0.1832 z m -0.008,0.134 0.017,0.025 c 0.635,0.0769 1.27,0.1601 1.905,0.2402 l 0.024,-0.0262 -0.017,-0.032 c -0.636,-0.0758 -1.273,-0.1539 -1.909,-0.227 z m -0.008,0.132 0.017,0.0242 c 0.622,0.0828 1.242,0.1797 1.863,0.2688 l 0.024,-0.0231 -0.017,-0.0301 c -0.623,-0.0859 -1.244,-0.1777 -1.868,-0.2597 z m -0.115,-0.5699 -0.079,0.073 c -0.006,0.1149 -0.009,0.1738 -0.015,0.2891 l 0.07,0.0847 0.077,-0.0687 c 0.007,-0.118 0.01,-0.1781 0.017,-0.2961 z m 2.404,0.0828 c -0.07,0.3031 -0.113,0.516 -0.197,0.784 -0.031,0.0992 -0.12,0.1421 -0.211,0.1293 -0.663,-0.0981 -1.325,-0.2071 -1.989,-0.3 -0.19,-0.025 -0.358,-0.1942 -0.388,-0.4071 l -0.029,-0.2062 0.01,-0.1309 c 0.038,-0.1238 0.148,-0.207 0.269,-0.2012 0.798,0.0313 1.595,0.0364 2.393,0.0551 0.107,0.0031 0.179,0.1192 0.142,0.277"
         style="fill:#252e3a;fill-opacity:1;fill-rule:nonzero;stroke:none;stroke-width:0.1"
         id="path4070"
         inkscape:connector-curvature="0" />
      <path
         d="m 220.855,29.868 0.076,0.007 c 0.239,0 0.434,-0.1949 0.434,-0.434 0,-0.239 -0.195,-0.434 -0.434,-0.434 -0.239,0 -0.434,0.195 -0.434,0.434 0,0.211 0.15,0.391 0.358,0.427 z m 0.076,-0.9348 c 0.28,0 0.508,0.2277 0.508,0.5078 0,0.2809 -0.228,0.5078 -0.508,0.5078 -0.28,0 -0.508,-0.2269 -0.508,-0.5078 0,-0.2801 0.228,-0.5078 0.508,-0.5078"
         style="fill:#252e3a;fill-opacity:1;fill-rule:nonzero;stroke:none;stroke-width:0.1"
         id="path4072"
         inkscape:connector-curvature="0" />
      <path
         d="m 220.914,29.043 c 0.22,-0.009 0.406,0.1621 0.415,0.3812 0.009,0.2078 -0.143,0.3848 -0.345,0.4117 l -0.001,-0.0429 -0.022,-0.0192 -0.033,0.0012 -0.019,0.0211 0.002,0.043 -0.034,-0.0032 c -0.191,-0.0257 -0.336,-0.1847 -0.344,-0.3777 -0.009,-0.2203 0.162,-0.4062 0.381,-0.4152"
         style="fill:#252e3a;fill-opacity:1;fill-rule:nonzero;stroke:none;stroke-width:0.1"
         id="path4074"
         inkscape:connector-curvature="0" />
      <path
         d="m 219.234,29.441 c 0,0.211 0.15,0.391 0.357,0.427 l 0.076,0.007 c 0.24,0 0.434,-0.1949 0.434,-0.434 0,-0.239 -0.194,-0.434 -0.434,-0.434 -0.239,0 -0.433,0.195 -0.433,0.434 z m 0.941,0 c 0,0.2809 -0.227,0.5078 -0.508,0.5078 -0.28,0 -0.507,-0.2269 -0.507,-0.5078 0,-0.2801 0.227,-0.5078 0.507,-0.5078 0.281,0 0.508,0.2277 0.508,0.5078"
         style="fill:#252e3a;fill-opacity:1;fill-rule:nonzero;stroke:none;stroke-width:0.1"
         id="path4076"
         inkscape:connector-curvature="0" />
      <path
         d="m 219.983,29.1969 c 0.127,0.164 0.106,0.3972 -0.043,0.5351 l -0.026,-0.034 -0.029,-0.0031 -0.026,0.0199 -0.004,0.0293 0.026,0.0329 -0.029,0.0171 c -0.171,0.0899 -0.381,0.0438 -0.499,-0.1089 -0.135,-0.1743 -0.103,-0.425 0.071,-0.559 0.174,-0.1352 0.425,-0.1032 0.559,0.0707"
         style="fill:#252e3a;fill-opacity:1;fill-rule:nonzero;stroke:none;stroke-width:0.1"
         id="path4078"
         inkscape:connector-curvature="0" />
      <path
         d="m 217.97,29.441 c 0,0.211 0.15,0.391 0.358,0.427 l 0.076,0.007 c 0.239,0 0.434,-0.1949 0.434,-0.434 0,-0.239 -0.195,-0.434 -0.434,-0.434 -0.239,0 -0.434,0.195 -0.434,0.434 z m 0.942,0 c 0,0.2809 -0.228,0.5078 -0.508,0.5078 -0.28,0 -0.508,-0.2269 -0.508,-0.5078 0,-0.2801 0.228,-0.5078 0.508,-0.5078 0.28,0 0.508,0.2277 0.508,0.5078"
         style="fill:#252e3a;fill-opacity:1;fill-rule:nonzero;stroke:none;stroke-width:0.1"
         id="path4080"
         inkscape:connector-curvature="0" />
      <path
         d="m 218.802,29.441 c -0.001,0.2199 -0.18,0.3981 -0.4,0.3981 -0.207,-0.0012 -0.377,-0.1602 -0.396,-0.3621 h 0.043 l 0.02,-0.0211 0.001,-0.0329 -0.021,-0.0199 h -0.043 l 0.005,-0.034 c 0.034,-0.1902 0.199,-0.3281 0.393,-0.3269 0.22,0 0.398,0.1789 0.398,0.3988"
         style="fill:#252e3a;fill-opacity:1;fill-rule:nonzero;stroke:none;stroke-width:0.1"
         id="path4082"
         inkscape:connector-curvature="0" />
      <path
         d="m 206.402,29.95 c -0.145,-0.0129 -0.201,-0.1961 -0.087,-0.2871 l 0.009,-0.0078 c 0.141,-0.1051 0.304,-0.1781 0.476,-0.2121 l 0.218,-0.011 -0.251,0.5512 -0.365,-0.0332"
         style="fill:#252e3a;fill-opacity:1;fill-rule:nonzero;stroke:none;stroke-width:0.1"
         id="path4084"
         inkscape:connector-curvature="0" />
      <path
         d="m 207.284,30.0289 -0.474,-0.0418 0.251,-0.55 c 0.098,0.0141 0.192,0.0469 0.278,0.0988 0.089,0.0532 0.151,0.1411 0.17,0.243 0.026,0.1371 -0.085,0.2609 -0.225,0.25"
         style="fill:#252e3a;fill-opacity:1;fill-rule:nonzero;stroke:none;stroke-width:0.1"
         id="path4086"
         inkscape:connector-curvature="0" />
      <path
         d="m 207.565,29.768 c -0.022,-0.118 -0.094,-0.22 -0.197,-0.2809 -0.082,-0.0492 -0.172,-0.082 -0.267,-0.1 l 0.003,-0.0051 -0.061,-0.005 -0.016,-0.0032 v 0.0012 h -0.003 l -0.076,-0.0039 -0.159,0.016 c -0.18,0.0359 -0.352,0.1129 -0.499,0.2219 l -0.011,0.009 -0.072,0.234 c 0.026,0.0871 0.099,0.1468 0.19,0.155 l 0.328,0.0289 v 0 l 0.555,0.05 0.221,-0.0879 z m -1.96,1.0468 c -0.032,0.1942 0.015,0.3774 0.132,0.5153 0.118,0.1398 0.294,0.216 0.496,0.216 0.393,0 0.745,-0.2922 0.818,-0.6789 0.035,-0.184 -0.004,-0.359 -0.11,-0.4934 -0.111,-0.1406 -0.284,-0.2238 -0.489,-0.2347 l -0.043,-0.0012 c -0.397,0 -0.738,0.2851 -0.804,0.6769 z m 1.77,0.6442 c -0.068,0.273 -0.314,0.464 -0.595,0.4629 l -1.558,-0.0059 c -0.268,-0.0012 -0.448,-0.2762 -0.342,-0.5219 0.179,-0.4132 0.439,-0.8882 0.82,-1.3632 0.146,-0.1821 0.294,-0.3438 0.439,-0.4887 0.21,-0.2102 0.495,-0.3281 0.792,-0.3281 h 0.223 c 0.398,0 0.689,0.3738 0.593,0.7597 l -0.372,1.4852"
         style="fill:#252e3a;fill-opacity:1;fill-rule:nonzero;stroke:none;stroke-width:0.1"
         id="path4088"
         inkscape:connector-curvature="0" />
      <path
         d="m 206.415,31.2648 -0.01,-0.0808 -0.002,-0.0379 v 0 l -0.041,-0.0371 -0.036,0.041 0.002,0.0109 0.013,0.0371 0.035,0.0809 0.049,0.0731 0.029,0.0261 -0.017,-0.034 z m 0.561,-0.4117 c -0.065,0.343 -0.372,0.6168 -0.743,0.6168 -0.372,0 -0.611,-0.2898 -0.553,-0.6418 0.061,-0.3672 0.396,-0.632 0.768,-0.6133 0.369,0.0192 0.593,0.2954 0.528,0.6383"
         style="fill:#252e3a;fill-opacity:1;fill-rule:nonzero;stroke:none;stroke-width:0.1"
         id="path4090"
         inkscape:connector-curvature="0" />
      <path
         d="m 206.403,33.6629 -0.007,-0.0129 0.048,-0.0238 0.006,0.0129 -0.025,0.0089 -0.022,0.0149"
         style="fill:#252e3a;fill-opacity:1;fill-rule:nonzero;stroke:none;stroke-width:0.1"
         id="path4092"
         inkscape:connector-curvature="0" />
      <path
         d="m 206.433,33.6629 0.116,0.0391 -0.039,0.116 -0.116,-0.0391 0.039,-0.116"
         style="fill:#252e3a;fill-opacity:1;fill-rule:nonzero;stroke:none;stroke-width:0.1"
         id="path4094"
         inkscape:connector-curvature="0" />
      <path
         d="m 206.319,33.6988 0.029,0.0102 0.011,-0.0059 -0.006,-0.0109 -0.029,-0.0102 -0.006,0.0012 -0.005,0.0047 z m 0.003,0.116 0.012,0.0043 0.027,-0.014 0.004,-0.011 -0.011,-0.0043 -0.028,0.0133 z m 0.056,-0.0277 0.14,0.0469 0.047,-0.1399 -0.096,-0.057 -0.013,-0.0262 -0.012,-0.0039 -0.063,0.0309 -0.004,0.0121 0.013,0.0262 z m 0.041,0.1117 0.011,-0.0058 0.009,-0.0289 -0.005,-0.011 -0.007,8e-4 -0.004,0.0051 -0.01,0.0289 z m 0.102,-0.0406 0.013,0.0277 0.012,0.0039 0.004,-0.0117 -0.014,-0.0269 -0.011,-0.0043 z m 0.057,-0.1703 0.011,0.0031 0.028,-0.0129 0.003,-0.0121 -0.011,-0.0039 -0.028,0.0141 z m 0.011,0.1012 0.03,0.0101 0.011,-0.0062 -0.006,-0.011 -0.029,-0.009 h -0.007 l -0.004,0.0051 z m -0.065,-0.2059 h -0.007 l -0.004,0.0047 -0.009,0.0293 0.005,0.0109 0.011,-0.0051 0.01,-0.0289 z m -0.31,0.5457 c -0.09,0 -0.167,-0.0641 -0.182,-0.1539 -0.028,-0.1668 0.054,-0.332 0.204,-0.4109 l 0.434,-0.2282 0.243,0.5102 -0.626,0.268 -0.073,0.0148"
         style="fill:#252e3a;fill-opacity:1;fill-rule:nonzero;stroke:none;stroke-width:0.1"
         id="path4096"
         inkscape:connector-curvature="0" />
      <path
         d="m 207.102,33.552 -0.121,-0.061 0.028,-0.1328 0.018,0.0367 0.162,-0.0777 0.057,0.1199 -0.162,0.0777 0.018,0.0372"
         style="fill:#252e3a;fill-opacity:1;fill-rule:nonzero;stroke:none;stroke-width:0.1"
         id="path4098"
         inkscape:connector-curvature="0" />
      <path
         d="m 216.901,33.2539 0.016,0.0082 0.093,0.0199 0.007,0.1551 -0.166,-0.0359 -0.062,-0.0383 0.112,-0.109"
         style="fill:#252e3a;fill-opacity:1;fill-rule:nonzero;stroke:none;stroke-width:0.1"
         id="path4100"
         inkscape:connector-curvature="0" />
      <path
         d="m 216.718,33.2941 0.124,-0.0921 0.046,0.0429 -0.112,0.1082 -0.058,-0.059"
         style="fill:#252e3a;fill-opacity:1;fill-rule:nonzero;stroke:none;stroke-width:0.1"
         id="path4102"
         inkscape:connector-curvature="0" />
      <path
         d="m 217.592,33.648 0.014,0.0071 0.018,-0.0371 -0.015,-0.0071 z m -0.022,0.0461 0.014,0.0071 0.018,-0.0371 -0.014,-0.0071 z m 0.052,-0.1089 -0.008,0.0168 0.014,0.007 0.008,-0.018 0.086,0.018 0.008,0.1539 -0.159,-0.0328 0.009,-0.0199 -0.014,-0.0071 -0.009,0.0199 -0.055,-0.0339 0.112,-0.109 0.008,0.0051"
         style="fill:#252e3a;fill-opacity:1;fill-rule:nonzero;stroke:none;stroke-width:0.1"
         id="path4104"
         inkscape:connector-curvature="0" />
      <path
         d="m 217.601,33.5719 -0.112,0.107 -0.058,-0.059 0.124,-0.0918 0.046,0.0438"
         style="fill:#252e3a;fill-opacity:1;fill-rule:nonzero;stroke:none;stroke-width:0.1"
         id="path4106"
         inkscape:connector-curvature="0" />
      <path
         d="m 217.55,33.7371 -0.002,0.0027 0.015,0.0071 0.001,-0.0028 0.182,0.034 -0.009,-0.1859 -0.1,-0.0184 -0.011,-0.0047 0.026,-0.025 0.022,-0.0089 -0.008,-0.0243 -0.024,0.0082 -0.001,0.0129 -0.029,0.0289 -0.054,-0.0539 -0.149,0.1102 z m -0.066,0.0027 0.003,-0.0168 -0.014,-0.0058 -0.004,0.025 z m 0.011,0.0391 0.013,0.0039 0.003,-0.0148 -0.009,-0.0032 -0.016,-0.0168 -0.014,0.0059 z m 0.025,0.0039 0.02,-0.0058 0.007,0.0191 0.013,-0.009 -0.002,-0.0301 v -0.0011 l -0.014,-0.0071 V 33.75 l -0.025,0.018 z m 0.046,0.0301 0.034,0.0019 -0.004,-0.0148 -0.023,-8e-4 -0.008,-0.0051 -0.01,0.011 z m 0.045,-0.0027 0.018,-0.0204 -0.015,-0.0058 -0.011,0.0129 z m -0.21,-0.5614 0.434,0.2293 c 0.15,0.0789 0.232,0.2438 0.203,0.411 -0.014,0.089 -0.091,0.1539 -0.181,0.1539 l -0.073,-0.0149 -0.626,-0.2691 0.243,-0.5102"
         style="fill:#252e3a;fill-opacity:1;fill-rule:nonzero;stroke:none;stroke-width:0.1"
         id="path4108"
         inkscape:connector-curvature="0" />
      <path
         d="m 217.899,33.484 h 3.59 l 0.08,0.0808 v 1.7032 l -0.08,0.08 h -3.643 l -0.08,-0.08 v -1.2168 l 0.006,0.0027 0.085,0.018 c 0.104,0 0.192,-0.075 0.21,-0.1778 0.026,-0.1601 -0.04,-0.3171 -0.168,-0.4101"
         style="fill:#252e3a;fill-opacity:1;fill-rule:nonzero;stroke:none;stroke-width:0.1"
         id="path4110"
         inkscape:connector-curvature="0" />
      <path
         d="m 211.222,36.5398 c 0.255,0.0262 0.516,0.0313 0.778,0.0332 0.262,-0.0019 0.523,-0.007 0.777,-0.0332 0.255,-0.0277 0.501,-0.0378 0.736,-0.0886 l 0.215,-0.0422 c -0.51,0.259 -1.086,0.4031 -1.692,0.4031 -0.592,0 -1.154,-0.1371 -1.655,-0.384 l 0.106,0.0231 c 0.235,0.05 0.481,0.0597 0.735,0.0886"
         style="fill:#252e3a;fill-opacity:1;fill-rule:nonzero;stroke:none;stroke-width:0.1"
         id="path4112"
         inkscape:connector-curvature="0" />
      <path
         d="m 235.181,34.4691 c -0.046,-0.1519 -0.18,-0.255 -0.33,-0.255 h -0.015 c -0.517,0.0199 -1.045,0.0289 -1.554,0.039 -0.279,0.0051 -0.558,0.009 -0.837,0.016 l -0.168,0.0868 c -0.055,0.0703 -0.072,0.1742 -0.046,0.2832 l 0.033,0.1449 c 0.053,0.234 0.095,0.4191 0.166,0.6449 0.04,0.1281 0.158,0.2012 0.294,0.182 0.259,-0.039 0.518,-0.0789 0.777,-0.1187 0.397,-0.0621 0.807,-0.125 1.211,-0.182 0.228,-0.0301 0.419,-0.2282 0.453,-0.4711 l 0.029,-0.2071 v 0 z m -0.569,-2.2679 -0.782,-2.0192 -0.002,-0.005 c -0.411,-0.7461 -1.195,-0.8641 -2.046,-0.8911 l -7.062,-0.2109 -0.013,-0.0012 c -0.12,0 -0.235,0.0512 -0.316,0.141 -0.084,0.0934 -0.123,0.2172 -0.107,0.3411 l 0.403,2.7312 c 0.016,0.1231 0.121,0.216 0.246,0.216 h 9.472 l 0.184,-0.0961 z m -9.715,3.2047 c 0.025,0.0941 0.104,0.1711 0.199,0.1921 0.093,0.0192 0.187,0.0309 0.281,0.043 0.188,0.0219 0.376,0.036 0.563,0.036 0.373,-0.0028 0.741,-0.011 1.096,-0.018 0.711,-0.0149 1.375,-0.0309 1.943,-0.0469 0.569,-0.016 1.043,-0.0301 1.374,-0.043 0.166,-0.0062 0.297,-0.0121 0.385,-0.0171 l 0.102,-0.0071 0.034,-0.0039 -0.001,-0.007 -0.034,0.0031 -0.101,0.0059 c -0.089,0.005 -0.219,0.0101 -0.385,0.0152 -0.332,0.0098 -0.806,0.0207 -1.374,0.0328 -0.569,0.0129 -1.233,0.0262 -1.944,0.0371 -0.355,0.0051 -0.723,0.011 -1.095,0.011 -0.093,0.0019 -0.185,-0.0071 -0.279,-0.0141 -0.093,-0.0078 -0.186,-0.018 -0.278,-0.0309 l -0.139,-0.0222 -0.07,-0.0117 -0.034,-0.0071 -0.017,-0.0031 -0.015,-0.0039 -0.155,-0.1563 0.001,-0.1117 0.022,-0.0633 0.025,-0.0648 0.114,-0.2531 0.067,-0.1207 0.073,-0.1141 0.173,-0.2101 c 0.125,-0.1301 0.267,-0.2411 0.421,-0.3282 0.154,-0.0867 0.318,-0.15 0.484,-0.1918 l 0.251,-0.0441 0.256,-0.0188 c 0.171,-0.0109 0.338,-0.0211 0.5,-0.0281 0.163,-0.0078 0.321,-0.0148 0.474,-0.0199 0.153,-0.0063 0.3,-0.0109 0.442,-0.0172 0.284,-0.009 0.545,-0.0129 0.775,-0.0148 0.231,-0.002 0.433,-0.0051 0.599,-0.0051 0.332,0.0019 0.521,0.0019 0.521,0.0019 v -0.007 c 0,0 -0.189,-0.0098 -0.521,-0.0199 -0.331,-0.0102 -0.806,-0.0192 -1.375,-0.0121 -0.284,0.0043 -0.592,0.0121 -0.918,0.0261 -0.163,0.0071 -0.33,0.0149 -0.501,0.025 l -0.259,0.0168 -0.261,0.0454 c -0.347,0.082 -0.682,0.2707 -0.939,0.5437 -0.128,0.1371 -0.237,0.2941 -0.321,0.4633 l -0.115,0.2609 -0.046,0.1348 z m 6.089,-1.2469 0.068,0.1109 0.07,0.1262 0.066,0.1391 0.061,0.1468 c 0.036,0.1 0.056,0.2051 0.06,0.3039 0.004,0.0993 -0.013,0.1911 -0.041,0.2661 l -0.098,0.1628 -0.041,0.0364 -0.016,0.0109 0.017,-0.009 0.044,-0.0332 0.112,-0.1609 c 0.031,-0.0758 0.053,-0.1711 0.053,-0.2738 0,-0.1032 -0.022,-0.2122 -0.056,-0.3153 l -0.06,-0.15 -0.071,-0.1398 -0.073,-0.127 -0.075,-0.1082 -0.127,-0.1488 -0.041,-0.0371 -0.015,-0.0121 0.049,0.0551 0.052,0.0671 z m -8.296,-2.977 -0.094,-0.5851 c -0.002,-0.1149 -0.097,-0.2078 -0.213,-0.2078 h -5.451 c -0.116,0 -0.211,0.0941 -0.213,0.2089 l -0.075,0.5969 0.064,0.2281 0.202,0.1079 0.022,0.0011 h 5.451 l 0.084,-0.0121 c 0.149,-0.0367 0.247,-0.1847 0.223,-0.3379 z m -1.466,-1.0468 c -0.212,-0.0051 -0.46,-0.009 -0.725,-0.0122 -0.133,-0.0011 -0.27,-0.0019 -0.409,-0.0031 -0.139,0 -0.281,-8e-4 -0.423,-8e-4 -0.141,0 -0.283,8e-4 -0.422,8e-4 -0.139,0.0012 -0.276,0.002 -0.409,0.0031 -0.265,0.0032 -0.513,0.0071 -0.725,0.0122 -0.213,0.0039 -0.389,0.0109 -0.513,0.0136 -0.124,0.0051 -0.195,0.0082 -0.195,0.0082 0,0 0.071,0.002 0.195,0.0071 0.124,0.0031 0.3,0.0101 0.513,0.0148 0.212,0.0043 0.46,0.0082 0.725,0.0109 0.133,0.0012 0.27,0.0024 0.409,0.0032 0.139,0.0011 0.281,0.0011 0.422,0.0019 0.142,-8e-4 0.284,-8e-4 0.423,-0.0019 0.139,-8e-4 0.276,-0.002 0.409,-0.0032 0.265,-0.0019 0.513,-0.0058 0.725,-0.0109 0.213,-0.0047 0.389,-0.0117 0.513,-0.0148 0.124,-0.0051 0.195,-0.0071 0.195,-0.0071 0,0 -0.071,-0.0031 -0.195,-0.0082 -0.124,-0.0027 -0.3,-0.0097 -0.513,-0.0136 z m -0.839,-0.6942 c 0,0.3012 0.245,0.5461 0.546,0.5461 0.301,0 0.546,-0.2449 0.546,-0.5461 0,-0.3012 -0.245,-0.5461 -0.546,-0.5461 -0.301,0 -0.546,0.2449 -0.546,0.5461 z m -1.263,0 c 0,0.3012 0.245,0.5461 0.545,0.5461 0.301,0 0.546,-0.2449 0.546,-0.5461 0,-0.3012 -0.245,-0.5461 -0.546,-0.5461 -0.3,0 -0.545,0.2449 -0.545,0.5461 z m -1.264,0 c 0,0.3012 0.245,0.5461 0.546,0.5461 0.301,0 0.546,-0.2449 0.546,-0.5461 0,-0.3012 -0.245,-0.5461 -0.546,-0.5461 -0.301,0 -0.546,0.2449 -0.546,0.5461 z m 0.397,-0.675 c 0.193,0.0051 0.418,0.009 0.658,0.011 0.121,0.0011 0.245,0.0019 0.371,0.0039 0.127,0 0.255,0 0.383,0.0011 0.129,-0.0011 0.257,-0.0011 0.383,-0.0011 0.127,-0.002 0.251,-0.0028 0.372,-0.0039 0.24,-0.002 0.465,-0.0071 0.657,-0.011 0.193,-0.0051 0.353,-0.0121 0.466,-0.0148 0.112,-0.0043 0.176,-0.0071 0.176,-0.0071 0,0 -0.064,-0.0031 -0.176,-0.007 -0.113,-0.0039 -0.273,-0.0109 -0.466,-0.0152 -0.192,-0.0047 -0.417,-0.009 -0.657,-0.0117 -0.121,-0.0012 -0.245,-0.002 -0.372,-0.0032 -0.126,0 -0.254,-0.0011 -0.383,-0.0011 -0.128,0 -0.256,0.0011 -0.383,0.0011 -0.126,0.0012 -0.25,0.002 -0.371,0.0032 -0.24,0.0027 -0.465,0.007 -0.658,0.0117 -0.192,0.0043 -0.352,0.0113 -0.465,0.014 -0.112,0.0051 -0.176,0.0082 -0.176,0.0082 0,0 0.064,0.0028 0.176,0.0071 0.113,0.0039 0.273,0.0097 0.465,0.0148 z m 4.02,-0.5988 c -0.044,-0.0832 -0.087,-0.1781 -0.121,-0.2863 -0.049,-0.1539 -0.069,-0.2957 -0.076,-0.4137 -0.005,-0.1043 -0.096,-0.1852 -0.206,-0.1852 h -2.205 -2.204 c -0.11,0 -0.201,0.0809 -0.207,0.1852 -0.006,0.118 -0.026,0.2598 -0.075,0.4137 -0.034,0.1082 -0.077,0.2031 -0.121,0.2863 -0.071,0.1297 0.03,0.2848 0.184,0.2848 h 2.423 2.424 c 0.154,0 0.255,-0.1551 0.184,-0.2848 z m -0.262,6.0519 -0.013,-0.191 c -0.011,-0.123 -0.027,-0.2383 -0.044,-0.3359 -0.017,-0.0973 -0.035,-0.1781 -0.049,-0.234 l -0.023,-0.0883 0.008,0.091 c 0.005,0.0571 0.012,0.1391 0.021,0.2371 l 0.011,0.1579 0.009,0.1769 0.007,0.1883 0.002,0.1949 -0.002,0.1949 -0.007,0.1891 c -0.005,0.1219 -0.013,0.2371 -0.02,0.3352 -0.008,0.098 -0.015,0.1796 -0.021,0.2367 l -0.008,0.0902 0.023,-0.0883 c 0.014,-0.0558 0.032,-0.1359 0.049,-0.234 0.017,-0.0968 0.033,-0.2117 0.044,-0.3359 l 0.013,-0.1898 0.004,-0.1981 z m -0.49,1.4508 c -0.111,0.0082 -0.27,0.016 -0.46,0.027 -0.19,0.0101 -0.412,0.0203 -0.65,0.0269 -0.119,0.0043 -0.242,0.0051 -0.367,0.0082 -0.125,0.002 -0.251,0.0032 -0.379,0.0032 -0.126,0 -0.253,-0.0012 -0.378,-0.0032 -0.125,-0.0031 -0.248,-0.0039 -0.367,-0.0082 -0.238,-0.0066 -0.46,-0.0168 -0.65,-0.0269 -0.19,-0.0098 -0.349,-0.0188 -0.46,-0.027 -0.111,-0.007 -0.175,-0.0109 -0.175,-0.0109 l 0.045,0.007 0.128,0.0192 c 0.111,0.0136 0.268,0.0359 0.458,0.0546 0.191,0.0204 0.413,0.0383 0.651,0.0512 0.239,0.0129 0.493,0.0192 0.749,0.0199 0.127,-7e-4 0.254,-0.0027 0.38,-0.0058 0.125,-0.002 0.248,-0.0082 0.368,-0.0141 0.238,-0.0129 0.46,-0.0308 0.651,-0.0512 0.189,-0.0187 0.347,-0.041 0.458,-0.0546 l 0.127,-0.0192 0.046,-0.007 c 0,0 -0.064,0.0039 -0.175,0.0109 z m -1.856,0.5539 h -0.065 c -1.336,0 -2.663,0.2063 -3.945,0.5844 -0.395,0.116 -0.808,0.2137 -1.238,0.2898 1.094,-0.6429 1.893,-1.7261 2.161,-3.0121 0.037,-0.1738 0.063,-0.3488 0.081,-0.5218 l 0.442,0.2031 0.051,0.0226 v -7e-4 l 0.02,0.0078 0.178,0.0769 -0.017,0.1543 -0.013,0.191 -0.004,0.1969 0.004,0.1981 0.013,0.1898 c 0.011,0.1242 0.027,0.2391 0.044,0.3359 0.017,0.0981 0.035,0.1782 0.049,0.234 l 0.023,0.0883 -0.008,-0.0902 c -0.006,-0.0571 -0.013,-0.1387 -0.021,-0.2367 -0.007,-0.0981 -0.015,-0.2133 -0.02,-0.3352 l -0.007,-0.1891 -0.002,-0.1949 0.002,-0.1949 0.007,-0.1883 0.007,-0.1348 0.243,0.1051 v 1.2649 c 0,0.107 0.087,0.1941 0.194,0.1941 h 3.643 c 0.107,0 0.194,-0.0871 0.194,-0.1941 v -1.7032 c 0,-0.1066 -0.087,-0.1949 -0.194,-0.1949 h -3.643 l -0.1,0.0289 -0.306,-0.1609 -0.019,-0.0098 h 0.001 l -0.05,-0.0261 -0.128,-0.0661 h 5.372 c 0.262,0 0.491,-0.207 0.546,-0.4929 l 0.047,-0.2469 -0.004,-0.1941 c -0.043,-0.1872 -0.194,-0.318 -0.367,-0.318 h -6.312 c -0.169,-0.634 -0.465,-1.2149 -0.882,-1.727 -0.508,-0.6261 -1.157,-1.098 -1.883,-1.3871 0.765,-0.0211 1.532,-0.041 2.262,-0.057 0.287,-0.007 0.699,-1.0379 0.699,-1.5731 0,-0.1238 0.1,-0.2238 0.223,-0.2238 h 2.714 2.713 c 0.123,0 0.223,0.1 0.223,0.2238 0,0.5352 0.412,1.5661 0.699,1.5723 3.964,0.0918 9.029,0.2609 9.029,0.2609 0.765,0 1.463,0.4219 1.795,1.0872 0.34,0.6789 0.675,1.1277 0.933,2.0628 0.344,1.243 0.454,2.35 0.475,3.2129 0,0.4911 -7.1,0.8879 -15.859,0.8879"
         style="fill:#252e3a;fill-opacity:1;fill-rule:nonzero;stroke:none;stroke-width:0.1"
         id="path4114"
         inkscape:connector-curvature="0" />
      <path
         d="m 210.572,31.209 v 0.3281 l -0.01,-0.0012 -0.234,0.086 -0.052,0.0281 -0.326,0.1039 c -0.023,-0.0961 -0.045,-0.191 -0.065,-0.2809 -0.1,-0.4339 -0.188,-0.7941 -0.248,-1.0468 L 209.6,30.2719 c 0.372,-0.3219 0.808,-0.5719 1.282,-0.7258 l 0.081,-0.0133 c 0.145,0 0.262,0.1184 0.262,0.2641 v 0.384 c 0,0.1293 -0.013,0.2582 -0.038,0.3832 -0.342,0.0168 -0.615,0.2988 -0.615,0.6449"
         style="fill:#252e3a;fill-opacity:1;fill-rule:nonzero;stroke:none;stroke-width:0.1"
         id="path4116"
         inkscape:connector-curvature="0" />
      <path
         d="m 214.244,31.473 -0.051,0.218 -0.399,-0.1281 -0.051,-0.027 -0.234,-0.0859 -0.01,0.0012 V 31.209 c 0,-0.3461 -0.273,-0.6281 -0.615,-0.6449 -0.025,-0.125 -0.038,-0.2539 -0.038,-0.3832 v -0.384 c 0,-0.1457 0.118,-0.2641 0.262,-0.2641 l 0.081,0.0133 c 0.495,0.1609 0.947,0.4258 1.329,0.768 l -0.027,0.1121 c -0.06,0.2527 -0.148,0.6129 -0.247,1.0468"
         style="fill:#252e3a;fill-opacity:1;fill-rule:nonzero;stroke:none;stroke-width:0.1"
         id="path4118"
         inkscape:connector-curvature="0" />
      <path
         d="m 209.843,31.482 c 0.019,0.0918 0.04,0.1879 0.061,0.2871 l -0.69,0.22 -0.004,7e-4 -0.005,0.0024 -0.363,0.1879 h -0.064 l -0.215,-0.1121 -0.032,-0.2418 c 0.216,-0.6012 0.587,-1.1332 1.061,-1.5473 l 0.031,0.1512 c 0.053,0.2539 0.127,0.6168 0.22,1.0519"
         style="fill:#252e3a;fill-opacity:1;fill-rule:nonzero;stroke:none;stroke-width:0.1"
         id="path4120"
         inkscape:connector-curvature="0" />
      <path
         d="m 212.267,34.8102 c -0.033,-0.1 -0.144,-0.15 -0.24,-0.1071 -0.095,0.043 -0.133,0.159 -0.081,0.2489 l 0.635,0.9781 z m 0.202,-0.4313 -0.037,-0.0367 h -0.682 l -0.037,0.0367 v 0.1563 l 0.037,0.0367 h 0.682 l 0.037,-0.0367 z m 0.668,0.0691 -0.021,0.0418 0.023,0.0692 0.042,0.0219 0.141,-0.0457 c 0.035,0.1289 0.048,0.2597 0.041,0.389 l -0.148,-0.0164 -0.013,0.0024 -0.024,0.0289 -0.007,0.0718 0.029,0.0371 0.149,0.0161 c -0.018,0.1078 -0.049,0.2129 -0.094,0.3148 l -0.027,0.0563 -0.129,-0.0743 -0.025,-0.0027 -0.021,0.0156 -0.036,0.0633 0.011,0.0461 0.13,0.0738 c -0.073,0.1121 -0.161,0.209 -0.261,0.2899 l -0.087,-0.1199 -0.036,-0.0122 -0.012,0.0063 -0.059,0.0418 -0.008,0.0473 0.088,0.1199 c -0.11,0.0711 -0.23,0.125 -0.356,0.159 l -0.031,-0.145 -0.04,-0.025 -0.071,0.0149 -0.003,0.0012 -0.024,0.0386 0.031,0.1453 -0.069,0.009 c -0.108,0.0098 -0.216,0.0071 -0.321,-0.009 l 0.031,-0.1461 -0.027,-0.039 -0.071,-0.0149 -0.025,0.0039 -0.016,0.0219 -0.03,0.1442 c -0.126,-0.034 -0.246,-0.0871 -0.356,-0.1582 l 0.087,-0.12 -0.008,-0.0468 -0.059,-0.0422 -0.037,-0.002 -0.011,0.009 -0.087,0.1199 c -0.1,-0.0808 -0.188,-0.1777 -0.261,-0.2898 l 0.129,-0.075 0.011,-0.0449 -0.036,-0.0629 -0.045,-0.0133 h -0.001 v 0 l -0.129,0.0742 -0.027,-0.0562 c -0.045,-0.1008 -0.076,-0.2067 -0.094,-0.3149 l 0.147,-0.0148 0.014,-0.0051 0.017,-0.0332 -0.008,-0.0719 -0.036,-0.0308 -0.149,0.016 c -0.007,-0.1282 0.006,-0.259 0.04,-0.3883 l 0.142,0.0461 0.042,-0.0219 0.022,-0.0691 -0.021,-0.043 -0.142,-0.0461 0.024,-0.0578 0.115,-0.2051 0.17,0.0262 0.031,0.0039 c 0.254,0.0328 0.519,0.0508 0.791,0.0508 0.306,0 0.605,-0.0219 0.888,-0.0641 l 0.001,0.0024 0.048,0.0027 0.018,-0.016 0.138,-0.0239 0.126,0.22 0.024,0.0582 -0.142,0.0468"
         style="fill:#252e3a;fill-opacity:1;fill-rule:nonzero;stroke:none;stroke-width:0.1"
         id="path4122"
         inkscape:connector-curvature="0" />
      <path
         d="m 207.711,29.391 c -0.135,-0.173 -0.338,-0.2719 -0.557,-0.2719 h -0.223 c -0.325,0 -0.63,0.127 -0.86,0.3559 -0.157,0.157 -0.307,0.3242 -0.445,0.4969 -0.337,0.4203 -0.617,0.8851 -0.833,1.384 -0.063,0.1453 -0.049,0.3113 0.038,0.4433 0.086,0.1317 0.233,0.2117 0.391,0.2117 l 1.558,0.0063 h 0.002 c 0.325,0 0.607,-0.2192 0.685,-0.5352 l 0.372,-1.4851 c 0.053,-0.2117 0.007,-0.4328 -0.128,-0.6059 z m -3.228,4.8231 c -0.149,0 -0.283,0.1031 -0.329,0.2539 v 0.0011 l -0.013,0.1629 0.029,0.2071 c 0.034,0.2429 0.225,0.441 0.453,0.4711 0.404,0.057 0.814,0.1199 1.211,0.182 0.259,0.0398 0.518,0.0797 0.777,0.118 0.136,0.0199 0.254,-0.0532 0.294,-0.1813 0.071,-0.2258 0.113,-0.4109 0.166,-0.6449 l 0.033,-0.1449 c 0.026,-0.109 0.009,-0.2129 -0.046,-0.2832 l -0.168,-0.0868 c -0.279,-0.007 -0.558,-0.0109 -0.837,-0.016 -0.51,-0.0101 -1.037,-0.0191 -1.555,-0.039 z m 3.008,-2.125 c -0.059,0.282 -0.093,0.5629 -0.102,0.8429 l -0.691,0.3571 -0.048,0.025 v 0 l -0.019,0.0097 -0.408,0.2153 c -0.161,0.0839 -0.249,0.2621 -0.219,0.441 0.018,0.1031 0.106,0.1777 0.21,0.1777 l 0.084,-0.018 0.599,-0.2558 0.019,-0.009 0.001,0.002 0.051,-0.0239 0.452,-0.2082 c 0.023,0.1949 0.058,0.3891 0.106,0.5801 0.167,0.6602 0.469,1.2629 0.901,1.7941 0.329,0.4051 0.718,0.7457 1.148,1.0149 -0.672,-0.1391 -1.303,-0.3301 -1.877,-0.566 -0.95,-0.3899 -1.94,-0.6731 -2.955,-0.8309 -0.605,-0.0941 -0.935,-0.1949 -0.935,-0.3012 0.028,-0.8109 0.132,-1.9699 0.476,-3.2129 0.258,-0.9351 0.593,-1.3839 0.933,-2.0628 0.332,-0.6653 1.03,-1.0872 1.795,-1.0872 0,0 1.263,-0.0421 3.021,-0.096 -1.288,0.6019 -2.244,1.7808 -2.542,3.2121"
         style="fill:#252e3a;fill-opacity:1;fill-rule:nonzero;stroke:none;stroke-width:0.1"
         id="path4124"
         inkscape:connector-curvature="0" />
      <path
         d="m 215.319,33.7582 -0.168,-0.0422 -0.126,-0.0301 -0.058,-0.0129 c 0.137,-0.021 0.274,-0.039 0.41,-0.0519 l 0.027,-0.0012 0.207,0.1 0.056,0.1442 -0.212,-0.0672 -0.136,-0.0387"
         style="fill:#252e3a;fill-opacity:1;fill-rule:nonzero;stroke:none;stroke-width:0.1"
         id="path4126"
         inkscape:connector-curvature="0" />
      <path
         d="m 209.466,35.232 c 0.045,0.1321 0.111,0.2539 0.199,0.3629 l 0.061,0.0063 0.006,-0.0614 -0.023,-0.0296 0.058,-0.0293 0.019,-0.0579 -0.038,-0.0242 -0.02,0.0051 -0.068,0.034 c -0.101,-0.1598 -0.159,-0.343 -0.168,-0.532 l 0.104,0.0011 0.044,-0.0429 -0.043,-0.0442 -0.105,-8e-4 v -0.007 c 0.007,-0.1871 0.06,-0.3652 0.155,-0.523 l 0.072,0.0379 0.058,-0.0188 -0.018,-0.0582 -0.064,-0.034 0.016,-0.0219 -0.009,-0.0601 -0.025,-0.009 -0.036,0.0172 c -0.145,0.1937 -0.227,0.4238 -0.236,0.666 -0.005,0.1449 0.015,0.2879 0.061,0.4238 z m 1.039,-0.2922 0.055,-0.1218 -0.127,-0.043 -0.634,0.375 z m -0.614,0.5411 0.131,0.0011 0.007,-0.007 v -0.0281 l -0.007,-0.0078 h -0.082 l -0.007,-0.0071 v -0.0242 l 0.007,-0.0066 h 0.069 l 0.007,-0.0071 V 35.366 l -0.007,-0.0078 h -0.069 l -0.007,-0.007 v -0.0703 l -0.007,-0.0079 h -0.035 l -0.007,0.0071 -10e-4,0.1937 z m -0.16,-0.52 0.013,0.0129 0.146,0.0012 0.013,-0.0141 0.001,-0.123 0.025,-0.0207 0.005,-0.032 0.001,-0.0293 0.012,-0.0379 0.013,0.0011 0.005,0.0457 -0.007,0.0684 -0.005,0.0137 -0.004,0.0152 -0.002,0.025 -0.006,0.0277 -0.008,0.0102 -0.02,0.0148 -0.004,0.0114 0.011,0.0039 0.026,-0.0192 0.009,-0.0129 0.008,-0.0359 0.002,-0.0223 0.003,-0.0109 0.006,-0.0168 0.008,-0.0723 -0.014,-0.0597 -0.015,-0.0039 -0.013,0.0027 -0.022,0.05 v 0.032 l -0.003,0.0223 -0.011,0.0109 v -0.114 l 0.007,-0.0071 0.007,-0.007 v -0.0058 l -0.007,-0.0071 h -0.186 l -0.007,0.0071 v 0.0046 l 0.007,0.0082 0.007,0.0071 z m 0.302,-0.7558 -0.146,-0.0012 -0.007,0.007 -0.001,0.1942 0.007,0.007 0.143,8e-4 0.007,-0.007 V 34.377 l -0.007,-0.0071 h -0.094 l -0.007,-0.007 V 34.341 l 0.008,-0.007 0.085,0.0012 0.008,-0.0071 v -0.0289 l -0.007,-0.007 h -0.086 l -0.007,-0.007 v -0.0313 l 0.007,-0.007 h 0.097 l 0.007,-0.0071 v -0.0277 z m 3.558,0.6898 0.132,0.0281 0.587,-0.4429 -0.678,0.2879 z m 0.526,0.577 0.009,0.0101 h 0.038 l 0.009,-0.0101 V 35.416 l 0.009,-0.009 h 0.039 l 0.009,0.009 v 0.0559 l 0.009,0.0101 h 0.038 l 0.009,-0.0101 V 35.284 l -0.009,-0.0102 h -0.038 l -0.009,0.0102 v 0.064 l -0.009,0.009 h -0.039 l -0.009,-0.009 v -0.064 l -0.009,-0.0102 h -0.038 l -0.009,0.0102 z m 0.18,-0.6617 v 0.1609 l 0.022,0.0219 0.023,-0.0219 v -0.002 h 0.029 l 0.008,-0.0082 V 34.95 l -0.008,-0.0078 h -0.029 v -0.0223 h 0.029 l 0.008,-0.0078 v -0.0109 l -0.008,-0.0071 h -0.029 v -0.023 h 0.029 l 0.008,-0.007 v -0.011 l -0.008,-0.0082 h -0.029 v -0.0347 l 0.022,-0.0391 -0.045,-0.0449 -0.045,0.0449 z m 0.063,0.6707 0.058,0.0293 -0.023,0.0296 0.006,0.0614 0.062,-0.0063 c 0.087,-0.109 0.154,-0.2308 0.198,-0.3629 0.046,-0.1359 0.066,-0.2789 0.061,-0.4238 -0.009,-0.2422 -0.091,-0.4723 -0.237,-0.666 l -0.034,-0.0172 -0.026,0.009 -0.009,0.0601 0.016,0.0219 -0.064,0.034 -0.018,0.0582 0.059,0.0188 0.071,-0.0379 c 0.095,0.1578 0.148,0.3359 0.155,0.523 l 0.001,0.007 -0.106,8e-4 -0.043,0.0442 0.044,0.0429 0.104,-0.0011 c -0.009,0.189 -0.067,0.3722 -0.167,0.532 l -0.069,-0.034 -0.02,-0.0051 -0.038,0.0242 z m 0.026,-0.7039 h 0.015 l 0.016,-0.0071 0.017,0.0071 h 0.063 v -0.0149 l -0.008,-0.0031 -0.007,0.0031 h -0.033 l -0.032,-0.0133 -0.031,0.0133 z m -0.208,-0.0508 0.031,-0.0133 0.016,-0.007 0.017,0.007 0.032,0.0133 0.031,-0.0133 0.016,-0.007 0.017,0.007 0.031,0.0133 0.032,-0.0133 0.016,-0.007 0.017,0.007 0.031,0.0133 0.011,-0.0102 -0.011,-0.0109 -0.016,-0.0071 -0.032,-0.0128 -0.031,0.0128 h -0.033 l -0.032,-0.0128 -0.031,0.0128 h -0.033 l -0.032,-0.0128 -0.031,0.0128 -0.016,0.0071 -0.011,0.0109 z m 0.064,0.0488 h 0.015 v -0.0148 l -0.032,-0.0133 -0.031,0.0133 h -0.033 -0.015 v 0.0148 l 0.032,0.0129 0.031,-0.0129 v 0 z m 0.051,-0.5051 -0.032,-0.05 -0.056,-0.0168 -0.068,0.0278 -0.027,0.0773 0.027,0.0789 0.071,0.0289 0.062,-0.023 0.022,-0.0391 -0.006,-0.0109 -0.038,-0.009 -0.011,0.007 -0.011,0.018 -0.02,0.0058 -0.027,-0.0117 -0.011,-0.0422 0.011,-0.0449 0.026,-0.0121 0.02,0.007 0.013,0.0262 0.012,0.0059 0.036,-0.011 z m -5.711,-0.4269 0.146,-0.034 0.178,-0.0371 c 0.116,-0.0239 0.241,-0.0469 0.371,-0.0699 0.37,0.066 0.739,0.1582 1.103,0.2781 0.161,0.0527 0.334,0.0969 0.515,0.1328 l -0.094,0.1762 c -0.153,0.3449 -0.163,0.7289 -0.028,1.0808 0.136,0.352 0.401,0.6301 0.746,0.784 0.345,0.1531 0.729,0.1633 1.081,0.027 0.122,-0.0469 0.235,-0.1098 0.337,-0.186 l 0.023,-0.0168 0.002,-0.0011 c 0.202,-0.1571 0.357,-0.3661 0.451,-0.6098 0.134,-0.3524 0.124,-0.7363 -0.03,-1.0813 l -0.105,-0.1937 c 0.144,-0.032 0.282,-0.0692 0.413,-0.1121 0.352,-0.116 0.709,-0.2071 1.067,-0.2719 0.118,0.0207 0.231,0.0418 0.336,0.0637 l 0.178,0.0371 0.146,0.034 0.149,0.0359 0.052,0.0141 0.048,0.0121 -0.006,0.0398 c -0.229,0.9723 -0.822,1.7762 -1.615,2.2821 l -0.095,0.0281 -0.159,0.041 c -0.107,0.0289 -0.219,0.0508 -0.332,0.0769 -0.228,0.045 -0.467,0.0809 -0.712,0.1071 -0.245,0.0238 -0.497,0.0371 -0.748,0.0379 -0.252,-8e-4 -0.503,-0.0141 -0.748,-0.0379 -0.245,-0.0262 -0.484,-0.061 -0.713,-0.1071 -0.112,-0.0261 -0.224,-0.048 -0.331,-0.0761 l -0.124,-0.0321 c -0.823,-0.5039 -1.439,-1.3226 -1.674,-2.3199 l -0.007,-0.0578 0.03,-0.007 0.149,-0.0371"
         style="fill:#252e3a;fill-opacity:1;fill-rule:nonzero;stroke:none;stroke-width:0.1"
         id="path4128"
         inkscape:connector-curvature="0" />
      <path
         d="m 208.693,33.6211 c 0.123,0.0121 0.244,0.0277 0.366,0.0461 l -0.011,0.0019 -0.074,0.0168 -0.125,0.0289 -0.168,0.0434 -0.274,0.0816 0.053,-0.1199 0.207,-0.1 0.026,0.0012"
         style="fill:#252e3a;fill-opacity:1;fill-rule:nonzero;stroke:none;stroke-width:0.1"
         id="path4130"
         inkscape:connector-curvature="0" />
      <path
         d="m 215.372,32.168 -0.506,-0.2621 -0.005,-0.002 -0.004,-0.0019 -0.619,-0.1969 0.047,-0.2231 c 0.094,-0.4351 0.167,-0.798 0.22,-1.0519 l 0.022,-0.1082 c 0.451,0.4082 0.804,0.923 1.013,1.5043 l -0.032,0.2418 -0.136,0.1"
         style="fill:#252e3a;fill-opacity:1;fill-rule:nonzero;stroke:none;stroke-width:0.1"
         id="path4132"
         inkscape:connector-curvature="0" />
      <path
         d="m 216.855,32.1512 h 2.188 l 0.023,-0.0262 -0.023,-0.025 h -2.188 l -0.023,0.025 z m 0,0.1527 h 2.188 l 0.023,-0.0258 -0.023,-0.025 h -2.188 l -0.023,0.025 z m 0,0.152 h 0.782 v -0.0508 h -0.782 l -0.023,0.0258 z m 0,0.1543 h 0.782 V 32.559 h -0.782 l -0.023,0.025 z m 0,0.1527 h 2.188 l 0.023,-0.0258 -0.023,-0.0262 h -2.188 l -0.023,0.0262 z m 0,0.1519 h 2.188 l 0.023,-0.025 -0.023,-0.0257 h -2.188 l -0.023,0.0257 z m 2.309,-0.1796 0.064,0.0707 h 0.096 l 0.065,-0.0707 v -0.4551 l -0.065,-0.0711 h -0.096 l -0.064,0.0711 z m 0.324,-0.2704 0.036,0.0184 h 0.287 l 0.036,-0.0184 0.011,-0.0429 -0.038,-0.286 -0.065,-0.0629 h -0.175 l -0.065,0.0629 -0.038,0.286 z m -0.011,0.1282 0.038,0.2859 0.065,0.0633 h 0.175 l 0.065,-0.0633 0.038,-0.2859 -0.011,-0.043 -0.036,-0.018 h -0.287 l -0.036,0.018 z m 0.469,0.1422 0.064,0.0707 h 0.097 l 0.064,-0.0707 v -0.4551 l -0.064,-0.0711 h -0.097 l -0.064,0.0711 z m 0.346,-0.584 h 2.188 L 222.503,32.125 222.48,32.1 h -2.188 l -0.023,0.025 z m 0,0.1527 h 2.188 l 0.023,-0.0258 -0.023,-0.025 h -2.188 l -0.023,0.025 z m 0,0.152 h 0.958 v -0.0508 h -0.958 l -0.023,0.0258 z m 0,0.1543 h 0.958 V 32.559 h -0.958 l -0.023,0.025 z m 0,0.1527 h 2.188 l 0.023,-0.0258 -0.023,-0.0262 h -2.188 l -0.023,0.0262 z m 0,0.1519 h 2.188 l 0.023,-0.025 -0.023,-0.0257 h -2.188 l -0.023,0.0257 z m 2.289,-0.2507 0.074,0.082 0.074,-0.082 V 32.352 l -0.074,-0.0829 -0.074,0.0829 z m -0.078,-0.2332 -0.023,-0.0258 h -0.782 v 0.0508 h 0.782 z m -0.023,0.1281 h -0.782 v 0.0512 h 0.782 l 0.023,-0.0262 z m -3.414,-0.1281 -0.023,-0.0258 h -0.958 v 0.0508 h 0.958 z m -0.023,0.1281 h -0.958 v 0.0512 h 0.958 l 0.023,-0.0262 z m -2.424,-0.2539 c -0.02,-0.1172 -0.045,-0.234 -0.074,-0.35 h 3.122 3.178 c 0.142,0 0.266,0.1078 0.302,0.2621 l 0.003,0.1598 -0.047,0.248 c -0.048,0.2539 -0.248,0.4352 -0.48,0.4352 h -2.956 -2.57 l -0.419,-0.2172 -0.006,-0.0969 h 0.008 l 0.074,-0.082 V 32.352 l -0.074,-0.0829 -0.061,0.036"
         style="fill:#252e3a;fill-opacity:1;fill-rule:nonzero;stroke:none;stroke-width:0.1"
         id="path4134"
         inkscape:connector-curvature="0" />
      <path
         d="m 213.309,31.209 v 0.268 c -0.104,-0.129 -0.192,-0.2719 -0.259,-0.427 l -0.03,-0.0648 -0.086,-0.225 c 0.213,0.039 0.375,0.2257 0.375,0.4488"
         style="fill:#252e3a;fill-opacity:1;fill-rule:nonzero;stroke:none;stroke-width:0.1"
         id="path4136"
         inkscape:connector-curvature="0" />
      <path
         d="m 211.021,31.05 c -0.068,0.1551 -0.155,0.298 -0.259,0.427 v -0.268 c 0,-0.2231 0.162,-0.4098 0.375,-0.4488 l -0.087,0.225 -0.029,0.0648"
         style="fill:#252e3a;fill-opacity:1;fill-rule:nonzero;stroke:none;stroke-width:0.1"
         id="path4138"
         inkscape:connector-curvature="0" />
      <path
         d="m 217.025,33.266 -0.101,-0.018 -0.011,-0.005 0.026,-0.0258 0.023,-0.009 -0.009,-0.023 -0.024,0.0078 v 0.0129 l -0.03,0.0281 -0.054,-0.0539 -0.149,0.1097 0.149,0.125 0.189,0.0372 z m -0.361,0.268 c 0.02,-0.2211 0.026,-0.4399 0.016,-0.657 l 0.704,0.364 -0.244,0.5121 -0.476,-0.2191"
         style="fill:#252e3a;fill-opacity:1;fill-rule:nonzero;stroke:none;stroke-width:0.1"
         id="path4140"
         inkscape:connector-curvature="0" />
      <path
         d="m 213.509,31.4781 0.221,0.0828 0.053,0.0289 1.067,0.3403 0.478,0.248 -0.035,0.002 h -0.515 c -0.268,0 -0.525,-0.0551 -0.767,-0.1629 l -0.005,-0.0031 c -0.242,-0.1082 -0.455,-0.2629 -0.628,-0.4559 l 0.131,-0.0801"
         style="fill:#252e3a;fill-opacity:1;fill-rule:nonzero;stroke:none;stroke-width:0.1"
         id="path4142"
         inkscape:connector-curvature="0" />
      <path
         d="m 207.199,33.291 -0.163,0.0781 -0.034,-0.0722 -0.044,0.2051 0.187,0.0941 -0.034,-0.0723 0.162,-0.0769 z m 0.217,0.325 -0.485,0.2231 -0.244,-0.5121 0.701,-0.3629 V 33.2 l -0.077,0.0371 0.074,0.1559 0.011,-0.0051 0.02,0.2281"
         style="fill:#252e3a;fill-opacity:1;fill-rule:nonzero;stroke:none;stroke-width:0.1"
         id="path4144"
         inkscape:connector-curvature="0" />
      <path
         d="m 210.287,31.6762 0.054,-0.0282 0.221,-0.0832 0.093,0.034 c -0.167,0.1731 -0.366,0.3153 -0.59,0.4153 l -0.006,0.0031 c -0.241,0.1078 -0.499,0.1629 -0.766,0.1629 h -0.389 l 0.317,-0.1629 1.066,-0.341"
         style="fill:#252e3a;fill-opacity:1;fill-rule:nonzero;stroke:none;stroke-width:0.1"
         id="path4146"
         inkscape:connector-curvature="0" />
      <path
         d="m 207.388,33.2219 0.007,0.1441 h -0.001 l -0.057,-0.1191 0.051,-0.025"
         style="fill:#252e3a;fill-opacity:1;fill-rule:nonzero;stroke:none;stroke-width:0.1"
         id="path4148"
         inkscape:connector-curvature="0" />
      <path
         d="m 212.727,32.5891 v 0.025 l -0.003,0.0648 -0.021,0.1133 -0.003,0.0109 -0.015,0.0418 -0.005,0.0153 -0.008,0.0187 h -0.001 l -0.036,0.0731 h 0.001 c -0.109,0.189 -0.304,0.323 -0.53,0.3449 l -0.07,0.0043 c -0.258,0 -0.482,-0.141 -0.602,-0.3492 h 0.001 L 211.4,32.8789 h -0.001 l -0.018,-0.0449 -0.003,-0.0121 -0.017,-0.0571 -10e-4,-0.0066 -0.011,-0.0633 -0.002,-0.0129 -0.004,-0.0629 v -0.0152 l 0.003,-0.0617 v -0.0063 c 0.033,-0.3238 0.295,-0.5871 0.619,-0.6187 l 0.071,-0.0031 c 0.375,0 0.68,0.2988 0.691,0.6718 v 0.0032"
         style="fill:#252e3a;fill-opacity:1;fill-rule:nonzero;stroke:none;stroke-width:0.1"
         id="path4150"
         inkscape:connector-curvature="0" />
      <path
         d="m 211.536,31.4852 -0.129,-0.0723 -0.077,0.0211 -0.051,0.2058 0.129,0.0731 0.077,-0.0219 z m -0.254,-1.6832 c 0,-0.177 -0.143,-0.3211 -0.319,-0.3211 l -0.098,0.016 c -1.103,0.3582 -1.995,1.2242 -2.388,2.3152 -0.036,0.1 -0.022,0.207 0.039,0.2949 0.061,0.086 0.156,0.1352 0.262,0.1352 h 0.515 c 0.275,0 0.541,-0.0563 0.79,-0.1684 l 0.021,0.0481 10e-4,-8e-4 -0.016,-0.0492 c 0.441,-0.1981 0.791,-0.5508 0.984,-0.9938 l 0.029,-0.064 c 0.118,-0.252 0.18,-0.5391 0.18,-0.8282 z m -0.315,2.8339 v -0.007 l -0.149,-0.1391 h -0.004 l -0.146,0.1461 v 0.0082 l 0.15,0.145 h 0.004 z m -2.552,1.0539 c -0.061,0.0774 -0.083,0.1774 -0.06,0.2731 0.403,1.7141 1.917,2.9109 3.681,2.9109 1.763,0 3.277,-1.1968 3.68,-2.9109 0.023,-0.0957 0.001,-0.1957 -0.06,-0.2731 -0.062,-0.0777 -0.153,-0.1218 -0.252,-0.1218 l -0.032,0.0019 c -0.569,0.0551 -1.14,0.177 -1.699,0.361 -0.475,0.157 -1.041,0.239 -1.637,0.239 -0.597,0 -1.163,-0.082 -1.638,-0.239 -0.559,-0.184 -1.131,-0.3059 -1.699,-0.361 l -0.032,-0.0019 c -0.099,0 -0.19,0.0441 -0.252,0.1218 z m 4.689,-1.0828 0.15,0.15 0.15,-0.15 -0.15,-0.15 z m 2.49,-0.7949 c -0.393,-1.091 -1.286,-1.957 -2.388,-2.3152 l -0.098,-0.016 c -0.176,0 -0.319,0.1441 -0.319,0.3211 v 0.3839 c 0,0.2891 0.062,0.5762 0.18,0.8282 l 0.028,0.064 c 0.194,0.443 0.544,0.7957 0.986,0.9938 l -0.022,0.0472 h 10e-4 l 0.026,-0.0453 c 0.248,0.1121 0.514,0.1684 0.79,0.1684 h 0.515 c 0.105,0 0.201,-0.0492 0.262,-0.1352 0.061,-0.0879 0.075,-0.1949 0.039,-0.2949 z m -2.885,-0.3961 -0.074,-0.0199 -0.13,0.0758 -0.014,0.114 0.07,0.0903 0.074,0.0199 0.131,-0.0762 z m -0.144,2.2981 0.127,0.0687 0.08,-0.0226 0.066,-0.0942 -0.02,-0.1129 -0.127,-0.0691 -0.08,0.023 z m -1.171,0.1019 0.07,0.0172 0.133,-0.0793 0.011,-0.1148 -0.073,-0.0879 -0.07,-0.0172 -0.133,0.0789 z m 0.642,-1.9871 c -0.429,0 -0.778,0.3492 -0.778,0.777 0,0.4293 0.349,0.7773 0.778,0.7773 0.428,0 0.776,-0.348 0.776,-0.7773 0,-0.4278 -0.348,-0.777 -0.776,-0.777 z m 0,-3.3277 c 1.388,0 2.687,0.6187 3.564,1.6957 0.877,1.0793 1.214,2.4941 0.925,3.8832 -0.367,1.7609 -1.742,3.1347 -3.503,3.5019 -0.328,0.068 -0.66,0.1032 -0.987,0.1032 -1.388,0 -2.687,-0.6192 -3.564,-1.6973 -0.877,-1.0777 -1.214,-2.493 -0.924,-3.882 0.366,-1.7598 1.741,-3.1348 3.502,-3.502 0.327,-0.068 0.659,-0.1027 0.987,-0.1027 v 0"
         style="fill:#252e3a;fill-opacity:1;fill-rule:nonzero;stroke:none;stroke-width:0.1"
         id="path4152"
         inkscape:connector-curvature="0" />
      <path
         d="m 213.347,32.6039 -0.093,0.093 -0.093,-0.093 0.093,-0.093 0.093,0.093"
         style="fill:#252e3a;fill-opacity:1;fill-rule:nonzero;stroke:none;stroke-width:0.1"
         id="path4154"
         inkscape:connector-curvature="0" />
      <path
         d="m 210.818,32.7301 -0.093,-0.0903 V 32.634 l 0.089,-0.0899 h 0.004 l 0.092,0.0848 v 0.0063 l -0.09,0.0949 h -0.002"
         style="fill:#252e3a;fill-opacity:1;fill-rule:nonzero;stroke:none;stroke-width:0.1"
         id="path4156"
         inkscape:connector-curvature="0" />
      <path
         d="m 211.412,31.6551 h -0.002 l -0.093,-0.0903 V 31.559 l 0.089,-0.0891 h 0.004 l 0.092,0.0852 10e-4,0.0051 -0.091,0.0949"
         style="fill:#252e3a;fill-opacity:1;fill-rule:nonzero;stroke:none;stroke-width:0.1"
         id="path4158"
         inkscape:connector-curvature="0" />
      <path
         d="m 212.638,31.6391 h -0.003 l -0.092,-0.0899 -0.001,-0.0062 0.089,-0.0899 h 0.004 l 0.093,0.0848 v 0.0062 l -0.09,0.095"
         style="fill:#252e3a;fill-opacity:1;fill-rule:nonzero;stroke:none;stroke-width:0.1"
         id="path4160"
         inkscape:connector-curvature="0" />
      <path
         d="m 211.465,33.5879 0.043,0.0109 0.045,0.0551 -0.006,0.0699 -0.083,0.05 -0.043,-0.0109 -0.039,-0.1258 0.083,-0.0492"
         style="fill:#252e3a;fill-opacity:1;fill-rule:nonzero;stroke:none;stroke-width:0.1"
         id="path4162"
         inkscape:connector-curvature="0" />
      <path
         d="m 212.641,33.5531 0.05,-0.0152 0.079,0.043 0.012,0.0703 -0.04,0.0578 -0.05,0.0148 -0.079,-0.0429 0.028,-0.1278"
         style="fill:#252e3a;fill-opacity:1;fill-rule:nonzero;stroke:none;stroke-width:0.1"
         id="path4164"
         inkscape:connector-curvature="0" />
    </g>
  </g>
</svg>
