<?xml version="1.0" encoding="UTF-8" standalone="no"?>
<!-- Created with Inkscape (http://www.inkscape.org/) -->

<svg
   xmlns:dc="http://purl.org/dc/elements/1.1/"
   xmlns:cc="http://creativecommons.org/ns#"
   xmlns:rdf="http://www.w3.org/1999/02/22-rdf-syntax-ns#"
   xmlns:svg="http://www.w3.org/2000/svg"
   xmlns="http://www.w3.org/2000/svg"
   xmlns:sodipodi="http://sodipodi.sourceforge.net/DTD/sodipodi-0.dtd"
   xmlns:inkscape="http://www.inkscape.org/namespaces/inkscape"
   width="3.6861749mm"
   height="10.296253mm"
   viewBox="0 0 3.6861749 10.296253"
   version="1.1"
   id="svg7661"
   inkscape:version="0.92.3 (2405546, 2018-03-11)"
   sodipodi:docname="14.svg">
  <defs
     id="defs7655" />
  <sodipodi:namedview
     id="base"
     pagecolor="#ffffff"
     bordercolor="#666666"
     borderopacity="1.0"
     inkscape:pageopacity="0.0"
     inkscape:pageshadow="2"
     inkscape:zoom="0.35"
     inkscape:cx="66.966"
     inkscape:cy="-34.828215"
     inkscape:document-units="mm"
     inkscape:current-layer="layer1"
     showgrid="false"
     inkscape:window-width="1366"
     inkscape:window-height="719"
     inkscape:window-x="0"
     inkscape:window-y="25"
     inkscape:window-maximized="1" />
  <metadata
     id="metadata7658">
    <rdf:RDF>
      <cc:Work
         rdf:about="">
        <dc:format>image/svg+xml</dc:format>
        <dc:type
           rdf:resource="http://purl.org/dc/dcmitype/StillImage" />
        <dc:title></dc:title>
      </cc:Work>
    </rdf:RDF>
  </metadata>
  <g
     inkscape:label="Livello 1"
     inkscape:groupmode="layer"
     id="layer1"
     transform="translate(-88.115246,-129.32211)">
    <g
       transform="matrix(0.35277777,0,0,-0.35277777,0.94844502,158.16319)"
       id="g7638">
      <path
         d="m 256.995,65.1621 c -0.298,0 -0.54,0.2418 -0.54,0.5399 0,0.473 -0.383,0.8562 -0.856,0.8562 h -6.575 c -0.473,0 -0.856,-0.3832 -0.856,-0.8562 0,-0.2981 -0.242,-0.5399 -0.54,-0.5399 -0.299,0 -0.541,-0.2422 -0.541,-0.5402 v -2.4778 c 0,-0.298 0.242,-0.5402 0.541,-0.5402 0.298,0 0.54,-0.2418 0.54,-0.5398 0,-0.4731 0.383,-0.8559 0.856,-0.8559 h 6.575 c 0.473,0 0.856,0.3828 0.856,0.8559 0,0.298 0.242,0.5398 0.54,0.5398 0.299,0 0.541,0.2422 0.541,0.5402 v 2.4778 c 0,0.298 -0.242,0.5402 -0.541,0.5402"
         style="fill:#252e3a;fill-opacity:1;fill-rule:nonzero;stroke:none;stroke-width:0.1"
         id="path322"
         inkscape:connector-curvature="0" />
      <path
         d="m 255.171,59.9379 h -5.719 c -0.485,0 -0.879,-0.3938 -0.879,-0.8789 0,-0.4852 0.394,-0.8781 0.879,-0.8781 h 5.719 c 0.485,0 0.879,0.3929 0.879,0.8781 0,0.4851 -0.394,0.8789 -0.879,0.8789"
         style="fill:#252e3a;fill-opacity:1;fill-rule:nonzero;stroke:none;stroke-width:0.1"
         id="path324"
         inkscape:connector-curvature="0" />
      <path
         d="m 255.171,57.9219 h -5.719 c -0.485,0 -0.879,-0.393 -0.879,-0.8778 0,-0.4851 0.394,-0.8781 0.879,-0.8781 h 5.719 c 0.485,0 0.879,0.393 0.879,0.8781 0,0.4848 -0.394,0.8778 -0.879,0.8778"
         style="fill:#252e3a;fill-opacity:1;fill-rule:nonzero;stroke:none;stroke-width:0.1"
         id="path326"
         inkscape:connector-curvature="0" />
      <path
         d="m 253.438,55.8762 h -2.253 c -0.342,0 -0.619,-0.2774 -0.619,-0.6192 0,-0.8621 0.699,-1.5601 1.561,-1.5601 h 0.369 c 0.862,0 1.561,0.698 1.561,1.5601 0,0.3418 -0.277,0.6192 -0.619,0.6192"
         style="fill:#252e3a;fill-opacity:1;fill-rule:nonzero;stroke:none;stroke-width:0.1"
         id="path328"
         inkscape:connector-curvature="0" />
      <path
         d="m 249.426,70.2641 c 0,0.23 0.186,0.416 0.416,0.416 h 4.939 c 0.23,0 0.416,-0.186 0.416,-0.416 v -1.9332 c 0,-0.3778 -0.306,-0.684 -0.684,-0.684 h -4.403 c -0.377,0 -0.684,0.3062 -0.684,0.684 z m 0.416,1.8949 h 4.939 c 0.229,0 0.416,-0.186 0.416,-0.416 0,-0.2289 -0.187,-0.416 -0.416,-0.416 h -4.939 c -0.229,0 -0.416,0.1871 -0.416,0.416 0,0.23 0.187,0.416 0.416,0.416 z m 0,1.4898 h 4.939 c 0.229,0 0.416,-0.1859 0.416,-0.4156 0,-0.2293 -0.187,-0.4152 -0.416,-0.4152 h -4.939 c -0.229,0 -0.416,0.1859 -0.416,0.4152 0,0.2297 0.187,0.4156 0.416,0.4156 z m -0.146,1.2313 0.671,2.3429 c 0.051,0.1782 0.215,0.302 0.4,0.302 h 3.089 c 0.185,0 0.349,-0.1238 0.4,-0.302 l 0.671,-2.3429 c 0.036,-0.1262 0.011,-0.259 -0.068,-0.3653 -0.079,-0.1046 -0.2,-0.1648 -0.332,-0.1648 h -4.431 c -0.132,0 -0.253,0.0602 -0.332,0.1648 -0.08,0.1063 -0.104,0.2391 -0.068,0.3653 z m 0.952,4.5148 c 0,0.918 0.746,1.6641 1.663,1.6641 0.918,0 1.664,-0.7461 1.664,-1.6641 V 78.359 c 0,-0.109 -0.089,-0.1981 -0.198,-0.1981 h -2.931 c -0.109,0 -0.198,0.0891 -0.198,0.1981 z M 249.835,66.952 h 5.373 c 0.378,0 0.684,0.3062 0.684,0.6839 v 2.6282 c 0,0.2738 -0.104,0.5371 -0.284,0.7398 0.18,0.202 0.284,0.466 0.284,0.7391 0,0.2769 -0.105,0.5429 -0.289,0.7449 0.184,0.2031 0.289,0.4691 0.289,0.7461 0,0.359 -0.172,0.689 -0.454,0.8949 0.193,0.2762 0.25,0.6172 0.157,0.943 l -0.671,2.3422 c -0.06,0.2129 -0.182,0.4 -0.35,0.5418 0.063,0.1242 0.096,0.2621 0.096,0.4031 v 0.989 c 0,1.32 -1.08,2.4282 -2.399,2.4059 -1.282,-0.0219 -2.318,-1.0719 -2.318,-2.359 V 78.359 c 0,-0.141 0.033,-0.2789 0.096,-0.4031 -0.168,-0.1418 -0.29,-0.3289 -0.35,-0.5418 l -0.671,-2.3422 c -0.093,-0.3258 -0.036,-0.6668 0.157,-0.943 -0.282,-0.2059 -0.454,-0.5359 -0.454,-0.8949 0,-0.277 0.105,-0.543 0.289,-0.7461 -0.184,-0.202 -0.289,-0.468 -0.289,-0.7449 0,-0.2731 0.104,-0.5371 0.284,-0.7391 -0.18,-0.2027 -0.284,-0.466 -0.284,-0.7398 v -2.209 c 0,-0.609 0.494,-1.1031 1.104,-1.1031"
         style="fill:#252e3a;fill-opacity:1;fill-rule:nonzero;stroke:none;stroke-width:0.1"
         id="path330"
         inkscape:connector-curvature="0" />
      <path
         d="m 251.974,53.243 h -1.408 c -0.351,0 -0.636,0.2859 -0.636,0.6371 v 1.6168 c 0,0.1871 -0.152,0.3383 -0.338,0.3383 -0.187,0 -0.338,-0.1512 -0.338,-0.3383 v -1.6168 c 0,-0.7242 0.589,-1.3121 1.312,-1.3121 h 1.408 c 0.186,0 0.337,0.1511 0.337,0.3371 0,0.1871 -0.151,0.3379 -0.337,0.3379"
         style="fill:#252e3a;fill-opacity:1;fill-rule:nonzero;stroke:none;stroke-width:0.1"
         id="path332"
         inkscape:connector-curvature="0" />
    </g>
  </g>
</svg>
