<?xml version="1.0" encoding="UTF-8" standalone="no"?>
<!-- Created with Inkscape (http://www.inkscape.org/) -->

<svg
   xmlns:dc="http://purl.org/dc/elements/1.1/"
   xmlns:cc="http://creativecommons.org/ns#"
   xmlns:rdf="http://www.w3.org/1999/02/22-rdf-syntax-ns#"
   xmlns:svg="http://www.w3.org/2000/svg"
   xmlns="http://www.w3.org/2000/svg"
   xmlns:sodipodi="http://sodipodi.sourceforge.net/DTD/sodipodi-0.dtd"
   xmlns:inkscape="http://www.inkscape.org/namespaces/inkscape"
   width="8.8705969mm"
   height="8.4463949mm"
   viewBox="0 0 8.8705969 8.4463949"
   version="1.1"
   id="svg7894"
   inkscape:version="0.92.3 (2405546, 2018-03-11)"
   sodipodi:docname="16.svg">
  <defs
     id="defs7888" />
  <sodipodi:namedview
     id="base"
     pagecolor="#ffffff"
     bordercolor="#666666"
     borderopacity="1.0"
     inkscape:pageopacity="0.0"
     inkscape:pageshadow="2"
     inkscape:zoom="0.35"
     inkscape:cx="233.90619"
     inkscape:cy="-412.60974"
     inkscape:document-units="mm"
     inkscape:current-layer="layer1"
     showgrid="false"
     inkscape:window-width="1366"
     inkscape:window-height="719"
     inkscape:window-x="0"
     inkscape:window-y="25"
     inkscape:window-maximized="1" />
  <metadata
     id="metadata7891">
    <rdf:RDF>
      <cc:Work
         rdf:about="">
        <dc:format>image/svg+xml</dc:format>
        <dc:type
           rdf:resource="http://purl.org/dc/dcmitype/StillImage" />
        <dc:title></dc:title>
      </cc:Work>
    </rdf:RDF>
  </metadata>
  <g
     inkscape:label="Livello 1"
     inkscape:groupmode="layer"
     id="layer1"
     transform="translate(-43.945654,-31.217279)">
    <g
       transform="matrix(0.35277777,0,0,-0.35277777,-53.621036,98.109859)"
       id="g7874">
      <path
         d="m 292.124,168.73 -0.009,-0.016 -0.42,-0.685 v -0.01 h 0.713 v 0.703 c 0,0.191 0.009,0.386 0.024,0.591 h -0.019 c -0.102,-0.202 -0.184,-0.386 -0.289,-0.583"
         style="fill:#252e3a;fill-opacity:1;fill-rule:nonzero;stroke:none;stroke-width:0.1"
         id="path334"
         inkscape:connector-curvature="0" />
      <path
         d="m 298.883,185.42 c -0.294,0 -0.552,0.051 -0.736,0.117 l -0.113,0.208 0.051,0.215 c 0.023,0.101 0.128,0.159 0.226,0.128 0.15,-0.047 0.344,-0.087 0.538,-0.087 0.308,0 0.635,0.147 0.635,0.484 0,0.327 -0.259,0.527 -0.894,0.527 l -0.215,-0.006 c -0.11,-0.007 -0.2,0.088 -0.186,0.199 l 0.162,1.288 0.176,0.155 h 1.415 c 0.098,0 0.177,-0.079 0.177,-0.177 v -0.256 c 0,-0.098 -0.079,-0.177 -0.177,-0.177 h -0.9 l -0.175,-0.153 -0.018,-0.127 c -0.015,-0.105 0.067,-0.199 0.174,-0.199 h 0.002 c 0.303,0 0.61,-0.068 0.835,-0.23 0.239,-0.161 0.386,-0.425 0.386,-0.796 0,-0.591 -0.508,-1.113 -1.363,-1.113 z m -6.579,0 c -0.279,0 -0.528,0.049 -0.718,0.118 -0.13,0.047 -0.203,0.186 -0.166,0.32 l 0.013,0.051 c 0.041,0.149 0.198,0.231 0.344,0.182 0.138,-0.046 0.306,-0.085 0.473,-0.085 0.386,0 0.582,0.185 0.582,0.425 0,0.312 -0.313,0.454 -0.64,0.454 h -0.037 c -0.147,0 -0.266,0.119 -0.266,0.266 0,0.147 0.119,0.266 0.266,0.266 h 0.022 c 0.249,0.005 0.567,0.098 0.567,0.367 0,0.19 -0.157,0.332 -0.469,0.332 -0.14,0 -0.283,-0.033 -0.407,-0.075 -0.144,-0.049 -0.3,0.033 -0.341,0.18 l -0.007,0.027 c -0.038,0.135 0.034,0.274 0.165,0.323 0.203,0.075 0.472,0.131 0.756,0.131 0.679,0 1.055,-0.357 1.055,-0.791 0,-0.337 -0.191,-0.601 -0.581,-0.738 v -0.01 c 0.381,-0.068 0.688,-0.356 0.688,-0.771 0,-0.562 -0.493,-0.972 -1.299,-0.972 z m 1.188,-17.68 c 0,-0.153 -0.125,-0.278 -0.278,-0.278 h -0.103 v -0.479 c 0,-0.153 -0.125,-0.278 -0.278,-0.278 h -0.147 c -0.154,0 -0.278,0.125 -0.278,0.278 v 0.479 h -1.129 c -0.153,0 -0.278,0.125 -0.278,0.278 v 0.126 l 0.042,0.147 1.078,1.735 c 0.051,0.082 0.14,0.131 0.236,0.131 h 0.476 c 0.153,0 0.278,-0.124 0.278,-0.278 v -1.582 h 0.103 c 0.153,0 0.278,-0.125 0.278,-0.279 z m -6.594,1.197 c 0,-0.533 -0.386,-0.957 -0.845,-1.368 l -0.293,-0.244 v -0.01 h 0.914 c 0.156,0 0.282,-0.126 0.282,-0.282 v -0.046 c 0,-0.156 -0.126,-0.282 -0.282,-0.282 h -1.687 c -0.156,0 -0.282,0.126 -0.282,0.282 v 0.042 l 0.093,0.209 0.317,0.287 c 0.694,0.621 1.031,0.977 1.041,1.348 0,0.259 -0.157,0.464 -0.523,0.464 -0.154,0 -0.296,-0.043 -0.422,-0.103 -0.146,-0.071 -0.321,0.002 -0.381,0.153 -0.053,0.136 0.006,0.291 0.137,0.356 0.222,0.112 0.504,0.19 0.817,0.19 0.718,0 1.114,-0.42 1.114,-0.996 z m -1.797,19.414 0.584,0.271 0.117,0.026 h 0.277 c 0.153,0 0.277,-0.124 0.277,-0.276 v -2.622 c 0,-0.153 -0.124,-0.277 -0.277,-0.277 h -0.164 c -0.153,0 -0.277,0.124 -0.277,0.277 v 2.239 h -0.01 l -0.291,-0.139 c -0.161,-0.076 -0.351,0.017 -0.389,0.191 -0.028,0.126 0.036,0.255 0.153,0.31 z m -5.493,-2.725 c -0.046,0.137 -0.103,0.345 -0.167,0.614 -0.088,0.411 -0.23,0.523 -0.533,0.528 -0.124,0 -0.225,-0.101 -0.225,-0.225 v -0.845 c 0,-0.124 -0.1,-0.225 -0.224,-0.225 h -0.288 c -0.124,0 -0.225,0.101 -0.225,0.225 v 2.827 c 0,0.114 0.085,0.211 0.198,0.223 0.22,0.025 0.496,0.042 0.794,0.042 0.488,0 0.83,-0.074 1.064,-0.259 0.196,-0.156 0.303,-0.386 0.303,-0.689 0,-0.42 -0.298,-0.708 -0.581,-0.811 v -0.014 c 0.229,-0.093 0.356,-0.313 0.439,-0.616 0.061,-0.218 0.121,-0.456 0.173,-0.641 0.041,-0.144 -0.067,-0.287 -0.216,-0.287 h -0.3 c -0.096,0 -0.181,0.061 -0.212,0.153 z m 19.412,3.987 c -1.313,-0.071 -2.367,-1.147 -2.411,-2.461 -0.038,-1.145 0.681,-2.129 1.694,-2.492 v -5.785 c 0,-0.245 -0.198,-0.443 -0.444,-0.443 h -4.079 c -0.245,0 -0.444,0.198 -0.444,0.443 v 5.785 c 1.013,0.363 1.733,1.347 1.694,2.492 -0.044,1.314 -1.098,2.39 -2.411,2.461 -1.47,0.079 -2.692,-1.095 -2.692,-2.549 0,-1.107 0.709,-2.051 1.696,-2.404 v -5.785 c 0,-0.245 -0.199,-0.443 -0.444,-0.443 H 287.1 c -0.245,0 -0.444,0.198 -0.444,0.443 v 5.785 c 1.013,0.363 1.733,1.347 1.694,2.492 -0.044,1.314 -1.098,2.39 -2.411,2.461 -1.47,0.079 -2.692,-1.095 -2.692,-2.549 0,-1.107 0.709,-2.051 1.696,-2.404 v -5.785 c 0,-0.245 -0.199,-0.443 -0.444,-0.443 h -4.079 c -0.246,0 -0.444,0.198 -0.444,0.443 v 5.785 c 1.013,0.363 1.732,1.347 1.694,2.492 -0.044,1.314 -1.098,2.39 -2.411,2.461 -1.471,0.079 -2.692,-1.095 -2.692,-2.549 0,-1.107 0.709,-2.051 1.696,-2.404 v -7.085 l 0.004,-0.087 c 0.044,-0.432 0.409,-0.769 0.852,-0.769 h 5.38 c 0.245,0 0.444,-0.199 0.444,-0.444 v -5.645 c -1.013,-0.362 -1.733,-1.347 -1.694,-2.491 0.044,-1.315 1.098,-2.391 2.411,-2.461 1.47,-0.079 2.692,1.094 2.692,2.548 0,1.107 -0.709,2.051 -1.696,2.404 v 5.645 c 0,0.245 0.199,0.444 0.444,0.444 h 4.079 c 0.245,0 0.444,-0.199 0.444,-0.444 v -5.645 c -1.013,-0.362 -1.732,-1.347 -1.694,-2.491 0.044,-1.315 1.098,-2.391 2.411,-2.461 1.47,-0.079 2.692,1.094 2.692,2.548 0,1.107 -0.709,2.051 -1.696,2.404 v 5.645 c 0,0.245 0.199,0.444 0.444,0.444 h 5.38 c 0.443,0 0.808,0.337 0.852,0.769 l 0.004,0.087 v 7.085 c 0.988,0.353 1.696,1.297 1.696,2.404 0,1.454 -1.221,2.628 -2.692,2.549"
         style="fill:#252e3a;fill-opacity:1;fill-rule:nonzero;stroke:none;stroke-width:0.1"
         id="path336"
         inkscape:connector-curvature="0" />
      <path
         d="m 279.021,188.238 -0.123,-0.003 c -0.12,-0.005 -0.215,-0.104 -0.215,-0.224 v -0.481 c 0,-0.124 0.101,-0.225 0.225,-0.225 h 0.069 c 0.371,0 0.591,0.186 0.591,0.474 0,0.303 -0.206,0.454 -0.547,0.459"
         style="fill:#252e3a;fill-opacity:1;fill-rule:nonzero;stroke:none;stroke-width:0.1"
         id="path338"
         inkscape:connector-curvature="0" />
    </g>
  </g>
</svg>
