<?xml version="1.0" encoding="UTF-8" standalone="no"?>
<!-- Created with Inkscape (http://www.inkscape.org/) -->

<svg
   xmlns:dc="http://purl.org/dc/elements/1.1/"
   xmlns:cc="http://creativecommons.org/ns#"
   xmlns:rdf="http://www.w3.org/1999/02/22-rdf-syntax-ns#"
   xmlns:svg="http://www.w3.org/2000/svg"
   xmlns="http://www.w3.org/2000/svg"
   xmlns:sodipodi="http://sodipodi.sourceforge.net/DTD/sodipodi-0.dtd"
   xmlns:inkscape="http://www.inkscape.org/namespaces/inkscape"
   width="9.1711636mm"
   height="4.0506296mm"
   viewBox="0 0 9.1711636 4.0506296"
   version="1.1"
   id="svg7950"
   inkscape:version="0.92.3 (2405546, 2018-03-11)"
   sodipodi:docname="17.svg">
  <defs
     id="defs7944" />
  <sodipodi:namedview
     id="base"
     pagecolor="#ffffff"
     bordercolor="#666666"
     borderopacity="1.0"
     inkscape:pageopacity="0.0"
     inkscape:pageshadow="2"
     inkscape:zoom="0.35"
     inkscape:cx="43.045619"
     inkscape:cy="-49.488108"
     inkscape:document-units="mm"
     inkscape:current-layer="layer1"
     showgrid="false"
     inkscape:window-width="1366"
     inkscape:window-height="719"
     inkscape:window-x="0"
     inkscape:window-y="25"
     inkscape:window-maximized="1" />
  <metadata
     id="metadata7947">
    <rdf:RDF>
      <cc:Work
         rdf:about="">
        <dc:format>image/svg+xml</dc:format>
        <dc:type
           rdf:resource="http://purl.org/dc/dcmitype/StillImage" />
        <dc:title></dc:title>
      </cc:Work>
    </rdf:RDF>
  </metadata>
  <g
     inkscape:label="Livello 1"
     inkscape:groupmode="layer"
     id="layer1"
     transform="translate(-94.44418,-131.68898)">
    <g
       transform="matrix(0.35277777,0,0,-0.35277777,-2.9722261,157.40718)"
       id="g7930">
      <path
         d="m 278.913,72.518 h -1.198 c -0.228,0 -0.403,-0.2008 -0.372,-0.4258 l 0.072,-0.5422 -0.126,-0.1449 h -0.772 c -0.208,0 -0.376,-0.168 -0.376,-0.375 V 70.282 c 0,-0.207 0.168,-0.375 0.376,-0.375 h 1.008 l 0.126,-0.1109 0.89,-6.616 c 0.025,-0.186 0.184,-0.325 0.372,-0.325 0.208,0 0.376,0.1679 0.376,0.375 v 8.9121 c 0,0.2078 -0.168,0.3758 -0.376,0.3758"
         style="fill:#252e3a;fill-opacity:1;fill-rule:nonzero;stroke:none;stroke-width:0.1"
         id="path942"
         inkscape:connector-curvature="0" />
      <path
         d="m 301.762,64.2602 h -1.008 l -0.126,0.1097 -0.89,6.616 c -0.025,0.1871 -0.184,0.3262 -0.372,0.3262 -0.208,0 -0.376,-0.168 -0.376,-0.3762 v -8.9121 c 0,-0.2066 0.168,-0.375 0.376,-0.375 h 1.198 c 0.228,0 0.403,0.2 0.373,0.425 l -0.073,0.5434 0.126,0.1437 h 0.772 c 0.208,0 0.376,0.1692 0.376,0.3762 v 0.7469 c 0,0.2082 -0.168,0.3762 -0.376,0.3762"
         style="fill:#252e3a;fill-opacity:1;fill-rule:nonzero;stroke:none;stroke-width:0.1"
         id="path944"
         inkscape:connector-curvature="0" />
      <path
         d="m 297.107,71.8031 h -3.954 v 0.1891 h 3.954 z m 0,-0.8609 h -3.954 v 0.1887 h 3.954 z m 0,-0.8621 h -3.954 v 0.1898 h 3.954 z m 0,-0.861 h -3.954 v 0.1899 h 3.954 z m 0,-0.8609 h -3.954 v 0.1898 h 3.954 z m 0,-0.8613 h -3.954 v 0.189 h 3.954 z m 0,-0.861 h -3.954 v 0.1891 h 3.954 z m 0,-0.8621 h -3.954 v 0.1903 h 3.954 z m 0,-0.8609 h -3.954 v 0.1902 h 3.954 z m 0,-0.8609 h -3.954 v 0.1902 h 3.954 z m 0,-0.861 h -3.954 v 0.1891 h 3.954 z m 0,-0.8609 h -3.954 v 0.189 h 3.954 z m -5.248,9.473 h -5.439 v 0.1891 h 5.439 z m 0,-0.8609 h -5.439 v 0.1887 h 5.439 z m 0,-0.8621 h -5.439 v 0.1898 h 5.439 z m 0,-0.861 h -5.439 v 0.1899 h 5.439 z m 0,-0.8609 h -5.439 v 0.1898 h 5.439 z m 0,-0.8613 h -5.439 v 0.189 h 5.439 z m 0,-0.861 h -5.439 v 0.1891 h 5.439 z m 0,-0.8621 h -5.439 v 0.1903 h 5.439 z m 0,-0.8609 h -5.439 v 0.1902 h 5.439 z m 0,-0.8609 h -5.439 v 0.1902 h 5.439 z m 0,-0.861 h -5.439 v 0.1891 h 5.439 z m 0,-0.8609 h -5.439 v 0.189 h 5.439 z m -6.733,9.473 h -4.176 v 0.1891 h 4.176 z m 0,-0.8609 h -4.176 v 0.1887 h 4.176 z m 0,-0.8621 h -4.176 v 0.1898 h 4.176 z m 0,-0.861 h -4.176 v 0.1899 h 4.176 z m 0,-0.8609 h -4.176 v 0.1898 h 4.176 z m 0,-0.8613 h -4.176 v 0.189 h 4.176 z m 0,-0.861 h -4.176 v 0.1891 h 4.176 z m 0,-0.8621 h -4.176 v 0.1903 h 4.176 z m 0,-0.8609 h -4.176 v 0.1902 h 4.176 z m 0,-0.8609 h -4.176 v 0.1902 h 4.176 z m 0,-0.861 h -4.176 v 0.1891 h 4.176 z m 0,-0.8609 h -4.176 v 0.189 h 4.176 z m 12.408,10.5719 h -16.789 c -0.548,0 -0.993,-0.445 -0.993,-0.993 v -9.4961 c 0,-0.5481 0.445,-0.993 0.993,-0.993 h 16.789 c 0.549,0 0.993,0.4449 0.993,0.993 v 9.4961 c 0,0.548 -0.444,0.993 -0.993,0.993"
         style="fill:#252e3a;fill-opacity:1;fill-rule:nonzero;stroke:none;stroke-width:0.1"
         id="path946"
         inkscape:connector-curvature="0" />
    </g>
  </g>
</svg>
