<?xml version="1.0" encoding="UTF-8" standalone="no"?>
<!-- Created with Inkscape (http://www.inkscape.org/) -->

<svg
   xmlns:dc="http://purl.org/dc/elements/1.1/"
   xmlns:cc="http://creativecommons.org/ns#"
   xmlns:rdf="http://www.w3.org/1999/02/22-rdf-syntax-ns#"
   xmlns:svg="http://www.w3.org/2000/svg"
   xmlns="http://www.w3.org/2000/svg"
   xmlns:sodipodi="http://sodipodi.sourceforge.net/DTD/sodipodi-0.dtd"
   xmlns:inkscape="http://www.inkscape.org/namespaces/inkscape"
   width="9.8386364mm"
   height="9.830946mm"
   viewBox="0 0 9.8386364 9.830946"
   version="1.1"
   id="svg6399"
   inkscape:version="0.92.3 (2405546, 2018-03-11)"
   sodipodi:docname="2.svg">
  <defs
     id="defs6393" />
  <sodipodi:namedview
     id="base"
     pagecolor="#ffffff"
     bordercolor="#666666"
     borderopacity="1.0"
     inkscape:pageopacity="0.0"
     inkscape:pageshadow="2"
     inkscape:zoom="0.35"
     inkscape:cx="175.73556"
     inkscape:cy="-278.5647"
     inkscape:document-units="mm"
     inkscape:current-layer="layer1"
     showgrid="false"
     inkscape:window-width="1366"
     inkscape:window-height="719"
     inkscape:window-x="0"
     inkscape:window-y="25"
     inkscape:window-maximized="1" />
  <metadata
     id="metadata6396">
    <rdf:RDF>
      <cc:Work
         rdf:about="">
        <dc:format>image/svg+xml</dc:format>
        <dc:type
           rdf:resource="http://purl.org/dc/dcmitype/StillImage" />
        <dc:title></dc:title>
      </cc:Work>
    </rdf:RDF>
  </metadata>
  <g
     inkscape:label="Livello 1"
     inkscape:groupmode="layer"
     id="layer1"
     transform="translate(-59.336634,-65.29881)">
    <g
       transform="matrix(0.35277777,0,0,-0.35277777,40.206695,171.86001)"
       id="g6380">
      <path
         d="m 65.398,289.023 c -0.2054,0.206 -0.539,0.206 -0.7449,0 l -10.4265,-10.427 0.1402,-1.614 9.1793,9.179 c 0.1152,0.115 0.3199,0.098 0.457,-0.04 0.1375,-0.137 0.1551,-0.342 0.0399,-0.457 l -9.5969,-9.597 0.1316,-1.515 4.0938,-0.356 1.023,1.024 -0.2398,2.766 2.6633,-0.231 -0.1332,1.533 1.5824,-0.137 -0.1375,1.582 1.5332,-0.133 -0.2313,2.664 2.7668,-0.241 1.5774,1.578 c 0.2058,0.205 0.2058,0.538 0,0.744 l -3.6778,3.678"
         style="fill:#252e3a;fill-opacity:1;fill-rule:nonzero;stroke:none;stroke-width:0.1"
         id="path1268"
         inkscape:connector-curvature="0" />
      <path
         d="m 77.275,292.039 -1.1648,-1.164 c -0.3653,-0.366 -0.9579,-0.366 -1.3231,0 l -3.8594,3.859 c -0.3652,0.366 -0.3652,0.958 0,1.323 l 1.1645,1.165 c 0.3652,0.366 0.9578,0.366 1.323,0 l 3.8598,-3.859 c 0.3652,-0.366 0.3652,-0.958 0,-1.324 z m 4.3824,0.445 -9.1211,9.121 c -0.6105,0.611 -1.6004,0.611 -2.2109,0 l -7.1609,-7.161 c -0.6106,-0.61 -0.6106,-1.601 0,-2.211 l 9.121,-9.121 c 0.6106,-0.611 1.6008,-0.611 2.2114,0 l 7.1605,7.16 c 0.611,0.611 0.611,1.601 0,2.212"
         style="fill:#252e3a;fill-opacity:1;fill-rule:nonzero;stroke:none;stroke-width:0.1"
         id="path1270"
         inkscape:connector-curvature="0" />
    </g>
  </g>
</svg>
