<?xml version="1.0" encoding="UTF-8" standalone="no"?>
<!-- Created with Inkscape (http://www.inkscape.org/) -->

<svg
   xmlns:dc="http://purl.org/dc/elements/1.1/"
   xmlns:cc="http://creativecommons.org/ns#"
   xmlns:rdf="http://www.w3.org/1999/02/22-rdf-syntax-ns#"
   xmlns:svg="http://www.w3.org/2000/svg"
   xmlns="http://www.w3.org/2000/svg"
   xmlns:sodipodi="http://sodipodi.sourceforge.net/DTD/sodipodi-0.dtd"
   xmlns:inkscape="http://www.inkscape.org/namespaces/inkscape"
   width="11.401072mm"
   height="3.6681833mm"
   viewBox="0 0 11.401072 3.6681833"
   version="1.1"
   id="svg8566"
   inkscape:version="0.92.3 (2405546, 2018-03-11)"
   sodipodi:docname="22.svg">
  <defs
     id="defs8560" />
  <sodipodi:namedview
     id="base"
     pagecolor="#ffffff"
     bordercolor="#666666"
     borderopacity="1.0"
     inkscape:pageopacity="0.0"
     inkscape:pageshadow="2"
     inkscape:zoom="0.35"
     inkscape:cx="55.831047"
     inkscape:cy="-53.068012"
     inkscape:document-units="mm"
     inkscape:current-layer="layer1"
     showgrid="false"
     inkscape:window-width="1366"
     inkscape:window-height="719"
     inkscape:window-x="0"
     inkscape:window-y="25"
     inkscape:window-maximized="1" />
  <metadata
     id="metadata8563">
    <rdf:RDF>
      <cc:Work
         rdf:about="">
        <dc:format>image/svg+xml</dc:format>
        <dc:type
           rdf:resource="http://purl.org/dc/dcmitype/StillImage" />
        <dc:title></dc:title>
      </cc:Work>
    </rdf:RDF>
  </metadata>
  <g
     inkscape:label="Livello 1"
     inkscape:groupmode="layer"
     id="layer1"
     transform="translate(-91.061369,-131.12424)">
    <g
       transform="matrix(0.35277777,0,0,-0.35277777,-18.334665,195.67234)"
       id="g8530">
      <path
         d="m 318.43,178.063 c -0.182,0.182 -0.437,0.328 -0.547,0.51 -0.109,0.182 0.183,0.182 0.219,0.328 0.073,0.109 -0.146,0.109 -0.182,0.218 0,0.255 0.291,0.255 0.473,0.255 0,0.109 0.073,0.146 0.073,0.255 0.146,-0.109 0.364,-0.146 0.401,-0.109 0.145,0.509 0.254,0.546 0.728,0.436 -0.076,0.203 -0.135,0.424 -0.213,0.637 l -0.377,-0.063 c -0.472,-0.079 -0.917,-0.269 -1.302,-0.553 l 0.703,0.079 0.076,-0.145 -0.305,-0.353 c -0.212,-0.245 -0.505,-0.404 -0.825,-0.45 l -0.085,-0.012 0.036,-0.254 0.098,-0.361 c 0.304,-0.247 0.639,-0.444 1.029,-0.418"
         style="fill:#252e3a;fill-opacity:1;fill-rule:nonzero;stroke:none;stroke-width:0.1"
         id="path1516"
         inkscape:connector-curvature="0" />
      <path
         d="m 331.603,181.301 -0.601,-1 -0.004,-0.006 c -0.171,-0.283 -0.389,-0.535 -0.643,-0.745 -0.146,-0.121 -0.245,-0.238 -0.313,-0.33 -0.155,-0.213 -0.182,-0.351 -0.348,-0.612 -0.082,-0.128 -0.166,-0.237 -0.244,-0.327 -0.114,-0.132 -0.276,-0.233 -0.45,-0.235 -0.202,-0.002 -0.472,-0.003 -0.742,-0.003 -0.54,0 -1.08,0.003 -1.08,0.003 h -4.18 c -0.106,0 -0.196,0.077 -0.213,0.182 l -0.019,0.119 c -0.133,0.842 -0.078,1.703 0.162,2.521 0.088,0.3 0.286,0.556 0.553,0.717 1.163,0.702 2.483,1.105 3.84,1.174 l 0.24,0.012 0.001,0.004 h 1.048 c 0.801,0 1.589,-0.193 2.299,-0.564 l 0.336,-0.176 c 0.182,-0.095 0.321,-0.257 0.389,-0.451 0.033,-0.094 0.02,-0.198 -0.031,-0.283 z m 3.346,-1.41 c -0.208,0.387 -0.263,0.839 -0.152,1.265 l -0.06,0.167 c -0.183,0.125 -0.4,0.193 -0.622,0.193 h -0.79 l -0.126,0.03 c -0.177,0.112 -0.355,0.223 -0.533,0.335 -0.661,0.414 -1.383,0.723 -2.144,0.897 l -0.123,0.027 c -0.52,0.109 -0.992,0.154 -1.39,0.166 h -1.421 c -1.434,0 -2.842,-0.374 -4.087,-1.085 l -1.488,-0.851 -2.631,-0.442 c 0.078,-0.213 0.137,-0.434 0.213,-0.637 -0.474,0.11 -0.583,0.073 -0.728,-0.436 -0.037,-0.037 -0.255,0 -0.401,0.109 0,-0.109 -0.073,-0.146 -0.073,-0.255 -0.182,0 -0.473,0 -0.473,-0.255 0.036,-0.109 0.255,-0.109 0.182,-0.218 -0.036,-0.146 -0.328,-0.146 -0.219,-0.328 0.11,-0.182 0.365,-0.328 0.547,-0.51 -0.39,-0.026 -0.725,0.171 -1.029,0.418 l 0.099,-0.371 -0.029,-0.163 c -0.026,-0.148 0.083,-0.286 0.233,-0.294 l 1.366,-0.074 c 0.094,-0.006 0.172,0.075 0.163,0.169 -0.014,0.146 -0.03,0.293 -0.034,0.451 -0.027,0.889 0.675,1.645 1.565,1.637 0.85,-0.008 1.537,-0.699 1.537,-1.552 0,-0.197 -0.003,-0.371 -0.016,-0.549 -0.007,-0.09 0.065,-0.166 0.155,-0.166 h 7.571 c 0.095,0 0.167,0.084 0.153,0.178 -0.022,0.154 -0.032,0.313 -0.034,0.484 -0.009,0.861 0.68,1.599 1.541,1.605 0.862,0.006 1.563,-0.691 1.563,-1.552 l -0.007,-0.136 c -0.009,-0.101 0.085,-0.182 0.185,-0.163 l 0.204,0.04 c 0.089,0.006 0.365,0.039 0.609,0.258 0.107,0.096 0.177,0.201 0.223,0.292 0.084,0.163 0.191,0.313 0.317,0.446 l 0.168,0.178 c 0.127,0.212 0.133,0.474 0.016,0.692"
         style="fill:#252e3a;fill-opacity:1;fill-rule:nonzero;stroke:none;stroke-width:0.1"
         id="path1518"
         inkscape:connector-curvature="0" />
      <path
         d="m 323.19,180.95 0.115,0.173 0.15,0.1 c 0.975,0.649 2.085,1.068 3.246,1.223 l 0.512,0.069 0.125,-0.14 -0.279,-1.116 c -0.03,-0.12 -0.135,-0.207 -0.259,-0.213 l -3.527,-0.19 z m -0.318,-2.708 0.126,-0.108 h 4.175 v 1.808 c 0,0.525 0.049,1.054 0.146,1.57 l 0.219,1.17 -0.213,-0.011 c -1.338,-0.068 -2.652,-0.469 -3.799,-1.161 -0.249,-0.151 -0.431,-0.387 -0.513,-0.667 -0.236,-0.8 -0.29,-1.658 -0.16,-2.482 l 0.019,-0.119"
         style="fill:#252e3a;fill-opacity:1;fill-rule:nonzero;stroke:none;stroke-width:0.1"
         id="path1520"
         inkscape:connector-curvature="0" />
      <path
         d="m 327.596,181.2 0.174,1.15 c 0.017,0.109 0.111,0.189 0.222,0.187 l 0.736,-0.014 c 0.686,-0.013 1.358,-0.199 1.952,-0.542 l 0.228,-0.132 c 0.13,-0.075 0.236,-0.186 0.305,-0.319 l -0.051,-0.247 c -0.149,-0.125 -0.337,-0.193 -0.532,-0.193 h -2.939 z m -0.33,-1.258 v -1.809 c 0.175,-0.001 0.586,-0.002 0.992,-0.002 0.313,0 0.562,0.001 0.741,0.003 0.133,0.001 0.274,0.076 0.385,0.205 0.086,0.099 0.165,0.206 0.236,0.316 0.074,0.117 0.119,0.207 0.162,0.294 0.052,0.104 0.101,0.202 0.189,0.323 0.092,0.125 0.202,0.242 0.328,0.345 0.248,0.205 0.458,0.449 0.623,0.723 l 0.003,0.004 10e-4,0.002 0.601,1 0.024,0.209 c -0.06,0.174 -0.184,0.317 -0.347,0.402 l -0.336,0.176 c -0.694,0.363 -1.475,0.554 -2.258,0.554 h -0.975 l -0.226,-1.207 c -0.095,-0.506 -0.143,-1.024 -0.143,-1.538"
         style="fill:#252e3a;fill-opacity:1;fill-rule:nonzero;stroke:none;stroke-width:0.1"
         id="path1522"
         inkscape:connector-curvature="0" />
      <path
         d="m 320.764,177.015 c -0.637,0 -1.153,0.516 -1.153,1.152 0,0.637 0.516,1.153 1.153,1.153 0.636,0 1.152,-0.516 1.152,-1.153 0,-0.636 -0.516,-1.152 -1.152,-1.152 z m 0,2.633 c -0.818,0 -1.481,-0.663 -1.481,-1.481 0,-0.818 0.663,-1.481 1.481,-1.481 0.817,0 1.481,0.663 1.481,1.481 0,0.818 -0.664,1.481 -1.481,1.481"
         style="fill:#252e3a;fill-opacity:1;fill-rule:nonzero;stroke:none;stroke-width:0.1"
         id="path1524"
         inkscape:connector-curvature="0" />
      <path
         d="m 321.687,178.166 -0.139,-0.1 -0.338,0.11 c -0.104,0.033 -0.145,0.158 -0.081,0.247 l 0.209,0.286 h 0.174 c 0.11,-0.153 0.175,-0.34 0.175,-0.542 z m -0.178,-0.543 c -0.113,-0.155 -0.274,-0.273 -0.46,-0.334 l -0.14,0.102 v 0.355 c 0,0.109 0.107,0.186 0.211,0.152 l 0.336,-0.109 z m -0.875,0.971 -0.209,0.287 0.055,0.165 c 0.089,0.029 0.185,0.045 0.284,0.045 0.098,0 0.194,-0.016 0.283,-0.045 l 0.055,-0.165 -0.209,-0.287 z m -0.016,-1.203 -0.14,-0.102 c -0.186,0.061 -0.347,0.179 -0.46,0.334 l 0.053,0.166 0.337,0.109 c 0.103,0.034 0.21,-0.043 0.21,-0.152 z m -0.778,0.775 v 0.001 c 0,0.202 0.065,0.389 0.176,0.542 h 0.174 l 0.208,-0.286 c 0.064,-0.089 0.023,-0.214 -0.08,-0.247 l -0.339,-0.11 z m 0.924,1.071 c -0.286,0 -0.555,-0.111 -0.757,-0.313 -0.202,-0.202 -0.313,-0.471 -0.313,-0.757 0,-0.286 0.111,-0.554 0.313,-0.756 0.202,-0.202 0.471,-0.313 0.757,-0.313 0.285,0 0.554,0.111 0.756,0.313 0.202,0.202 0.313,0.47 0.313,0.756 0,0.286 -0.111,0.555 -0.313,0.757 -0.202,0.202 -0.471,0.313 -0.756,0.313"
         style="fill:#252e3a;fill-opacity:1;fill-rule:nonzero;stroke:none;stroke-width:0.1"
         id="path1526"
         inkscape:connector-curvature="0" />
      <path
         d="m 331.718,177.015 c -0.636,0 -1.152,0.516 -1.152,1.152 0,0.637 0.516,1.153 1.152,1.153 0.637,0 1.152,-0.516 1.152,-1.153 0,-0.636 -0.515,-1.152 -1.152,-1.152 z m 0,2.633 c -0.818,0 -1.481,-0.663 -1.481,-1.481 0,-0.818 0.663,-1.481 1.481,-1.481 0.818,0 1.481,0.663 1.481,1.481 0,0.818 -0.663,1.481 -1.481,1.481"
         style="fill:#252e3a;fill-opacity:1;fill-rule:nonzero;stroke:none;stroke-width:0.1"
         id="path1528"
         inkscape:connector-curvature="0" />
      <path
         d="m 332.642,178.166 -0.139,-0.1 -0.339,0.11 c -0.104,0.033 -0.144,0.158 -0.08,0.247 l 0.208,0.286 h 0.174 c 0.111,-0.153 0.176,-0.34 0.176,-0.542 z m -0.178,-0.543 c -0.114,-0.155 -0.274,-0.273 -0.46,-0.334 l -0.14,0.102 v 0.355 c 0,0.109 0.106,0.186 0.21,0.152 l 0.337,-0.109 z m -0.876,0.971 -0.208,0.287 0.054,0.165 c 0.09,0.029 0.185,0.045 0.284,0.045 0.099,0 0.194,-0.016 0.284,-0.045 l 0.054,-0.165 -0.208,-0.287 z m -0.016,-1.203 -0.14,-0.102 c -0.186,0.061 -0.346,0.179 -0.459,0.334 l 0.053,0.166 0.336,0.109 c 0.104,0.034 0.21,-0.043 0.21,-0.152 z m -0.777,0.775 v 0.001 c 0,0.202 0.065,0.389 0.175,0.542 h 0.174 l 0.208,-0.286 c 0.064,-0.089 0.024,-0.214 -0.08,-0.247 l -0.338,-0.11 z m 0.923,1.071 c -0.286,0 -0.554,-0.111 -0.756,-0.313 -0.202,-0.202 -0.313,-0.471 -0.313,-0.757 0,-0.286 0.111,-0.554 0.313,-0.756 0.202,-0.202 0.47,-0.313 0.756,-0.313 0.286,0 0.555,0.111 0.756,0.313 0.202,0.202 0.314,0.47 0.314,0.756 0,0.286 -0.112,0.555 -0.314,0.757 -0.201,0.202 -0.47,0.313 -0.756,0.313"
         style="fill:#252e3a;fill-opacity:1;fill-rule:nonzero;stroke:none;stroke-width:0.1"
         id="path1530"
         inkscape:connector-curvature="0" />
      <path
         d="m 335.015,180.256 0.101,0.101 v 0.52 l -0.101,0.101 c -0.111,0 -0.201,-0.09 -0.201,-0.201 v -0.32 c 0,-0.111 0.09,-0.201 0.201,-0.201"
         style="fill:#252e3a;fill-opacity:1;fill-rule:nonzero;stroke:none;stroke-width:0.1"
         id="path1532"
         inkscape:connector-curvature="0" />
      <path
         d="m 334.682,178.819 -0.119,-0.184 0.063,-0.117 h 0.362 c 0.144,0 0.26,0.116 0.26,0.26 l -0.076,0.075 h -0.426 l -0.064,-0.034"
         style="fill:#252e3a;fill-opacity:1;fill-rule:nonzero;stroke:none;stroke-width:0.1"
         id="path1534"
         inkscape:connector-curvature="0" />
      <path
         d="m 318.102,179.59 0.242,0.28 -0.06,0.115 -0.698,-0.078 c -0.19,-0.188 -0.302,-0.437 -0.317,-0.699 l 0.179,0.025 c 0.254,0.036 0.486,0.163 0.654,0.357"
         style="fill:#252e3a;fill-opacity:1;fill-rule:nonzero;stroke:none;stroke-width:0.1"
         id="path1536"
         inkscape:connector-curvature="0" />
      <path
         d="m 314.575,175.566 c -0.681,0 -1.233,-0.552 -1.233,-1.233 0,-0.681 0.552,-1.233 1.233,-1.233 0.681,0 1.233,0.552 1.233,1.233 0,0.681 -0.552,1.233 -1.233,1.233"
         style="fill:#252e3a;fill-opacity:1;fill-rule:nonzero;stroke:none;stroke-width:0.1"
         id="path1538"
         inkscape:connector-curvature="0" />
      <path
         d="m 314.575,172.99 c -0.741,0 -1.343,0.603 -1.343,1.343 0,0.74 0.602,1.343 1.343,1.343 0.74,0 1.343,-0.603 1.343,-1.343 0,-0.74 -0.603,-1.343 -1.343,-1.343 z m 0,3.103 c -0.972,0 -1.76,-0.788 -1.76,-1.76 0,-0.972 0.788,-1.76 1.76,-1.76 0.972,0 1.76,0.788 1.76,1.76 0,0.972 -0.788,1.76 -1.76,1.76"
         style="fill:#252e3a;fill-opacity:1;fill-rule:nonzero;stroke:none;stroke-width:0.1"
         id="path1540"
         inkscape:connector-curvature="0" />
      <path
         d="m 334.266,175.566 c -0.681,0 -1.233,-0.552 -1.233,-1.233 0,-0.681 0.552,-1.233 1.233,-1.233 0.681,0 1.233,0.552 1.233,1.233 0,0.681 -0.552,1.233 -1.233,1.233"
         style="fill:#252e3a;fill-opacity:1;fill-rule:nonzero;stroke:none;stroke-width:0.1"
         id="path1542"
         inkscape:connector-curvature="0" />
      <path
         d="m 334.266,172.99 c -0.74,0 -1.343,0.603 -1.343,1.343 0,0.74 0.603,1.343 1.343,1.343 0.74,0 1.343,-0.603 1.343,-1.343 0,-0.74 -0.603,-1.343 -1.343,-1.343 z m 0,3.103 c -0.972,0 -1.76,-0.788 -1.76,-1.76 0,-0.972 0.788,-1.76 1.76,-1.76 0.972,0 1.76,0.788 1.76,1.76 0,0.972 -0.788,1.76 -1.76,1.76"
         style="fill:#252e3a;fill-opacity:1;fill-rule:nonzero;stroke:none;stroke-width:0.1"
         id="path1544"
         inkscape:connector-curvature="0" />
      <path
         d="m 330.269,175.566 c -0.681,0 -1.233,-0.552 -1.233,-1.233 0,-0.681 0.552,-1.233 1.233,-1.233 0.681,0 1.232,0.552 1.232,1.233 0,0.681 -0.551,1.233 -1.232,1.233"
         style="fill:#252e3a;fill-opacity:1;fill-rule:nonzero;stroke:none;stroke-width:0.1"
         id="path1546"
         inkscape:connector-curvature="0" />
      <path
         d="m 330.269,172.99 c -0.741,0 -1.343,0.603 -1.343,1.343 0,0.74 0.602,1.343 1.343,1.343 0.74,0 1.342,-0.603 1.342,-1.343 0,-0.74 -0.602,-1.343 -1.342,-1.343 z m 0,3.103 c -0.972,0 -1.761,-0.788 -1.761,-1.76 0,-0.972 0.789,-1.76 1.761,-1.76 0.972,0 1.76,0.788 1.76,1.76 0,0.972 -0.788,1.76 -1.76,1.76"
         style="fill:#252e3a;fill-opacity:1;fill-rule:nonzero;stroke:none;stroke-width:0.1"
         id="path1548"
         inkscape:connector-curvature="0" />
      <path
         d="m 315.506,179.088 c 0,-0.156 -0.126,-0.281 -0.281,-0.281 h -3.948 c -0.131,0 -0.211,0.143 -0.143,0.255 0.054,0.119 0.134,0.303 0.212,0.48 0.172,0.398 0.393,0.773 0.66,1.115 l 0.012,0.016 0.103,0.099 0.137,0.036 h 2.967 c 0.155,0 0.281,-0.126 0.281,-0.281 z m 26.684,-4.147 -0.938,0.322 c -1.982,0.678 -4.032,1.138 -6.114,1.365 -0.327,0.036 -0.582,0.058 -0.71,0.058 h -17.787 v 3.908 c 0,0.531 -0.43,0.961 -0.961,0.961 h -3.292 c -0.338,0 -0.652,-0.178 -0.825,-0.469 l -0.519,-0.869 c -0.517,-0.865 -0.832,-1.834 -0.92,-2.833 h 0.589 c 0.166,0 0.302,-0.135 0.302,-0.302 v -0.303 c 0,-0.436 -0.355,-0.79 -0.791,-0.79 h -0.125 v -1.123 c 0,-0.276 0.224,-0.501 0.501,-0.501 h 2.032 c 0.017,1.057 0.882,1.911 1.943,1.911 1.061,0 1.925,-0.854 1.943,-1.911 h 11.808 c 0.017,1.057 0.882,1.911 1.943,1.911 1.06,0 1.925,-0.854 1.942,-1.911 h 0.112 c 0.017,1.057 0.882,1.911 1.943,1.911 1.061,0 1.926,-0.854 1.943,-1.911 h 5.913 c 0.163,0 0.295,0.131 0.295,0.292 0,0.135 -0.094,0.253 -0.227,0.284"
         style="fill:#252e3a;fill-opacity:1;fill-rule:nonzero;stroke:none;stroke-width:0.1"
         id="path1550"
         inkscape:connector-curvature="0" />
      <path
         d="m 310.869,176.779 v 0.303 l -0.156,0.156 h -0.6 c -0.008,-0.121 -0.013,-0.243 -0.014,-0.365 v -0.053 -0.685 h 0.125 c 0.356,0 0.645,0.288 0.645,0.644"
         style="fill:#252e3a;fill-opacity:1;fill-rule:nonzero;stroke:none;stroke-width:0.1"
         id="path1552"
         inkscape:connector-curvature="0" />
    </g>
  </g>
</svg>
