<?xml version="1.0" encoding="UTF-8" standalone="no"?>
<!-- Created with Inkscape (http://www.inkscape.org/) -->

<svg
   xmlns:dc="http://purl.org/dc/elements/1.1/"
   xmlns:cc="http://creativecommons.org/ns#"
   xmlns:rdf="http://www.w3.org/1999/02/22-rdf-syntax-ns#"
   xmlns:svg="http://www.w3.org/2000/svg"
   xmlns="http://www.w3.org/2000/svg"
   xmlns:sodipodi="http://sodipodi.sourceforge.net/DTD/sodipodi-0.dtd"
   xmlns:inkscape="http://www.inkscape.org/namespaces/inkscape"
   width="10.213622mm"
   height="7.0598254mm"
   viewBox="0 0 10.213622 7.0598254"
   version="1.1"
   id="svg8879"
   inkscape:version="0.92.3 (2405546, 2018-03-11)"
   sodipodi:docname="26.svg">
  <defs
     id="defs8873" />
  <sodipodi:namedview
     id="base"
     pagecolor="#ffffff"
     bordercolor="#666666"
     borderopacity="1.0"
     inkscape:pageopacity="0.0"
     inkscape:pageshadow="2"
     inkscape:zoom="0.35"
     inkscape:cx="42.158475"
     inkscape:cy="-38.087174"
     inkscape:document-units="mm"
     inkscape:current-layer="layer1"
     showgrid="false"
     inkscape:window-width="1366"
     inkscape:window-height="719"
     inkscape:window-x="0"
     inkscape:window-y="25"
     inkscape:window-maximized="1" />
  <metadata
     id="metadata8876">
    <rdf:RDF>
      <cc:Work
         rdf:about="">
        <dc:format>image/svg+xml</dc:format>
        <dc:type
           rdf:resource="http://purl.org/dc/dcmitype/StillImage" />
        <dc:title></dc:title>
      </cc:Work>
    </rdf:RDF>
  </metadata>
  <g
     inkscape:label="Livello 1"
     inkscape:groupmode="layer"
     id="layer1"
     transform="translate(-94.678904,-131.69628)">
    <g
       transform="matrix(0.35277777,0,0,-0.35277777,-82.425062,158.86334)"
       id="g8852">
      <path
         d="m 519.917,62.7781 c -0.2,-0.166 -0.451,-0.257 -0.711,-0.2562 l -3.92,0.0062 -0.126,0.1469 0.235,1.534 c 0.023,0.1449 0.149,0.2519 0.296,0.248 l 0.981,-0.0191 c 0.915,-0.0188 1.811,-0.2688 2.603,-0.7277 l 0.304,-0.1762 c 0.173,-0.1 0.313,-0.2481 0.405,-0.4258 0.058,-0.1121 0.03,-0.2492 -0.067,-0.3301 z m -4.877,1.5117 -0.391,-1.55 c -0.042,-0.1668 -0.187,-0.2867 -0.359,-0.2957 l -4.901,-0.2562 -0.115,0.1312 c 0.019,0.0981 0.076,0.1848 0.16,0.2399 l 0.209,0.139 c 1.356,0.9 2.899,1.479 4.512,1.6918 l 0.711,0.0942 c 0.11,0.0148 0.201,-0.086 0.174,-0.1942 z m 9.325,-4.2136 c 0.16,0.2668 0.168,0.5988 0.021,0.8738 -0.079,0.1488 -0.141,0.3051 -0.184,0.4648 l 0.036,-0.0027 0.129,0.1277 0.001,0.6571 -0.128,0.1293 -0.092,-0.018 0.048,0.2418 -0.076,0.2109 c -0.231,0.1602 -0.505,0.245 -0.785,0.2461 l -0.999,0.0012 -0.159,0.0387 c -0.224,0.141 -0.449,0.2832 -0.674,0.4242 -0.834,0.5258 -1.747,0.918 -2.708,1.1391 l -0.156,0.0339 c -0.658,0.1399 -1.254,0.1969 -1.758,0.2141 l -1.796,0.0027 c -1.812,0.0032 -3.594,-0.4668 -5.169,-1.364 l -1.885,-1.0727 -3.804,-0.632 c -0.596,-0.0992 -1.16,-0.3371 -1.647,-0.6961 l 0.889,0.098 c 0.1,0.011 0.162,-0.107 0.096,-0.1839 l -0.387,-0.4454 c -0.268,-0.3089 -0.639,-0.5097 -1.044,-0.5668 l -0.107,-0.0148 c 0.002,-0.107 0.017,-0.2152 0.045,-0.3211 l 0.247,-0.9269 -0.036,-0.2063 c -0.034,-0.1867 0.104,-0.3609 0.293,-0.3719 l 1.727,-0.0968 c 0.12,-0.0063 0.218,0.0949 0.207,0.2136 -0.017,0.1844 -0.037,0.3703 -0.043,0.5703 -0.031,1.1239 0.858,2.0789 1.983,2.0668 1.075,-0.0109 1.942,-0.8879 1.94,-1.9648 0,-0.25 -0.004,-0.4699 -0.021,-0.6949 -0.009,-0.1133 0.082,-0.2102 0.196,-0.2102 l 9.572,-0.016 c 0.12,0 0.212,0.1059 0.195,0.2238 -0.028,0.1961 -0.041,0.3973 -0.043,0.6133 -0.009,1.0879 0.863,2.0211 1.952,2.0258 1.09,0.0062 1.974,-0.877 1.973,-1.9649 l -0.009,-0.1718 c -0.011,-0.1293 0.107,-0.2313 0.234,-0.2071 l 0.258,0.05 c 0.113,0.0079 0.461,0.0481 0.77,0.325 0.108,0.0969 0.186,0.2008 0.244,0.2969 l 0.45,-0.0012 c 0.181,0 0.328,0.1473 0.328,0.3282 l -0.095,0.0949 -0.422,0.0012 0.179,0.2121 0.214,0.225"
         style="fill:#252e3a;fill-opacity:1;fill-rule:nonzero;stroke:none;stroke-width:0.1"
         id="path1560"
         inkscape:connector-curvature="0" />
      <path
         d="m 503.084,60.6051 0.307,0.3539 -0.077,0.1449 -0.882,-0.0969 c -0.241,-0.2359 -0.383,-0.5519 -0.402,-0.8832 l 0.226,0.0321 c 0.321,0.0453 0.615,0.2043 0.828,0.4492"
         style="fill:#252e3a;fill-opacity:1;fill-rule:nonzero;stroke:none;stroke-width:0.1"
         id="path1562"
         inkscape:connector-curvature="0" />
      <path
         d="m 506.444,57.4352 c -0.805,0.0019 -1.456,0.6546 -1.455,1.4589 0.002,0.8047 0.655,1.4559 1.46,1.4547 0.804,-8e-4 1.455,-0.6547 1.454,-1.459 -0.001,-0.8046 -0.655,-1.4558 -1.459,-1.4546 z m 0.005,3.3289 c -1.034,0.0019 -1.873,-0.8352 -1.875,-1.8692 -0.002,-1.034 0.835,-1.8738 1.869,-1.875 1.034,-0.0019 1.874,0.8352 1.875,1.8692 0.002,1.0339 -0.835,1.8738 -1.869,1.875"
         style="fill:#252e3a;fill-opacity:1;fill-rule:nonzero;stroke:none;stroke-width:0.1"
         id="path1564"
         inkscape:connector-curvature="0" />
      <path
         d="m 507.614,58.8879 c 0,-0.0899 -0.09,-0.1539 -0.176,-0.1258 l -0.428,0.1399 c -0.131,0.0429 -0.182,0.2011 -0.101,0.3121 l 0.264,0.3621 0.22,-0.0012 c 0.139,-0.193 0.221,-0.4289 0.221,-0.6852 z m -0.226,-0.6859 c -0.144,-0.1961 -0.347,-0.345 -0.582,-0.4211 -0.088,-0.0278 -0.177,0.0382 -0.177,0.13 l 10e-4,0.4481 c 0,0.1379 0.135,0.2351 0.266,0.1922 l 0.425,-0.1391 z m -1.105,1.23 -0.263,0.3629 0.069,0.209 c 0.113,0.0371 0.234,0.0563 0.359,0.0563 0.125,0 0.246,-0.0204 0.359,-0.0571 l 0.068,-0.209 -0.264,-0.3632 c -0.081,-0.111 -0.247,-0.111 -0.328,0.0011 z m -0.023,-1.5211 c 0,-0.0918 -0.09,-0.1578 -0.177,-0.1289 -0.235,0.077 -0.438,0.227 -0.581,0.4231 l 0.068,0.2097 0.426,0.1383 c 0.131,0.0418 0.265,-0.0562 0.265,-0.1941 z m -0.982,0.9813 v 0.0019 c 10e-4,0.2547 0.083,0.4918 0.223,0.684 h 0.221 l 0.262,-0.3621 c 0.081,-0.1121 0.029,-0.2699 -0.102,-0.3121 l -0.428,-0.1391 c -0.086,-0.0277 -0.176,0.0364 -0.176,0.1274 z m 1.17,1.3519 c -0.361,8e-4 -0.701,-0.139 -0.957,-0.3941 -0.256,-0.2551 -0.397,-0.5941 -0.397,-0.9559 -10e-4,-0.3613 0.139,-0.7011 0.394,-0.957 0.255,-0.2562 0.594,-0.3973 0.956,-0.3973 0.361,-7e-4 0.701,0.1391 0.957,0.3942 0.256,0.2551 0.397,0.5941 0.397,0.9558 10e-4,0.3614 -0.139,0.7012 -0.394,0.9571 -0.255,0.2562 -0.594,0.3972 -0.956,0.3972"
         style="fill:#252e3a;fill-opacity:1;fill-rule:nonzero;stroke:none;stroke-width:0.1"
         id="path1566"
         inkscape:connector-curvature="0" />
      <path
         d="m 520.295,57.4121 c -0.805,0.002 -1.456,0.6551 -1.455,1.459 0.002,0.8051 0.655,1.4559 1.46,1.4551 0.804,-0.0012 1.455,-0.6551 1.454,-1.459 -10e-4,-0.8051 -0.655,-1.4563 -1.459,-1.4551 z m 0.005,3.3289 c -1.034,0.002 -1.873,-0.8351 -1.875,-1.8691 -0.002,-1.034 0.835,-1.8739 1.869,-1.875 1.034,-0.002 1.874,0.8351 1.876,1.8691 0.002,1.034 -0.835,1.8738 -1.87,1.875"
         style="fill:#252e3a;fill-opacity:1;fill-rule:nonzero;stroke:none;stroke-width:0.1"
         id="path1568"
         inkscape:connector-curvature="0" />
      <path
         d="m 521.465,58.8648 c 0,-0.091 -0.09,-0.1539 -0.176,-0.1257 l -0.428,0.1398 c -0.131,0.043 -0.182,0.2012 -0.101,0.3121 l 0.264,0.3621 0.221,-0.0011 c 0.139,-0.193 0.221,-0.4301 0.22,-0.6848 z m -0.226,-0.6859 c -0.144,-0.1957 -0.347,-0.3449 -0.582,-0.4207 -0.087,-0.0293 -0.177,0.0367 -0.177,0.1297 l 10e-4,0.448 c 0,0.1371 0.135,0.2352 0.266,0.1922 l 0.425,-0.139 z m -1.105,1.2301 -0.263,0.3629 0.07,0.209 c 0.113,0.0371 0.233,0.0562 0.358,0.0562 0.125,0 0.246,-0.0199 0.359,-0.057 l 0.068,-0.209 -0.264,-0.3633 c -0.081,-0.1109 -0.247,-0.1109 -0.328,0.0012 z m -0.023,-1.5211 c 0,-0.0918 -0.09,-0.1578 -0.177,-0.1289 -0.235,0.0769 -0.438,0.2269 -0.581,0.423 l 0.068,0.2102 0.426,0.1379 c 0.131,0.0418 0.265,-0.0563 0.265,-0.1942 z m -0.981,0.9812 v 0.002 c 0,0.2551 0.083,0.4918 0.223,0.684 h 0.22 l 0.262,-0.3621 c 0.081,-0.1121 0.03,-0.27 -0.101,-0.3121 l -0.429,-0.1387 c -0.086,-0.0281 -0.175,0.0359 -0.175,0.1269 z m 1.17,1.352 c -0.362,8e-4 -0.702,-0.1391 -0.958,-0.3941 -0.255,-0.2551 -0.396,-0.5938 -0.397,-0.9559 -0.001,-0.3609 0.139,-0.7012 0.394,-0.957 0.255,-0.2563 0.595,-0.3969 0.956,-0.3969 0.362,-0.0012 0.701,0.1387 0.957,0.3937 0.256,0.2551 0.397,0.5942 0.398,0.9563 0,0.3609 -0.14,0.7008 -0.395,0.9566 -0.254,0.2563 -0.594,0.3973 -0.955,0.3973"
         style="fill:#252e3a;fill-opacity:1;fill-rule:nonzero;stroke:none;stroke-width:0.1"
         id="path1570"
         inkscape:connector-curvature="0" />
      <path
         d="m 526.6,61.2551 c -0.507,0.0551 -0.962,-0.3129 -1.017,-0.8199 l -0.003,-0.1461 c -0.079,0.0648 -0.178,0.1078 -0.287,0.1199 -0.302,0.032 -0.573,-0.186 -0.605,-0.4879 -0.032,-0.302 0.186,-0.5723 0.488,-0.6051 0.289,-0.0308 0.549,0.1692 0.599,0.452 0.148,-0.1899 0.37,-0.3219 0.629,-0.35 0.507,-0.0539 0.962,0.3129 1.016,0.8211 0.055,0.507 -0.313,0.9621 -0.82,1.016"
         style="fill:#252e3a;fill-opacity:1;fill-rule:nonzero;stroke:none;stroke-width:0.1"
         id="path1572"
         inkscape:connector-curvature="0" />
      <path
         d="m 530.979,64.9832 c 0,1.0957 -0.888,1.984 -1.984,1.984 -0.738,0 -1.382,-0.4031 -1.723,-1.0024 l -0.011,0.0012 c -0.806,0 -1.458,-0.6531 -1.458,-1.459 0,-0.6871 0.475,-1.2621 1.114,-1.4172 -0.08,-0.1796 -0.124,-0.3789 -0.124,-0.5886 0,-0.8063 0.652,-1.4582 1.458,-1.4582 0.805,0 1.458,0.6519 1.458,1.4582 0,0.209 -0.044,0.4078 -0.124,0.5879 0.808,0.2507 1.394,1.0039 1.394,1.8941"
         style="fill:#252e3a;fill-opacity:1;fill-rule:nonzero;stroke:none;stroke-width:0.1"
         id="path1574"
         inkscape:connector-curvature="0" />
      <path
         d="m 528.5,69.2301 c 0.134,0 0.224,-0.0903 0.224,-0.225 v -0.141 c 0,-0.1352 -0.09,-0.225 -0.224,-0.225 h -1.248 c -0.134,0 -0.225,0.0898 -0.225,0.225 v 0.2168 c 0,0.2281 0.078,0.4062 0.23,0.5273 0.109,0.0848 0.25,0.1617 0.42,0.2297 h 0.002 c 0.215,0.0832 0.305,0.134 0.342,0.1621 l 0.104,0.2012 -0.055,0.1418 -0.155,0.057 c -0.141,0 -0.229,-0.057 -0.284,-0.1828 -0.053,-0.1223 -0.162,-0.1731 -0.283,-0.132 l -0.004,7e-4 -0.157,0.0582 -0.138,0.1207 0.002,0.1684 v 0.002 c 0.15,0.3628 0.454,0.5558 0.879,0.5558 0.242,0 0.444,-0.0762 0.599,-0.2238 l 0.002,-0.0024 c 0.151,-0.1507 0.228,-0.3347 0.228,-0.5457 0,-0.241 -0.071,-0.4332 -0.211,-0.5711 -0.127,-0.125 -0.349,-0.2492 -0.677,-0.3781 l -0.006,-0.0019 -0.071,-0.025 -0.006,-0.0032 -0.023,-0.0097 z m -2.206,0.7238 -0.036,-0.023 c -0.352,-0.2539 -0.784,-0.4039 -1.251,-0.4039 -0.467,0 -0.899,0.15 -1.251,0.4039 l -0.035,0.023 c -0.261,0.1961 -0.478,0.452 -0.626,0.7422 -0.063,0.123 -0.114,0.2527 -0.152,0.3859 l -0.002,0.0078 -0.01,0.0383 -0.006,0.0239 -0.007,0.0269 -0.009,0.041 -0.003,0.0141 -0.022,0.1211 -10e-4,0.0051 -0.007,0.0539 -10e-4,0.014 -0.005,0.0449 -0.002,0.0192 -0.003,0.0387 -10e-4,0.023 -0.002,0.0371 -10e-4,0.0231 v 0.0507 l -10e-4,0.0071 v 0.0011 8e-4 l 10e-4,0.0071 v 0.0511 l 10e-4,0.0231 0.002,0.0371 10e-4,0.0226 0.003,0.0391 0.002,0.0191 0.005,0.045 10e-4,0.014 0.007,0.0539 10e-4,0.0051 0.022,0.1199 0.003,0.0153 0.009,0.041 0.007,0.0269 0.006,0.0239 0.01,0.0379 0.002,0.007 c 0.038,0.134 0.089,0.2641 0.152,0.3871 0.148,0.2898 0.365,0.5461 0.626,0.7422 l 0.035,0.0226 c 0.352,0.2543 0.784,0.4043 1.251,0.4043 0.467,0 0.899,-0.15 1.251,-0.4043 l 0.036,-0.0226 c 0.261,-0.1961 0.477,-0.4524 0.625,-0.7422 0.063,-0.123 0.114,-0.2531 0.152,-0.3859 l 0.002,-0.0082 0.01,-0.0379 0.006,-0.0239 0.007,-0.0269 0.009,-0.041 0.003,-0.0141 0.022,-0.1211 v -0.0051 l 0.008,-0.0539 0.002,-0.014 0.004,-0.045 0.002,-0.0191 0.003,-0.0391 10e-4,-0.0226 0.002,-0.0371 10e-4,-0.0231 v -0.0511 -0.0071 -8e-4 -0.0011 -0.0071 -0.0507 l -10e-4,-0.0231 -0.002,-0.0371 -10e-4,-0.023 -0.003,-0.0387 -0.002,-0.0192 -0.004,-0.0449 -0.002,-0.014 -0.008,-0.0539 v -0.0051 l -0.022,-0.1211 -0.003,-0.0141 -0.009,-0.041 -0.007,-0.0269 -0.006,-0.0239 -0.01,-0.0383 -0.002,-0.0078 c -0.038,-0.1332 -0.089,-0.2629 -0.152,-0.3859 -0.148,-0.2902 -0.364,-0.5461 -0.625,-0.7422 z m -3.661,0.4332 c -0.195,-0.2609 -0.452,-0.4769 -0.742,-0.625 -0.3,-0.1539 -0.637,-0.2351 -0.976,-0.2351 -1.183,0 -2.146,0.9628 -2.146,2.1468 0,1.1832 0.963,2.1461 2.146,2.1461 0.339,0 0.676,-0.0808 0.976,-0.234 0.29,-0.1488 0.547,-0.3648 0.742,-0.6257 0.128,-0.1711 0.094,-0.4133 -0.077,-0.5411 -0.171,-0.1281 -0.413,-0.0929 -0.541,0.0778 -0.262,0.35 -0.663,0.55 -1.1,0.55 -0.757,0 -1.374,-0.616 -1.374,-1.3731 0,-0.7578 0.617,-1.3738 1.374,-1.3738 0.437,0 0.838,0.2012 1.1,0.5512 0.128,0.1699 0.37,0.2047 0.541,0.0769 0.171,-0.1281 0.205,-0.3699 0.077,-0.541 z m 7.129,1.8731 c 0.04,0.1839 0.061,0.375 0.061,0.5707 0,1.5 -1.216,2.716 -2.716,2.716 -0.281,0 -0.553,-0.043 -0.808,-0.1219 -0.277,0.7051 -0.964,1.2039 -1.767,1.2039 -0.293,0 -0.57,-0.066 -0.817,-0.184 -0.345,0.3481 -0.822,0.5641 -1.351,0.5641 -0.743,0 -1.386,-0.427 -1.698,-1.0488 l -0.067,7e-4 c -0.669,0 -1.257,-0.3461 -1.595,-0.8687 -1.353,-0.1551 -2.404,-1.3031 -2.404,-2.6981 0,-0.3742 0.076,-0.7312 0.213,-1.0562 -1.013,-0.0891 -1.808,-0.9391 -1.808,-1.975 0,-1.0957 0.889,-1.984 1.984,-1.984 0.161,0 0.317,0.0191 0.467,0.0551 0.343,-0.3391 0.815,-0.5488 1.336,-0.5488 0.376,0 0.727,0.1097 1.022,0.2988 0.783,-0.418 1.963,-0.6852 3.282,-0.6852 1.743,0 3.243,0.4653 3.906,1.1313 0.335,-0.1481 0.705,-0.2313 1.095,-0.2313 1.5,0 2.716,1.216 2.716,2.716 0,0.8723 -0.412,1.6481 -1.051,2.1454"
         style="fill:#252e3a;fill-opacity:1;fill-rule:nonzero;stroke:none;stroke-width:0.1"
         id="path1576"
         inkscape:connector-curvature="0" />
      <path
         d="m 526.38,71.6602 -10e-4,0.0277 v 0.007 c -0.038,0.7242 -0.639,1.302 -1.372,1.302 -0.733,0 -1.334,-0.5778 -1.372,-1.302 v -0.007 l -10e-4,-0.0277 -10e-4,-0.0262 v -0.011 -0.0101 l 10e-4,-0.0258 10e-4,-0.0281 v -0.007 c 0.038,-0.7239 0.639,-1.302 1.372,-1.302 0.733,0 1.334,0.5781 1.372,1.302 v 0.007 l 10e-4,0.0281 v 0.0258 l 10e-4,0.0101 -10e-4,0.011 v 0.0262"
         style="fill:#252e3a;fill-opacity:1;fill-rule:nonzero;stroke:none;stroke-width:0.1"
         id="path1578"
         inkscape:connector-curvature="0" />
    </g>
  </g>
</svg>
