<?xml version="1.0" encoding="UTF-8" standalone="no"?>
<!-- Created with Inkscape (http://www.inkscape.org/) -->

<svg
   xmlns:dc="http://purl.org/dc/elements/1.1/"
   xmlns:cc="http://creativecommons.org/ns#"
   xmlns:rdf="http://www.w3.org/1999/02/22-rdf-syntax-ns#"
   xmlns:svg="http://www.w3.org/2000/svg"
   xmlns="http://www.w3.org/2000/svg"
   xmlns:sodipodi="http://sodipodi.sourceforge.net/DTD/sodipodi-0.dtd"
   xmlns:inkscape="http://www.inkscape.org/namespaces/inkscape"
   width="9.0783834mm"
   height="5.4840012mm"
   viewBox="0 0 9.0783834 5.4840012"
   version="1.1"
   id="svg9049"
   inkscape:version="0.92.3 (2405546, 2018-03-11)"
   sodipodi:docname="28.svg">
  <defs
     id="defs9043" />
  <sodipodi:namedview
     id="base"
     pagecolor="#ffffff"
     bordercolor="#666666"
     borderopacity="1.0"
     inkscape:pageopacity="0.0"
     inkscape:pageshadow="2"
     inkscape:zoom="0.35"
     inkscape:cx="8.584553"
     inkscape:cy="-52.493675"
     inkscape:document-units="mm"
     inkscape:current-layer="layer1"
     showgrid="false"
     inkscape:window-width="1366"
     inkscape:window-height="719"
     inkscape:window-x="0"
     inkscape:window-y="25"
     inkscape:window-maximized="1" />
  <metadata
     id="metadata9046">
    <rdf:RDF>
      <cc:Work
         rdf:about="">
        <dc:format>image/svg+xml</dc:format>
        <dc:type
           rdf:resource="http://purl.org/dc/dcmitype/StillImage" />
        <dc:title></dc:title>
      </cc:Work>
    </rdf:RDF>
  </metadata>
  <g
     inkscape:label="Livello 1"
     inkscape:groupmode="layer"
     id="layer1"
     transform="translate(-103.562,-129.46038)">
    <g
       transform="matrix(0.35277777,0,0,-0.35277777,-233.3069,168.79863)"
       id="g9028">
      <path
         d="m 960.099,106.891 c 0.385,0.411 0.929,0.646 1.492,0.646 l 0.133,-0.004 c 1.023,-0.065 1.844,-0.885 1.909,-1.909 0.036,-0.572 -0.159,-1.117 -0.55,-1.533 -0.385,-0.411 -0.929,-0.646 -1.492,-0.646 l -0.133,0.004 c -1.024,0.065 -1.845,0.886 -1.909,1.91 -0.036,0.572 0.159,1.116 0.55,1.532 z m -2.36,-5.203 c 0.961,0.857 2.331,1.394 3.852,1.394 1.519,0 2.887,-0.535 3.848,-1.391 v 6.67 h -7.7 v -6.673"
         style="fill:#252e3a;fill-opacity:1;fill-rule:nonzero;stroke:none;stroke-width:0.1"
         id="path3970"
         inkscape:connector-curvature="0" />
      <path
         d="m 961.591,102.429 c -1.458,0 -2.801,-0.542 -3.683,-1.487 l -0.075,-0.194 v -1.5429 h 7.515 v 1.5499 l -0.07,0.182 c -0.883,0.949 -2.227,1.492 -3.687,1.492"
         style="fill:#252e3a;fill-opacity:1;fill-rule:nonzero;stroke:none;stroke-width:0.1"
         id="path3972"
         inkscape:connector-curvature="0" />
      <path
         d="m 961.504,104.177 c 0.399,-0.027 0.776,0.124 1.048,0.413 0.251,0.268 0.377,0.619 0.353,0.988 -0.041,0.647 -0.58,1.187 -1.227,1.228 l -0.089,0.002 c -0.367,0 -0.708,-0.148 -0.959,-0.416 -0.251,-0.268 -0.377,-0.618 -0.354,-0.988 0.041,-0.647 0.58,-1.187 1.228,-1.227"
         style="fill:#252e3a;fill-opacity:1;fill-rule:nonzero;stroke:none;stroke-width:0.1"
         id="path3974"
         inkscape:connector-curvature="0" />
      <path
         d="m 977.707,107.545 h -7.923 c -0.224,0 -0.406,0.182 -0.406,0.407 0,0.224 0.182,0.406 0.406,0.406 h 7.923 c 0.225,0 0.407,-0.182 0.407,-0.406 0,-0.225 -0.182,-0.407 -0.407,-0.407 z m 0,-8.0911 h -7.923 c -0.224,0 -0.406,0.1813 -0.406,0.4063 0,0.2238 0.182,0.4058 0.406,0.4058 h 7.923 c 0.225,0 0.407,-0.182 0.407,-0.4058 0,-0.225 -0.182,-0.4063 -0.407,-0.4063 z m -11.706,-0.457 V 98.723 c 0,-0.0941 -0.076,-0.171 -0.168,-0.171 h -8.484 c -0.093,0 -0.168,0.0769 -0.168,0.171 v 0.0352 0.2387 1.3091 l -0.003,0.031 v 8.305 c 0,0.155 0.126,0.281 0.281,0.281 h 8.261 c 0.154,0 0.28,-0.126 0.28,-0.281 v -7.877 l 10e-4,-0.01 z m 3.377,6.2911 c 0,0.224 0.182,0.406 0.406,0.406 h 7.314 c 0.224,0 0.406,-0.182 0.406,-0.406 0,-0.224 -0.182,-0.406 -0.406,-0.406 h -7.314 c -0.224,0 -0.406,0.182 -0.406,0.406 z m 0.406,-2.257 h 3.962 c 0.224,0 0.406,-0.182 0.406,-0.407 0,-0.224 -0.182,-0.406 -0.406,-0.406 h -3.962 c -0.224,0 -0.406,0.182 -0.406,0.406 0,0.225 0.182,0.407 0.406,0.407 z m 8.736,8.479 h -21.498 c -1.17,0 -2.118,-0.948 -2.118,-2.118 V 98.0828 c 0,-1.1699 0.948,-2.118 2.118,-2.118 h 21.498 c 1.169,0 2.118,0.9481 2.118,2.118 v 11.3092 c 0,1.17 -0.949,2.118 -2.118,2.118"
         style="fill:#252e3a;fill-opacity:1;fill-rule:nonzero;stroke:none;stroke-width:0.1"
         id="path3976"
         inkscape:connector-curvature="0" />
    </g>
  </g>
</svg>
