<?xml version="1.0" encoding="UTF-8" standalone="no"?>
<!-- Created with Inkscape (http://www.inkscape.org/) -->

<svg
   xmlns:dc="http://purl.org/dc/elements/1.1/"
   xmlns:cc="http://creativecommons.org/ns#"
   xmlns:rdf="http://www.w3.org/1999/02/22-rdf-syntax-ns#"
   xmlns:svg="http://www.w3.org/2000/svg"
   xmlns="http://www.w3.org/2000/svg"
   xmlns:sodipodi="http://sodipodi.sourceforge.net/DTD/sodipodi-0.dtd"
   xmlns:inkscape="http://www.inkscape.org/namespaces/inkscape"
   width="11.049783mm"
   height="5.7262888mm"
   viewBox="0 0 11.049783 5.7262888"
   version="1.1"
   id="svg6451"
   inkscape:version="0.92.3 (2405546, 2018-03-11)"
   sodipodi:docname="3.svg">
  <defs
     id="defs6445" />
  <sodipodi:namedview
     id="base"
     pagecolor="#ffffff"
     bordercolor="#666666"
     borderopacity="1.0"
     inkscape:pageopacity="0.0"
     inkscape:pageshadow="2"
     inkscape:zoom="0.35"
     inkscape:cx="218.02434"
     inkscape:cy="-332.0358"
     inkscape:document-units="mm"
     inkscape:current-layer="layer1"
     showgrid="false"
     inkscape:window-width="1366"
     inkscape:window-height="719"
     inkscape:window-x="0"
     inkscape:window-y="25"
     inkscape:window-maximized="1" />
  <metadata
     id="metadata6448">
    <rdf:RDF>
      <cc:Work
         rdf:about="">
        <dc:format>image/svg+xml</dc:format>
        <dc:type
           rdf:resource="http://purl.org/dc/dcmitype/StillImage" />
        <dc:title></dc:title>
      </cc:Work>
    </rdf:RDF>
  </metadata>
  <g
     inkscape:label="Livello 1"
     inkscape:groupmode="layer"
     id="layer1"
     transform="translate(-48.147727,-55.255906)">
    <g
       transform="matrix(0.35277777,0,0,-0.35277777,29.623399,146.77281)"
       id="g6432">
      <path
         d="m 82.1016,249.258 c -0.0957,-0.43 -0.3602,-0.783 -0.7442,-0.995 -4.009,-2.213 -8.5683,-3.383 -13.1851,-3.383 -4.6258,0 -9.1864,1.168 -13.1883,3.379 -0.3836,0.212 -0.6477,0.566 -0.7434,0.996 -0.0953,0.427 -0.0019,0.875 0.2551,1.229 l 4.8016,6.609 c 0.4312,0.594 1.2308,0.793 1.9011,0.473 2.1864,-1.043 4.5325,-1.572 6.9739,-1.572 2.3199,0 4.5597,0.479 6.6578,1.425 0.1117,0.051 0.225,0.103 0.3363,0.157 0.6582,0.314 1.4488,0.112 1.8809,-0.483 l 4.7992,-6.605 c 0.257,-0.354 0.35,-0.802 0.2551,-1.23 z m 1.1156,2.226 -4.7992,6.605 c -0.6231,0.857 -1.6016,1.329 -2.6035,1.329 -0.4661,0 -0.9368,-0.102 -1.3797,-0.314 -0.0996,-0.048 -0.2008,-0.095 -0.3012,-0.14 -1.8773,-0.847 -3.8832,-1.276 -5.9613,-1.276 -2.1868,0 -4.2879,0.473 -6.2442,1.407 -1.4074,0.671 -3.0902,0.248 -4.0015,-1.006 L 53.125,251.48 c -0.5426,-0.747 -0.7387,-1.692 -0.5383,-2.593 0.1996,-0.898 0.775,-1.667 1.5781,-2.11 2.1258,-1.175 4.3961,-2.077 6.7469,-2.68 2.3563,-0.605 4.7992,-0.911 7.2606,-0.911 2.457,0 4.8968,0.307 7.2527,0.912 2.3504,0.604 4.6219,1.506 6.7512,2.682 0.8035,0.443 1.3793,1.213 1.5789,2.11 0.2008,0.901 0.0047,1.847 -0.5379,2.594"
         style="fill:#252e3a;fill-opacity:1;fill-rule:nonzero;stroke:none;stroke-width:0.1"
         id="path1264"
         inkscape:connector-curvature="0" />
      <path
         d="m 76.4164,252.109 -0.0621,-0.054 -1.1809,-1.017 -2.0515,0.692 -0.0688,0.023 -0.1242,-0.022 -1.0859,-0.193 0.3613,1.048 0.0922,0.268 -0.2078,0.091 -0.8367,0.368 0.8632,1.013 -1.241,-0.955 -0.1594,-0.123 0.1911,-0.137 0.6769,-0.487 -0.6211,-1.069 -2.5176,1.613 -0.1039,0.067 -0.0808,-0.032 -2.1703,-0.858 2.1664,0.438 2.1207,-1.962 -0.8133,-0.995 -0.1453,-0.178 0.0691,-0.112 0.5992,-0.968 -0.0496,0.91 0.9313,0.668 0.209,-0.432 0.0843,-0.174 0.0989,-0.041 1.9644,-0.814 0.1461,-1.335 0.1582,1.445 0.0082,0.075 -0.0902,0.064 -1.6453,1.151 -0.1098,0.462 1.257,0.408 2.1172,-0.403 0.1453,-0.028 0.077,0.087 1.0848,1.23 1.5312,-0.466 -1.5273,0.706 -0.0602,0.028"
         style="fill:#252e3a;fill-opacity:1;fill-rule:nonzero;stroke:none;stroke-width:0.1"
         id="path1266"
         inkscape:connector-curvature="0" />
    </g>
  </g>
</svg>
