<?xml version="1.0" encoding="UTF-8" standalone="no"?>
<!-- Created with Inkscape (http://www.inkscape.org/) -->

<svg
   xmlns:dc="http://purl.org/dc/elements/1.1/"
   xmlns:cc="http://creativecommons.org/ns#"
   xmlns:rdf="http://www.w3.org/1999/02/22-rdf-syntax-ns#"
   xmlns:svg="http://www.w3.org/2000/svg"
   xmlns="http://www.w3.org/2000/svg"
   xmlns:sodipodi="http://sodipodi.sourceforge.net/DTD/sodipodi-0.dtd"
   xmlns:inkscape="http://www.inkscape.org/namespaces/inkscape"
   width="7.5265832mm"
   height="7.0477943mm"
   viewBox="0 0 7.5265832 7.0477943"
   version="1.1"
   id="svg6511"
   inkscape:version="0.92.3 (2405546, 2018-03-11)"
   sodipodi:docname="4.svg">
  <defs
     id="defs6505" />
  <sodipodi:namedview
     id="base"
     pagecolor="#ffffff"
     bordercolor="#666666"
     borderopacity="1.0"
     inkscape:pageopacity="0.0"
     inkscape:pageshadow="2"
     inkscape:zoom="0.35"
     inkscape:cx="-228.63366"
     inkscape:cy="13.318674"
     inkscape:document-units="mm"
     inkscape:current-layer="layer1"
     showgrid="false"
     inkscape:window-width="1366"
     inkscape:window-height="719"
     inkscape:window-x="0"
     inkscape:window-y="25"
     inkscape:window-maximized="1" />
  <metadata
     id="metadata6508">
    <rdf:RDF>
      <cc:Work
         rdf:about="">
        <dc:format>image/svg+xml</dc:format>
        <dc:type
           rdf:resource="http://purl.org/dc/dcmitype/StillImage" />
        <dc:title></dc:title>
      </cc:Work>
    </rdf:RDF>
  </metadata>
  <g
     inkscape:label="Livello 1"
     inkscape:groupmode="layer"
     id="layer1"
     transform="translate(-166.32599,-145.30944)">
    <g
       transform="matrix(0.35277777,0,0,-0.35277777,119.59888,237.97675)"
       id="g6488">
      <path
         d="m 134.486,252.192 v -1.017 c 0,-0.424 0.343,-0.767 0.767,-0.767 h 2.087 c 0.424,0 0.767,0.343 0.767,0.767 v 0.721 c -1.01,0.027 -2.019,0.064 -3.022,0.111 -0.22,0.011 -0.424,0.078 -0.599,0.185"
         style="fill:#252e3a;fill-opacity:1;fill-rule:nonzero;stroke:none;stroke-width:0.1"
         id="path2086"
         inkscape:connector-curvature="0" />
      <path
         d="m 147.488,252.563 c -2.11,0 -3.821,1.711 -3.821,3.821 0,2.111 1.711,3.821 3.821,3.821 2.111,0 3.821,-1.71 3.821,-3.821 0,-2.11 -1.71,-3.821 -3.821,-3.821 z m 5.203,3.291 1.099,0.839 -1.182,0.72 0.803,1.126 -1.342,0.339 0.436,1.313 -1.382,-0.072 0.029,1.384 -1.299,-0.476 -0.38,1.33 -1.101,-0.837 -0.756,1.159 -0.805,-1.125 -1.063,0.885 -0.438,-1.313 -1.277,0.533 -0.032,-1.384 -1.377,0.133 0.377,-1.331 -1.355,-0.28 0.753,-1.161 -1.212,-0.666 1.061,-0.888 -0.962,-0.994 1.276,-0.535 -0.626,-1.233 1.377,-0.135 -0.235,-1.364 1.356,0.277 0.177,-1.372 1.214,0.664 0.574,-1.259 0.964,0.992 0.92,-1.033 0.628,1.232 1.184,-0.716 0.238,1.363 1.342,-0.336 -0.175,1.372 1.381,0.075 -0.571,1.26 1.298,0.478 -0.917,1.036"
         style="fill:#252e3a;fill-opacity:1;fill-rule:nonzero;stroke:none;stroke-width:0.1"
         id="path2088"
         inkscape:connector-curvature="0" />
      <path
         d="m 149.944,250.364 -0.897,0.542 -0.476,-0.933 -0.207,-0.407 -0.304,0.341 -0.696,0.783 -0.231,-0.237 2.011,-7.752 0.975,2.04 1.838,-1.315 -1.759,6.783 -0.254,0.155"
         style="fill:#252e3a;fill-opacity:1;fill-rule:nonzero;stroke:none;stroke-width:0.1"
         id="path2090"
         inkscape:connector-curvature="0" />
      <path
         d="m 147.364,250.69 -0.73,-0.751 -0.319,-0.328 -0.19,0.416 -0.434,0.953 -0.919,-0.503 -0.311,-0.17 -1.213,-4.627 1.844,1.307 0.967,-2.044 1.46,5.572 -0.155,0.175"
         style="fill:#252e3a;fill-opacity:1;fill-rule:nonzero;stroke:none;stroke-width:0.1"
         id="path2092"
         inkscape:connector-curvature="0" />
      <path
         d="m 147.488,253.136 c -1.794,0 -3.248,1.455 -3.248,3.248 0,1.794 1.454,3.248 3.248,3.248 1.794,0 3.248,-1.454 3.248,-3.248 0,-1.793 -1.454,-3.248 -3.248,-3.248"
         style="fill:#252e3a;fill-opacity:1;fill-rule:nonzero;stroke:none;stroke-width:0.1"
         id="path2094"
         inkscape:connector-curvature="0" />
      <path
         d="m 138.634,254.902 -10e-4,-0.004 c -0.035,-0.159 -0.159,-0.284 -0.316,-0.322 l -0.021,-0.004 c -0.295,-0.056 -0.655,-0.097 -1.065,-0.088 -0.195,0.005 -0.378,0.021 -0.547,0.043 -0.337,0.045 -0.66,0.167 -0.943,0.356 -0.17,0.113 -0.272,0.304 -0.272,0.508 l 0.001,0.661 c 0,0.142 0.098,0.262 0.232,0.295 l 0.041,0.007 c 0.177,0.018 0.354,0.036 0.531,0.055 0.203,0.02 0.407,-0.022 0.585,-0.122 0.102,-0.057 0.219,-0.123 0.348,-0.193 0.372,-0.204 0.519,-0.277 0.793,-0.433 0.125,-0.072 0.295,-0.171 0.496,-0.296 0.106,-0.065 0.168,-0.184 0.16,-0.308 z m 4.204,-2.333 h -2.979 c -0.166,0 -0.299,0.134 -0.299,0.299 v 0.332 c 0,0.166 0.133,0.3 0.299,0.3 h 1.76 l 0.441,0.869 -0.915,0.383 -0.491,0.206 0.371,0.383 0.689,0.713 -0.761,0.636 -0.409,0.342 0.467,0.257 0.869,0.478 -0.54,0.832 -0.162,0.25 c -1.958,-0.021 -3.29,-0.134 -5.096,-0.303 0.209,0.407 0.957,1.833 0.957,1.833 0.227,0.442 0.637,0.751 1.124,0.849 1.296,0.258 2.622,0.393 3.942,0.399 h 0.102 c 0.486,0 0.973,-0.017 1.459,-0.052 l 0.003,0.092 0.012,0.533 0.491,-0.205 0.916,-0.382 0.213,0.637 c -0.926,0.135 -1.963,0.224 -3.094,0.224 h -0.106 c -1.564,-0.008 -2.948,-0.185 -4.103,-0.416 -0.738,-0.147 -1.368,-0.623 -1.712,-1.292 -0.378,-0.735 -0.756,-1.47 -1.134,-2.205 -0.203,0.28 -0.521,0.474 -0.892,0.507 l -0.895,0.078 c -0.46,0.041 -0.866,-0.299 -0.907,-0.759 -0.04,-0.46 0.3,-0.867 0.76,-0.907 l 1.346,-0.119 c -0.216,-0.555 -0.329,-1.147 -0.329,-1.745 v -2.347 c 0,-0.485 0.381,-0.886 0.867,-0.909 2.254,-0.107 4.607,-0.167 7.052,-0.168 h 0.052 c 0.19,0 0.378,0 0.567,0.001 l 0.065,0.376"
         style="fill:#252e3a;fill-opacity:1;fill-rule:nonzero;stroke:none;stroke-width:0.1"
         id="path2096"
         inkscape:connector-curvature="0" />
    </g>
  </g>
</svg>
