<?xml version="1.0" encoding="UTF-8" standalone="no"?>
<!-- Created with Inkscape (http://www.inkscape.org/) -->

<svg
   xmlns:dc="http://purl.org/dc/elements/1.1/"
   xmlns:cc="http://creativecommons.org/ns#"
   xmlns:rdf="http://www.w3.org/1999/02/22-rdf-syntax-ns#"
   xmlns:svg="http://www.w3.org/2000/svg"
   xmlns="http://www.w3.org/2000/svg"
   xmlns:sodipodi="http://sodipodi.sourceforge.net/DTD/sodipodi-0.dtd"
   xmlns:inkscape="http://www.inkscape.org/namespaces/inkscape"
   width="6.3476429mm"
   height="5.6694937mm"
   viewBox="0 0 6.3476429 5.6694937"
   version="1.1"
   id="svg6571"
   inkscape:version="0.92.3 (2405546, 2018-03-11)"
   sodipodi:docname="5.svg">
  <defs
     id="defs6565" />
  <sodipodi:namedview
     id="base"
     pagecolor="#ffffff"
     bordercolor="#666666"
     borderopacity="1.0"
     inkscape:pageopacity="0.0"
     inkscape:pageshadow="2"
     inkscape:zoom="0.35"
     inkscape:cx="-530.86162"
     inkscape:cy="310.71399"
     inkscape:document-units="mm"
     inkscape:current-layer="layer1"
     showgrid="false"
     inkscape:window-width="1366"
     inkscape:window-height="719"
     inkscape:window-x="0"
     inkscape:window-y="25"
     inkscape:window-maximized="1" />
  <metadata
     id="metadata6568">
    <rdf:RDF>
      <cc:Work
         rdf:about="">
        <dc:format>image/svg+xml</dc:format>
        <dc:type
           rdf:resource="http://purl.org/dc/dcmitype/StillImage" />
        <dc:title></dc:title>
      </cc:Work>
    </rdf:RDF>
  </metadata>
  <g
     inkscape:label="Livello 1"
     inkscape:groupmode="layer"
     id="layer1"
     transform="translate(-246.29047,-225.37358)">
    <g
       transform="matrix(0.35277777,0,0,-0.35277777,185.87269,304.25046)"
       id="g6552">
      <path
         d="m 171.263,214.098 c 0,-2.435 1.973,-4.408 4.408,-4.408 2.434,0 4.408,1.973 4.408,4.408 0,2.434 -4.408,7.848 -4.408,7.848 0,0 -4.408,-5.414 -4.408,-7.848"
         style="fill:#252e3a;fill-opacity:1;fill-rule:nonzero;stroke:none;stroke-width:0.1"
         id="path2074"
         inkscape:connector-curvature="0" />
      <path
         d="m 189.251,212.246 c -0.039,1.787 -0.16,2.91 -0.417,3.875 -0.138,0.517 -0.235,0.744 -0.312,0.926 -0.071,0.167 -0.114,0.268 -0.172,0.581 -0.086,0.464 -0.101,0.851 -0.115,1.226 l -0.004,0.111 0.173,0.668 c 0.084,0.323 -0.005,0.666 -0.235,0.908 l -0.883,0.927 c -0.385,0.431 -0.845,0.783 -1.369,1.046 -0.219,0.111 -0.487,0.022 -0.597,-0.197 -0.11,-0.22 -0.022,-0.487 0.198,-0.597 0.38,-0.191 0.718,-0.44 1.008,-0.741 0.015,-0.184 0.03,-0.372 0.043,-0.527 0.02,-0.252 0.097,-0.496 0.223,-0.716 l 0.546,-0.709 0.008,-0.207 c 0.015,-0.388 0.032,-0.826 0.13,-1.355 0.076,-0.408 0.146,-0.574 0.227,-0.766 0.07,-0.164 0.149,-0.351 0.271,-0.807 0.175,-0.653 0.342,-1.548 0.388,-3.665 0.047,-2.158 -0.255,-2.458 -0.316,-2.497 -0.176,-0.109 -0.465,-0.116 -0.673,-0.015 -0.496,0.24 -0.6,1.224 -0.684,2.015 -0.071,0.67 -0.044,1.155 -0.021,1.582 0.034,0.611 0.062,1.139 -0.285,1.727 -0.288,0.49 -0.746,0.873 -1.361,1.142 l -0.02,6.69 c -0.001,0.397 -0.324,0.718 -0.721,0.717 l -7.892,-0.024 c -0.397,-0.001 -0.718,-0.324 -0.717,-0.721 l 0.001,-0.265 0.309,-0.38 c 0.007,-0.008 0.471,-0.58 1.094,-1.427 l -0.001,0.44 c -10e-4,0.397 0.32,0.72 0.717,0.721 l 5.096,0.015 c 0.397,0.002 0.72,-0.319 0.721,-0.717 l 0.009,-2.901 c 0.001,-0.397 -0.32,-0.72 -0.717,-0.722 l -3.721,-0.011 c 0.863,-1.502 1.299,-2.675 1.299,-3.498 0,-2.638 -2.134,-4.785 -4.766,-4.808 l 0.001,-0.325 c 0,-0.21 -0.169,-0.38 -0.379,-0.381 -0.209,0 -0.379,-0.171 -0.378,-0.381 l 0.001,-0.307 c 0,-0.21 0.171,-0.38 0.381,-0.379 l 10.089,0.031 c 0.21,0 0.379,0.171 0.379,0.38 l -10e-4,0.308 c -0.001,0.21 -0.171,0.379 -0.381,0.379 -0.21,-0.001 -0.38,0.169 -0.381,0.378 l -0.019,6.184 c 0.259,-0.164 0.458,-0.362 0.593,-0.59 0.201,-0.342 0.195,-0.623 0.162,-1.226 -0.024,-0.438 -0.054,-0.984 0.025,-1.724 0.107,-1.01 0.24,-2.267 1.18,-2.722 0.223,-0.108 0.473,-0.161 0.721,-0.161 0.291,0.001 0.578,0.076 0.812,0.223 0.476,0.298 0.783,0.968 0.733,3.269"
         style="fill:#252e3a;fill-opacity:1;fill-rule:nonzero;stroke:none;stroke-width:0.1"
         id="path2076"
         inkscape:connector-curvature="0" />
    </g>
  </g>
</svg>
