<?xml version="1.0" encoding="UTF-8" standalone="no"?>
<!-- Created with Inkscape (http://www.inkscape.org/) -->

<svg
   xmlns:dc="http://purl.org/dc/elements/1.1/"
   xmlns:cc="http://creativecommons.org/ns#"
   xmlns:rdf="http://www.w3.org/1999/02/22-rdf-syntax-ns#"
   xmlns:svg="http://www.w3.org/2000/svg"
   xmlns="http://www.w3.org/2000/svg"
   xmlns:sodipodi="http://sodipodi.sourceforge.net/DTD/sodipodi-0.dtd"
   xmlns:inkscape="http://www.inkscape.org/namespaces/inkscape"
   width="6.9050164mm"
   height="7.6667061mm"
   viewBox="0 0 6.9050164 7.6667061"
   version="1.1"
   id="svg6629"
   inkscape:version="0.92.3 (2405546, 2018-03-11)"
   sodipodi:docname="6.svg">
  <defs
     id="defs6623" />
  <sodipodi:namedview
     id="base"
     pagecolor="#ffffff"
     bordercolor="#666666"
     borderopacity="1.0"
     inkscape:pageopacity="0.0"
     inkscape:pageshadow="2"
     inkscape:zoom="0.35"
     inkscape:cx="50.191705"
     inkscape:cy="343.05968"
     inkscape:document-units="mm"
     inkscape:current-layer="layer1"
     showgrid="false"
     inkscape:window-width="1366"
     inkscape:window-height="719"
     inkscape:window-x="0"
     inkscape:window-y="25"
     inkscape:window-maximized="1" />
  <metadata
     id="metadata6626">
    <rdf:RDF>
      <cc:Work
         rdf:about="">
        <dc:format>image/svg+xml</dc:format>
        <dc:type
           rdf:resource="http://purl.org/dc/dcmitype/StillImage" />
        <dc:title></dc:title>
      </cc:Work>
    </rdf:RDF>
  </metadata>
  <g
     inkscape:label="Livello 1"
     inkscape:groupmode="layer"
     id="layer1"
     transform="translate(-92.553445,-231.9345)">
    <g
       transform="matrix(0.35277777,0,0,-0.35277777,58.964512,311.42923)"
       id="g6607">
      <path
         d="m 99.8004,208.41 1.9996,0.297 c 0.095,1.631 0.025,3.629 -0.463,5.842 -0.449,2.038 -1.136,3.729 -1.7944,5.033 -0.2574,0.51 -0.7703,0.84 -1.341,0.864 -0.2282,0.009 -0.4563,0.018 -0.6844,0.027 -1.0352,0.042 -1.8274,-0.911 -1.5969,-1.921 l 2.6004,-11.39 c 0.1129,0.635 0.6254,1.151 1.2797,1.248"
         style="fill:#252e3a;fill-opacity:1;fill-rule:nonzero;stroke:none;stroke-width:0.1"
         id="path78"
         inkscape:connector-curvature="0" />
      <path
         d="m 97.1855,220.73 0.1571,0.061 c 1.0797,0.42 1.3914,1.414 1.2769,2.454 -0.1168,1.064 -0.6648,1.915 -1.841,2.066 l -0.1293,0.017 c -0.8008,0.103 -1.5097,-0.507 -1.4304,-1.232 l 0.273,-2.485 c 0.0809,-0.736 0.9301,-1.178 1.6937,-0.881"
         style="fill:#252e3a;fill-opacity:1;fill-rule:nonzero;stroke:none;stroke-width:0.1"
         id="path80"
         inkscape:connector-curvature="0" />
      <path
         d="m 100.104,206.338 c -0.2931,0 -0.5302,0.237 -0.5302,0.529 0,0.293 0.2371,0.53 0.5302,0.53 0.292,0 0.529,-0.237 0.529,-0.53 0,-0.292 -0.237,-0.529 -0.529,-0.529 z m 11.232,3.535 -11.4989,-1.709 c -0.6273,-0.093 -1.0918,-0.631 -1.0918,-1.266 0,-0.706 0.5731,-1.279 1.2797,-1.279 h 13.48 c 0.708,0 1.281,0.573 1.281,1.279 0,1.838 -1.633,3.245 -3.45,2.975"
         style="fill:#252e3a;fill-opacity:1;fill-rule:nonzero;stroke:none;stroke-width:0.1"
         id="path82"
         inkscape:connector-curvature="0" />
      <path
         d="m 111.386,204.65 c -0.481,-0.361 -1.098,-0.563 -1.741,-0.563 h -6.412 c -0.644,0 -1.262,0.203 -1.742,0.563 l 0.049,0.141 h 9.798 z m 0.723,0.679 h -11.333 c -0.309,0 -0.475,-0.363 -0.272,-0.596 l 0.085,-0.098 c 0.565,-0.653 1.387,-1.028 2.25,-1.028 h 7.199 c 0.832,0 1.625,0.348 2.189,0.959 l 0.147,0.159 c 0.213,0.23 0.049,0.604 -0.265,0.604"
         style="fill:#252e3a;fill-opacity:1;fill-rule:nonzero;stroke:none;stroke-width:0.1"
         id="path84"
         inkscape:connector-curvature="0" />
      <path
         d="m 100.104,207.198 c -0.1825,0 -0.3313,-0.148 -0.3313,-0.331 0,-0.182 0.1488,-0.331 0.3313,-0.331 0.182,0 0.331,0.149 0.331,0.331 0,0.183 -0.149,0.331 -0.331,0.331"
         style="fill:#252e3a;fill-opacity:1;fill-rule:nonzero;stroke:none;stroke-width:0.1"
         id="path86"
         inkscape:connector-curvature="0" />
    </g>
  </g>
</svg>
