<?xml version="1.0" encoding="UTF-8" standalone="no"?>
<!-- Created with Inkscape (http://www.inkscape.org/) -->

<svg
   xmlns:dc="http://purl.org/dc/elements/1.1/"
   xmlns:cc="http://creativecommons.org/ns#"
   xmlns:rdf="http://www.w3.org/1999/02/22-rdf-syntax-ns#"
   xmlns:svg="http://www.w3.org/2000/svg"
   xmlns="http://www.w3.org/2000/svg"
   xmlns:sodipodi="http://sodipodi.sourceforge.net/DTD/sodipodi-0.dtd"
   xmlns:inkscape="http://www.inkscape.org/namespaces/inkscape"
   width="9.0843391mm"
   height="9.0841789mm"
   viewBox="0 0 9.0843391 9.0841789"
   version="1.1"
   id="svg6773"
   inkscape:version="0.92.3 (2405546, 2018-03-11)"
   sodipodi:docname="8.svg">
  <defs
     id="defs6767" />
  <sodipodi:namedview
     id="base"
     pagecolor="#ffffff"
     bordercolor="#666666"
     borderopacity="1.0"
     inkscape:pageopacity="0.0"
     inkscape:pageshadow="2"
     inkscape:zoom="0.35"
     inkscape:cx="582.88154"
     inkscape:cy="111.45268"
     inkscape:document-units="mm"
     inkscape:current-layer="layer1"
     showgrid="false"
     inkscape:window-width="1366"
     inkscape:window-height="719"
     inkscape:window-x="0"
     inkscape:window-y="25"
     inkscape:window-maximized="1" />
  <metadata
     id="metadata6770">
    <rdf:RDF>
      <cc:Work
         rdf:about="">
        <dc:format>image/svg+xml</dc:format>
        <dc:type
           rdf:resource="http://purl.org/dc/dcmitype/StillImage" />
        <dc:title></dc:title>
      </cc:Work>
    </rdf:RDF>
  </metadata>
  <g
     inkscape:label="Livello 1"
     inkscape:groupmode="layer"
     id="layer1"
     transform="translate(48.387407,-320.42815)">
    <g
       transform="matrix(0.35277777,0,0,-0.35277777,-54.902366,361.65536)"
       id="g6739">
      <path
         d="m 33.1234,102.638 c 0,-1.727 -1.4046,-3.1321 -3.1316,-3.1321 -1.7266,0 -3.1316,1.4051 -3.1316,3.1321 0,1.727 1.405,3.132 3.1316,3.132 1.727,0 3.1316,-1.405 3.1316,-3.132 z m -7.0984,0 c 0,-2.191 1.7762,-3.9669 3.9668,-3.9669 2.1906,0 3.9668,1.7759 3.9668,3.9669 0,2.191 -1.7762,3.967 -3.9668,3.967 -2.1906,0 -3.9668,-1.776 -3.9668,-3.967"
         style="fill:#252e3a;fill-opacity:1;fill-rule:nonzero;stroke:none;stroke-width:0.1"
         id="path790"
         inkscape:connector-curvature="0" />
      <path
         d="m 24.0172,100.359 c -0.4602,0.036 -0.8613,-0.309 -0.8965,-0.7692 -0.0352,-0.4589 0.3094,-0.8609 0.7691,-0.8957 l 0.0262,-0.0019 0.0594,-0.0024 c 0.4344,0 0.8012,0.3372 0.832,0.7774 0.0324,0.4598 -0.3144,0.8588 -0.7746,0.8908 l -0.0156,10e-4"
         style="fill:#252e3a;fill-opacity:1;fill-rule:nonzero;stroke:none;stroke-width:0.1"
         id="path792"
         inkscape:connector-curvature="0" />
      <path
         d="m 21.0195,100.347 c 0.1645,-0.215 0.4129,-0.328 0.6641,-0.328 0.1769,0 0.3551,0.056 0.5066,0.172 0.3664,0.28 0.4364,0.804 0.1567,1.17 l -0.0227,0.03 c -0.2762,0.369 -0.7996,0.444 -1.1687,0.168 -0.3696,-0.276 -0.4446,-0.8 -0.1684,-1.169 l 0.0324,-0.043"
         style="fill:#252e3a;fill-opacity:1;fill-rule:nonzero;stroke:none;stroke-width:0.1"
         id="path794"
         inkscape:connector-curvature="0" />
      <path
         d="m 21.3668,103.545 -0.0051,0.02 c -0.1066,0.449 -0.5574,0.726 -1.0058,0.619 -0.4489,-0.108 -0.7254,-0.558 -0.6184,-1.007 l 0.0047,-0.019 c 0.0914,-0.384 0.434,-0.642 0.8117,-0.642 l 0.1945,0.023 c 0.4485,0.107 0.7254,0.557 0.6184,1.006"
         style="fill:#252e3a;fill-opacity:1;fill-rule:nonzero;stroke:none;stroke-width:0.1"
         id="path796"
         inkscape:connector-curvature="0" />
      <path
         d="m 30.4172,96.223 -0.0063,-0.0152 c -0.175,-0.4269 0.0293,-0.9148 0.4563,-1.0898 0.1035,-0.0418 0.2105,-0.0621 0.316,-0.0621 0.3289,0 0.641,0.1961 0.7731,0.5191 l 0.0093,0.023 c 0.1731,0.4282 -0.0336,0.9141 -0.4613,1.0872 -0.4277,0.1718 -0.9145,-0.034 -1.0871,-0.4622"
         style="fill:#252e3a;fill-opacity:1;fill-rule:nonzero;stroke:none;stroke-width:0.1"
         id="path798"
         inkscape:connector-curvature="0" />
      <path
         d="M 28.9422,94.9301 28.9078,94.918 c -0.4367,-0.1489 -0.6703,-0.6231 -0.5219,-1.0598 0.1184,-0.3473 0.443,-0.566 0.7907,-0.566 l 0.2691,0.0449 0.0512,0.0168 c 0.4347,0.1543 0.6633,0.6301 0.5101,1.0652 -0.1531,0.4348 -0.6297,0.6637 -1.0648,0.511"
         style="fill:#252e3a;fill-opacity:1;fill-rule:nonzero;stroke:none;stroke-width:0.1"
         id="path800"
         inkscape:connector-curvature="0" />
      <path
         d="m 26.5434,94.6738 c -0.4598,0.0383 -0.861,-0.3039 -0.8985,-0.7636 -0.0375,-0.4602 0.3067,-0.8633 0.7664,-0.9012 l 0.0196,-8e-4 0.066,-0.0031 c 0.4316,0 0.7972,0.332 0.8316,0.7699 0.036,0.4602 -0.3074,0.8621 -0.7672,0.898 l -0.0179,8e-4"
         style="fill:#252e3a;fill-opacity:1;fill-rule:nonzero;stroke:none;stroke-width:0.1"
         id="path802"
         inkscape:connector-curvature="0" />
      <path
         d="m 37.4164,102.28 -0.0211,0.018 c -0.3539,0.296 -0.8805,0.249 -1.1762,-0.105 -0.2961,-0.353 -0.2492,-0.88 0.1043,-1.176 l 0.0114,-0.009 c 0.157,-0.134 0.3492,-0.199 0.5402,-0.199 0.2367,0 0.4715,0.1 0.6367,0.294 0.2988,0.352 0.2559,0.879 -0.0953,1.177"
         style="fill:#252e3a;fill-opacity:1;fill-rule:nonzero;stroke:none;stroke-width:0.1"
         id="path804"
         inkscape:connector-curvature="0" />
      <path
         d="m 38.768,99.202 -0.0012,0.0539 c -0.0113,0.4613 -0.3938,0.8251 -0.8551,0.8141 -0.4609,-0.011 -0.8258,-0.3938 -0.8144,-0.8552 l 7e-4,-0.0359 c 0.0059,-0.457 0.3786,-0.8238 0.8344,-0.8238 h 0.0117 c 0.4614,0.007 0.8301,0.3847 0.8239,0.8469"
         style="fill:#252e3a;fill-opacity:1;fill-rule:nonzero;stroke:none;stroke-width:0.1"
         id="path806"
         inkscape:connector-curvature="0" />
      <path
         d="M 36.6066,96.873 36.598,96.8531 c -0.1765,-0.4261 0.0254,-0.9152 0.4512,-1.091 0.1047,-0.0441 0.2133,-0.0641 0.3199,-0.0641 0.3274,0 0.6383,0.1942 0.7715,0.5149 l 0.0074,0.018 c 0.1778,0.425 -0.0238,0.914 -0.4492,1.0921 -0.4258,0.177 -0.9148,-0.0242 -1.0922,-0.45"
         style="fill:#252e3a;fill-opacity:1;fill-rule:nonzero;stroke:none;stroke-width:0.1"
         id="path808"
         inkscape:connector-curvature="0" />
      <path
         d="m 33.1461,107.989 c 0.1519,0 0.3051,0.041 0.443,0.128 l 0.0125,0.007 c 0.3925,0.243 0.5144,0.757 0.2722,1.15 -0.2422,0.392 -0.757,0.514 -1.1492,0.272 l -0.023,-0.015 c -0.3907,-0.245 -0.5086,-0.76 -0.2637,-1.151 0.159,-0.253 0.4305,-0.391 0.7082,-0.391"
         style="fill:#252e3a;fill-opacity:1;fill-rule:nonzero;stroke:none;stroke-width:0.1"
         id="path810"
         inkscape:connector-curvature="0" />
      <path
         d="m 43.6309,103.06 -0.0075,-0.004 -0.2543,-0.074 c -0.1597,0 -0.3156,0.08 -0.4066,0.225 -0.141,0.225 -0.073,0.521 0.1512,0.661 l 0.0133,0.009 c 0.2253,0.139 0.5207,0.069 0.6597,-0.157 0.1395,-0.225 0.0696,-0.521 -0.1558,-0.66 z m -12.577,12.556 -0.007,-0.005 -0.2543,-0.073 c -0.1598,0 -0.316,0.079 -0.4071,0.225 -0.1406,0.224 -0.073,0.52 0.1516,0.661 l 0.0133,0.008 c 0.2254,0.139 0.5207,0.069 0.6598,-0.156 0.139,-0.226 0.0691,-0.521 -0.1563,-0.66 z m 11.4848,-6.243 c -0.0782,0.145 -0.2149,0.249 -0.3754,0.288 -0.8422,0.204 -2.0129,0.947 -3.1074,2.041 -1.0942,1.094 -1.8368,2.265 -2.0407,3.107 -0.039,0.161 -0.1429,0.298 -0.2886,0.376 -1.8403,0.99 -3.9223,1.587 -6.1356,1.679 -0.3273,0.014 -0.5992,-0.251 -0.5992,-0.578 v -4.158 c 0,-0.817 0.5828,-1.523 1.3871,-1.665 0.7742,-0.137 1.6918,-0.408 2.6066,-0.939 0.8442,-0.491 1.4293,-1.054 1.634,-1.258 0.1879,-0.188 0.7422,-0.761 1.2274,-1.582 0.5476,-0.927 0.8261,-1.862 0.9668,-2.65 0.1437,-0.807 0.8453,-1.396 1.6656,-1.396 h 4.1605 c 0.3278,0 0.5915,0.272 0.5782,0.599 -0.0918,2.213 -0.6895,4.296 -1.6793,6.136"
         style="fill:#252e3a;fill-opacity:1;fill-rule:nonzero;stroke:none;stroke-width:0.1"
         id="path812"
         inkscape:connector-curvature="0" />
      <path
         d="m 24.3656,107.328 0.0047,-0.018 0.8117,0.196 -0.8109,-0.2 c 0.0941,-0.381 0.4352,-0.635 0.8102,-0.635 l 0.2007,0.024 c 0.4481,0.111 0.7211,0.564 0.6106,1.011 l -8e-4,0.005 -0.0039,0.014 c -0.1094,0.448 -0.5613,0.722 -1.0094,0.613 -0.448,-0.11 -0.7222,-0.562 -0.6129,-1.01"
         style="fill:#252e3a;fill-opacity:1;fill-rule:nonzero;stroke:none;stroke-width:0.1"
         id="path814"
         inkscape:connector-curvature="0" />
      <path
         d="m 25.2633,109.409 c 0.1449,-0.1 0.3101,-0.148 0.4738,-0.148 0.2652,0 0.5262,0.126 0.6883,0.361 l 0.0203,0.029 c 0.266,0.377 0.1766,0.898 -0.2,1.164 -0.3766,0.266 -0.8977,0.177 -1.1641,-0.2 l -0.0312,-0.045 c -0.2617,-0.379 -0.1664,-0.899 0.2129,-1.161"
         style="fill:#252e3a;fill-opacity:1;fill-rule:nonzero;stroke:none;stroke-width:0.1"
         id="path816"
         inkscape:connector-curvature="0" />
      <path
         d="m 27.7645,111.106 c 0.1488,0 0.2988,0.039 0.4347,0.122 l 0.0153,0.01 c 0.3945,0.239 0.5203,0.753 0.2808,1.147 -0.239,0.394 -0.7527,0.52 -1.1469,0.281 l -0.0199,-0.012 c -0.3937,-0.241 -0.5176,-0.755 -0.2773,-1.149 0.1574,-0.257 0.4324,-0.399 0.7133,-0.399"
         style="fill:#252e3a;fill-opacity:1;fill-rule:nonzero;stroke:none;stroke-width:0.1"
         id="path818"
         inkscape:connector-curvature="0" />
      <path
         d="m 39.8414,98.477 c -0.5383,-1.2719 -1.3094,-2.4161 -2.291,-3.3969 -0.982,-0.9821 -2.1254,-1.7531 -3.3981,-2.2922 -1.3171,-0.557 -2.7171,-0.8391 -4.1605,-0.8391 -1.4434,0 -2.843,0.2821 -4.1605,0.8391 -1.2727,0.5391 -2.4161,1.3101 -3.3977,2.2922 -0.982,0.9808 -1.7527,2.125 -2.2914,3.3969 -0.557,1.3179 -0.8395,2.718 -0.8395,4.161 0,1.443 0.2825,2.843 0.8395,4.16 0.5387,1.273 1.3094,2.416 2.2914,3.398 0.9816,0.982 2.125,1.753 3.3977,2.291 1.2539,0.531 2.5824,0.812 3.9519,0.838 v 0.835 c -6.2684,-0.112 -11.3156,-5.227 -11.3156,-11.522 0,-6.365 5.1597,-11.5239 11.5242,-11.5239 6.2949,0 11.4102,5.0468 11.5219,11.3149 h -0.8352 c -0.0258,-1.369 -0.3066,-2.6981 -0.8371,-3.952"
         style="fill:#252e3a;fill-opacity:1;fill-rule:nonzero;stroke:none;stroke-width:0.1"
         id="path820"
         inkscape:connector-curvature="0" />
      <path
         d="m 34.8355,102.638 c 0,-2.6751 -2.1687,-4.8439 -4.8437,-4.8439 -2.675,0 -4.8434,2.1688 -4.8434,4.8439 0,2.675 2.1684,4.844 4.8434,4.844 2.675,0 4.8437,-2.169 4.8437,-4.844 z m -10.5222,0 c 0,-3.131 2.5472,-5.679 5.6785,-5.679 3.1312,0 5.6785,2.548 5.6785,5.679 0,3.131 -2.5473,5.679 -5.6785,5.679 -3.1313,0 -5.6785,-2.548 -5.6785,-5.679"
         style="fill:#252e3a;fill-opacity:1;fill-rule:nonzero;stroke:none;stroke-width:0.1"
         id="path822"
         inkscape:connector-curvature="0" />
    </g>
  </g>
</svg>
