<?xml version="1.0" encoding="UTF-8" standalone="no"?>
<!-- Created with Inkscape (http://www.inkscape.org/) -->

<svg
   xmlns:dc="http://purl.org/dc/elements/1.1/"
   xmlns:cc="http://creativecommons.org/ns#"
   xmlns:rdf="http://www.w3.org/1999/02/22-rdf-syntax-ns#"
   xmlns:svg="http://www.w3.org/2000/svg"
   xmlns="http://www.w3.org/2000/svg"
   xmlns:sodipodi="http://sodipodi.sourceforge.net/DTD/sodipodi-0.dtd"
   xmlns:inkscape="http://www.inkscape.org/namespaces/inkscape"
   width="3.5919833mm"
   height="7.7596998mm"
   viewBox="0 0 3.5919833 7.7596998"
   version="1.1"
   id="svg6885"
   inkscape:version="0.92.3 (2405546, 2018-03-11)"
   sodipodi:docname="9.svg">
  <defs
     id="defs6879" />
  <sodipodi:namedview
     id="base"
     pagecolor="#ffffff"
     bordercolor="#666666"
     borderopacity="1.0"
     inkscape:pageopacity="0.0"
     inkscape:pageshadow="2"
     inkscape:zoom="0.35"
     inkscape:cx="-10.354857"
     inkscape:cy="-53.907442"
     inkscape:document-units="mm"
     inkscape:current-layer="layer1"
     showgrid="false"
     inkscape:window-width="1366"
     inkscape:window-height="719"
     inkscape:window-x="0"
     inkscape:window-y="25"
     inkscape:window-maximized="1" />
  <metadata
     id="metadata6882">
    <rdf:RDF>
      <cc:Work
         rdf:about="">
        <dc:format>image/svg+xml</dc:format>
        <dc:type
           rdf:resource="http://purl.org/dc/dcmitype/StillImage" />
        <dc:title></dc:title>
      </cc:Work>
    </rdf:RDF>
  </metadata>
  <g
     inkscape:label="Livello 1"
     inkscape:groupmode="layer"
     id="layer1"
     transform="translate(-108.57306,-126.81062)">
    <g
       transform="matrix(0.35277777,0,0,-0.35277777,86.319799,180.36758)"
       id="g6851">
      <path
         d="m 65.8207,137.645 c -0.5965,0.416 -1.6523,0.455 -2.7406,0.111 v -2.33 c 1.1898,0.336 2.3531,0.255 3.0508,-0.232 l 0.1445,-0.113 v 1.691 c 0,0.368 -0.1531,0.662 -0.4547,0.873"
         style="fill:#252e3a;fill-opacity:1;fill-rule:nonzero;stroke:none;stroke-width:0.1"
         id="path1006"
         inkscape:connector-curvature="0" />
      <path
         d="m 65.8207,134.75 c -0.5965,0.416 -1.6523,0.455 -2.7406,0.111 v -2.33 c 1.1898,0.336 2.3531,0.255 3.0508,-0.232 l 0.1445,-0.113 v 1.691 c 0,0.369 -0.1531,0.662 -0.4547,0.873"
         style="fill:#252e3a;fill-opacity:1;fill-rule:nonzero;stroke:none;stroke-width:0.1"
         id="path1008"
         inkscape:connector-curvature="0" />
      <path
         d="m 65.8207,140.54 c -0.5965,0.416 -1.6523,0.455 -2.7406,0.111 v -2.33 c 1.1898,0.336 2.3531,0.255 3.0508,-0.232 l 0.1445,-0.113 v 1.691 c 0,0.368 -0.1531,0.662 -0.4547,0.873"
         style="fill:#252e3a;fill-opacity:1;fill-rule:nonzero;stroke:none;stroke-width:0.1"
         id="path1010"
         inkscape:connector-curvature="0" />
      <path
         d="m 65.8207,146.33 c -0.5965,0.416 -1.6523,0.455 -2.7406,0.111 v -2.33 c 1.1898,0.336 2.3531,0.255 3.0508,-0.232 l 0.1445,-0.113 v 1.691 c 0,0.368 -0.1531,0.662 -0.4547,0.873"
         style="fill:#252e3a;fill-opacity:1;fill-rule:nonzero;stroke:none;stroke-width:0.1"
         id="path1012"
         inkscape:connector-curvature="0" />
      <path
         d="m 66.8172,129.819 h 2.7078 v 21.996 h -2.7078 v -21.996"
         style="fill:#252e3a;fill-opacity:1;fill-rule:nonzero;stroke:none;stroke-width:0.1"
         id="path1014"
         inkscape:connector-curvature="0" />
      <path
         d="m 65.8207,149.225 c -0.5965,0.416 -1.6523,0.455 -2.7406,0.111 v -2.33 c 1.1898,0.336 2.3531,0.255 3.0508,-0.232 l 0.1445,-0.113 v 1.691 c 0,0.368 -0.1531,0.662 -0.4547,0.873"
         style="fill:#252e3a;fill-opacity:1;fill-rule:nonzero;stroke:none;stroke-width:0.1"
         id="path1016"
         inkscape:connector-curvature="0" />
      <path
         d="m 65.8207,143.435 c -0.5965,0.416 -1.6523,0.455 -2.7406,0.111 v -2.33 c 1.1898,0.336 2.3531,0.255 3.0508,-0.232 l 0.1445,-0.113 v 1.691 c 0,0.368 -0.1531,0.662 -0.4547,0.873"
         style="fill:#252e3a;fill-opacity:1;fill-rule:nonzero;stroke:none;stroke-width:0.1"
         id="path1018"
         inkscape:connector-curvature="0" />
      <path
         d="m 70.5215,134.75 c -0.302,-0.211 -0.4547,-0.504 -0.4547,-0.873 v -1.691 l 0.1445,0.113 c 0.6977,0.487 1.861,0.568 3.0508,0.232 v 2.33 c -1.0883,0.344 -2.1441,0.305 -2.7406,-0.111"
         style="fill:#252e3a;fill-opacity:1;fill-rule:nonzero;stroke:none;stroke-width:0.1"
         id="path1020"
         inkscape:connector-curvature="0" />
      <path
         d="m 70.5215,146.33 c -0.302,-0.211 -0.4547,-0.505 -0.4547,-0.873 v -1.691 l 0.1445,0.113 c 0.6977,0.487 1.861,0.568 3.0508,0.232 v 2.33 c -1.0883,0.343 -2.1441,0.305 -2.7406,-0.111"
         style="fill:#252e3a;fill-opacity:1;fill-rule:nonzero;stroke:none;stroke-width:0.1"
         id="path1022"
         inkscape:connector-curvature="0" />
      <path
         d="m 70.5215,137.645 c -0.302,-0.211 -0.4547,-0.505 -0.4547,-0.873 v -1.691 l 0.1445,0.113 c 0.6977,0.487 1.861,0.568 3.0508,0.232 v 2.33 c -1.0883,0.344 -2.1441,0.305 -2.7406,-0.111"
         style="fill:#252e3a;fill-opacity:1;fill-rule:nonzero;stroke:none;stroke-width:0.1"
         id="path1024"
         inkscape:connector-curvature="0" />
      <path
         d="m 63.0801,150.387 v -0.486 c 1.1898,0.336 2.3531,0.255 3.0508,-0.232 l 0.1445,-0.113 v 2.259 h -1.3731 c -1.0062,0 -1.8222,-0.639 -1.8222,-1.428"
         style="fill:#252e3a;fill-opacity:1;fill-rule:nonzero;stroke:none;stroke-width:0.1"
         id="path1026"
         inkscape:connector-curvature="0" />
      <path
         d="m 65.8207,131.855 c -0.5965,0.416 -1.6523,0.455 -2.7406,0.111 v -0.719 c 0,-0.788 0.816,-1.428 1.8222,-1.428 h 1.3731 v 1.163 c 0,0.369 -0.1531,0.662 -0.4547,0.873"
         style="fill:#252e3a;fill-opacity:1;fill-rule:nonzero;stroke:none;stroke-width:0.1"
         id="path1028"
         inkscape:connector-curvature="0" />
      <path
         d="m 70.5215,131.855 c -0.302,-0.211 -0.4547,-0.504 -0.4547,-0.873 v -1.163 h 1.373 c 1.0063,0 1.8223,0.64 1.8223,1.428 v 0.719 c -1.0883,0.344 -2.1441,0.305 -2.7406,-0.111"
         style="fill:#252e3a;fill-opacity:1;fill-rule:nonzero;stroke:none;stroke-width:0.1"
         id="path1030"
         inkscape:connector-curvature="0" />
      <path
         d="m 71.4398,151.815 h -1.373 v -2.259 l 0.1445,0.113 c 0.6977,0.487 1.861,0.568 3.0508,0.232 v 0.486 c 0,0.789 -0.816,1.428 -1.8223,1.428"
         style="fill:#252e3a;fill-opacity:1;fill-rule:nonzero;stroke:none;stroke-width:0.1"
         id="path1032"
         inkscape:connector-curvature="0" />
      <path
         d="m 70.5215,140.54 c -0.302,-0.211 -0.4547,-0.505 -0.4547,-0.873 v -1.691 l 0.1445,0.113 c 0.6977,0.487 1.861,0.568 3.0508,0.232 v 2.33 c -1.0883,0.344 -2.1441,0.305 -2.7406,-0.111"
         style="fill:#252e3a;fill-opacity:1;fill-rule:nonzero;stroke:none;stroke-width:0.1"
         id="path1034"
         inkscape:connector-curvature="0" />
      <path
         d="m 70.5215,143.435 c -0.302,-0.211 -0.4547,-0.505 -0.4547,-0.873 v -1.691 l 0.1445,0.113 c 0.6977,0.487 1.861,0.568 3.0508,0.232 v 2.33 c -1.0883,0.344 -2.1441,0.305 -2.7406,-0.111"
         style="fill:#252e3a;fill-opacity:1;fill-rule:nonzero;stroke:none;stroke-width:0.1"
         id="path1036"
         inkscape:connector-curvature="0" />
      <path
         d="m 70.5215,149.225 c -0.302,-0.211 -0.4547,-0.505 -0.4547,-0.873 v -1.691 l 0.1445,0.113 c 0.6977,0.487 1.861,0.568 3.0508,0.232 v 2.33 c -1.0883,0.344 -2.1441,0.305 -2.7406,-0.111"
         style="fill:#252e3a;fill-opacity:1;fill-rule:nonzero;stroke:none;stroke-width:0.1"
         id="path1038"
         inkscape:connector-curvature="0" />
    </g>
  </g>
</svg>
