<?xml version="1.0" encoding="UTF-8" standalone="no"?>
<!-- Created with Inkscape (http://www.inkscape.org/) -->

<svg
   xmlns:dc="http://purl.org/dc/elements/1.1/"
   xmlns:cc="http://creativecommons.org/ns#"
   xmlns:rdf="http://www.w3.org/1999/02/22-rdf-syntax-ns#"
   xmlns:svg="http://www.w3.org/2000/svg"
   xmlns="http://www.w3.org/2000/svg"
   xmlns:sodipodi="http://sodipodi.sourceforge.net/DTD/sodipodi-0.dtd"
   xmlns:inkscape="http://www.inkscape.org/namespaces/inkscape"
   width="7.8541536mm"
   height="7.8541536mm"
   viewBox="0 0 7.8541536 7.8541536"
   version="1.1"
   id="svg7011"
   inkscape:version="0.92.3 (2405546, 2018-03-11)"
   sodipodi:docname="10.svg">
  <defs
     id="defs7005" />
  <sodipodi:namedview
     id="base"
     pagecolor="#ffffff"
     bordercolor="#666666"
     borderopacity="1.0"
     inkscape:pageopacity="0.0"
     inkscape:pageshadow="2"
     inkscape:zoom="0.35"
     inkscape:cx="63.413922"
     inkscape:cy="-93.728949"
     inkscape:document-units="mm"
     inkscape:current-layer="layer1"
     showgrid="false"
     inkscape:window-width="1366"
     inkscape:window-height="719"
     inkscape:window-x="0"
     inkscape:window-y="25"
     inkscape:window-maximized="1" />
  <metadata
     id="metadata7008">
    <rdf:RDF>
      <cc:Work
         rdf:about="">
        <dc:format>image/svg+xml</dc:format>
        <dc:type
           rdf:resource="http://purl.org/dc/dcmitype/StillImage" />
        <dc:title></dc:title>
      </cc:Work>
    </rdf:RDF>
  </metadata>
  <g
     inkscape:label="Livello 1"
     inkscape:groupmode="layer"
     id="layer1"
     transform="translate(-89.055066,-116.18006)">
    <g
       transform="matrix(0.35277777,0,0,-0.35277777,16.289269,183.04803)"
       id="g6990">
      <path
         d="m 228.529,180.629 c 0,2.381 -0.928,4.62 -2.613,6.305 -1.685,1.685 -3.924,2.613 -6.305,2.613 -2.38,0 -4.618,-0.928 -6.304,-2.613 -0.665,-0.666 -1.218,-1.424 -1.642,-2.254 -0.111,-0.219 -0.024,-0.486 0.194,-0.597 l 0.003,-0.001 -0.001,-0.001 1.244,-0.634 c 0.104,-0.053 0.233,-0.009 0.282,0.097 0.065,0.138 0.134,0.274 0.208,0.407 0.057,0.104 0.017,0.233 -0.088,0.287 l -0.839,0.427 c 0.348,0.597 0.772,1.147 1.266,1.641 0.095,0.095 0.191,0.186 0.288,0.274 l 0.592,-0.731 c 0.075,-0.092 0.21,-0.103 0.299,-0.026 0.115,0.1 0.234,0.196 0.354,0.288 0.094,0.071 0.111,0.205 0.036,0.297 l -0.592,0.731 c 0.682,0.493 1.424,0.865 2.198,1.118 l 0.243,-0.907 c 0.03,-0.114 0.149,-0.18 0.261,-0.145 0.146,0.044 0.293,0.083 0.442,0.118 0.114,0.026 0.184,0.142 0.154,0.256 l -0.243,0.906 c 0.81,0.168 1.64,0.211 2.461,0.128 l -0.147,-0.926 c -0.018,-0.116 0.063,-0.224 0.18,-0.239 0.151,-0.018 0.302,-0.042 0.452,-0.071 0.115,-0.022 0.226,0.055 0.245,0.172 l 0.146,0.926 c 0.799,-0.171 1.577,-0.465 2.303,-0.881 l -0.512,-0.788 c -0.064,-0.099 -0.034,-0.23 0.067,-0.291 0.129,-0.079 0.257,-0.162 0.383,-0.25 0.096,-0.067 0.229,-0.041 0.294,0.057 l 0.512,0.789 c 0.328,-0.24 0.642,-0.508 0.938,-0.805 0.297,-0.296 0.565,-0.61 0.805,-0.938 l -0.788,-0.513 c -0.099,-0.064 -0.125,-0.197 -0.058,-0.294 0.088,-0.125 0.171,-0.253 0.25,-0.382 0.06,-0.101 0.193,-0.131 0.291,-0.067 l 0.788,0.512 c 0.417,-0.726 0.71,-1.504 0.881,-2.303 l -0.926,-0.147 c -0.117,-0.018 -0.194,-0.129 -0.172,-0.244 0.029,-0.15 0.052,-0.301 0.071,-0.452 0.015,-0.117 0.123,-0.198 0.239,-0.18 l 0.926,0.147 c 0.083,-0.821 0.04,-1.651 -0.128,-2.461 l -0.906,0.243 c -0.114,0.03 -0.23,-0.04 -0.256,-0.155 -0.035,-0.148 -0.074,-0.295 -0.118,-0.441 -0.035,-0.113 0.031,-0.231 0.145,-0.261 l 0.907,-0.243 c -0.253,-0.774 -0.625,-1.516 -1.118,-2.198 l -0.731,0.592 c -0.092,0.074 -0.226,0.058 -0.297,-0.036 -0.092,-0.12 -0.188,-0.239 -0.288,-0.354 -0.078,-0.089 -0.066,-0.225 0.026,-0.299 l 0.731,-0.592 c -0.088,-0.097 -0.179,-0.193 -0.274,-0.288 -0.494,-0.494 -1.044,-0.918 -1.641,-1.266 l -0.427,0.839 c -0.054,0.105 -0.184,0.145 -0.287,0.088 -0.133,-0.074 -0.269,-0.143 -0.407,-0.208 -0.106,-0.05 -0.15,-0.178 -0.097,-0.283 l 0.634,-1.243 0.001,-0.003 0.081,-0.112 c 0.133,-0.132 0.34,-0.171 0.516,-0.081 0.83,0.424 1.589,0.976 2.255,1.642 1.685,1.685 2.613,3.924 2.613,6.304"
         style="fill:#252e3a;fill-opacity:1;fill-rule:nonzero;stroke:none;stroke-width:0.1"
         id="path2078"
         inkscape:connector-curvature="0" />
      <path
         d="m 215.236,178.48 0.013,0.007 c 0.184,0.109 0.248,0.134 0.263,0.139 l 0.165,0.065 0.02,0.009 c 0.147,0.073 0.203,0.083 0.211,0.084 h 0.044 l 0.043,0.016 c 0.627,0.236 1.104,0.432 1.418,0.582 0.322,0.147 0.652,0.342 0.978,0.579 l 0.005,0.002 c 0.568,0.429 0.92,1.043 1.045,1.825 0.118,0.743 -0.029,1.376 -0.436,1.882 l -0.003,0.003 c -0.418,0.502 -1.05,0.757 -1.877,0.757 -1.381,0 -2.431,-0.602 -3.121,-1.789 l -0.007,-0.011 c -0.089,-0.174 -0.108,-0.335 -0.054,-0.478 0.035,-0.095 0.12,-0.225 0.328,-0.308 l 0.514,-0.201 0.007,-0.003 c 0.144,-0.051 0.507,-0.122 0.776,0.328 0.329,0.522 0.766,0.775 1.335,0.775 0.288,0 0.489,-0.07 0.614,-0.214 0.124,-0.143 0.16,-0.344 0.113,-0.616 -0.062,-0.35 -0.258,-0.636 -0.601,-0.875 -0.144,-0.101 -0.497,-0.288 -1.362,-0.604 -0.524,-0.192 -0.945,-0.386 -1.253,-0.575 -0.669,-0.397 -1.105,-1.014 -1.294,-1.832 l -0.135,-0.77 -0.001,-0.006 c -0.027,-0.191 0.009,-0.346 0.108,-0.461 0.099,-0.114 0.246,-0.172 0.436,-0.172 h 4.332 c 0.362,0 0.6,0.202 0.653,0.554 l 0.09,0.487 c 0.038,0.191 0.009,0.347 -0.087,0.465 -0.098,0.12 -0.247,0.18 -0.444,0.18 h -3.044 c 0.035,0.056 0.096,0.118 0.208,0.176"
         style="fill:#252e3a;fill-opacity:1;fill-rule:nonzero;stroke:none;stroke-width:0.1"
         id="path2080"
         inkscape:connector-curvature="0" />
      <path
         d="m 221.374,179.906 1.805,1.825 -0.327,-1.825 z m 4.033,-0.18 c -0.097,0.12 -0.247,0.18 -0.444,0.18 h -0.393 l 0.662,3.749 c 0.039,0.19 0.009,0.346 -0.087,0.464 -0.097,0.119 -0.247,0.18 -0.444,0.18 h -0.554 c -0.257,0 -0.494,-0.107 -0.705,-0.318 l -4.079,-4.149 c -0.139,-0.139 -0.227,-0.325 -0.263,-0.553 l -0.059,-0.356 c -0.038,-0.19 -0.008,-0.345 0.088,-0.463 0.097,-0.119 0.246,-0.18 0.444,-0.18 h 3.022 l -0.179,-1.019 c -0.038,-0.189 -0.008,-0.345 0.088,-0.463 0.097,-0.12 0.246,-0.18 0.444,-0.18 h 0.494 c 0.342,0 0.58,0.198 0.651,0.545 l 0.196,1.117 h 0.482 c 0.343,0 0.58,0.199 0.652,0.545 l 0.072,0.439 c 0.037,0.189 0.008,0.345 -0.088,0.462"
         style="fill:#252e3a;fill-opacity:1;fill-rule:nonzero;stroke:none;stroke-width:0.1"
         id="path2082"
         inkscape:connector-curvature="0" />
      <path
         d="m 219.021,173.234 -2.446,2.446 -0.501,0.501 h -2.546 c -0.402,0 -0.639,0.176 -0.766,0.324 -0.128,0.148 -0.268,0.409 -0.21,0.809 l 0.003,0.018 0.139,0.794 c 0.088,0.381 0.225,0.724 0.407,1.028 l -0.884,0.884 c 0.434,1.099 0.211,2.393 -0.671,3.291 -0.777,0.789 -1.871,1.072 -2.874,0.847 -0.092,-0.02 -0.126,-0.133 -0.06,-0.2 l 1.716,-1.715 c 0.215,-0.216 0.267,-0.545 0.127,-0.816 -0.124,-0.241 -0.306,-0.52 -0.572,-0.788 -0.275,-0.278 -0.562,-0.467 -0.81,-0.595 -0.271,-0.14 -0.602,-0.089 -0.818,0.127 l -1.715,1.715 c -0.066,0.066 -0.18,0.033 -0.2,-0.059 -0.223,-0.996 0.053,-2.081 0.828,-2.855 0.895,-0.895 2.202,-1.124 3.309,-0.689 l 2.447,-2.447 1.912,-1.913 2.447,-2.446 c -0.435,-1.107 -0.206,-2.415 0.689,-3.309 0.775,-0.775 1.859,-1.051 2.855,-0.828 0.092,0.02 0.126,0.133 0.059,0.2 l -1.715,1.715 c -0.216,0.216 -0.267,0.547 -0.126,0.818 0.127,0.247 0.316,0.535 0.594,0.81 0.268,0.265 0.547,0.447 0.788,0.572 0.271,0.139 0.601,0.088 0.816,-0.128 l 1.715,-1.715 c 0.067,-0.066 0.18,-0.033 0.201,0.059 0.224,1.004 -0.058,2.098 -0.848,2.874 -0.898,0.883 -2.192,1.106 -3.29,0.671"
         style="fill:#252e3a;fill-opacity:1;fill-rule:nonzero;stroke:none;stroke-width:0.1"
         id="path2084"
         inkscape:connector-curvature="0" />
    </g>
  </g>
</svg>
