<?xml version="1.0" encoding="UTF-8" standalone="no"?>
<!-- Created with Inkscape (http://www.inkscape.org/) -->

<svg
   xmlns:dc="http://purl.org/dc/elements/1.1/"
   xmlns:cc="http://creativecommons.org/ns#"
   xmlns:rdf="http://www.w3.org/1999/02/22-rdf-syntax-ns#"
   xmlns:svg="http://www.w3.org/2000/svg"
   xmlns="http://www.w3.org/2000/svg"
   xmlns:sodipodi="http://sodipodi.sourceforge.net/DTD/sodipodi-0.dtd"
   xmlns:inkscape="http://www.inkscape.org/namespaces/inkscape"
   width="11.443152mm"
   height="3.1638496mm"
   viewBox="0 0 11.443152 3.1638496"
   version="1.1"
   id="svg7173"
   inkscape:version="0.92.3 (2405546, 2018-03-11)"
   sodipodi:docname="12.svg">
  <defs
     id="defs7167" />
  <sodipodi:namedview
     id="base"
     pagecolor="#ffffff"
     bordercolor="#666666"
     borderopacity="1.0"
     inkscape:pageopacity="0.0"
     inkscape:pageshadow="2"
     inkscape:zoom="0.35"
     inkscape:cx="50.196282"
     inkscape:cy="-28.306793"
     inkscape:document-units="mm"
     inkscape:current-layer="layer1"
     showgrid="false"
     inkscape:window-width="1366"
     inkscape:window-height="719"
     inkscape:window-x="0"
     inkscape:window-y="25"
     inkscape:window-maximized="1" />
  <metadata
     id="metadata7170">
    <rdf:RDF>
      <cc:Work
         rdf:about="">
        <dc:format>image/svg+xml</dc:format>
        <dc:type
           rdf:resource="http://purl.org/dc/dcmitype/StillImage" />
        <dc:title></dc:title>
      </cc:Work>
    </rdf:RDF>
  </metadata>
  <g
     inkscape:label="Livello 1"
     inkscape:groupmode="layer"
     id="layer1"
     transform="translate(-92.552234,-138.17998)">
    <g
       transform="matrix(0.35277777,0,0,-0.35277777,74.224619,163.45488)"
       id="g7138">
      <path
         d="m 74.4535,66.243 c -0.0707,0.0808 -0.1867,0.1121 -0.2922,0.0711 l -0.8758,-0.3442 c -0.2816,0.3973 -0.8066,0.5672 -1.28,0.3813 -0.4735,-0.1852 -0.7426,-0.6672 -0.6793,-1.15 L 68.4008,64.0531 C 68.266,64.0012 68.2,63.8488 68.2527,63.7141 c 0.0532,-0.1352 0.2047,-0.2012 0.3395,-0.1481 l 2.9254,1.1481 c 0.2816,-0.3969 0.8066,-0.5672 1.2801,-0.3821 0.4734,0.186 0.7425,0.668 0.6793,1.1512 l 0.8757,0.343 c 0.1344,0.0527 0.2008,0.2047 0.1481,0.3398 l -0.0473,0.077"
         style="fill:#252e3a;fill-opacity:1;fill-rule:nonzero;stroke:none;stroke-width:0.1"
         id="path452"
         inkscape:connector-curvature="0" />
      <path
         d="m 76.8191,69.7988 c -1.2324,1.1871 -2.855,1.8231 -4.5683,1.791 -1.7133,-0.0316 -3.3106,-0.7289 -4.4981,-1.9617 -1.1867,-1.232 -1.823,-2.8551 -1.7906,-4.5679 0.0129,-0.677 0.1301,-1.3411 0.3484,-1.975 0.0579,-0.1661 0.2391,-0.2543 0.4055,-0.1973 l 0.0024,0.0012 4e-4,-0.0012 0.948,0.3281 0.0906,0.1949 c -0.039,0.102 -0.075,0.2051 -0.1074,0.3102 l -0.1914,0.098 -0.6402,-0.2222 c -0.1356,0.4781 -0.209,0.973 -0.2184,1.475 -0.002,0.0961 -0.0012,0.191 0.0016,0.2851 l 0.6742,-0.0582 0.1621,0.1422 c 0.0059,0.1102 0.0152,0.2192 0.0277,0.327 l -0.1355,0.1672 -0.6738,0.0578 c 0.0843,0.5992 0.2617,1.1691 0.5167,1.6961 l 0.5907,-0.327 0.2058,0.0629 c 0.05,0.098 0.1028,0.1941 0.159,0.2871 l -0.0558,0.2078 -0.5903,0.3262 c 0.3168,0.5039 0.709,0.9551 1.1614,1.3391 l 0.4058,-0.5383 0.2137,-0.0258 0.2621,0.198 0.0332,0.2129 -0.4066,0.5379 c 0.4871,0.3281 1.0269,0.5852 1.6046,0.7531 l 0.1528,-0.6582 0.1844,-0.1109 c 0.1054,0.0281 0.2121,0.0531 0.3199,0.0742 l 0.1172,0.1809 -0.1532,0.659 c 0.2883,0.05 0.5836,0.0789 0.8852,0.084 0.3012,0.0058 0.5976,-0.0122 0.8875,-0.0508 l -0.1281,-0.6641 0.1238,-0.1762 c 0.109,-0.0168 0.2164,-0.0379 0.3227,-0.0621 l 0.18,0.1184 0.1278,0.6629 c 0.5839,-0.1469 1.1328,-0.3821 1.632,-0.6922 l -0.3859,-0.5527 0.041,-0.2114 c 0.0918,-0.0597 0.1816,-0.1226 0.2691,-0.1879 l 0.2125,0.0332 0.3856,0.5528 c 0.4664,-0.366 0.8754,-0.8028 1.2109,-1.2938 l -0.5773,-0.348 -0.0485,-0.209 c 0.0598,-0.0922 0.1164,-0.1859 0.1699,-0.282 l 0.2079,-0.0551 0.5781,0.3492 c 0.275,-0.5172 0.473,-1.0801 0.5804,-1.6754 l -0.671,-0.084 -0.1293,-0.1718 c 0.0168,-0.1071 0.03,-0.2161 0.0398,-0.3258 l 0.1676,-0.1352 0.6715,0.084 c 0.0062,-0.0949 0.0105,-0.1898 0.0125,-0.2859 0.0093,-0.502 -0.0454,-0.9993 -0.1629,-1.4809 L 77.3324,64.0051 77.1445,63.9 C 77.116,63.7941 77.0844,63.6891 77.0488,63.5859 l 0.0981,-0.1918 0.9597,-0.291 v 0 l 0.0024,-0.0011 0.0984,-0.0141 c 0.1348,0.0031 0.2582,0.091 0.2992,0.2262 0.195,0.6418 0.2872,1.3097 0.2743,1.9871 -0.0321,1.7136 -0.7289,3.3109 -1.9618,4.4976"
         style="fill:#252e3a;fill-opacity:1;fill-rule:nonzero;stroke:none;stroke-width:0.1"
         id="path454"
         inkscape:connector-curvature="0" />
      <path
         d="m 59.5543,67.893 -0.5961,0.3148 c 0.3074,0.5094 0.691,0.9684 1.1359,1.3602 l 0.4164,-0.5301 0.2157,-0.0207 0.2551,0.2008 0.0308,0.214 -0.4172,0.5301 c 0.4813,0.3379 1.016,0.6039 1.5903,0.784 l 0.1652,-0.6563 0.1887,-0.1058 c 0.1035,0.0289 0.2082,0.0558 0.3144,0.0789 l 0.1156,0.1832 -0.1652,0.6559 c 0.2867,0.055 0.582,0.0902 0.8832,0.1011 0.3012,0.011 0.5981,-0.0011 0.8883,-0.0351 l -0.1152,-0.666 0.1289,-0.1739 c 0.1078,-0.0152 0.214,-0.0332 0.3195,-0.0551 l 0.1797,0.12 0.1156,0.666 c 0.5863,-0.136 1.1399,-0.361 1.6445,-0.661 l -0.3754,-0.5601 0.0469,-0.2117 c 0.0922,-0.0582 0.1824,-0.118 0.2707,-0.1821 l 0.2117,0.0379 0.379,0.5469 0.0894,0.1289 0.0125,0.0184 0.1051,0.1508 c 0.091,0.1312 0.0617,0.314 -0.0695,0.4039 -1.3223,0.9062 -2.9375,1.2863 -4.586,1.0421 -1.1363,-0.1691 -2.2152,-0.6468 -3.0992,-1.3808 -1.5731,-1.307 -2.4109,-3.1992 -2.3359,-5.1981 0.0257,-0.6769 0.1554,-1.339 0.3855,-1.9679 0.0609,-0.1653 0.2441,-0.25 0.4094,-0.1903 l 0.0023,0.0012 4e-4,-0.0012 0.9414,0.3461 0.0863,0.1981 c -0.0402,0.1 -0.0777,0.2008 -0.1113,0.3039 l -0.1945,0.0969 -0.6356,-0.234 c -0.1722,0.5652 -0.2566,1.1551 -0.25,1.7562 l 0.675,-0.0449 0.1598,0.1457 c 0.0035,0.109 0.0109,0.2172 0.0215,0.3242 l -0.1387,0.166 -0.675,0.045 c 0.0735,0.6007 0.2403,1.1738 0.4852,1.705 l 0.5969,-0.3152 0.2054,0.0691 c 0.0477,0.0969 0.0981,0.193 0.1516,0.2872 l -0.059,0.2078"
         style="fill:#252e3a;fill-opacity:1;fill-rule:nonzero;stroke:none;stroke-width:0.1"
         id="path456"
         inkscape:connector-curvature="0" />
      <path
         d="m 65.7566,64.9309 c -0.0601,0.089 -0.1714,0.1351 -0.2808,0.107 L 64.9602,64.907 c -0.1489,0.2309 -0.4067,0.3852 -0.7016,0.3852 -0.4398,0 -0.7965,-0.3422 -0.8289,-0.7731 L 59.9402,63.634 c -0.1398,-0.036 -0.225,-0.1781 -0.1894,-0.318 0.0355,-0.1398 0.1781,-0.225 0.318,-0.1898 l 3.4859,0.884 c 0.148,-0.2332 0.407,-0.3883 0.7039,-0.3883 0.4414,0 0.7992,0.3429 0.8293,0.7769 l 0.5164,0.1313 c 0.1402,0.0359 0.225,0.1777 0.1895,0.3179 l -0.0372,0.0829"
         style="fill:#252e3a;fill-opacity:1;fill-rule:nonzero;stroke:none;stroke-width:0.1"
         id="path458"
         inkscape:connector-curvature="0" />
      <path
         d="m 53.9605,66.0582 -0.4304,-0.0023 -0.061,0.0613 -7e-4,0.2449 0.0605,0.0609 0.4305,0.002 0.0609,-0.0609 8e-4,-0.245 z m 0.2454,-0.5051 0.1,-0.2301 0.0609,-0.0128 0.0684,0.0187 c 0.0402,0.025 0.0664,0.0813 0.0621,0.2762 -0.0035,0.1508 -0.0137,0.2461 -0.0356,0.3269 l -0.0262,0.0782 -0.0144,0.05 -0.0098,0.1027 -0.0375,0.1633 -0.0425,0.0578 -0.1157,0.0879 -0.0508,-0.016 0.0168,-0.0508 0.0934,-0.0711 0.0336,-0.0461 0.0277,-0.1277 0.011,-0.1141 0.0191,-0.0652 0.0231,-0.068 c 0.0148,-0.0547 0.0289,-0.1309 0.0328,-0.3098 0.0039,-0.182 -0.0219,-0.2082 -0.027,-0.2109 l -0.0566,-0.0012 -0.0578,0.1699 -0.002,0.134 -0.0238,0.1461 -0.1153,0.0961 -0.0015,0.566 -0.061,0.0598 -0.6671,-0.002 -0.0606,-0.0609 0.0035,-1.1719 -0.0316,-0.0332 -0.032,-0.032 v -0.0258 l 0.032,-0.032 0.8527,0.0027 0.0321,0.032 v 0.0262 l -0.0325,0.032 -0.032,0.0321 -0.0016,0.5219 0.05,-0.0489 0.0137,-0.1043 0.002,-0.1457"
         style="fill:#252e3a;fill-opacity:1;fill-rule:nonzero;stroke:none;stroke-width:0.1"
         id="path460"
         inkscape:connector-curvature="0" />
      <path
         d="m 53.3734,63.598 -0.3273,-0.1699 c -0.4289,0.7239 -0.6676,1.5418 -0.6945,2.3949 l -8e-4,0.0329 0.4808,0.0011 c 0.1094,0.0012 0.1981,0.0899 0.1977,0.1989 0,0.1101 -0.0895,0.198 -0.1988,0.198 l -0.4742,-8e-4 c 0.0464,0.8649 0.316,1.702 0.7808,2.4301 l 0.3125,-0.1602 0.0906,-0.0218 0.1762,0.1078 c 0.05,0.098 0.0113,0.2172 -0.0863,0.2672 l -0.2645,0.1359 0.1074,0.1359 -0.0289,0.279 -0.2789,-0.029 C 52.7625,68.9031 52.4535,68.348 52.2465,67.7469 52.032,67.125 51.934,66.473 51.9551,65.8102 51.9902,64.7012 52.357,63.6449 53.016,62.757 l 0.1602,-0.08 0.1172,0.039 0.041,0.2781 -0.0719,0.0989 0.2934,0.1531 c 0.0972,0.05 0.1351,0.1699 0.0847,0.2668 -0.0504,0.0973 -0.1699,0.1351 -0.2672,0.0851"
         style="fill:#252e3a;fill-opacity:1;fill-rule:nonzero;stroke:none;stroke-width:0.1"
         id="path462"
         inkscape:connector-curvature="0" />
      <path
         d="m 54.7305,63.234 -0.4442,-8e-4 -0.0328,0.0316 -4e-4,0.1442 0.0328,0.032 0.3922,0.0012 0.0328,0.0328 -4e-4,0.1281 -0.0328,0.0328 -0.3925,-7e-4 -0.0329,0.032 -3e-4,0.0969 0.0328,0.0328 0.4265,0.0011 0.0328,0.0329 -3e-4,0.1293 -0.0329,0.032 -0.6507,-0.0024 -0.0325,-0.0316 0.0028,-0.8871 0.0328,-0.032 0.668,0.0019 0.0324,0.032 -4e-4,0.1282 -0.0328,0.0328"
         style="fill:#252e3a;fill-opacity:1;fill-rule:nonzero;stroke:none;stroke-width:0.1"
         id="path464"
         inkscape:connector-curvature="0" />
      <path
         d="m 54.0824,67.9289 h 0.1586 l 0.0324,0.0332 -7e-4,0.3219 0.0324,0.0332 0.3156,8e-4 0.0324,0.0332 -4e-4,0.1277 -0.0328,0.0332 -0.3152,-0.0012 -0.0328,0.0321 -4e-4,0.1109 0.0328,0.0332 0.3758,8e-4 0.0324,0.0332 -4e-4,0.1289 -0.0328,0.032 -0.5996,-0.0019 -0.0324,-0.0321 0.0023,-0.8871 0.0328,-0.032"
         style="fill:#252e3a;fill-opacity:1;fill-rule:nonzero;stroke:none;stroke-width:0.1"
         id="path466"
         inkscape:connector-curvature="0" />
      <path
         d="m 56.9168,65.898 -0.1953,-0.0179 -0.0184,0.1961 0.1953,0.0179 z m -0.3824,0.4129 -2.743,-1.948 3.1356,1.225 c 0.2257,0.0953 0.3207,0.3641 0.2039,0.5793 -0.1168,0.2148 -0.3942,0.2816 -0.5965,0.1437"
         style="fill:#252e3a;fill-opacity:1;fill-rule:nonzero;stroke:none;stroke-width:0.1"
         id="path468"
         inkscape:connector-curvature="0" />
      <path
         d="M 84.107,67.7398 C 83.9043,68.3422 83.5984,68.9 83.1992,69.398 l -0.2789,0.0301 -0.0305,-0.2781 0.1067,-0.1379 -0.2656,-0.1332 c -0.0977,-0.05 -0.1371,-0.1687 -0.0879,-0.2668 l 0.1754,-0.109 0.0906,0.0207 0.3137,0.1582 c 0.4597,-0.7308 0.7238,-1.5699 0.7648,-2.4351 l -0.4742,0.0043 c -0.1094,8e-4 -0.1992,-0.0871 -0.2,-0.1961 -0.0012,-0.1102 0.0867,-0.1992 0.1961,-0.2 L 83.9906,65.85 83.9895,65.8172 C 83.9566,64.9641 83.7129,64.148 83.2793,63.427 l -0.3266,0.1718 C 82.8563,63.65 82.7359,63.6129 82.6852,63.516 82.634,63.4191 82.6711,63.2992 82.768,63.248 l 0.2925,-0.1539 -0.0726,-0.1 0.0391,-0.2769 0.1171,-0.0402 0.1606,0.0789 c 0.6648,0.8832 1.0383,1.9371 1.0808,3.0453 0.0254,0.6636 -0.0679,1.316 -0.2785,1.9386"
         style="fill:#252e3a;fill-opacity:1;fill-rule:nonzero;stroke:none;stroke-width:0.1"
         id="path470"
         inkscape:connector-curvature="0" />
      <path
         d="m 79.6164,65.902 -0.1949,0.0242 0.0238,0.1949 0.1945,-0.0242 z M 79.2148,66.2 c -0.1226,-0.2121 -0.0355,-0.4828 0.1879,-0.584 l 3.0993,-1.314 -2.6868,2.025 c -0.1984,0.1441 -0.4773,0.0851 -0.6004,-0.127"
         style="fill:#252e3a;fill-opacity:1;fill-rule:nonzero;stroke:none;stroke-width:0.1"
         id="path472"
         inkscape:connector-curvature="0" />
      <path
         d="m 82.5441,65.4262 c 0.1133,0 0.2055,0.0918 0.2055,0.2058 l -0.1027,0.1782 v 0.1597 h 0.1336 l 0.0347,0.0352 v 0.05 l -0.0347,0.0347 h -0.1336 v 0.1032 h 0.1336 l 0.0347,0.0351 v 0.05 l -0.0347,0.0348 h -0.1336 v 0.1031 h 0.1336 l 0.0347,0.0352 v 0.05 l -0.0347,0.0347 h -0.1336 v 0.0082 L 82.5441,66.6469 82.441,66.5441 V 65.8102 L 82.3383,65.632 c 0,-0.114 0.0922,-0.2058 0.2058,-0.2058"
         style="fill:#252e3a;fill-opacity:1;fill-rule:nonzero;stroke:none;stroke-width:0.1"
         id="path474"
         inkscape:connector-curvature="0" />
      <path
         d="m 82.6977,65.2988 h 0.1511 l 0.1434,-0.0597 0.1437,0.0597 v 0 l 0.0754,0.0313 0.0485,0.048 -0.0485,0.0481 -0.1433,-0.059 -0.0758,-0.032 -0.0754,0.032 -0.1438,0.059 -0.1433,-0.059 v 0 l -0.0758,-0.032 -0.0754,0.032 -0.1437,0.059 -0.1434,-0.059 h -4e-4 l -0.0754,-0.032 -0.0758,0.032 -0.1433,0.059 -0.0481,-0.0481 0.0481,-0.048 0.0754,-0.0313 0.1437,-0.0597 0.1438,0.0597 v 0 h 0.1511 l 0.1434,-0.0597 0.1438,0.0597 v 0"
         style="fill:#252e3a;fill-opacity:1;fill-rule:nonzero;stroke:none;stroke-width:0.1"
         id="path476"
         inkscape:connector-curvature="0" />
      <path
         d="m 83.1359,65.5922 v 0 h 0.1512 l 0.034,-0.0141 0.034,0.0141 v 0.068 H 83.068 l -0.0758,-0.0321 -0.0754,0.0321 h -0.068 v -0.068 l 0.1434,-0.0602 0.1437,0.0602"
         style="fill:#252e3a;fill-opacity:1;fill-rule:nonzero;stroke:none;stroke-width:0.1"
         id="path478"
         inkscape:connector-curvature="0" />
      <path
         d="m 82.191,65.65 h -0.1512 v 0 L 81.8965,65.7102 81.7527,65.65 v -0.068 h 0.068 0.1512 l 0.1437,-0.059 0.1438,0.059 V 65.65 H 82.191"
         style="fill:#252e3a;fill-opacity:1;fill-rule:nonzero;stroke:none;stroke-width:0.1"
         id="path480"
         inkscape:connector-curvature="0" />
      <path
         d="m 82.3945,63.393 -0.1687,0.0531 -0.0535,-0.0301 -0.059,-0.1168 -0.0918,-0.0344 -0.1211,0.0551 c -0.0324,0.0383 -0.0488,0.1071 -0.0488,0.2063 0,0.0918 0.0168,0.1578 0.0496,0.1957 l 0.1238,0.0543 0.0922,-0.0301 0.0492,-0.082 0.0504,-0.0321 0.1727,0.0422 0.0304,0.052 -0.1,0.1777 C 82.2465,63.973 82.15,64.009 82.034,64.009 c -0.1324,0 -0.2414,-0.0449 -0.3235,-0.1328 -0.0812,-0.0871 -0.1222,-0.209 -0.1222,-0.3633 0,-0.1457 0.041,-0.2641 0.1219,-0.35 0.0816,-0.0867 0.1871,-0.1309 0.3132,-0.1309 0.1016,0 0.1871,0.0262 0.2547,0.077 0.0676,0.0519 0.116,0.1301 0.1442,0.2332 l -0.0278,0.0508"
         style="fill:#252e3a;fill-opacity:1;fill-rule:nonzero;stroke:none;stroke-width:0.1"
         id="path482"
         inkscape:connector-curvature="0" />
      <path
         d="m 81.6609,67.934 h 0.1743 l 0.0421,0.0422 v 0.2937 l 0.0418,0.0422 h 0.1739 l 0.0418,-0.0422 V 67.9762 L 82.177,67.934 h 0.1742 l 0.0418,0.0422 v 0.8629 l -0.0418,0.0418 H 82.177 L 82.1348,68.8391 V 68.5828 L 82.093,68.541 h -0.1739 l -0.0418,0.0418 v 0.2563 l -0.0421,0.0418 h -0.1743 l -0.0418,-0.0418 v -0.8629 l 0.0418,-0.0422"
         style="fill:#252e3a;fill-opacity:1;fill-rule:nonzero;stroke:none;stroke-width:0.1"
         id="path484"
         inkscape:connector-curvature="0" />
      <path
         d="m 70.6957,68.4238 0.0789,0.0532 h 0.3176 l 0.0789,-0.0532 v -0.2929 l -0.0789,-0.0528 h -0.3176 l -0.0789,0.0528 z m 0.7191,0 0.079,0.0532 h 0.3175 l 0.0789,-0.0532 v -0.2929 l -0.0789,-0.0528 h -0.3175 l -0.079,0.0528 z m 0.7192,0 0.0789,0.0532 h 0.3176 l 0.0789,-0.0532 v -0.2929 l -0.0789,-0.0528 h -0.3176 l -0.0789,0.0528 z m 0.7191,0 0.0789,0.0532 h 0.3172 l 0.0789,-0.0532 V 68.1309 L 73.2492,68.0781 H 72.932 l -0.0789,0.0528 z m 0.7188,0 0.0793,0.0532 h 0.3172 l 0.0789,-0.0532 v -0.2929 l -0.0789,-0.0528 h -0.3172 l -0.0793,0.0528 z m 0.6742,-1.0039 c 0.1117,0 0.2027,0.091 0.2027,0.2031 v 0.8602 c 0,0.1129 -0.091,0.2027 -0.2027,0.2027 h -3.7488 c -0.1121,0 -0.2032,-0.0898 -0.2032,-0.2027 V 67.623 c 0,-0.1121 0.0911,-0.2031 0.2032,-0.2031 h 3.7488"
         style="fill:#252e3a;fill-opacity:1;fill-rule:nonzero;stroke:none;stroke-width:0.1"
         id="path486"
         inkscape:connector-curvature="0" />
    </g>
  </g>
</svg>
