<?xml version="1.0" encoding="UTF-8" standalone="no"?>
<!-- Created with Inkscape (http://www.inkscape.org/) -->

<svg
   xmlns:dc="http://purl.org/dc/elements/1.1/"
   xmlns:cc="http://creativecommons.org/ns#"
   xmlns:rdf="http://www.w3.org/1999/02/22-rdf-syntax-ns#"
   xmlns:svg="http://www.w3.org/2000/svg"
   xmlns="http://www.w3.org/2000/svg"
   xmlns:sodipodi="http://sodipodi.sourceforge.net/DTD/sodipodi-0.dtd"
   xmlns:inkscape="http://www.inkscape.org/namespaces/inkscape"
   width="9.1963243mm"
   height="9.3454361mm"
   viewBox="0 0 9.1963243 9.3454361"
   version="1.1"
   id="svg7775"
   inkscape:version="0.92.3 (2405546, 2018-03-11)"
   sodipodi:docname="15.svg">
  <defs
     id="defs7769" />
  <sodipodi:namedview
     id="base"
     pagecolor="#ffffff"
     bordercolor="#666666"
     borderopacity="1.0"
     inkscape:pageopacity="0.0"
     inkscape:pageshadow="2"
     inkscape:zoom="0.35"
     inkscape:cx="37.378879"
     inkscape:cy="-42.339318"
     inkscape:document-units="mm"
     inkscape:current-layer="layer1"
     showgrid="false"
     inkscape:window-width="1366"
     inkscape:window-height="719"
     inkscape:window-x="0"
     inkscape:window-y="25"
     inkscape:window-maximized="1" />
  <metadata
     id="metadata7772">
    <rdf:RDF>
      <cc:Work
         rdf:about="">
        <dc:format>image/svg+xml</dc:format>
        <dc:type
           rdf:resource="http://purl.org/dc/dcmitype/StillImage" />
        <dc:title></dc:title>
      </cc:Work>
    </rdf:RDF>
  </metadata>
  <g
     inkscape:label="Livello 1"
     inkscape:groupmode="layer"
     id="layer1"
     transform="translate(-95.943505,-128.28562)">
    <g
       transform="matrix(0.35277777,0,0,-0.35277777,-27.444572,234.60402)"
       id="g7729">
      <path
         d="m 361.963,281.951 c -0.13,0.106 -0.324,0.084 -0.432,-0.049 -0.108,-0.133 -0.09,-0.327 0.041,-0.433 0.13,-0.106 0.324,-0.084 0.432,0.049 0.108,0.133 0.09,0.327 -0.041,0.433"
         style="fill:#252e3a;fill-opacity:1;fill-rule:nonzero;stroke:none;stroke-width:0.1"
         id="path846"
         inkscape:connector-curvature="0" />
      <path
         d="m 363.034,281.64 c -0.169,-0.019 -0.293,-0.171 -0.277,-0.34 0.016,-0.17 0.166,-0.291 0.335,-0.272 0.168,0.019 0.292,0.172 0.277,0.341 -0.016,0.169 -0.166,0.291 -0.335,0.271"
         style="fill:#252e3a;fill-opacity:1;fill-rule:nonzero;stroke:none;stroke-width:0.1"
         id="path848"
         inkscape:connector-curvature="0" />
      <path
         d="m 364.263,284.3 c 0.108,0.134 0.09,0.327 -0.041,0.434 -0.13,0.105 -0.324,0.084 -0.432,-0.05 -0.108,-0.133 -0.09,-0.327 0.041,-0.433 0.13,-0.106 0.324,-0.084 0.432,0.049"
         style="fill:#252e3a;fill-opacity:1;fill-rule:nonzero;stroke:none;stroke-width:0.1"
         id="path850"
         inkscape:connector-curvature="0" />
      <path
         d="m 361.337,283.968 c 0.131,-0.107 0.324,-0.084 0.432,0.049 0.109,0.133 0.09,0.327 -0.04,0.433 -0.131,0.106 -0.324,0.084 -0.432,-0.049 -0.109,-0.134 -0.091,-0.328 0.04,-0.433"
         style="fill:#252e3a;fill-opacity:1;fill-rule:nonzero;stroke:none;stroke-width:0.1"
         id="path852"
         inkscape:connector-curvature="0" />
      <path
         d="m 358.633,292.047 c 0.205,-0.166 0.506,-0.135 0.672,0.07 0.166,0.205 0.135,0.506 -0.07,0.672 -0.205,0.166 -0.506,0.135 -0.672,-0.069 -0.166,-0.206 -0.135,-0.506 0.07,-0.673"
         style="fill:#252e3a;fill-opacity:1;fill-rule:nonzero;stroke:none;stroke-width:0.1"
         id="path854"
         inkscape:connector-curvature="0" />
      <path
         d="m 362.76,284.562 c 0.169,0.019 0.293,0.172 0.277,0.341 -0.016,0.169 -0.166,0.29 -0.334,0.271 -0.169,-0.019 -0.293,-0.172 -0.278,-0.341 0.016,-0.169 0.166,-0.29 0.335,-0.271"
         style="fill:#252e3a;fill-opacity:1;fill-rule:nonzero;stroke:none;stroke-width:0.1"
         id="path856"
         inkscape:connector-curvature="0" />
      <path
         d="m 361.105,283.207 c -0.169,-0.019 -0.293,-0.172 -0.277,-0.341 0.016,-0.17 0.166,-0.291 0.334,-0.272 0.169,0.019 0.293,0.172 0.277,0.341 -0.016,0.169 -0.165,0.291 -0.334,0.272"
         style="fill:#252e3a;fill-opacity:1;fill-rule:nonzero;stroke:none;stroke-width:0.1"
         id="path858"
         inkscape:connector-curvature="0" />
      <path
         d="m 364.457,282.235 c -0.131,0.106 -0.324,0.084 -0.432,-0.049 -0.109,-0.134 -0.09,-0.328 0.04,-0.434 0.131,-0.106 0.325,-0.084 0.432,0.05 0.109,0.133 0.091,0.327 -0.04,0.433"
         style="fill:#252e3a;fill-opacity:1;fill-rule:nonzero;stroke:none;stroke-width:0.1"
         id="path860"
         inkscape:connector-curvature="0" />
      <path
         d="m 363.323,283.625 c -0.284,0.231 -0.705,0.183 -0.94,-0.107 -0.235,-0.289 -0.195,-0.711 0.088,-0.941 0.284,-0.231 0.705,-0.183 0.94,0.107 0.235,0.289 0.196,0.711 -0.088,0.941"
         style="fill:#252e3a;fill-opacity:1;fill-rule:nonzero;stroke:none;stroke-width:0.1"
         id="path862"
         inkscape:connector-curvature="0" />
      <path
         d="m 366.72,290.154 c 0.397,-0.323 0.972,-0.275 1.282,0.107 0.309,0.381 0.238,0.953 -0.159,1.275 -0.397,0.323 -0.972,0.275 -1.281,-0.107 -0.31,-0.381 -0.239,-0.953 0.158,-1.275"
         style="fill:#252e3a;fill-opacity:1;fill-rule:nonzero;stroke:none;stroke-width:0.1"
         id="path864"
         inkscape:connector-curvature="0" />
      <path
         d="m 364.689,281.646 c -0.819,-1.01 -2.286,-1.176 -3.276,-0.373 -0.99,0.804 -1.128,2.273 -0.308,3.283 0.819,1.01 2.286,1.176 3.276,0.373 0.99,-0.804 1.128,-2.274 0.308,-3.283 z m -0.087,3.555 c -1.16,0.942 -2.863,0.765 -3.805,-0.395 -0.942,-1.16 -0.765,-2.863 0.395,-3.805 1.16,-0.942 2.863,-0.765 3.805,0.395 0.942,1.16 0.765,2.863 -0.395,3.805"
         style="fill:#252e3a;fill-opacity:1;fill-rule:nonzero;stroke:none;stroke-width:0.1"
         id="path866"
         inkscape:connector-curvature="0" />
      <path
         d="m 364.355,283.267 c 0.015,-0.169 0.165,-0.291 0.334,-0.272 0.169,0.019 0.293,0.172 0.277,0.341 -0.016,0.169 -0.166,0.291 -0.335,0.272 -0.168,-0.019 -0.292,-0.172 -0.276,-0.341"
         style="fill:#252e3a;fill-opacity:1;fill-rule:nonzero;stroke:none;stroke-width:0.1"
         id="path868"
         inkscape:connector-curvature="0" />
      <path
         d="m 351.355,295.862 0.259,-0.019 5.057,4.391 0.018,0.259 -0.259,0.298 -0.259,0.018 -0.691,-0.599 -0.298,0.344 c -0.417,0.481 -1.146,0.532 -1.626,0.115 l -0.123,-0.107 -0.175,0.201 -0.167,0.012 -1.21,-1.051 -0.011,-0.167 0.174,-0.201 -0.35,-0.304 c -0.48,-0.417 -0.532,-1.145 -0.114,-1.625 l 0.298,-0.345 -0.764,-0.663 -0.018,-0.259 0.259,-0.298"
         style="fill:#252e3a;fill-opacity:1;fill-rule:nonzero;stroke:none;stroke-width:0.1"
         id="path870"
         inkscape:connector-curvature="0" />
      <path
         d="m 373.998,295.843 0.259,0.019 0.259,0.298 -0.018,0.259 -0.764,0.663 0.299,0.345 c 0.417,0.48 0.366,1.208 -0.115,1.625 l -0.349,0.304 0.174,0.201 -0.012,0.167 -1.209,1.051 -0.168,-0.012 -0.174,-0.201 -0.123,0.107 c -0.481,0.417 -1.209,0.366 -1.626,-0.115 l -0.299,-0.344 -0.69,0.599 -0.259,-0.018 -0.259,-0.298 0.018,-0.259 5.056,-4.391"
         style="fill:#252e3a;fill-opacity:1;fill-rule:nonzero;stroke:none;stroke-width:0.1"
         id="path872"
         inkscape:connector-curvature="0" />
      <path
         d="m 356.898,294.071 c 0.913,1.124 2.565,1.296 3.689,0.383 1.124,-0.913 1.296,-2.565 0.383,-3.689 -0.913,-1.124 -2.565,-1.295 -3.689,-0.383 -1.124,0.913 -1.296,2.565 -0.383,3.689 z m 9.647,-1.018 c -0.297,-0.094 -0.577,-0.248 -0.818,-0.462 l -4.117,1.064 c -0.137,0.297 -0.325,0.574 -0.562,0.818 z m 1.983,-0.673 c 0.862,-0.7 1.004,-1.958 0.317,-2.804 -0.687,-0.846 -1.947,-0.965 -2.809,-0.266 -0.862,0.7 -1.004,1.958 -0.317,2.804 0.687,0.846 1.947,0.965 2.809,0.266 z m -1.567,-8.714 c -0.053,0.386 -0.161,0.764 -0.322,1.122 l 1.232,3.808 c 0.288,0.07 0.562,0.195 0.807,0.374 z m -1.13,-2.947 c -1.315,-1.621 -3.696,-1.868 -5.316,-0.552 -1.621,1.315 -1.868,3.696 -0.552,5.317 1.315,1.62 3.696,1.867 5.316,0.551 1.621,-1.315 1.868,-3.696 0.552,-5.316 z m -8.829,9.472 0.074,-0.061 c 0.236,-0.192 0.494,-0.342 0.763,-0.449 l 1.421,-4.675 c -0.171,-0.326 -0.294,-0.669 -0.371,-1.019 z m -5.197,5.62 0.549,-0.667 0.267,-0.024 0.263,0.222 0.265,-0.022 0.316,-0.374 -0.022,-0.265 -0.275,-0.233 -0.024,-0.263 0.299,-0.362 0.267,-0.025 0.233,0.198 0.266,-0.022 0.316,-0.373 -0.022,-0.265 -0.247,-0.209 -0.023,-0.263 0.278,-0.339 0.039,-0.077 2.856,-12.307 v -1.604 h 5.39 5.389 v 1.604 l 2.867,12.35 0.361,0.439 -0.023,0.264 -0.168,0.142 -0.022,0.265 0.316,0.373 0.265,0.022 0.155,-0.131 0.267,0.024 0.299,0.363 -0.024,0.263 -0.196,0.166 -0.022,0.265 0.316,0.374 0.265,0.022 0.184,-0.156 0.267,0.024 0.495,0.601 -4.894,4.237 -0.48,-0.618 0.027,-0.259 0.407,-0.344 0.022,-0.266 -0.316,-0.373 -0.265,-0.022 -0.368,0.311 -0.27,-0.028 -0.3,-0.386 0.027,-0.259 0.294,-0.249 0.022,-0.265 -0.316,-0.374 -0.265,-0.022 -0.255,0.216 -0.27,-0.028 -0.585,-0.753 h -0.836 c -0.105,0 -0.189,-0.084 -0.189,-0.188 l 0.001,-0.257 c 0,-0.104 -0.084,-0.188 -0.188,-0.188 l -0.489,-0.001 c -0.104,0 -0.189,0.084 -0.189,0.188 v 0.258 c 0,0.104 -0.085,0.188 -0.189,0.188 h -0.505 c -0.104,0 -0.189,-0.084 -0.189,-0.188 l 0.001,-0.257 c 0,-0.104 -0.084,-0.188 -0.188,-0.188 l -0.489,-0.001 c -0.104,0 -0.189,0.084 -0.189,0.188 v 0.258 c 0,0.104 -0.084,0.188 -0.188,0.188 h -0.506 c -0.104,0 -0.188,-0.084 -0.188,-0.188 v -0.257 c 0,-0.104 -0.084,-0.188 -0.188,-0.188 l -0.489,-0.001 c -0.104,0 -0.188,0.084 -0.189,0.188 v 0.258 c 0,0.104 -0.084,0.188 -0.188,0.188 h -0.838 l -0.533,0.685 -0.27,0.028 -0.175,-0.148 -0.265,0.022 -0.316,0.374 0.022,0.265 0.214,0.181 0.027,0.259 -0.3,0.386 -0.27,0.028 -0.288,-0.243 -0.265,0.022 -0.437,0.517 0.47,0.399 0.028,0.259 -0.533,0.685 -4.894,-4.237"
         style="fill:#252e3a;fill-opacity:1;fill-rule:nonzero;stroke:none;stroke-width:0.1"
         id="path874"
         inkscape:connector-curvature="0" />
      <path
         d="m 366.768,298.063 v 1.226 c 0,0.207 -0.167,0.374 -0.373,0.374 h -3.464 l -0.135,-0.136 v -1.734 h -0.379 v 1.734 l -0.135,0.136 h -0.381 l -0.136,-0.136 v -1.734 h -0.637 v 1.734 l -0.135,0.136 h -0.279 l -0.136,-0.136 v -1.734 h -0.947 v 1.87 h -0.435 c -0.206,0 -0.373,-0.167 -0.373,-0.374 v -1.226 c 0,-0.446 0.362,-0.808 0.808,-0.808 h 6.33 c 0.446,0 0.807,0.362 0.807,0.808"
         style="fill:#252e3a;fill-opacity:1;fill-rule:nonzero;stroke:none;stroke-width:0.1"
         id="path876"
         inkscape:connector-curvature="0" />
      <path
         d="m 358.869,299.879 h 7.853 c 0.114,0 0.207,0.092 0.207,0.207 0,0.114 -0.093,0.206 -0.207,0.206 h -7.853 c -0.114,0 -0.206,-0.092 -0.206,-0.206 0,-0.115 0.092,-0.207 0.206,-0.207"
         style="fill:#252e3a;fill-opacity:1;fill-rule:nonzero;stroke:none;stroke-width:0.1"
         id="path878"
         inkscape:connector-curvature="0" />
      <path
         d="m 359.378,300.446 h 6.836 c 0.135,0 0.245,0.11 0.245,0.245 0,0.378 -0.306,0.684 -0.684,0.684 h -5.959 c -0.377,0 -0.683,-0.306 -0.683,-0.684 0,-0.135 0.11,-0.245 0.245,-0.245"
         style="fill:#252e3a;fill-opacity:1;fill-rule:nonzero;stroke:none;stroke-width:0.1"
         id="path880"
         inkscape:connector-curvature="0" />
      <path
         d="m 355.453,286.449 -0.55,2.369 -3.237,-4.918 2.777,0.968 1.01,1.581"
         style="fill:#252e3a;fill-opacity:1;fill-rule:nonzero;stroke:none;stroke-width:0.1"
         id="path882"
         inkscape:connector-curvature="0" />
      <path
         d="m 356.184,283.299 -1.851,-2.9 2.377,0.632 z"
         style="fill:#252e3a;fill-opacity:1;fill-rule:nonzero;stroke:none;stroke-width:0.1"
         id="path884"
         inkscape:connector-curvature="0" />
      <path
         d="m 353.52,289.486 -0.046,-0.145 -0.08,-0.22 c -0.032,-0.084 -0.071,-0.177 -0.114,-0.278 -0.044,-0.101 -0.094,-0.209 -0.149,-0.321 -0.054,-0.113 -0.114,-0.23 -0.178,-0.35 l -0.1,-0.181 -0.051,-0.093 -0.054,-0.091 c -0.072,-0.124 -0.149,-0.246 -0.225,-0.369 -0.079,-0.122 -0.157,-0.243 -0.238,-0.36 l -0.122,-0.174 -0.121,-0.167 c -0.081,-0.11 -0.162,-0.214 -0.241,-0.311 -0.078,-0.098 -0.155,-0.188 -0.227,-0.271 l -0.202,-0.223 -0.165,-0.165 -0.111,-0.104 -0.041,-0.036 -0.027,0.017 c 0,0 0.038,0.062 0.104,0.17 0.067,0.107 0.161,0.262 0.277,0.446 0.23,0.368 0.538,0.858 0.846,1.348 0.312,0.488 0.624,0.975 0.858,1.34 0.117,0.183 0.217,0.334 0.286,0.44 0.069,0.106 0.109,0.167 0.109,0.167 l 0.027,-0.017 z m 0.755,2.035 -4.383,-6.866 c -0.247,-0.387 -0.133,-0.901 0.254,-1.149 0.387,-0.247 0.901,-0.133 1.149,0.254 l 3.507,5.493 -0.527,2.268"
         style="fill:#252e3a;fill-opacity:1;fill-rule:nonzero;stroke:none;stroke-width:0.1"
         id="path886"
         inkscape:connector-curvature="0" />
      <path
         d="m 354.808,283.965 -0.024,-0.111 -0.047,-0.167 -0.071,-0.21 -0.097,-0.24 -0.122,-0.26 -0.069,-0.134 -0.036,-0.067 -0.039,-0.068 c -0.05,-0.09 -0.106,-0.179 -0.161,-0.269 l -0.175,-0.26 -0.091,-0.125 -0.091,-0.12 -0.183,-0.221 -0.176,-0.19 -0.16,-0.154 -0.131,-0.113 -0.089,-0.07 -0.033,-0.023 -0.027,0.016 0.075,0.124 c 0.048,0.078 0.115,0.192 0.199,0.325 0.167,0.268 0.391,0.624 0.613,0.981 0.228,0.354 0.456,0.708 0.626,0.973 0.085,0.133 0.159,0.242 0.21,0.319 l 0.079,0.121 0.027,-0.017 z m 0.757,2.06 -2.974,-4.605 c -0.249,-0.386 -0.138,-0.901 0.248,-1.15 0.385,-0.249 0.9,-0.138 1.15,0.248 l 2.09,3.237 -0.514,2.27"
         style="fill:#252e3a;fill-opacity:1;fill-rule:nonzero;stroke:none;stroke-width:0.1"
         id="path888"
         inkscape:connector-curvature="0" />
      <path
         d="m 370.139,286.449 1.009,-1.581 2.778,-0.968 -3.237,4.918 -0.55,-2.369"
         style="fill:#252e3a;fill-opacity:1;fill-rule:nonzero;stroke:none;stroke-width:0.1"
         id="path890"
         inkscape:connector-curvature="0" />
      <path
         d="m 368.881,281.031 2.378,-0.632 -1.851,2.9 z"
         style="fill:#252e3a;fill-opacity:1;fill-rule:nonzero;stroke:none;stroke-width:0.1"
         id="path892"
         inkscape:connector-curvature="0" />
      <path
         d="m 375.699,284.655 -4.383,6.866 -0.526,-2.268 3.507,-5.493 c 0.247,-0.387 0.761,-0.501 1.149,-0.254 0.387,0.248 0.5,0.762 0.253,1.149"
         style="fill:#252e3a;fill-opacity:1;fill-rule:nonzero;stroke:none;stroke-width:0.1"
         id="path894"
         inkscape:connector-curvature="0" />
      <path
         d="m 370.027,286.025 -0.515,-2.27 2.091,-3.237 c 0.249,-0.386 0.764,-0.497 1.15,-0.248 0.386,0.249 0.497,0.764 0.247,1.15 l -2.973,4.605"
         style="fill:#252e3a;fill-opacity:1;fill-rule:nonzero;stroke:none;stroke-width:0.1"
         id="path896"
         inkscape:connector-curvature="0" />
      <path
         d="m 368.752,278.297 h -11.71 c -0.251,0 -0.455,-0.204 -0.455,-0.456 v -0.997 c 0,-0.251 0.204,-0.455 0.455,-0.455 h 11.71 c 0.252,0 0.455,0.204 0.455,0.455 v 0.997 c 0,0.252 -0.203,0.456 -0.455,0.456"
         style="fill:#252e3a;fill-opacity:1;fill-rule:nonzero;stroke:none;stroke-width:0.1"
         id="path898"
         inkscape:connector-curvature="0" />
      <path
         d="m 360.844,297.08 c -0.134,0 -0.242,-0.108 -0.242,-0.241 v -0.068 c 0,-0.133 0.108,-0.241 0.242,-0.241 h 3.904 c 0.133,0 0.241,0.108 0.241,0.241 v 0.068 c 0,0.133 -0.108,0.241 -0.241,0.241 h -3.904"
         style="fill:#252e3a;fill-opacity:1;fill-rule:nonzero;stroke:none;stroke-width:0.1"
         id="path900"
         inkscape:connector-curvature="0" />
      <path
         d="m 367.086,276.156 h -8.378 c -0.21,0 -0.382,-0.17 -0.383,-0.381 -0.002,-0.491 0.397,-0.891 0.888,-0.891 h 0.857 l 0.124,0.125 v 0.456 l 0.124,0.124 h 0.366 l 0.124,-0.124 v -0.456 l 0.124,-0.125 h 0.336 l 0.124,0.125 v 0.456 l 0.124,0.124 h 0.366 l 0.124,-0.124 v -0.456 l 0.124,-0.125 h 0.336 l 0.124,0.125 v 0.456 l 0.124,0.124 h 0.366 l 0.124,-0.124 v -0.456 l 0.124,-0.125 h 0.336 l 0.124,0.125 v 0.456 l 0.124,0.124 h 0.366 l 0.124,-0.124 v -0.456 l 0.124,-0.125 h 0.336 l 0.124,0.125 v 0.456 l 0.124,0.124 h 0.366 l 0.124,-0.124 v -0.456 l 0.124,-0.125 h 0.857 c 0.491,0 0.89,0.4 0.888,0.891 0,0.211 -0.173,0.381 -0.383,0.381"
         style="fill:#252e3a;fill-opacity:1;fill-rule:nonzero;stroke:none;stroke-width:0.1"
         id="path902"
         inkscape:connector-curvature="0" />
    </g>
  </g>
</svg>
