<?xml version="1.0" encoding="UTF-8" standalone="no"?>
<!-- Created with Inkscape (http://www.inkscape.org/) -->

<svg
   xmlns:dc="http://purl.org/dc/elements/1.1/"
   xmlns:cc="http://creativecommons.org/ns#"
   xmlns:rdf="http://www.w3.org/1999/02/22-rdf-syntax-ns#"
   xmlns:svg="http://www.w3.org/2000/svg"
   xmlns="http://www.w3.org/2000/svg"
   xmlns:sodipodi="http://sodipodi.sourceforge.net/DTD/sodipodi-0.dtd"
   xmlns:inkscape="http://www.inkscape.org/namespaces/inkscape"
   width="9.7313747mm"
   height="5.9933767mm"
   viewBox="0 0 9.7313747 5.9933767"
   version="1.1"
   id="svg8066"
   inkscape:version="0.92.3 (2405546, 2018-03-11)"
   sodipodi:docname="18.svg">
  <defs
     id="defs8060" />
  <sodipodi:namedview
     id="base"
     pagecolor="#ffffff"
     bordercolor="#666666"
     borderopacity="1.0"
     inkscape:pageopacity="0.0"
     inkscape:pageshadow="2"
     inkscape:zoom="0.35"
     inkscape:cx="58.389998"
     inkscape:cy="-85.816787"
     inkscape:document-units="mm"
     inkscape:current-layer="layer1"
     showgrid="false"
     inkscape:window-width="1366"
     inkscape:window-height="719"
     inkscape:window-x="0"
     inkscape:window-y="25"
     inkscape:window-maximized="1" />
  <metadata
     id="metadata8063">
    <rdf:RDF>
      <cc:Work
         rdf:about="">
        <dc:format>image/svg+xml</dc:format>
        <dc:type
           rdf:resource="http://purl.org/dc/dcmitype/StillImage" />
        <dc:title></dc:title>
      </cc:Work>
    </rdf:RDF>
  </metadata>
  <g
     inkscape:label="Livello 1"
     inkscape:groupmode="layer"
     id="layer1"
     transform="translate(-90.384313,-120.13427)">
    <g
       transform="matrix(0.35277777,0,0,-0.35277777,-20.733629,134.6377)"
       id="g8016">
      <path
         d="m 319.066,29.8012 c -0.397,0 -0.719,-0.3231 -0.719,-0.7203 v -3.8797 c 0,-0.3973 0.322,-0.7192 0.719,-0.7192 0.114,0 0.206,0.0918 0.206,0.2051 v 4.9078 c 0,0.1141 -0.092,0.2063 -0.206,0.2063"
         style="fill:#252e3a;fill-opacity:1;fill-rule:nonzero;stroke:none;stroke-width:0.1"
         id="path2164"
         inkscape:connector-curvature="0" />
      <path
         d="m 321.563,29.8012 v 0 c -0.114,0 -0.206,-0.0922 -0.206,-0.2063 v -4.9078 c 0,-0.1133 0.092,-0.2051 0.206,-0.2051 0.397,0 0.72,0.3219 0.72,0.7192 v 3.8797 c 0,0.3972 -0.323,0.7203 -0.72,0.7203"
         style="fill:#252e3a;fill-opacity:1;fill-rule:nonzero;stroke:none;stroke-width:0.1"
         id="path2166"
         inkscape:connector-curvature="0" />
      <path
         d="m 320.827,28.4988 h -0.995 c -0.179,0 -0.324,-0.1457 -0.324,-0.3246 v -2.057 c 0,-0.1793 0.145,-0.3242 0.324,-0.3242 h 0.995 c 0.179,0 0.324,0.1449 0.324,0.3242 v 2.057 c 0,0.1789 -0.145,0.3246 -0.324,0.3246"
         style="fill:#252e3a;fill-opacity:1;fill-rule:nonzero;stroke:none;stroke-width:0.1"
         id="path2168"
         inkscape:connector-curvature="0" />
      <path
         d="m 324.747,29.8012 c -0.398,0 -0.72,-0.3231 -0.72,-0.7203 v -3.8797 c 0,-0.3973 0.322,-0.7192 0.72,-0.7192 0.113,0 0.206,0.0918 0.206,0.2051 v 4.9078 c 0,0.1141 -0.093,0.2063 -0.206,0.2063"
         style="fill:#252e3a;fill-opacity:1;fill-rule:nonzero;stroke:none;stroke-width:0.1"
         id="path2170"
         inkscape:connector-curvature="0" />
      <path
         d="m 327.244,29.8012 v 0 c -0.114,0 -0.206,-0.0922 -0.206,-0.2063 v -4.9078 c 0,-0.1133 0.092,-0.2051 0.206,-0.2051 0.397,0 0.719,0.3219 0.719,0.7192 v 3.8797 c 0,0.3972 -0.322,0.7203 -0.719,0.7203"
         style="fill:#252e3a;fill-opacity:1;fill-rule:nonzero;stroke:none;stroke-width:0.1"
         id="path2172"
         inkscape:connector-curvature="0" />
      <path
         d="m 330.428,29.8012 c -0.398,0 -0.72,-0.3231 -0.72,-0.7203 v -3.8797 c 0,-0.3973 0.322,-0.7192 0.72,-0.7192 0.113,0 0.205,0.0918 0.205,0.2051 v 4.9078 c 0,0.1141 -0.092,0.2063 -0.205,0.2063"
         style="fill:#252e3a;fill-opacity:1;fill-rule:nonzero;stroke:none;stroke-width:0.1"
         id="path2174"
         inkscape:connector-curvature="0" />
      <path
         d="m 332.924,29.8012 v 0 c -0.113,0 -0.205,-0.0922 -0.205,-0.2063 v -4.9078 c 0,-0.1133 0.092,-0.2051 0.205,-0.2051 0.398,0 0.72,0.3219 0.72,0.7192 v 3.8797 c 0,0.3972 -0.322,0.7203 -0.72,0.7203"
         style="fill:#252e3a;fill-opacity:1;fill-rule:nonzero;stroke:none;stroke-width:0.1"
         id="path2176"
         inkscape:connector-curvature="0" />
      <path
         d="m 336.108,29.8012 c -0.397,0 -0.719,-0.3231 -0.719,-0.7203 v -3.8797 c 0,-0.3973 0.322,-0.7192 0.719,-0.7192 0.114,0 0.206,0.0918 0.206,0.2051 v 4.9078 c 0,0.1141 -0.092,0.2063 -0.206,0.2063"
         style="fill:#252e3a;fill-opacity:1;fill-rule:nonzero;stroke:none;stroke-width:0.1"
         id="path2178"
         inkscape:connector-curvature="0" />
      <path
         d="m 338.605,29.8012 v 0 c -0.114,0 -0.206,-0.0922 -0.206,-0.2063 v -4.9078 c 0,-0.1133 0.092,-0.2051 0.206,-0.2051 0.397,0 0.72,0.3219 0.72,0.7192 v 3.8797 c 0,0.3972 -0.323,0.7203 -0.72,0.7203"
         style="fill:#252e3a;fill-opacity:1;fill-rule:nonzero;stroke:none;stroke-width:0.1"
         id="path2180"
         inkscape:connector-curvature="0" />
      <path
         d="m 323.625,28.1398 h -0.961 c -0.108,0 -0.195,-0.0867 -0.195,-0.1949 v -1.6078 c 0,-0.1082 0.087,-0.1949 0.195,-0.1949 h 0.039 0.883 0.039 c 0.108,0 0.195,0.0867 0.195,0.1949 v 1.6078 c 0,0.1082 -0.087,0.1949 -0.195,0.1949"
         style="fill:#252e3a;fill-opacity:1;fill-rule:nonzero;stroke:none;stroke-width:0.1"
         id="path2182"
         inkscape:connector-curvature="0" />
      <path
         d="m 329.306,28.1398 h -0.922 c -0.108,0 -0.195,-0.0867 -0.195,-0.1949 v -1.6078 c 0,-0.1082 0.087,-0.1949 0.195,-0.1949 h 0.922 c 0.108,0 0.195,0.0867 0.195,0.1949 v 1.6078 c 0,0.1082 -0.087,0.1949 -0.195,0.1949"
         style="fill:#252e3a;fill-opacity:1;fill-rule:nonzero;stroke:none;stroke-width:0.1"
         id="path2184"
         inkscape:connector-curvature="0" />
      <path
         d="m 334.975,28.1398 h -0.922 c -0.108,0 -0.195,-0.0867 -0.195,-0.1949 v -1.6078 c 0,-0.1082 0.087,-0.1949 0.195,-0.1949 h 0.922 c 0.107,0 0.195,0.0867 0.195,0.1949 v 1.6078 c 0,0.1082 -0.088,0.1949 -0.195,0.1949"
         style="fill:#252e3a;fill-opacity:1;fill-rule:nonzero;stroke:none;stroke-width:0.1"
         id="path2186"
         inkscape:connector-curvature="0" />
      <path
         d="m 342.37,28.1398 h -1.271 v 0.6731 c 0,0.1133 -0.092,0.2062 -0.206,0.2062 h -0.076 c -0.114,0 -0.206,-0.0929 -0.206,-0.2062 v -0.6731 h -0.917 c -0.108,0 -0.195,-0.0867 -0.195,-0.1949 v -1.6078 c 0,-0.1082 0.087,-0.1949 0.195,-0.1949 h 0.917 v -0.6731 c 0,-0.1132 0.092,-0.205 0.206,-0.205 h 0.076 c 0.114,0 0.206,0.0918 0.206,0.205 v 0.6731 h 1.271 c 0.108,0 0.195,0.0867 0.195,0.1949 v 1.6078 c 0,0.1082 -0.087,0.1949 -0.195,0.1949"
         style="fill:#252e3a;fill-opacity:1;fill-rule:nonzero;stroke:none;stroke-width:0.1"
         id="path2188"
         inkscape:connector-curvature="0" />
      <path
         d="m 317.981,28.1398 h -0.922 c -0.108,0 -0.195,-0.0867 -0.195,-0.1949 v -0.3738 l -0.03,0.0027 h -1.685 c -0.093,0 -0.169,-0.075 -0.169,-0.1679 v -0.5297 c 0,-0.0934 0.076,-0.168 0.169,-0.168 h 1.685 l 0.03,0.0027 v -0.3738 c 0,-0.1082 0.087,-0.1949 0.195,-0.1949 h 0.922 c 0.108,0 0.195,0.0867 0.195,0.1949 v 1.6078 c 0,0.1082 -0.087,0.1949 -0.195,0.1949"
         style="fill:#252e3a;fill-opacity:1;fill-rule:nonzero;stroke:none;stroke-width:0.1"
         id="path2190"
         inkscape:connector-curvature="0" />
      <path
         d="m 322.678,38.8551 c 0,0.316 -0.256,0.5719 -0.572,0.5719 h -3.553 c -0.316,0 -0.572,-0.2559 -0.572,-0.5719 v -0.286 h 4.697 v 0.286"
         style="fill:#252e3a;fill-opacity:1;fill-rule:nonzero;stroke:none;stroke-width:0.1"
         id="path2192"
         inkscape:connector-curvature="0" />
      <path
         d="m 322.678,38.393 h -4.697 v -0.6532 h 4.697 v 0.6532"
         style="fill:#252e3a;fill-opacity:1;fill-rule:nonzero;stroke:none;stroke-width:0.1"
         id="path2194"
         inkscape:connector-curvature="0" />
      <path
         d="m 332.184,28.4988 h -0.995 c -0.179,0 -0.324,-0.1457 -0.324,-0.3246 v -2.057 c 0,-0.1793 0.145,-0.3242 0.324,-0.3242 h 0.995 c 0.179,0 0.325,0.1449 0.325,0.3242 v 2.057 c 0,0.1789 -0.146,0.3246 -0.325,0.3246"
         style="fill:#252e3a;fill-opacity:1;fill-rule:nonzero;stroke:none;stroke-width:0.1"
         id="path2196"
         inkscape:connector-curvature="0" />
      <path
         d="m 334.035,38.8551 c 0,0.316 -0.256,0.5719 -0.572,0.5719 h -3.553 c -0.316,0 -0.571,-0.2559 -0.571,-0.5719 v -0.286 h 4.696 v 0.286"
         style="fill:#252e3a;fill-opacity:1;fill-rule:nonzero;stroke:none;stroke-width:0.1"
         id="path2198"
         inkscape:connector-curvature="0" />
      <path
         d="m 334.035,38.393 h -4.696 v -0.6532 h 4.696 v 0.6532"
         style="fill:#252e3a;fill-opacity:1;fill-rule:nonzero;stroke:none;stroke-width:0.1"
         id="path2200"
         inkscape:connector-curvature="0" />
      <path
         d="m 326.493,26.8289 h -0.996 c -0.179,0 -0.324,-0.1449 -0.324,-0.3238 v -2.0582 c 0,-0.1789 0.145,-0.3239 0.324,-0.3239 h 0.996 c 0.179,0 0.324,0.145 0.324,0.3239 v 2.0582 c 0,0.1789 -0.145,0.3238 -0.324,0.3238"
         style="fill:#252e3a;fill-opacity:1;fill-rule:nonzero;stroke:none;stroke-width:0.1"
         id="path2202"
         inkscape:connector-curvature="0" />
      <path
         d="m 328.343,37.1852 c 0,0.316 -0.255,0.5718 -0.571,0.5718 h -3.553 c -0.316,0 -0.572,-0.2558 -0.572,-0.5718 v -0.2864 h 4.696 v 0.2864"
         style="fill:#252e3a;fill-opacity:1;fill-rule:nonzero;stroke:none;stroke-width:0.1"
         id="path2204"
         inkscape:connector-curvature="0" />
      <path
         d="m 328.343,36.7238 h -4.696 v -0.6539 h 4.696 v 0.6539"
         style="fill:#252e3a;fill-opacity:1;fill-rule:nonzero;stroke:none;stroke-width:0.1"
         id="path2206"
         inkscape:connector-curvature="0" />
      <path
         d="m 337.854,30.184 h -0.995 c -0.179,0 -0.324,-0.1449 -0.324,-0.3238 v -2.0571 c 0,-0.1793 0.145,-0.3242 0.324,-0.3242 h 0.995 c 0.179,0 0.324,0.1449 0.324,0.3242 v 2.0571 c 0,0.1789 -0.145,0.3238 -0.324,0.3238"
         style="fill:#252e3a;fill-opacity:1;fill-rule:nonzero;stroke:none;stroke-width:0.1"
         id="path2208"
         inkscape:connector-curvature="0" />
      <path
         d="m 339.705,40.5398 c 0,0.3161 -0.256,0.5723 -0.572,0.5723 h -3.553 c -0.316,0 -0.572,-0.2562 -0.572,-0.5723 v -0.2859 h 4.697 v 0.2859"
         style="fill:#252e3a;fill-opacity:1;fill-rule:nonzero;stroke:none;stroke-width:0.1"
         id="path2210"
         inkscape:connector-curvature="0" />
      <path
         d="m 339.705,40.0789 h -4.697 V 39.425 h 4.697 v 0.6539"
         style="fill:#252e3a;fill-opacity:1;fill-rule:nonzero;stroke:none;stroke-width:0.1"
         id="path2212"
         inkscape:connector-curvature="0" />
      <path
         d="m 322.678,35.2539 v 2.2973 h -4.697 v -2.2973 c 0,-0.1828 0.12,-0.3461 0.296,-0.3988 0.522,-0.1563 1.239,-0.3059 2.095,-0.3012 0.817,0.0051 1.503,0.1492 2.01,0.302 0.176,0.0519 0.296,0.2152 0.296,0.398"
         style="fill:#252e3a;fill-opacity:1;fill-rule:nonzero;stroke:none;stroke-width:0.1"
         id="path2214"
         inkscape:connector-curvature="0" />
      <path
         d="m 320.827,28.5949 0.078,-0.0097 v 5.8679 c -0.171,-0.014 -0.348,-0.0222 -0.533,-0.023 -0.215,-0.002 -0.421,0.007 -0.618,0.023 v -5.8679 l 0.078,0.0097 h 0.995"
         style="fill:#252e3a;fill-opacity:1;fill-rule:nonzero;stroke:none;stroke-width:0.1"
         id="path2216"
         inkscape:connector-curvature="0" />
      <path
         d="m 328.343,33.584 v 2.2969 h -4.696 V 33.584 c 0,-0.1828 0.12,-0.3461 0.296,-0.3988 0.522,-0.1563 1.239,-0.3063 2.095,-0.3012 0.817,0.0051 1.503,0.15 2.01,0.3019 0.176,0.052 0.295,0.2153 0.295,0.3981"
         style="fill:#252e3a;fill-opacity:1;fill-rule:nonzero;stroke:none;stroke-width:0.1"
         id="path2218"
         inkscape:connector-curvature="0" />
      <path
         d="m 326.493,26.925 0.077,-0.0102 v 5.868 c -0.17,-0.0137 -0.348,-0.0219 -0.532,-0.0226 -0.215,-0.002 -0.421,0.007 -0.618,0.0226 v -0.3609 -5.5071 l 0.077,0.0102 h 0.996"
         style="fill:#252e3a;fill-opacity:1;fill-rule:nonzero;stroke:none;stroke-width:0.1"
         id="path2220"
         inkscape:connector-curvature="0" />
      <path
         d="m 334.035,35.2539 v 2.2973 h -4.696 v -2.2973 c 0,-0.1828 0.119,-0.3461 0.295,-0.3988 0.522,-0.1563 1.239,-0.3059 2.095,-0.3012 0.817,0.0051 1.504,0.1492 2.011,0.302 0.175,0.0519 0.295,0.2152 0.295,0.398"
         style="fill:#252e3a;fill-opacity:1;fill-rule:nonzero;stroke:none;stroke-width:0.1"
         id="path2222"
         inkscape:connector-curvature="0" />
      <path
         d="m 332.184,28.5949 0.078,-0.0097 v 5.8679 c -0.171,-0.014 -0.348,-0.0222 -0.533,-0.023 -0.215,-0.002 -0.421,0.007 -0.617,0.023 V 34.091 28.5852 l 0.077,0.0097 h 0.995"
         style="fill:#252e3a;fill-opacity:1;fill-rule:nonzero;stroke:none;stroke-width:0.1"
         id="path2224"
         inkscape:connector-curvature="0" />
      <path
         d="m 339.705,36.9398 v 2.2961 h -4.697 v -2.2961 c 0,-0.1839 0.12,-0.3457 0.296,-0.3988 0.522,-0.157 1.239,-0.307 2.095,-0.3019 0.817,0.005 1.503,0.15 2.01,0.3019 0.176,0.0531 0.296,0.2149 0.296,0.3988"
         style="fill:#252e3a;fill-opacity:1;fill-rule:nonzero;stroke:none;stroke-width:0.1"
         id="path2226"
         inkscape:connector-curvature="0" />
      <path
         d="m 337.854,30.2801 0.078,-0.009 v 5.8668 c -0.171,-0.0129 -0.348,-0.0219 -0.533,-0.0231 -0.215,-7e-4 -0.421,0.0071 -0.618,0.0231 V 35.777 30.2711 l 0.078,0.009 h 0.995"
         style="fill:#252e3a;fill-opacity:1;fill-rule:nonzero;stroke:none;stroke-width:0.1"
         id="path2228"
         inkscape:connector-curvature="0" />
    </g>
  </g>
</svg>
