<?xml version="1.0" encoding="UTF-8" standalone="no"?>
<!-- Created with Inkscape (http://www.inkscape.org/) -->

<svg
   xmlns:dc="http://purl.org/dc/elements/1.1/"
   xmlns:cc="http://creativecommons.org/ns#"
   xmlns:rdf="http://www.w3.org/1999/02/22-rdf-syntax-ns#"
   xmlns:svg="http://www.w3.org/2000/svg"
   xmlns="http://www.w3.org/2000/svg"
   xmlns:sodipodi="http://sodipodi.sourceforge.net/DTD/sodipodi-0.dtd"
   xmlns:inkscape="http://www.inkscape.org/namespaces/inkscape"
   width="7.0041914mm"
   height="11.419176mm"
   viewBox="0 0 7.0041914 11.419176"
   version="1.1"
   id="svg8184"
   inkscape:version="0.92.3 (2405546, 2018-03-11)"
   sodipodi:docname="19.svg">
  <defs
     id="defs8178" />
  <sodipodi:namedview
     id="base"
     pagecolor="#ffffff"
     bordercolor="#666666"
     borderopacity="1.0"
     inkscape:pageopacity="0.0"
     inkscape:pageshadow="2"
     inkscape:zoom="0.35"
     inkscape:cx="41.807695"
     inkscape:cy="-12.706155"
     inkscape:document-units="mm"
     inkscape:current-layer="layer1"
     showgrid="false"
     inkscape:window-width="1366"
     inkscape:window-height="719"
     inkscape:window-x="0"
     inkscape:window-y="25"
     inkscape:window-maximized="1" />
  <metadata
     id="metadata8181">
    <rdf:RDF>
      <cc:Work
         rdf:about="">
        <dc:format>image/svg+xml</dc:format>
        <dc:type
           rdf:resource="http://purl.org/dc/dcmitype/StillImage" />
        <dc:title></dc:title>
      </cc:Work>
    </rdf:RDF>
  </metadata>
  <g
     inkscape:label="Livello 1"
     inkscape:groupmode="layer"
     id="layer1"
     transform="translate(-94.771714,-134.05232)">
    <g
       transform="matrix(0.35277777,0,0,-0.35277777,-16.720366,176.44694)"
       id="g8163">
      <path
         d="m 321.852,94.607 -0.52,-1 c -0.096,-0.184 -0.283,-0.3039 -0.49,-0.3129 l -1.126,-0.05 c -0.208,-0.0089 -0.405,0.093 -0.516,0.2688 l -0.607,0.95 c -0.111,0.175 -0.121,0.3973 -0.025,0.5812 l 0.52,1 c 0.095,0.184 0.282,0.3039 0.49,0.3129 l 1.126,0.05 c 0.207,0.009 0.404,-0.0929 0.516,-0.2691 l 0.606,-0.95 c 0.112,-0.175 0.122,-0.3969 0.026,-0.5809 z m -0.375,2.4969 -0.085,1.968 v 0 l -0.515,11.6871 c 1.156,0.412 1.934,1.314 1.874,2.68 -0.051,1.144 -0.677,2.345 -1.585,3.078 l 0.107,-2.419 c 0.01,-0.227 -0.102,-0.442 -0.294,-0.565 l -1.239,-0.79 c -0.192,-0.122 -0.434,-0.133 -0.636,-0.028 l -1.304,0.678 c -0.202,0.104 -0.332,0.309 -0.342,0.537 l -0.108,2.418 c -0.839,-0.81 -1.357,-2.062 -1.306,-3.205 0.06,-1.367 0.915,-2.196 2.103,-2.505 l 0.54,-12.2489 0.002,-0.0012 0.058,-1.4047 c -0.724,-0.491 -1.183,-1.3352 -1.141,-2.273 0.063,-1.4383 1.281,-2.552 2.719,-2.4891 1.438,0.0641 2.549,1.4687 2.485,2.9078 -0.041,0.9371 -0.569,1.55 -1.333,1.975"
         style="fill:#252e3a;fill-opacity:1;fill-rule:nonzero;stroke:none;stroke-width:0.1"
         id="path1256"
         inkscape:connector-curvature="0" />
      <path
         d="m 325.741,116.784 0.204,-0.139 3.128,-0.647 c 0.097,-0.02 0.198,-0.005 0.285,0.041 l 1.033,0.541 c 0.088,0.046 0.188,0.06 0.285,0.04 l 0.781,-0.162 0.142,0.094 c 0.013,0.224 0.043,0.484 0.103,0.769 0.056,0.261 0.126,0.491 0.199,0.688 l -0.018,0.091 -0.076,0.052 -0.78,0.161 c -0.097,0.021 -0.184,0.074 -0.246,0.151 l -0.734,0.906 c -0.062,0.077 -0.149,0.13 -0.246,0.15 l -3.128,0.647 c -0.174,0.036 -0.345,-0.076 -0.381,-0.251 -0.157,-0.355 -0.321,-0.807 -0.438,-1.344 -0.13,-0.598 -0.163,-1.127 -0.159,-1.546 -0.005,-0.021 -0.026,-0.133 0.046,-0.242"
         style="fill:#252e3a;fill-opacity:1;fill-rule:nonzero;stroke:none;stroke-width:0.1"
         id="path1258"
         inkscape:connector-curvature="0" />
      <path
         d="m 332.463,117.987 -0.319,0.066 -0.091,-0.018 -0.052,-0.076 c -0.069,-0.188 -0.135,-0.407 -0.188,-0.654 -0.06,-0.276 -0.089,-0.528 -0.102,-0.746 l 0.094,-0.143 0.319,-0.066 c 1.424,-0.294 2.339,-1.687 2.045,-3.11 L 329.05,88.4941 c -0.044,-0.2152 0.076,-0.4281 0.282,-0.5031 0.133,-0.0488 0.285,-0.0949 0.453,-0.1289 0.16,-0.032 0.309,-0.0492 0.445,-0.057 0.218,-0.0121 0.412,0.1359 0.457,0.35 l 5.118,24.7459 c 0.481,2.327 -1.015,4.604 -3.342,5.086"
         style="fill:#252e3a;fill-opacity:1;fill-rule:nonzero;stroke:none;stroke-width:0.1"
         id="path1260"
         inkscape:connector-curvature="0" />
      <path
         d="m 326.398,94.748 -0.028,0.2098 -1.06,8.0232 c 0.954,0.614 1.374,1.834 0.943,2.93 -0.284,0.722 -0.875,1.231 -1.564,1.437 -0.097,0.03 -0.185,-0.066 -0.148,-0.161 l 0.553,-1.404 c 0.11,-0.281 0.062,-0.599 -0.126,-0.836 l -0.315,-0.396 c -0.196,-0.247 -0.51,-0.37 -0.822,-0.323 l -0.5,0.075 c -0.299,0.045 -0.551,0.245 -0.662,0.526 l -0.552,1.404 c -0.037,0.095 -0.167,0.105 -0.218,0.018 -0.364,-0.622 -0.449,-1.399 -0.164,-2.121 0.298,-0.754 0.926,-1.274 1.65,-1.461 l 1.066,-7.9729 0.036,-0.2582 c -0.954,-0.6141 -1.374,-1.834 -0.943,-2.9297 0.284,-0.7211 0.874,-1.2301 1.564,-1.4371 0.097,-0.0289 0.185,0.0668 0.147,0.1609 l -0.552,1.4039 c -0.111,0.2813 -0.063,0.6 0.125,0.836 l 0.315,0.3961 c 0.197,0.2468 0.51,0.3699 0.822,0.323 l 0.501,-0.0738 c 0.299,-0.0453 0.551,-0.2461 0.661,-0.5274 l 0.553,-1.4039 c 0.037,-0.0937 0.166,-0.105 0.218,-0.0168 0.364,0.6207 0.449,1.3981 0.163,2.1207 -0.297,0.7543 -0.938,1.2711 -1.663,1.4582"
         style="fill:#252e3a;fill-opacity:1;fill-rule:nonzero;stroke:none;stroke-width:0.1"
         id="path1262"
         inkscape:connector-curvature="0" />
    </g>
  </g>
</svg>
