<?xml version="1.0" encoding="UTF-8" standalone="no"?>
<!-- Created with Inkscape (http://www.inkscape.org/) -->

<svg
   xmlns:dc="http://purl.org/dc/elements/1.1/"
   xmlns:cc="http://creativecommons.org/ns#"
   xmlns:rdf="http://www.w3.org/1999/02/22-rdf-syntax-ns#"
   xmlns:svg="http://www.w3.org/2000/svg"
   xmlns="http://www.w3.org/2000/svg"
   xmlns:sodipodi="http://sodipodi.sourceforge.net/DTD/sodipodi-0.dtd"
   xmlns:inkscape="http://www.inkscape.org/namespaces/inkscape"
   width="9.8612852mm"
   height="9.861021mm"
   viewBox="0 0 9.8612852 9.861021"
   version="1.1"
   id="svg8256"
   inkscape:version="0.92.3 (2405546, 2018-03-11)"
   sodipodi:docname="20.svg">
  <defs
     id="defs8250" />
  <sodipodi:namedview
     id="base"
     pagecolor="#ffffff"
     bordercolor="#666666"
     borderopacity="1.0"
     inkscape:pageopacity="0.0"
     inkscape:pageshadow="2"
     inkscape:zoom="0.35"
     inkscape:cx="75.778356"
     inkscape:cy="-15.650715"
     inkscape:document-units="mm"
     inkscape:current-layer="layer1"
     showgrid="false"
     inkscape:window-width="1366"
     inkscape:window-height="719"
     inkscape:window-x="0"
     inkscape:window-y="25"
     inkscape:window-maximized="1" />
  <metadata
     id="metadata8253">
    <rdf:RDF>
      <cc:Work
         rdf:about="">
        <dc:format>image/svg+xml</dc:format>
        <dc:type
           rdf:resource="http://purl.org/dc/dcmitype/StillImage" />
        <dc:title></dc:title>
      </cc:Work>
    </rdf:RDF>
  </metadata>
  <g
     inkscape:label="Livello 1"
     inkscape:groupmode="layer"
     id="layer1"
     transform="translate(-85.783643,-134.83139)">
    <g
       transform="matrix(0.35277777,0,0,-0.35277777,-24.279846,189.4391)"
       id="g8229">
      <path
         d="m 334.312,144.367 -5.66,4.239 c -0.308,0.231 -0.739,0.2 -1.011,-0.072 -0.333,-0.333 -0.294,-0.884 0.083,-1.166 l 5.66,-4.239 c 0.308,-0.231 0.739,-0.2 1.011,0.072 0.333,0.333 0.294,0.884 -0.083,1.166"
         style="fill:#252e3a;fill-opacity:1;fill-rule:nonzero;stroke:none;stroke-width:0.1"
         id="path1108"
         inkscape:connector-curvature="0" />
      <path
         d="m 331.932,141.987 -5.66,4.239 c -0.308,0.231 -0.739,0.2 -1.011,-0.072 -0.333,-0.333 -0.294,-0.884 0.083,-1.166 l 5.66,-4.24 c 0.308,-0.23 0.739,-0.199 1.011,0.073 0.333,0.333 0.294,0.884 -0.083,1.166"
         style="fill:#252e3a;fill-opacity:1;fill-rule:nonzero;stroke:none;stroke-width:0.1"
         id="path1110"
         inkscape:connector-curvature="0" />
      <path
         d="m 329.551,139.607 -5.66,4.239 c -0.308,0.231 -0.738,0.2 -1.01,-0.072 -0.334,-0.333 -0.294,-0.884 0.083,-1.166 l 5.66,-4.24 c 0.308,-0.23 0.739,-0.2 1.011,0.072 0.333,0.333 0.293,0.884 -0.084,1.167"
         style="fill:#252e3a;fill-opacity:1;fill-rule:nonzero;stroke:none;stroke-width:0.1"
         id="path1112"
         inkscape:connector-curvature="0" />
      <path
         d="m 327.171,137.227 -5.66,4.239 c -0.308,0.23 -0.738,0.2 -1.011,-0.072 -0.333,-0.333 -0.293,-0.884 0.084,-1.167 l 5.66,-4.239 c 0.308,-0.231 0.738,-0.2 1.011,0.072 0.333,0.333 0.293,0.884 -0.084,1.167"
         style="fill:#252e3a;fill-opacity:1;fill-rule:nonzero;stroke:none;stroke-width:0.1"
         id="path1114"
         inkscape:connector-curvature="0" />
      <path
         d="m 324.105,141.357 -0.823,-0.822 2.748,-2.058 0.823,0.822 -2.748,2.058"
         style="fill:#252e3a;fill-opacity:1;fill-rule:nonzero;stroke:none;stroke-width:0.1"
         id="path1116"
         inkscape:connector-curvature="0" />
      <path
         d="m 326.485,143.738 -0.822,-0.823 2.747,-2.058 0.823,0.823 -2.748,2.058"
         style="fill:#252e3a;fill-opacity:1;fill-rule:nonzero;stroke:none;stroke-width:0.1"
         id="path1118"
         inkscape:connector-curvature="0" />
      <path
         d="m 328.866,146.118 -0.823,-0.823 2.747,-2.058 0.823,0.823 -2.747,2.058"
         style="fill:#252e3a;fill-opacity:1;fill-rule:nonzero;stroke:none;stroke-width:0.1"
         id="path1120"
         inkscape:connector-curvature="0" />
      <path
         d="m 324.473,136.919 -2.748,2.058 -0.608,-0.608 -1.657,1.656 -2.119,-2.119 5.716,-5.715 2.119,2.119 -1.657,1.656 0.954,0.953"
         style="fill:#252e3a;fill-opacity:1;fill-rule:nonzero;stroke:none;stroke-width:0.1"
         id="path1122"
         inkscape:connector-curvature="0" />
      <path
         d="m 315.914,128.799 c -0.542,-0.543 -1.422,-0.543 -1.965,0 -0.542,0.542 -0.542,1.422 0,1.965 0.543,0.542 1.423,0.542 1.965,0 0.543,-0.543 0.543,-1.423 0,-1.965 z m 0.248,6.824 -1.129,-2.903 c -0.786,0.027 -1.581,-0.259 -2.181,-0.859 -1.148,-1.149 -1.148,-3.011 0,-4.159 1.149,-1.148 3.011,-1.148 4.159,0 0.6,0.6 0.886,1.394 0.859,2.181 l 2.904,1.129 1.433,1.433 -4.611,4.611 -1.434,-1.433"
         style="fill:#252e3a;fill-opacity:1;fill-rule:nonzero;stroke:none;stroke-width:0.1"
         id="path1124"
         inkscape:connector-curvature="0" />
      <path
         d="m 337.86,150.964 c -0.482,-0.483 -1.264,-0.483 -1.746,0 -0.482,0.482 -0.482,1.263 0,1.745 0.482,0.483 1.264,0.483 1.746,0 0.482,-0.482 0.482,-1.263 0,-1.745 z m 1.218,2.964 c -1.155,1.154 -3.027,1.154 -4.182,0 -0.814,-0.815 -1.054,-1.985 -0.721,-3.01 -0.42,-0.09 -0.809,-0.3 -1.117,-0.608 l -0.154,-0.154 -0.511,0.51 c -0.209,0.21 -0.549,0.21 -0.759,0 l -0.761,-0.761 c -0.209,-0.21 -0.209,-0.55 0,-0.759 l 0.51,-0.51 -0.96,-0.961 2.748,-2.058 0.615,0.616 0.51,-0.51 c 0.21,-0.21 0.55,-0.21 0.759,0 l 0.762,0.761 c 0.209,0.21 0.209,0.549 0,0.759 l -0.51,0.51 0.154,0.154 c 0.308,0.309 0.517,0.698 0.608,1.118 1.024,-0.334 2.195,-0.094 3.009,0.72 1.155,1.155 1.155,3.028 0,4.183"
         style="fill:#252e3a;fill-opacity:1;fill-rule:nonzero;stroke:none;stroke-width:0.1"
         id="path1126"
         inkscape:connector-curvature="0" />
    </g>
  </g>
</svg>
