<?xml version="1.0" encoding="UTF-8" standalone="no"?>
<!-- Created with Inkscape (http://www.inkscape.org/) -->

<svg
   xmlns:dc="http://purl.org/dc/elements/1.1/"
   xmlns:cc="http://creativecommons.org/ns#"
   xmlns:rdf="http://www.w3.org/1999/02/22-rdf-syntax-ns#"
   xmlns:svg="http://www.w3.org/2000/svg"
   xmlns="http://www.w3.org/2000/svg"
   xmlns:sodipodi="http://sodipodi.sourceforge.net/DTD/sodipodi-0.dtd"
   xmlns:inkscape="http://www.inkscape.org/namespaces/inkscape"
   width="8.7830639mm"
   height="7.5784602mm"
   viewBox="0 0 8.7830639 7.5784602"
   version="1.1"
   id="svg8402"
   inkscape:version="0.92.3 (2405546, 2018-03-11)"
   sodipodi:docname="21.svg">
  <defs
     id="defs8396" />
  <sodipodi:namedview
     id="base"
     pagecolor="#ffffff"
     bordercolor="#666666"
     borderopacity="1.0"
     inkscape:pageopacity="0.0"
     inkscape:pageshadow="2"
     inkscape:zoom="0.35"
     inkscape:cx="42.3122"
     inkscape:cy="-57.107084"
     inkscape:document-units="mm"
     inkscape:current-layer="layer1"
     showgrid="false"
     inkscape:window-width="1366"
     inkscape:window-height="719"
     inkscape:window-x="0"
     inkscape:window-y="25"
     inkscape:window-maximized="1" />
  <metadata
     id="metadata8399">
    <rdf:RDF>
      <cc:Work
         rdf:about="">
        <dc:format>image/svg+xml</dc:format>
        <dc:type
           rdf:resource="http://purl.org/dc/dcmitype/StillImage" />
        <dc:title></dc:title>
      </cc:Work>
    </rdf:RDF>
  </metadata>
  <g
     inkscape:label="Livello 1"
     inkscape:groupmode="layer"
     id="layer1"
     transform="translate(-94.63823,-126.14529)">
    <g
       transform="matrix(0.35277777,0,0,-0.35277777,10.019852,179.61176)"
       id="g8344">
      <path
         d="m 240.097,132.415 c -0.312,-0.313 -0.312,-0.82 0.001,-1.133 l 0.971,-0.971 c 0.313,-0.313 0.82,-0.313 1.133,0 l 5.124,5.124 -2.105,2.104 -5.124,-5.124"
         style="fill:#252e3a;fill-opacity:1;fill-rule:nonzero;stroke:none;stroke-width:0.1"
         id="path1128"
         inkscape:connector-curvature="0" />
      <path
         d="m 249.13,139.343 c -2.412,2.411 -2.412,6.321 0,8.733 2.411,2.411 6.321,2.411 8.733,0 2.411,-2.412 2.411,-6.322 0,-8.733 -2.412,-2.412 -6.322,-2.412 -8.733,0 z m 9.917,9.916 c -3.066,3.066 -8.036,3.066 -11.101,0 -2.707,-2.707 -3.023,-6.898 -0.949,-9.952 l -1.385,-1.574 1.892,-1.892 1.59,1.369 c 3.054,-2.074 7.246,-1.758 9.953,0.949 3.065,3.065 3.065,8.035 0,11.1"
         style="fill:#252e3a;fill-opacity:1;fill-rule:nonzero;stroke:none;stroke-width:0.1"
         id="path1130"
         inkscape:connector-curvature="0" />
      <path
         d="m 262.892,144.867 c -0.205,-0.143 -0.31,-0.343 -0.31,-0.594 v -1.153 l 0.099,0.077 c 0.476,0.332 1.268,0.387 2.079,0.158 v 1.588 c -0.741,0.234 -1.461,0.208 -1.868,-0.076"
         style="fill:#252e3a;fill-opacity:1;fill-rule:nonzero;stroke:none;stroke-width:0.1"
         id="path1132"
         inkscape:connector-curvature="0" />
      <path
         d="m 262.892,138.948 c -0.205,-0.143 -0.31,-0.343 -0.31,-0.595 v -1.152 l 0.099,0.077 c 0.476,0.332 1.268,0.387 2.079,0.158 v 1.588 c -0.741,0.234 -1.461,0.208 -1.868,-0.076"
         style="fill:#252e3a;fill-opacity:1;fill-rule:nonzero;stroke:none;stroke-width:0.1"
         id="path1134"
         inkscape:connector-curvature="0" />
      <path
         d="m 263.059,137.07 -0.167,-0.095 c -0.205,-0.144 -0.31,-0.344 -0.31,-0.595 v -1.152 l 0.099,0.077 c 0.476,0.332 1.268,0.387 2.079,0.158 v 1.588 0 c -0.139,0.044 -0.277,0.079 -0.413,0.104 -0.497,0.094 -0.958,0.065 -1.288,-0.085"
         style="fill:#252e3a;fill-opacity:1;fill-rule:nonzero;stroke:none;stroke-width:0.1"
         id="path1136"
         inkscape:connector-curvature="0" />
      <path
         d="m 262.892,134.994 c -0.205,-0.144 -0.31,-0.344 -0.31,-0.595 v -0.793 h 0.936 c 0.686,0 1.242,0.436 1.242,0.974 v 0.49 c -0.741,0.234 -1.461,0.208 -1.868,-0.076"
         style="fill:#252e3a;fill-opacity:1;fill-rule:nonzero;stroke:none;stroke-width:0.1"
         id="path1138"
         inkscape:connector-curvature="0" />
      <path
         d="m 263.518,148.606 h -0.936 v -1.54 l 0.099,0.077 c 0.476,0.332 1.268,0.387 2.079,0.158 v 0.332 c 0,0.537 -0.556,0.973 -1.242,0.973"
         style="fill:#252e3a;fill-opacity:1;fill-rule:nonzero;stroke:none;stroke-width:0.1"
         id="path1140"
         inkscape:connector-curvature="0" />
      <path
         d="m 262.892,140.921 c -0.205,-0.143 -0.31,-0.343 -0.31,-0.594 v -1.153 l 0.099,0.077 c 0.476,0.332 1.268,0.387 2.079,0.158 v 1.588 c -0.741,0.234 -1.461,0.208 -1.868,-0.076"
         style="fill:#252e3a;fill-opacity:1;fill-rule:nonzero;stroke:none;stroke-width:0.1"
         id="path1142"
         inkscape:connector-curvature="0" />
      <path
         d="m 262.892,142.894 c -0.205,-0.143 -0.31,-0.343 -0.31,-0.594 v -1.153 l 0.099,0.077 c 0.476,0.332 1.268,0.387 2.079,0.158 v 1.588 c -0.741,0.234 -1.461,0.208 -1.868,-0.076"
         style="fill:#252e3a;fill-opacity:1;fill-rule:nonzero;stroke:none;stroke-width:0.1"
         id="path1144"
         inkscape:connector-curvature="0" />
      <path
         d="m 262.892,146.84 c -0.205,-0.143 -0.31,-0.343 -0.31,-0.594 v -1.153 l 0.099,0.077 c 0.476,0.332 1.268,0.387 2.079,0.158 v 1.588 c -0.741,0.234 -1.461,0.208 -1.868,-0.076"
         style="fill:#252e3a;fill-opacity:1;fill-rule:nonzero;stroke:none;stroke-width:0.1"
         id="path1146"
         inkscape:connector-curvature="0" />
      <path
         d="m 260.499,136.975 -0.167,0.095 c -0.33,0.15 -0.791,0.179 -1.288,0.085 -0.136,-0.025 -0.274,-0.06 -0.413,-0.104 v 0 -1.588 c 0.811,0.229 1.603,0.174 2.079,-0.158 l 0.099,-0.077 v 1.152 c 0,0.251 -0.105,0.451 -0.31,0.595"
         style="fill:#252e3a;fill-opacity:1;fill-rule:nonzero;stroke:none;stroke-width:0.1"
         id="path1148"
         inkscape:connector-curvature="0" />
      <path
         d="m 260.499,134.994 c -0.407,0.284 -1.127,0.31 -1.868,0.076 v -0.49 c 0,-0.538 0.556,-0.974 1.242,-0.974 h 0.936 v 0.793 c 0,0.251 -0.105,0.451 -0.31,0.595"
         style="fill:#252e3a;fill-opacity:1;fill-rule:nonzero;stroke:none;stroke-width:0.1"
         id="path1150"
         inkscape:connector-curvature="0" />
      <path
         d="m 253.993,138.969 c -0.043,0.644 -0.078,1.288 -0.105,1.933 -0.001,0.412 -0.234,0.783 -0.558,1.021 -0.877,0.644 -2.173,0.505 -3.178,0.365 0.069,-0.747 0.18,-1.479 0.334,-2.214 1.136,-0.081 2.424,-0.215 3.342,-0.958 l 0.165,-0.147"
         style="fill:#252e3a;fill-opacity:1;fill-rule:nonzero;stroke:none;stroke-width:0.1"
         id="path1152"
         inkscape:connector-curvature="0" />
      <path
         d="m 253.703,145.708 0.162,-0.12 c 0.021,0.645 0.05,1.289 0.086,1.933 0.029,0.36 -0.102,0.74 -0.415,0.929 -0.884,0.532 -2.103,-0.204 -2.875,-0.66 -0.187,-0.733 -0.331,-1.465 -0.434,-2.214 1.057,0.387 2.441,0.804 3.476,0.132"
         style="fill:#252e3a;fill-opacity:1;fill-rule:nonzero;stroke:none;stroke-width:0.1"
         id="path1154"
         inkscape:connector-curvature="0" />
      <path
         d="m 253.677,142.412 0.171,-0.133 c -0.011,0.644 -0.014,1.288 -0.01,1.933 0.01,0.393 -0.18,0.761 -0.509,0.974 -0.905,0.587 -2.238,0.174 -3.161,-0.147 -0.06,-0.74 -0.077,-1.472 -0.05,-2.214 1.159,0.178 2.545,0.297 3.559,-0.413"
         style="fill:#252e3a;fill-opacity:1;fill-rule:nonzero;stroke:none;stroke-width:0.1"
         id="path1156"
         inkscape:connector-curvature="0" />
      <path
         d="m 257.669,140.902 c -0.022,-0.513 -0.049,-1.026 -0.08,-1.539 l 0.116,0.114 c 0.816,0.815 1.347,1.809 1.594,2.857 -0.382,-0.067 -0.748,-0.194 -1.072,-0.411 -0.339,-0.227 -0.537,-0.618 -0.558,-1.021"
         style="fill:#252e3a;fill-opacity:1;fill-rule:nonzero;stroke:none;stroke-width:0.1"
         id="path1158"
         inkscape:connector-curvature="0" />
      <path
         d="m 255.557,140.737 c -10e-4,0.262 -10e-4,0.393 -0.002,0.655 -0.12,0.646 -0.777,1.028 -1.385,1.09 0.005,-0.353 0.012,-0.706 0.021,-1.059 0.512,-0.095 1.024,-0.268 1.366,-0.686"
         style="fill:#252e3a;fill-opacity:1;fill-rule:nonzero;stroke:none;stroke-width:0.1"
         id="path1160"
         inkscape:connector-curvature="0" />
      <path
         d="m 255.566,139.302 c -0.002,0.262 -0.003,0.393 -0.005,0.655 -0.115,0.642 -0.756,1.031 -1.36,1.111 0.011,-0.353 0.024,-0.706 0.04,-1.059 0.492,-0.08 1.008,-0.306 1.325,-0.707"
         style="fill:#252e3a;fill-opacity:1;fill-rule:nonzero;stroke:none;stroke-width:0.1"
         id="path1162"
         inkscape:connector-curvature="0" />
      <path
         d="m 255.552,142.172 c 0,0.262 -0.001,0.393 -0.001,0.655 -0.119,0.644 -0.779,1.023 -1.387,1.069 -0.002,-0.353 -10e-4,-0.707 0.002,-1.06 0.518,-0.082 1.036,-0.246 1.386,-0.664"
         style="fill:#252e3a;fill-opacity:1;fill-rule:nonzero;stroke:none;stroke-width:0.1"
         id="path1164"
         inkscape:connector-curvature="0" />
      <path
         d="m 255.552,145.041 c 0.001,0.263 0.001,0.394 0.002,0.656 -0.11,0.624 -0.729,1.013 -1.33,1.026 -0.014,-0.353 -0.025,-0.706 -0.034,-1.059 0.512,-0.058 1.018,-0.21 1.362,-0.623"
         style="fill:#252e3a;fill-opacity:1;fill-rule:nonzero;stroke:none;stroke-width:0.1"
         id="path1166"
         inkscape:connector-curvature="0" />
      <path
         d="m 255.55,143.607 c 0,0.262 10e-4,0.393 10e-4,0.655 -0.117,0.637 -0.763,1.018 -1.369,1.047 -0.008,-0.353 -0.013,-0.706 -0.016,-1.059 0.518,-0.07 1.034,-0.227 1.384,-0.643"
         style="fill:#252e3a;fill-opacity:1;fill-rule:nonzero;stroke:none;stroke-width:0.1"
         id="path1168"
         inkscape:connector-curvature="0" />
      <path
         d="m 255.557,146.477 c 0.002,0.262 0.002,0.393 0.004,0.655 -0.101,0.604 -0.677,1.008 -1.271,1.005 -0.019,-0.353 -0.037,-0.706 -0.052,-1.06 0.49,-0.012 1.004,-0.211 1.319,-0.6"
         style="fill:#252e3a;fill-opacity:1;fill-rule:nonzero;stroke:none;stroke-width:0.1"
         id="path1170"
         inkscape:connector-curvature="0" />
      <path
         d="m 255.566,147.911 c 0.002,0.263 0.003,0.394 0.005,0.656 -0.089,0.574 -0.608,1.005 -1.19,0.984 -0.026,-0.353 -0.049,-0.707 -0.07,-1.06 0.472,0.002 0.96,-0.199 1.255,-0.58"
         style="fill:#252e3a;fill-opacity:1;fill-rule:nonzero;stroke:none;stroke-width:0.1"
         id="path1172"
         inkscape:connector-curvature="0" />
      <path
         d="m 255.933,147.133 c 0.001,-0.263 0.002,-0.394 0.002,-0.656 0.328,0.367 0.821,0.615 1.321,0.605 -0.014,0.353 -0.031,0.707 -0.05,1.06 -0.594,0.001 -1.17,-0.406 -1.273,-1.009"
         style="fill:#252e3a;fill-opacity:1;fill-rule:nonzero;stroke:none;stroke-width:0.1"
         id="path1174"
         inkscape:connector-curvature="0" />
      <path
         d="m 255.938,145.697 c 0,-0.262 0.001,-0.393 0.001,-0.655 0.374,0.408 0.83,0.563 1.363,0.624 -0.008,0.354 -0.019,0.707 -0.032,1.061 -0.602,-0.015 -1.221,-0.405 -1.332,-1.03"
         style="fill:#252e3a;fill-opacity:1;fill-rule:nonzero;stroke:none;stroke-width:0.1"
         id="path1176"
         inkscape:connector-curvature="0" />
      <path
         d="m 255.94,144.262 c 0.001,-0.262 0.001,-0.393 0.001,-0.655 0.379,0.411 0.846,0.571 1.384,0.644 -0.003,0.353 -0.007,0.707 -0.015,1.061 -0.607,-0.031 -1.253,-0.413 -1.37,-1.05"
         style="fill:#252e3a;fill-opacity:1;fill-rule:nonzero;stroke:none;stroke-width:0.1"
         id="path1178"
         inkscape:connector-curvature="0" />
      <path
         d="m 255.94,142.827 c 0,-0.262 0,-0.393 -0.001,-0.656 0.379,0.413 0.848,0.579 1.386,0.664 0.003,0.354 0.004,0.708 0.002,1.061 -0.608,-0.046 -1.268,-0.425 -1.387,-1.069"
         style="fill:#252e3a;fill-opacity:1;fill-rule:nonzero;stroke:none;stroke-width:0.1"
         id="path1180"
         inkscape:connector-curvature="0" />
      <path
         d="m 255.938,141.392 c -10e-4,-0.263 -10e-4,-0.394 -0.002,-0.656 0.37,0.413 0.835,0.587 1.365,0.684 0.009,0.353 0.016,0.707 0.02,1.061 -0.607,-0.062 -1.265,-0.444 -1.383,-1.089"
         style="fill:#252e3a;fill-opacity:1;fill-rule:nonzero;stroke:none;stroke-width:0.1"
         id="path1182"
         inkscape:connector-curvature="0" />
      <path
         d="m 255.933,139.956 c -0.001,-0.262 -0.002,-0.393 -0.003,-0.655 0.329,0.382 0.82,0.644 1.324,0.703 0.014,0.354 0.027,0.708 0.037,1.061 -0.602,-0.078 -1.244,-0.467 -1.358,-1.109"
         style="fill:#252e3a;fill-opacity:1;fill-rule:nonzero;stroke:none;stroke-width:0.1"
         id="path1184"
         inkscape:connector-curvature="0" />
      <path
         d="m 259.2,145.477 c -0.344,-0.021 -0.675,-0.107 -0.972,-0.291 -0.335,-0.207 -0.519,-0.581 -0.509,-0.974 0.004,-0.645 0.001,-1.289 -0.01,-1.933 l 0.171,0.133 c 0.445,0.318 0.976,0.468 1.529,0.523 0.111,0.849 0.041,1.717 -0.209,2.542"
         style="fill:#252e3a;fill-opacity:1;fill-rule:nonzero;stroke:none;stroke-width:0.1"
         id="path1186"
         inkscape:connector-curvature="0" />
      <path
         d="m 257.692,145.588 0.162,0.12 c 0.341,0.227 0.73,0.329 1.136,0.349 -0.292,0.695 -0.72,1.344 -1.285,1.909 l -0.037,0.037 c -0.055,-0.152 -0.075,-0.319 -0.062,-0.482 0.036,-0.644 0.064,-1.288 0.086,-1.933"
         style="fill:#252e3a;fill-opacity:1;fill-rule:nonzero;stroke:none;stroke-width:0.1"
         id="path1188"
         inkscape:connector-curvature="0" />
      <path
         d="m 257.096,148.498 c -0.3,0.229 -0.617,0.426 -0.946,0.59 -0.114,-0.149 -0.194,-0.327 -0.224,-0.52 0.001,-0.263 0.002,-0.394 0.003,-0.656 0.287,0.336 0.717,0.578 1.167,0.586"
         style="fill:#252e3a;fill-opacity:1;fill-rule:nonzero;stroke:none;stroke-width:0.1"
         id="path1190"
         inkscape:connector-curvature="0" />
      <path
         d="m 251.115,149.247 c -0.109,-0.305 -0.21,-0.611 -0.303,-0.921 0.804,0.5 2.148,1.317 3.095,0.678 l 0.139,-0.107 c 0.022,0.263 0.045,0.526 0.069,0.788 -0.218,0.024 -0.436,0.036 -0.654,0.036 -0.8,0 -1.599,-0.158 -2.346,-0.474"
         style="fill:#252e3a;fill-opacity:1;fill-rule:nonzero;stroke:none;stroke-width:0.1"
         id="path1192"
         inkscape:connector-curvature="0" />
      <path
         d="m 253.539,138.66 c -0.772,0.667 -1.952,0.795 -2.926,0.877 0.1,-0.391 0.215,-0.776 0.338,-1.16 0.406,-0.194 0.816,-0.367 1.231,-0.519 0.421,-0.091 0.85,-0.137 1.278,-0.137 0.208,0 0.415,0.011 0.622,0.032 -0.065,0.355 -0.273,0.673 -0.543,0.907"
         style="fill:#252e3a;fill-opacity:1;fill-rule:nonzero;stroke:none;stroke-width:0.1"
         id="path1194"
         inkscape:connector-curvature="0" />
      <path
         d="m 254.367,137.79 c 0.227,0.034 0.452,0.081 0.674,0.141 -0.209,0.153 -0.455,0.259 -0.704,0.31 0.009,-0.15 0.02,-0.301 0.03,-0.451"
         style="fill:#252e3a;fill-opacity:1;fill-rule:nonzero;stroke:none;stroke-width:0.1"
         id="path1196"
         inkscape:connector-curvature="0" />
      <path
         d="m 255.925,138.521 c 0,-0.107 -0.001,-0.192 -0.001,-0.274 0.452,0.203 0.883,0.464 1.283,0.784 0.011,0.207 0.022,0.413 0.031,0.619 -0.594,-0.097 -1.205,-0.497 -1.313,-1.129"
         style="fill:#252e3a;fill-opacity:1;fill-rule:nonzero;stroke:none;stroke-width:0.1"
         id="path1198"
         inkscape:connector-curvature="0" />
      <path
         d="m 254.257,139.655 c 0.017,-0.354 0.036,-0.707 0.057,-1.06 0.398,-0.079 0.808,-0.258 1.105,-0.548 l 0.157,0.057 c -0.002,0.132 -0.003,0.247 -0.004,0.418 -0.109,0.632 -0.72,1.034 -1.315,1.133"
         style="fill:#252e3a;fill-opacity:1;fill-rule:nonzero;stroke:none;stroke-width:0.1"
         id="path1200"
         inkscape:connector-curvature="0" />
      <path
         d="m 261.131,146.485 c 0.319,-0.878 0.485,-1.814 0.485,-2.776 0,-0.962 -0.166,-1.898 -0.485,-2.776 v -2.245 -5.082 h 1.154 v 15 h -1.154 v -2.121"
         style="fill:#252e3a;fill-opacity:1;fill-rule:nonzero;stroke:none;stroke-width:0.1"
         id="path1202"
         inkscape:connector-curvature="0" />
      <path
         d="m 260.809,148.606 h -0.834 c 0.324,-0.427 0.603,-0.882 0.834,-1.358 v 1.358"
         style="fill:#252e3a;fill-opacity:1;fill-rule:nonzero;stroke:none;stroke-width:0.1"
         id="path1204"
         inkscape:connector-curvature="0" />
      <path
         d="m 260.809,140.17 c -0.126,-0.258 -0.265,-0.51 -0.418,-0.755 0.117,-0.044 0.225,-0.098 0.319,-0.164 l 0.099,-0.077 v 0.996"
         style="fill:#252e3a;fill-opacity:1;fill-rule:nonzero;stroke:none;stroke-width:0.1"
         id="path1206"
         inkscape:connector-curvature="0" />
      <path
         d="m 260.499,138.948 c -0.091,0.063 -0.198,0.113 -0.316,0.151 -0.278,-0.401 -0.593,-0.78 -0.945,-1.132 -0.185,-0.185 -0.378,-0.359 -0.577,-0.523 0.801,0.219 1.58,0.162 2.049,-0.166 l 0.099,-0.077 v 1.152 c 0,0.252 -0.105,0.452 -0.31,0.595"
         style="fill:#252e3a;fill-opacity:1;fill-rule:nonzero;stroke:none;stroke-width:0.1"
         id="path1208"
         inkscape:connector-curvature="0" />
    </g>
  </g>
</svg>
