<?xml version="1.0" encoding="UTF-8" standalone="no"?>
<!-- Created with Inkscape (http://www.inkscape.org/) -->

<svg
   xmlns:dc="http://purl.org/dc/elements/1.1/"
   xmlns:cc="http://creativecommons.org/ns#"
   xmlns:rdf="http://www.w3.org/1999/02/22-rdf-syntax-ns#"
   xmlns:svg="http://www.w3.org/2000/svg"
   xmlns="http://www.w3.org/2000/svg"
   xmlns:sodipodi="http://sodipodi.sourceforge.net/DTD/sodipodi-0.dtd"
   xmlns:inkscape="http://www.inkscape.org/namespaces/inkscape"
   width="9.5040436mm"
   height="9.1745491mm"
   viewBox="0 0 9.5040436 9.1745491"
   version="1.1"
   id="svg8658"
   inkscape:version="0.92.3 (2405546, 2018-03-11)"
   sodipodi:docname="23.svg">
  <defs
     id="defs8652" />
  <sodipodi:namedview
     id="base"
     pagecolor="#ffffff"
     bordercolor="#666666"
     borderopacity="1.0"
     inkscape:pageopacity="0.0"
     inkscape:pageshadow="2"
     inkscape:zoom="0.35"
     inkscape:cx="32.246113"
     inkscape:cy="-39.805134"
     inkscape:document-units="mm"
     inkscape:current-layer="layer1"
     showgrid="false"
     inkscape:window-width="1366"
     inkscape:window-height="719"
     inkscape:window-x="0"
     inkscape:window-y="25"
     inkscape:window-maximized="1" />
  <metadata
     id="metadata8655">
    <rdf:RDF>
      <cc:Work
         rdf:about="">
        <dc:format>image/svg+xml</dc:format>
        <dc:type
           rdf:resource="http://purl.org/dc/dcmitype/StillImage" />
        <dc:title></dc:title>
      </cc:Work>
    </rdf:RDF>
  </metadata>
  <g
     inkscape:label="Livello 1"
     inkscape:groupmode="layer"
     id="layer1"
     transform="translate(-97.301549,-129.12701)">
    <g
       transform="matrix(0.35277777,0,0,-0.35277777,-40.987954,222.10771)"
       id="g8636">
      <path
         d="m 414.176,253.223 0.001,0.242 -2.201,2.2 c 0.241,0.521 0.147,1.158 -0.282,1.587 -0.429,0.43 -1.067,0.524 -1.587,0.283 l -1.884,1.883 c -0.242,0.242 -0.634,0.242 -0.876,0 v -0.242 l 2.163,-2.163 c -0.276,-0.434 -0.292,-0.986 -0.047,-1.433 -0.468,-0.467 -1.042,-0.814 -1.673,-1.013 -0.51,-0.16 -1.097,-0.529 -1.628,-1.06 -0.53,-0.53 -0.899,-1.117 -1.06,-1.627 -0.198,-0.631 -0.545,-1.205 -1.013,-1.673 l -4.237,-4.237 c -0.217,0.089 -0.458,0.1 -0.681,0.033 l -2.498,2.499 h -0.242 l -0.317,-0.317 v -0.243 l 2.444,-2.444 c -0.202,-0.386 -0.141,-0.874 0.183,-1.198 0.325,-0.325 0.812,-0.386 1.198,-0.184 l 2.445,-2.444 h 0.242 l 0.317,0.317 v 0.242 l -2.498,2.499 c 0.066,0.223 0.055,0.464 -0.034,0.681 l 4.238,4.237 c 0.467,0.468 1.042,0.814 1.673,1.013 0.51,0.16 1.097,0.529 1.627,1.06 0.475,0.474 0.82,0.994 1.003,1.464 0.239,0.616 0.559,1.197 0.972,1.713 l 0.098,0.123 c 0.447,-0.245 0.999,-0.229 1.432,0.048 l 1.846,-1.846 c 0.242,-0.242 0.635,-0.242 0.876,0"
         style="fill:#252e3a;fill-opacity:1;fill-rule:nonzero;stroke:none;stroke-width:0.1"
         id="path2490"
         inkscape:connector-curvature="0" />
      <path
         d="m 397.726,251.076 -1.325,1.325 c -0.283,0.283 -0.741,0.283 -1.024,0 l -3.163,-3.163 c -0.283,-0.283 -0.283,-0.742 0,-1.024 l 1.325,-1.325 c 0.283,-0.283 0.741,-0.283 1.024,0 l 3.163,3.163 c 0.283,0.283 0.283,0.741 0,1.024"
         style="fill:#252e3a;fill-opacity:1;fill-rule:nonzero;stroke:none;stroke-width:0.1"
         id="path2492"
         inkscape:connector-curvature="0" />
      <path
         d="m 404.169,259.122 c 0.153,-0.369 0.577,-0.545 0.946,-0.392 l 4.132,1.713 c 0.37,0.153 0.545,0.577 0.392,0.947 l -0.718,1.73 c -0.153,0.37 -0.576,0.545 -0.946,0.392 l -4.132,-1.713 c -0.369,-0.153 -0.545,-0.577 -0.392,-0.946 l 0.718,-1.731"
         style="fill:#252e3a;fill-opacity:1;fill-rule:nonzero;stroke:none;stroke-width:0.1"
         id="path2494"
         inkscape:connector-curvature="0" />
      <path
         d="m 418.887,252.141 -0.717,1.731 c -0.154,0.369 -0.577,0.545 -0.946,0.392 l -4.133,-1.713 c -0.369,-0.153 -0.544,-0.577 -0.391,-0.947 l 0.717,-1.73 c 0.153,-0.37 0.577,-0.545 0.946,-0.392 l 4.132,1.713 c 0.37,0.153 0.545,0.577 0.392,0.946"
         style="fill:#252e3a;fill-opacity:1;fill-rule:nonzero;stroke:none;stroke-width:0.1"
         id="path2496"
         inkscape:connector-curvature="0" />
      <path
         d="m 405.518,243.284 c -0.283,0.283 -0.742,0.283 -1.024,0 l -3.163,-3.163 c -0.283,-0.282 -0.283,-0.741 0,-1.024 l 1.324,-1.324 c 0.283,-0.283 0.742,-0.283 1.025,0 l 3.162,3.163 c 0.283,0.282 0.283,0.741 0.001,1.024 l -1.325,1.324"
         style="fill:#252e3a;fill-opacity:1;fill-rule:nonzero;stroke:none;stroke-width:0.1"
         id="path2498"
         inkscape:connector-curvature="0" />
    </g>
  </g>
</svg>
