<?xml version="1.0" encoding="UTF-8" standalone="no"?>
<!-- Created with Inkscape (http://www.inkscape.org/) -->

<svg
   xmlns:dc="http://purl.org/dc/elements/1.1/"
   xmlns:cc="http://creativecommons.org/ns#"
   xmlns:rdf="http://www.w3.org/1999/02/22-rdf-syntax-ns#"
   xmlns:svg="http://www.w3.org/2000/svg"
   xmlns="http://www.w3.org/2000/svg"
   xmlns:sodipodi="http://sodipodi.sourceforge.net/DTD/sodipodi-0.dtd"
   xmlns:inkscape="http://www.inkscape.org/namespaces/inkscape"
   width="7.0940146mm"
   height="9.2178602mm"
   viewBox="0 0 7.0940146 9.2178602"
   version="1.1"
   id="svg8743"
   inkscape:version="0.92.3 (2405546, 2018-03-11)"
   sodipodi:docname="24.svg">
  <defs
     id="defs8737" />
  <sodipodi:namedview
     id="base"
     pagecolor="#ffffff"
     bordercolor="#666666"
     borderopacity="1.0"
     inkscape:pageopacity="0.0"
     inkscape:pageshadow="2"
     inkscape:zoom="0.35"
     inkscape:cx="24.834581"
     inkscape:cy="28.848156"
     inkscape:document-units="mm"
     inkscape:current-layer="layer1"
     showgrid="false"
     inkscape:window-width="1366"
     inkscape:window-height="719"
     inkscape:window-x="0"
     inkscape:window-y="25"
     inkscape:window-maximized="1" />
  <metadata
     id="metadata8740">
    <rdf:RDF>
      <cc:Work
         rdf:about="">
        <dc:format>image/svg+xml</dc:format>
        <dc:type
           rdf:resource="http://purl.org/dc/dcmitype/StillImage" />
        <dc:title></dc:title>
      </cc:Work>
    </rdf:RDF>
  </metadata>
  <g
     inkscape:label="Livello 1"
     inkscape:groupmode="layer"
     id="layer1"
     transform="translate(-99.262517,-147.24821)">
    <g
       transform="matrix(0.35277777,0,0,-0.35277777,-25.176754,227.51869)"
       id="g8735">
      <path
         d="m 360.465,214.409 -1.657,-0.005 c -0.128,0 -0.233,0.104 -0.234,0.233 l -0.003,0.943 c 0,0.129 0.104,0.234 0.233,0.235 l 1.656,0.005 c 0.129,0 0.234,-0.104 0.235,-0.233 l 0.003,-0.943 c 0,-0.129 -0.104,-0.234 -0.233,-0.235 z m 0.943,-1.94 c 0.035,-0.328 0.078,-0.737 0.384,-0.885 l 0.234,-0.052 c 0.095,10e-4 0.188,0.025 0.264,0.073 0.155,0.097 0.255,0.314 0.238,1.062 -0.012,0.581 -0.052,0.946 -0.135,1.259 -0.045,0.168 -0.076,0.242 -0.102,0.301 -0.023,0.054 -0.036,0.087 -0.055,0.189 -0.028,0.151 -0.033,0.277 -0.038,0.398 -0.008,0.208 -0.015,0.403 -0.144,0.626 l -0.164,0.224 c -0.125,0.14 -0.275,0.255 -0.445,0.34 l -0.194,-0.064 0.064,-0.194 c 0.138,-0.069 0.258,-0.162 0.359,-0.274 l 0.13,-0.177 c 0.093,-0.16 0.098,-0.299 0.105,-0.492 0.005,-0.126 0.011,-0.268 0.043,-0.44 0.024,-0.133 0.047,-0.186 0.073,-0.249 0.023,-0.053 0.049,-0.114 0.088,-0.262 0.057,-0.212 0.111,-0.503 0.126,-1.191 0.016,-0.701 -0.083,-0.799 -0.102,-0.811 l -0.219,-0.006 c -0.161,0.079 -0.195,0.398 -0.222,0.655 -0.023,0.218 -0.015,0.376 -0.007,0.514 0.011,0.199 0.02,0.371 -0.093,0.562 -0.093,0.159 -0.242,0.283 -0.442,0.371 l -0.006,2.174 c -0.001,0.129 -0.106,0.233 -0.235,0.233 l -2.564,-0.008 c -0.13,0 -0.234,-0.105 -0.234,-0.234 l 0.014,-4.51 -0.123,-0.124 -0.123,-0.124 v -0.1 l 0.124,-0.123 3.279,0.01 0.123,0.124 v 0.1 l -0.124,0.123 -0.124,0.123 -0.006,2.009 0.193,-0.191 c 0.065,-0.111 0.063,-0.203 0.052,-0.399 -0.008,-0.142 -0.017,-0.319 0.008,-0.56"
         style="fill:#252e3a;fill-opacity:1;fill-rule:nonzero;stroke:none;stroke-width:0.1"
         id="path442"
         inkscape:connector-curvature="0" />
      <path
         d="m 358.206,204.949 -1.259,-0.654 c -1.649,2.784 -2.567,5.931 -2.671,9.21 l -0.003,0.128 1.85,0.006 c 0.421,10e-4 0.762,0.344 0.76,0.765 -10e-4,0.421 -0.343,0.761 -0.764,0.76 l -1.824,-0.005 c 0.179,3.326 1.215,6.546 3.002,9.346 l 1.203,-0.615 c 0.112,-0.057 0.231,-0.084 0.349,-0.083 0.276,0 0.542,0.152 0.677,0.415 0.192,0.375 0.043,0.835 -0.332,1.026 l -1.017,0.52 c 0.134,0.178 0.271,0.353 0.412,0.527 0.266,0.326 0.217,0.807 -0.11,1.072 -0.327,0.266 -0.807,0.217 -1.073,-0.11 -1.549,-1.905 -2.738,-4.042 -3.534,-6.352 -0.824,-2.392 -1.201,-4.898 -1.12,-7.449 0.136,-4.265 1.546,-8.324 4.08,-11.739 0.15,-0.203 0.382,-0.309 0.615,-0.308 0.158,0 0.316,0.049 0.452,0.15 0.338,0.251 0.409,0.728 0.158,1.066 -0.094,0.127 -0.187,0.255 -0.277,0.384 l 1.129,0.586 c 0.374,0.194 0.519,0.654 0.325,1.028 -0.194,0.374 -0.654,0.52 -1.028,0.326"
         style="fill:#252e3a;fill-opacity:1;fill-rule:nonzero;stroke:none;stroke-width:0.1"
         id="path444"
         inkscape:connector-curvature="0" />
      <path
         d="m 363.426,203.55 -1.709,-0.006 -0.125,0.125 -0.002,0.552 0.125,0.126 1.51,0.004 0.125,0.126 -0.001,0.493 -0.126,0.125 -1.51,-0.005 -0.126,0.125 -10e-4,0.374 0.125,0.126 1.641,0.005 0.125,0.126 -10e-4,0.495 -0.126,0.125 -2.502,-0.008 -0.125,-0.125 0.01,-3.41 0.126,-0.125 2.569,0.008 0.125,0.126 -10e-4,0.493 -0.126,0.125"
         style="fill:#252e3a;fill-opacity:1;fill-rule:nonzero;stroke:none;stroke-width:0.1"
         id="path446"
         inkscape:connector-curvature="0" />
      <path
         d="m 360.934,221.604 0.609,0.002 0.126,0.126 -0.004,1.239 0.125,0.126 1.213,0.004 0.125,0.126 -10e-4,0.495 -0.126,0.125 -1.214,-0.004 -0.125,0.125 -10e-4,0.427 0.125,0.126 1.445,0.004 0.125,0.126 -0.002,0.495 -0.125,0.125 -2.307,-0.007 -0.125,-0.126 0.011,-3.409 0.126,-0.125"
         style="fill:#252e3a;fill-opacity:1;fill-rule:nonzero;stroke:none;stroke-width:0.1"
         id="path448"
         inkscape:connector-curvature="0" />
      <path
         d="m 371.833,213.796 c -0.188,-0.227 -0.525,-0.258 -0.752,-0.07 -0.226,0.189 -0.258,0.525 -0.069,0.752 0.188,0.227 0.524,0.258 0.751,0.07 0.227,-0.189 0.258,-0.525 0.07,-0.752 z m 0.824,1.033 c -0.449,0.827 -1.516,1.085 -2.294,0.553 l -10.549,-7.491 12.058,4.713 c 0.869,0.362 1.235,1.397 0.785,2.225"
         style="fill:#252e3a;fill-opacity:1;fill-rule:nonzero;stroke:none;stroke-width:0.1"
         id="path450"
         inkscape:connector-curvature="0" />
    </g>
  </g>
</svg>
