<?xml version="1.0" encoding="UTF-8" standalone="no"?>
<!-- Created with Inkscape (http://www.inkscape.org/) -->

<svg
   xmlns:dc="http://purl.org/dc/elements/1.1/"
   xmlns:cc="http://creativecommons.org/ns#"
   xmlns:rdf="http://www.w3.org/1999/02/22-rdf-syntax-ns#"
   xmlns:svg="http://www.w3.org/2000/svg"
   xmlns="http://www.w3.org/2000/svg"
   xmlns:sodipodi="http://sodipodi.sourceforge.net/DTD/sodipodi-0.dtd"
   xmlns:inkscape="http://www.inkscape.org/namespaces/inkscape"
   width="10.741378mm"
   height="8.717597mm"
   viewBox="0 0 10.741378 8.717597"
   version="1.1"
   id="svg8983"
   inkscape:version="0.92.3 (2405546, 2018-03-11)"
   sodipodi:docname="27.svg">
  <defs
     id="defs8977" />
  <sodipodi:namedview
     id="base"
     pagecolor="#ffffff"
     bordercolor="#666666"
     borderopacity="1.0"
     inkscape:pageopacity="0.0"
     inkscape:pageshadow="2"
     inkscape:zoom="0.35"
     inkscape:cx="3.1558201"
     inkscape:cy="-60.668645"
     inkscape:document-units="mm"
     inkscape:current-layer="layer1"
     showgrid="false"
     inkscape:window-width="1366"
     inkscape:window-height="719"
     inkscape:window-x="0"
     inkscape:window-y="25"
     inkscape:window-maximized="1" />
  <metadata
     id="metadata8980">
    <rdf:RDF>
      <cc:Work
         rdf:about="">
        <dc:format>image/svg+xml</dc:format>
        <dc:type
           rdf:resource="http://purl.org/dc/dcmitype/StillImage" />
        <dc:title></dc:title>
      </cc:Work>
    </rdf:RDF>
  </metadata>
  <g
     inkscape:label="Livello 1"
     inkscape:groupmode="layer"
     id="layer1"
     transform="translate(-104.99836,-124.06382)">
    <g
       transform="matrix(0.35277777,0,0,-0.35277777,-231.08597,139.16243)"
       id="g8959">
      <path
         d="m 971.858,42.0281 v 0 c 0,0.4258 0.345,0.7711 0.771,0.7711 h 9.727 c 0.426,0 0.772,-0.3453 0.772,-0.7711 0,-0.4261 -0.346,-0.7722 -0.772,-0.7722 h -9.727 c -0.426,0 -0.771,0.3461 -0.771,0.7722"
         style="fill:#252e3a;fill-opacity:1;fill-rule:nonzero;stroke:none;stroke-width:0.1"
         id="path3862"
         inkscape:connector-curvature="0" />
      <path
         d="m 977.173,39.2629 c -0.132,0 -0.239,0.107 -0.239,0.2402 v 1.361 c 0,0.132 0.107,0.239 0.239,0.239 h 0.639 c 0.132,0 0.239,-0.107 0.239,-0.239 v -1.361 c 0,-0.1332 -0.107,-0.2402 -0.239,-0.2402 h -0.639"
         style="fill:#252e3a;fill-opacity:1;fill-rule:nonzero;stroke:none;stroke-width:0.1"
         id="path3864"
         inkscape:connector-curvature="0" />
      <path
         d="m 975.587,38.1301 v 0.7211 c 0,0.132 0.107,0.2386 0.239,0.2386 h 3.333 c 0.132,0 0.239,-0.1066 0.239,-0.2386 v -0.7211 c 0,-0.1321 -0.107,-0.2391 -0.239,-0.2391 h -3.333 c -0.132,0 -0.239,0.107 -0.239,0.2391"
         style="fill:#252e3a;fill-opacity:1;fill-rule:nonzero;stroke:none;stroke-width:0.1"
         id="path3866"
         inkscape:connector-curvature="0" />
      <path
         d="m 978.78,37.6852 0.158,-0.1582 V 20.625 l -0.158,-0.1578 h -2.575 l -0.158,0.1578 v 16.902 l 0.158,0.1582 h 2.575"
         style="fill:#252e3a;fill-opacity:1;fill-rule:nonzero;stroke:none;stroke-width:0.1"
         id="path3868"
         inkscape:connector-curvature="0" />
      <path
         d="m 974.303,19.982 c 0.572,0.1071 1.211,0.1969 1.909,0.2489 l 0.103,0.0043 h 2.355 l 0.103,-0.0043 c 0.697,-0.052 1.336,-0.1411 1.909,-0.2489 0.61,-0.1129 1.049,-0.648 1.049,-1.2679 0,-0.3461 -0.28,-0.6262 -0.626,-0.6262 h -7.225 c -0.346,0 -0.626,0.2801 -0.626,0.6262 0,0.6199 0.439,1.155 1.049,1.2679"
         style="fill:#252e3a;fill-opacity:1;fill-rule:nonzero;stroke:none;stroke-width:0.1"
         id="path3870"
         inkscape:connector-curvature="0" />
      <path
         d="m 965.875,21.3672 0.318,1.0957 0.177,0.1769 0.103,0.1012 c 0.383,1.0621 1.636,2.2961 3.649,2.7192 1.343,0.2808 3.03,-0.2012 3.785,-1.1364 0.875,-1.0859 1.504,-2.3097 1.736,-3.7457 l -0.103,-0.1402 -0.292,-0.043 -0.138,0.102 c -0.449,2.759 -2.405,4.9543 -4.877,4.4363 -1.818,-0.382 -2.864,-1.323 -3.229,-2.3094 l 0.032,-0.1699 c 0.064,-0.0648 0.093,-0.1609 0.065,-0.2539 l -0.318,-1.0969 c -0.04,-0.1371 -0.184,-0.2172 -0.321,-0.1769 l -0.41,0.1187 c -0.138,0.0403 -0.217,0.184 -0.177,0.3223"
         style="fill:#252e3a;fill-opacity:1;fill-rule:nonzero;stroke:none;stroke-width:0.1"
         id="path3872"
         inkscape:connector-curvature="0" />
      <path
         d="m 968.732,24.2461 c -0.534,-2.166 -1.364,-3.5582 -2.297,-3.5582 -1.609,0 -2.914,4.1473 -2.914,9.2633 0,5.116 1.305,9.2629 2.914,9.2629 1.61,0 2.915,-4.1469 2.915,-9.2629 0,-1.7133 -0.146,-3.3172 -0.401,-4.693 0.293,0.1207 0.612,0.225 0.956,0.3066 0.17,1.3571 0.263,2.8372 0.263,4.3864 0,6.5519 -1.671,11.8636 -3.733,11.8636 h -10.022 c -2.062,0 -3.733,-5.3117 -3.733,-11.8636 0,-6.5524 1.671,-11.8633 3.733,-11.8633 h 10.022 c 1.464,0 2.731,2.6781 3.343,6.5762 -0.382,-0.111 -0.732,-0.2512 -1.046,-0.418"
         style="fill:#252e3a;fill-opacity:1;fill-rule:nonzero;stroke:none;stroke-width:0.1"
         id="path3874"
         inkscape:connector-curvature="0" />
    </g>
  </g>
</svg>
