<?xml version="1.0" encoding="UTF-8" standalone="no"?>
<!-- Created with Inkscape (http://www.inkscape.org/) -->

<svg
   xmlns:dc="http://purl.org/dc/elements/1.1/"
   xmlns:cc="http://creativecommons.org/ns#"
   xmlns:rdf="http://www.w3.org/1999/02/22-rdf-syntax-ns#"
   xmlns:svg="http://www.w3.org/2000/svg"
   xmlns="http://www.w3.org/2000/svg"
   xmlns:sodipodi="http://sodipodi.sourceforge.net/DTD/sodipodi-0.dtd"
   xmlns:inkscape="http://www.inkscape.org/namespaces/inkscape"
   width="7.7326732mm"
   height="5.0178061mm"
   viewBox="0 0 7.7326732 5.0178061"
   version="1.1"
   id="svg6689"
   inkscape:version="0.92.3 (2405546, 2018-03-11)"
   sodipodi:docname="7.svg">
  <defs
     id="defs6683" />
  <sodipodi:namedview
     id="base"
     pagecolor="#ffffff"
     bordercolor="#666666"
     borderopacity="1.0"
     inkscape:pageopacity="0.0"
     inkscape:pageshadow="2"
     inkscape:zoom="0.35"
     inkscape:cx="326.0415"
     inkscape:cy="275.19675"
     inkscape:document-units="mm"
     inkscape:current-layer="layer1"
     showgrid="false"
     inkscape:window-width="1366"
     inkscape:window-height="719"
     inkscape:window-x="0"
     inkscape:window-y="25"
     inkscape:window-maximized="1" />
  <metadata
     id="metadata6686">
    <rdf:RDF>
      <cc:Work
         rdf:about="">
        <dc:format>image/svg+xml</dc:format>
        <dc:type
           rdf:resource="http://purl.org/dc/dcmitype/StillImage" />
        <dc:title></dc:title>
      </cc:Work>
    </rdf:RDF>
  </metadata>
  <g
     inkscape:label="Livello 1"
     inkscape:groupmode="layer"
     id="layer1"
     transform="translate(-19.568187,-216.628)">
    <g
       transform="matrix(0.35277777,0,0,-0.35277777,-0.61468771,294.79828)"
       id="g6669">
      <path
         d="m 63.7281,212.359 c 0.7438,0 1.3492,-0.605 1.3492,-1.349 0,-0.744 -0.6054,-1.35 -1.3492,-1.35 -0.7441,0 -1.3496,0.606 -1.3496,1.35 0,0.744 0.6055,1.349 1.3496,1.349"
         style="fill:#252e3a;fill-opacity:1;fill-rule:nonzero;stroke:none;stroke-width:0.1"
         id="path410"
         inkscape:connector-curvature="0" />
      <path
         d="m 61.2953,211.01 c 0,1.341 1.0914,2.432 2.4328,2.432 1.341,0 2.4324,-1.091 2.4324,-2.432 0,-1.342 -1.0914,-2.433 -2.4324,-2.433 -1.3414,0 -2.4328,1.091 -2.4328,2.433 z m 6.1621,2.901 c 0,2.587 2.1055,4.693 4.693,4.693 2.5875,0 4.693,-2.106 4.693,-4.693 0,-2.588 -2.1055,-4.693 -4.693,-4.693 -2.5875,0 -4.693,2.105 -4.693,4.693 z m -10.2461,-4.764 v 0 c 0,-1.037 0.8797,-1.855 1.9137,-1.781 l 15.1992,1.097 c 2.2555,0.163 4.1262,1.826 4.5289,4.051 0.2071,1.142 0.3262,2.449 0.2586,3.884 -0.0496,1.064 -0.1941,2.04 -0.3867,2.912 -0.3875,1.756 -2.2695,2.737 -3.9352,2.059 -2.3203,-0.944 -4.8929,-2.175 -7.5835,-3.788 -3.9524,-2.37 -7.0739,-4.915 -9.4336,-7.135 -0.3586,-0.337 -0.5614,-0.807 -0.5614,-1.299"
         style="fill:#252e3a;fill-opacity:1;fill-rule:nonzero;stroke:none;stroke-width:0.1"
         id="path412"
         inkscape:connector-curvature="0" />
      <path
         d="m 74.4125,213.911 -0.0016,0.093 -0.0015,0.048 -0.0031,0.042 -0.0067,0.083 -0.0101,0.088 c -0.0188,0.117 -0.0379,0.234 -0.07,0.346 l -0.025,0.084 -0.0273,0.083 -0.0289,0.083 -0.032,0.08 c -0.0454,0.106 -0.0958,0.209 -0.1524,0.307 l -0.0434,0.072 -0.0449,0.071 -0.0961,0.136 -0.1015,0.128 -0.0532,0.06 -0.0539,0.059 -0.1109,0.111 -0.0566,0.053 -0.0575,0.049 -0.1156,0.095 -0.1172,0.084 c -0.1558,0.107 -0.3113,0.192 -0.4554,0.258 l -0.1055,0.046 -0.1008,0.04 -0.0945,0.033 -0.0875,0.028 -0.0797,0.024 -0.0711,0.019 -0.1141,0.028 -0.0965,0.022 0.0977,0.017 0.0539,0.008 0.0649,0.007 0.0761,0.007 0.0867,0.003 c 0.1227,0.003 0.2735,-0.003 0.445,-0.032 0.1715,-0.028 0.364,-0.079 0.566,-0.162 0.2019,-0.083 0.4105,-0.203 0.6121,-0.357 0.1004,-0.078 0.1988,-0.166 0.2922,-0.262 0.0953,-0.096 0.1816,-0.203 0.264,-0.317 0.0844,-0.113 0.1559,-0.238 0.2231,-0.367 0.068,-0.129 0.1219,-0.267 0.1683,-0.408 0.0465,-0.142 0.0817,-0.289 0.1051,-0.438 l 0.0153,-0.112 0.0109,-0.118 0.0047,-0.06 0.0023,-0.052 0.0032,-0.11 c -0.0028,-0.152 -0.0133,-0.303 -0.0364,-0.452 l -0.0445,-0.222 -0.0281,-0.109 -0.0328,-0.107 c -0.0461,-0.142 -0.1012,-0.279 -0.1688,-0.408 -0.0668,-0.129 -0.1387,-0.254 -0.223,-0.367 -0.0825,-0.113 -0.1688,-0.221 -0.2641,-0.316 -0.0934,-0.097 -0.1914,-0.185 -0.2918,-0.262 -0.202,-0.155 -0.4105,-0.274 -0.6121,-0.358 -0.2016,-0.083 -0.3941,-0.134 -0.5656,-0.162 -0.1715,-0.029 -0.3223,-0.035 -0.445,-0.032 l -0.0867,0.003 -0.0765,0.007 -0.0653,0.006 -0.0535,0.009 -0.0973,0.017 0.0965,0.022 0.1145,0.028 0.0707,0.018 0.0797,0.024 0.0875,0.029 0.0945,0.032 0.1008,0.04 0.1055,0.046 c 0.1441,0.066 0.3,0.15 0.4558,0.258 l 0.1172,0.084 0.1156,0.094 0.2254,0.213 0.0535,0.06 0.0536,0.06 0.1015,0.128 0.0961,0.136 0.0449,0.071 0.0434,0.072 c 0.0566,0.098 0.1062,0.201 0.1519,0.307 l 0.0325,0.081 0.0289,0.082 0.0269,0.083 0.025,0.084 c 0.0324,0.113 0.0512,0.229 0.0696,0.346 0.0164,0.117 0.0222,0.236 0.023,0.355 z m -5.8719,0 c 0,-1.991 1.6196,-3.61 3.6098,-3.61 1.9906,0 3.6098,1.619 3.6098,3.61 0,1.99 -1.6192,3.609 -3.6098,3.609 -1.9902,0 -3.6098,-1.619 -3.6098,-3.609"
         style="fill:#252e3a;fill-opacity:1;fill-rule:nonzero;stroke:none;stroke-width:0.1"
         id="path414"
         inkscape:connector-curvature="0" />
    </g>
  </g>
</svg>
